<svg width="93" height="92" viewBox="0 0 93 92" fill="none" xmlns="http://www.w3.org/2000/svg">
<path fill-rule="evenodd" clip-rule="evenodd" d="M41.5962 34.6503L41.5974 34.6494C37.7792 29.7361 35.8649 27.0018 35.8065 23.8502C35.742 20.378 37.9474 17.3285 42.3582 11.2293L50.4791 0L53.0108 3.24043C57.6448 9.17171 59.9619 12.1374 60.0263 15.6096C60.0908 19.0818 57.8854 22.1314 53.4745 28.2305L49.1595 34.1973L65.0774 54.5714L65.0505 54.5925C72.3612 64.5224 70.4852 78.5307 60.7051 86.1718C50.7494 93.95 36.3732 92.1848 28.5949 82.2291C20.8166 72.2734 22.5818 57.8972 32.5375 50.1189C37.7132 46.0752 44.0836 44.6108 50.1006 45.5356L41.5962 34.6503ZM50.817 64.6992C52.5848 66.9619 52.1837 70.2292 49.921 71.997C47.6583 73.7648 44.391 73.3636 42.6232 71.1009C40.8554 68.8383 41.2566 65.5709 43.5193 63.8032C45.7819 62.0354 49.0493 62.4366 50.817 64.6992Z" fill="black"/>
</svg>
