<svg width="32" height="32" viewBox="0 0 32 32" fill="none" xmlns="http://www.w3.org/2000/svg">
<g clip-path="url(#clip0_880_8496)">
<path d="M0 16C0 7.16344 7.16344 0 16 0C24.8366 0 32 7.16344 32 16C32 24.8366 24.8366 32 16 32C7.16344 32 0 24.8366 0 16Z" fill="#F2F5F8"/>
<path fill-rule="evenodd" clip-rule="evenodd" d="M14.6805 16.0945L10.4143 20.3607L11.8285 21.7749L16.0948 17.5087L20.361 21.7749L21.7752 20.3607L17.509 16.0945L21.7752 11.8283L20.3609 10.4141L16.0948 14.6802L11.8286 10.4141L10.4144 11.8283L14.6805 16.0945Z" fill="black"/>
</g>
<defs>
<clipPath id="clip0_880_8496">
<path d="M0 16C0 7.16344 7.16344 0 16 0C24.8366 0 32 7.16344 32 16C32 24.8366 24.8366 32 16 32C7.16344 32 0 24.8366 0 16Z" fill="white"/>
</clipPath>
</defs>
</svg>
