<?xml version="1.0" standalone="no"?><!DOCTYPE svg PUBLIC "-//W3C//DTD SVG 1.1//EN" "http://www.w3.org/Graphics/SVG/1.1/DTD/svg11.dtd"><svg t="1721289978587" class="icon" viewBox="0 0 1024 1024" version="1.1" xmlns="http://www.w3.org/2000/svg" p-id="16196" xmlns:xlink="http://www.w3.org/1999/xlink" width="200" height="200"><path d="M0 0h1024v1024H0z" fill="#FFFFFF" fill-opacity="0" p-id="16197"></path><path d="M680.226133 570.094933L393.984 190.976 119.790933 382.464a55.261867 55.261867 0 0 0-12.1856 78.967467l176.810667 230.656 395.810133-121.992534z" fill="#0668CA" p-id="16198"></path><path d="M680.226133 570.094933L393.984 190.976l223.061333-148.224a57.821867 57.821867 0 0 1 79.837867 15.786667l175.957333 260.744533-192.6144 250.811733z" fill="#0050A0" p-id="16199"></path><path d="M872.925867 319.3856l-0.136534-0.273067v0.273067h0.136534zM576.273067 251.904a70.434133 70.434133 0 0 1 47.752533-36.181333l156.552533-33.211734L687.786667 44.987733a61.661867 61.661867 0 0 0-63.0272-25.873066L268.629333 91.2384l220.7232 326.912 86.920534-166.2464z" fill="#DCEDFF" p-id="16200"></path><path d="M346.606933 336.9472l142.370134 81.8176 0.375466-0.6144L268.629333 91.2384 94.173867 379.733333a61.3888 61.3888 0 0 0 3.857066 69.137067l59.4432 77.602133 130.440534-177.066666a44.9024 44.9024 0 0 1 58.692266-12.4416z m142.9504 82.2784l0.273067-0.273067-0.426667 0.136534 0.1536 0.136533z m-205.141333 272.861867l9.728-13.056-9.728 12.936533v0.119467zM892.8768 158.634667l-112.298667 23.876266 92.16 136.533334 42.274134-136.157867a19.029333 19.029333 0 0 0-22.135467-24.234667z" fill="#8AC5FF" p-id="16201"></path><path d="M624.0256 215.722667a70.724267 70.724267 0 0 0-47.752533 36.181333l-87.04 166.2464 0.375466 0.6144 382.976-99.4816v-0.238933l-92.125866-136.6528-156.433067 33.314133z" fill="#CAC134" p-id="16202"></path><path d="M624.0256 215.722667a70.724267 70.724267 0 0 0-47.752533 36.181333l-87.04 166.2464 0.375466 0.6144 382.976-99.4816v-0.238933l-92.125866-136.6528-156.433067 33.314133z" fill="#8AC5FF" p-id="16203"></path><path d="M128 566.1184a32.768 32.768 0 0 0 11.0592 48.503467l145.237333 77.4656v-0.119467L157.354667 526.336 128 566.101333z" fill="#59ACFF" p-id="16204"></path><path d="M488.8576 419.157333l0.119467-0.256-142.370134-81.8176a45.0048 45.0048 0 0 0-58.709333 12.288L157.354667 526.336l126.976 165.632 9.813333-12.936533 195.362133-260.010667-0.256-0.119467-0.375466 0.238934z" fill="#FFBA3B" p-id="16205"></path><path d="M488.8576 419.157333l0.119467-0.256-142.370134-81.8176a45.0048 45.0048 0 0 0-58.709333 12.288L157.354667 526.336l126.976 165.632 9.813333-12.936533 195.362133-260.010667-0.256-0.119467-0.375466 0.238934z" fill="#59ACFF" p-id="16206"></path><path d="M617.0624 738.7136L305.8176 842.922667a25.941333 25.941333 0 0 1-34.2016-27.101867l12.8-123.733333 395.810133-121.992534-17.408 117.76a70.280533 70.280533 0 0 1-45.755733 50.858667z" fill="#59ACFF" p-id="16207"></path><path d="M936.004267 308.599467l-131.4304 150.954666a169.4208 169.4208 0 0 1-30.72 29.713067l-93.866667 81.066667 192.6144-250.914134 52.462933-24.490666c8.704-4.113067 16.896 6.212267 10.939734 13.6704z" fill="#59ACFF" p-id="16208"></path><path d="M209.442133 922.282667c0 44.817067 139.554133 81.152 311.688534 81.152 172.1344 0 311.671467-36.334933 311.671466-81.152 0-44.8-139.537067-81.134933-311.671466-81.134934s-311.688533 36.334933-311.688534 81.134934z" fill="#A4BBD1" opacity=".6" p-id="16209"></path></svg>