<svg width="48" height="48" viewBox="0 0 48 48" fill="none" xmlns="http://www.w3.org/2000/svg">
<rect width="48" height="48" rx="4" fill="#F2F5F8"/>
<path opacity="0.25" d="M8 40.24H40V8.24H8V40.24Z" fill="white"/>
<path fill-rule="evenodd" clip-rule="evenodd" d="M19.5 19.55C19.5 17.0371 21.5147 15 24 15C26.4853 15 28.5 17.0371 28.5 19.55V21.0093C29.2211 21.0291 29.6842 21.0912 30.0667 21.2861C30.5606 21.5378 30.9622 21.9393 31.2139 22.4333C31.5 22.9948 31.5 23.7299 31.5 25.2V28.8C31.5 30.2701 31.5 31.0052 31.2139 31.5667C30.9622 32.0606 30.5606 32.4622 30.0667 32.7139C29.5052 33 28.7701 33 27.3 33H20.7C19.2299 33 18.4948 33 17.9333 32.7139C17.4393 32.4622 17.0378 32.0606 16.7861 31.5667C16.5 31.0052 16.5 30.2701 16.5 28.8V25.2C16.5 23.7299 16.5 22.9948 16.7861 22.4333C17.0378 21.9393 17.4393 21.5378 17.9333 21.2861C18.3158 21.0912 18.7789 21.0291 19.5 21.0093V19.55ZM26.4231 19.55V21H21.5769V19.55C21.5769 18.1969 22.6618 17.1 24 17.1C25.3382 17.1 26.4231 18.1969 26.4231 19.55ZM25.5 26.25C25.5 26.8052 25.1984 27.29 24.75 27.5493V29.25H23.25V27.5493C22.8016 27.29 22.5 26.8052 22.5 26.25C22.5 25.4216 23.1716 24.75 24 24.75C24.8284 24.75 25.5 25.4216 25.5 26.25Z" fill="black"/>
</svg>
