<svg width="64" height="64" viewBox="0 0 64 64" fill="none" xmlns="http://www.w3.org/2000/svg">
<rect width="64" height="64" rx="32" fill="#0C9CE3"/>
<path fill-rule="evenodd" clip-rule="evenodd" d="M22.4285 21H41.6033C42.336 21 42.9467 21.1223 43.6795 21.4891C44.5344 21.8559 45.0229 22.4672 45.2672 22.9563C45.2672 22.9563 45.2672 23.0786 45.3893 23.0786C45.7557 23.69 46 24.4236 46 25.2795C46 26.0131 45.8779 26.7467 45.3893 27.4803L33.2983 48.2664C33.054 48.7555 32.5655 49 31.9548 49C31.4663 49 30.9778 48.7555 30.6114 48.2664L18.7646 27.4803C18.5203 26.9913 18.0318 26.3799 18.0318 25.4017C17.9096 24.5459 18.1539 23.8122 18.5203 23.0786C18.8867 22.345 19.4974 21.7336 20.3523 21.4891C21.0851 21 21.94 21 22.4285 21ZM30.4892 23.9345H22.4285C21.94 23.9345 21.6957 23.9345 21.5736 24.0568C21.3293 24.179 21.2072 24.3013 21.0851 24.5459C20.9629 24.6681 20.9629 24.9127 20.9629 25.1572C20.9629 25.2795 21.0851 25.4017 21.3293 25.8908L30.4892 41.786V23.9345ZM33.4204 23.9345V41.9083L42.7024 25.8908C42.8246 25.6463 42.8246 25.4017 42.8246 25.1572C42.8246 24.9127 42.8246 24.6681 42.7024 24.5459C42.5803 24.4236 42.5803 24.3013 42.4582 24.3013L42.336 24.179C42.0918 24.0568 41.8475 24.0568 41.4811 24.0568H33.4204V23.9345Z" fill="white"/>
</svg>
