<svg width="12" height="13" viewBox="0 0 12 13" fill="none" xmlns="http://www.w3.org/2000/svg">
<path d="M11.625 6.875C11.625 9.9816 9.1066 12.5 6 12.5C2.8934 12.5 0.375 9.9816 0.375 6.875C0.375 3.7684 2.8934 1.25 6 1.25C9.1066 1.25 11.625 3.7684 11.625 6.875Z" fill="url(#paint0_linear_928_1518)"/>
<circle cx="6" cy="6.125" r="5.625" fill="#EBEBEB"/>
<path d="M10.5 6.125C10.5 8.61028 8.48528 10.625 6 10.625C3.51472 10.625 1.5 8.61028 1.5 6.125C1.5 3.63972 3.51472 1.625 6 1.625C8.48528 1.625 10.5 3.63972 10.5 6.125Z" fill="url(#paint1_linear_928_1518)"/>
<path fill-rule="evenodd" clip-rule="evenodd" d="M6 10.25C8.27817 10.25 10.125 8.40317 10.125 6.125C10.125 3.84683 8.27817 2 6 2C3.72183 2 1.875 3.84683 1.875 6.125C1.875 8.40317 3.72183 10.25 6 10.25ZM6 10.625C8.48528 10.625 10.5 8.61028 10.5 6.125C10.5 3.63972 8.48528 1.625 6 1.625C3.51472 1.625 1.5 3.63972 1.5 6.125C1.5 8.61028 3.51472 10.625 6 10.625Z" fill="#CDCDCD"/>
<path fill-rule="evenodd" clip-rule="evenodd" d="M5.62737 5.31959L5.62746 5.31952C5.34431 4.95516 5.20236 4.75239 5.19802 4.51868C5.19324 4.26119 5.35679 4.03504 5.68388 3.58274L6.28611 2.75L6.47386 2.9903C6.8175 3.43015 6.98933 3.65008 6.99411 3.90757C6.99889 4.16506 6.83534 4.39121 6.50824 4.84351L6.18825 5.28599L7.36869 6.79689L7.36669 6.79845C7.90883 7.53483 7.76971 8.57366 7.04445 9.1403C6.30615 9.71712 5.24004 9.58622 4.66323 8.84792C4.08641 8.10963 4.21731 7.04352 4.9556 6.46671C5.33942 6.16683 5.81184 6.05824 6.25804 6.12681L5.62737 5.31959ZM6.31117 7.54795C6.44226 7.71574 6.41251 7.95804 6.24472 8.08913C6.07693 8.22023 5.83463 8.19048 5.70353 8.02268C5.57244 7.85489 5.60219 7.61259 5.76998 7.4815C5.93778 7.3504 6.18008 7.38015 6.31117 7.54795Z" fill="#ADADAD"/>
<defs>
<linearGradient id="paint0_linear_928_1518" x1="1.6875" y1="10.8125" x2="12.375" y2="11" gradientUnits="userSpaceOnUse">
<stop stop-color="#ADADAD"/>
<stop offset="1" stop-color="#CDCDCD"/>
</linearGradient>
<linearGradient id="paint1_linear_928_1518" x1="3.75" y1="2.375" x2="9.1875" y2="9.875" gradientUnits="userSpaceOnUse">
<stop stop-color="#D7D7D7"/>
<stop offset="0.535" stop-color="#FEFEFE"/>
<stop offset="1" stop-color="#D7D7D7"/>
</linearGradient>
</defs>
</svg>
