<svg width="180" height="180" viewBox="0 0 180 180" fill="none" xmlns="http://www.w3.org/2000/svg">
<path d="M136 64L90 18L44 64H136Z" fill="#FF80F2"/>
<path d="M136 116L90 162L44 116H136Z" fill="#6687FF"/>
<path d="M136 64L90 18L90 64H136Z" fill="url(#paint0_linear_43_16992)"/>
<path d="M139.333 106L139.333 40.6667L74.0001 40.6667L139.333 106Z" fill="url(#paint1_linear_43_16992)"/>
<path d="M139.333 105.999L139.333 40.6661L106.667 73.3327L139.333 105.999Z" fill="url(#paint2_linear_43_16992)"/>
<path d="M139.333 74L139.333 139.333L74.0001 139.333L139.333 74Z" fill="url(#paint3_linear_43_16992)"/>
<path d="M139.333 74.0006L139.333 139.334L106.667 106.667L139.333 74.0006Z" fill="url(#paint4_linear_43_16992)"/>
<path d="M40.6666 106L40.6666 40.6667L106 40.6667L40.6666 106Z" fill="url(#paint5_linear_43_16992)"/>
<path d="M40.6667 105.999L40.6667 40.6661L73.3334 73.3327L40.6667 105.999Z" fill="url(#paint6_linear_43_16992)"/>
<path d="M40.6666 74L40.6666 139.333L106 139.333L40.6666 74Z" fill="url(#paint7_linear_43_16992)"/>
<path d="M40.6667 74.0006L40.6667 139.334L73.3334 106.667L40.6667 74.0006Z" fill="url(#paint8_linear_43_16992)"/>
<path d="M136 116L90 162L90 116H136Z" fill="url(#paint9_linear_43_16992)"/>
<g filter="url(#filter0_i_43_16992)">
<path d="M160 36.5C146.8 54.9 119.667 63.1667 108 65L122.5 94.5C163.5 78 168.5 53.5 160 36.5Z" fill="url(#paint10_linear_43_16992)"/>
</g>
<g filter="url(#filter1_i_43_16992)">
<path d="M160 36.5C160 65 133.5 75 122.5 79.5V94.5C163.5 78 168.5 53.5 160 36.5Z" fill="url(#paint11_linear_43_16992)"/>
</g>
<g filter="url(#filter2_i_43_16992)">
<path d="M121.5 132C156.7 131.2 165 107.5 166 90C147.5 103 126.5 106.833 121.5 104.5V132Z" fill="url(#paint12_linear_43_16992)"/>
</g>
<g filter="url(#filter3_i_43_16992)">
<path d="M121.5 132C156.7 131.2 165 107.5 166 90C160.105 112 141.5 123.5 122.5 124.5C122.5 130.5 121.5 128 121.5 132Z" fill="url(#paint13_linear_43_16992)"/>
</g>
<g filter="url(#filter4_i_43_16992)">
<path d="M171 54.5C159.5 70.5 140 80.3333 129.5 83C129.5 83 131.5 97 131.5 112.5C166 103.5 179.5 77 171 54.5Z" fill="url(#paint14_linear_43_16992)"/>
</g>
<g filter="url(#filter5_i_43_16992)">
<path d="M171 54.5C171.934 78.5 146 97 133.5 100C133.5 100 132.5 106 131.5 112.5C166 103.5 179.5 77 171 54.5Z" fill="url(#paint15_linear_43_16992)"/>
</g>
<g filter="url(#filter6_di_43_16992)">
<path d="M143.399 123C149.465 113.789 153 102.728 153 90.8317C153 78.2106 149.021 66.5292 142.262 57L106 89.4905L143.399 123Z" fill="url(#paint16_linear_43_16992)"/>
</g>
<g filter="url(#filter7_i_43_16992)">
<path d="M19.4702 36.5C32.6702 54.9 59.8035 63.1667 71.4702 65L56.9702 94.5C15.9702 78 10.9702 53.5 19.4702 36.5Z" fill="url(#paint17_linear_43_16992)"/>
</g>
<g filter="url(#filter8_i_43_16992)">
<path d="M19.4702 36.5C19.4702 65 45.9702 75 56.9702 79.5V94.5C15.9702 78 10.9702 53.5 19.4702 36.5Z" fill="url(#paint18_linear_43_16992)"/>
</g>
<g filter="url(#filter9_i_43_16992)">
<path d="M57.9702 132C22.7702 131.2 14.4702 107.5 13.4702 90C31.9702 103 52.9702 106.833 57.9702 104.5V132Z" fill="url(#paint19_linear_43_16992)"/>
</g>
<g filter="url(#filter10_i_43_16992)">
<path d="M57.9702 132C22.7702 131.2 14.4702 107.5 13.4702 90C19.3652 112 37.9702 123.5 56.9702 124.5C56.9702 130.5 57.9702 128 57.9702 132Z" fill="url(#paint20_linear_43_16992)"/>
</g>
<g filter="url(#filter11_i_43_16992)">
<path d="M8.47021 54.5C19.9702 70.5 39.4702 80.3333 49.9702 83C49.9702 83 47.9702 97 47.9702 112.5C13.4702 103.5 -0.0297852 77 8.47021 54.5Z" fill="url(#paint21_linear_43_16992)"/>
</g>
<g filter="url(#filter12_i_43_16992)">
<path d="M8.4702 54.5C7.53598 78.5 33.4702 97 45.9702 100C45.9702 100 46.9702 106 47.9702 112.5C13.4702 103.5 -0.0298004 77 8.4702 54.5Z" fill="url(#paint22_linear_43_16992)"/>
</g>
<g filter="url(#filter13_di_43_16992)">
<path d="M36.601 123C30.5351 113.789 27 102.728 27 90.8317C27 78.2106 30.9791 66.5292 37.7382 57L74 89.4905L36.601 123Z" fill="url(#paint23_linear_43_16992)"/>
</g>
<g filter="url(#filter14_d_43_16992)">
<circle cx="90" cy="90" r="54" fill="url(#paint24_radial_43_16992)"/>
</g>
<circle cx="90" cy="90" r="48" fill="url(#paint25_radial_43_16992)" stroke="url(#paint26_linear_43_16992)" stroke-width="1.6"/>
<g filter="url(#filter15_i_43_16992)">
<circle cx="90" cy="90" r="42" fill="url(#paint27_radial_43_16992)"/>
</g>
<path opacity="0.5" d="M124 90.4068C124 109.409 108.778 86.7576 90 86.7576C71.2223 86.7576 56 109.409 56 90.4068C56 71.4045 71.2223 56 90 56C108.778 56 124 71.4045 124 90.4068Z" fill="url(#paint28_linear_43_16992)"/>
<mask id="path-31-outside-1_43_16992" maskUnits="userSpaceOnUse" x="66" y="70" width="49" height="40" fill="black">
<rect fill="white" x="66" y="70" width="49" height="40"/>
<path fill-rule="evenodd" clip-rule="evenodd" d="M69 104.293C69 104.891 69 105.189 69.1163 105.418C69.2185 105.618 69.3817 105.781 69.5824 105.884C69.8106 106 70.1093 106 70.7067 106H76.4218C77.0191 106 77.3178 106 77.546 105.884C77.7467 105.781 77.9099 105.618 78.0122 105.418C78.1284 105.189 78.1284 104.891 78.1284 104.293V75.7067C78.1284 75.1093 78.1284 74.8106 78.0122 74.5824C77.9099 74.3817 77.7467 74.2185 77.546 74.1163C77.3178 74 77.0191 74 76.4218 74H70.7067C70.1093 74 69.8106 74 69.5824 74.1163C69.3817 74.2185 69.2185 74.3817 69.1163 74.5824C69 74.8106 69 75.1093 69 75.7067V104.293ZM80.6736 103.44C80.1889 104.28 79.9465 104.7 79.9828 105.045C80.0145 105.346 80.1722 105.619 80.4167 105.796C80.6971 106 81.182 106 82.1518 106H88.7564C89.1292 106 89.3155 106 89.4811 105.944C89.6275 105.895 89.7615 105.815 89.8737 105.708C90.0006 105.588 90.0882 105.424 90.2632 105.095L95.164 95.8801C95.2283 95.7592 95.3541 95.6836 95.491 95.6836C95.6237 95.6836 95.7462 95.7546 95.8123 95.8696L101.137 105.143C101.316 105.455 101.406 105.611 101.532 105.725C101.643 105.825 101.774 105.901 101.916 105.948C102.077 106 102.257 106 102.617 106H109.438C110.398 106 110.878 106 111.158 105.798C111.402 105.622 111.56 105.351 111.594 105.052C111.632 104.71 111.396 104.291 110.924 103.455L103.384 90.0885C103.316 89.9679 103.28 89.8318 103.28 89.6933C103.28 89.5501 103.318 89.4096 103.391 89.2861L110.852 76.5704C111.346 75.7278 111.593 75.3065 111.559 74.9604C111.529 74.6586 111.371 74.3839 111.126 74.2051C110.845 74 110.357 74 109.38 74H102.805C102.43 74 102.243 74 102.077 74.0561C101.93 74.1057 101.796 74.1868 101.684 74.2936C101.557 74.4144 101.469 74.5799 101.295 74.9111L96.3919 84.2151C96.3281 84.3362 96.2025 84.412 96.0656 84.412C95.9331 84.412 95.8107 84.3408 95.7451 84.2256L90.4182 74.8628C90.2395 74.5486 90.1501 74.3915 90.0243 74.2772C89.913 74.1761 89.7815 74.0996 89.6386 74.0529C89.477 74 89.2963 74 88.9348 74H82.1743C81.1981 74 80.71 74 80.4291 74.2049C80.1841 74.3837 80.0268 74.6582 79.9964 74.9599C79.9616 75.3059 80.2083 75.727 80.7017 76.5694L88.2643 89.4791C88.3359 89.6013 88.3736 89.7404 88.3736 89.882C88.3736 90.0219 88.3368 90.1593 88.2669 90.2805L80.6736 103.44Z"/>
</mask>
<path fill-rule="evenodd" clip-rule="evenodd" d="M69 104.293C69 104.891 69 105.189 69.1163 105.418C69.2185 105.618 69.3817 105.781 69.5824 105.884C69.8106 106 70.1093 106 70.7067 106H76.4218C77.0191 106 77.3178 106 77.546 105.884C77.7467 105.781 77.9099 105.618 78.0122 105.418C78.1284 105.189 78.1284 104.891 78.1284 104.293V75.7067C78.1284 75.1093 78.1284 74.8106 78.0122 74.5824C77.9099 74.3817 77.7467 74.2185 77.546 74.1163C77.3178 74 77.0191 74 76.4218 74H70.7067C70.1093 74 69.8106 74 69.5824 74.1163C69.3817 74.2185 69.2185 74.3817 69.1163 74.5824C69 74.8106 69 75.1093 69 75.7067V104.293ZM80.6736 103.44C80.1889 104.28 79.9465 104.7 79.9828 105.045C80.0145 105.346 80.1722 105.619 80.4167 105.796C80.6971 106 81.182 106 82.1518 106H88.7564C89.1292 106 89.3155 106 89.4811 105.944C89.6275 105.895 89.7615 105.815 89.8737 105.708C90.0006 105.588 90.0882 105.424 90.2632 105.095L95.164 95.8801C95.2283 95.7592 95.3541 95.6836 95.491 95.6836C95.6237 95.6836 95.7462 95.7546 95.8123 95.8696L101.137 105.143C101.316 105.455 101.406 105.611 101.532 105.725C101.643 105.825 101.774 105.901 101.916 105.948C102.077 106 102.257 106 102.617 106H109.438C110.398 106 110.878 106 111.158 105.798C111.402 105.622 111.56 105.351 111.594 105.052C111.632 104.71 111.396 104.291 110.924 103.455L103.384 90.0885C103.316 89.9679 103.28 89.8318 103.28 89.6933C103.28 89.5501 103.318 89.4096 103.391 89.2861L110.852 76.5704C111.346 75.7278 111.593 75.3065 111.559 74.9604C111.529 74.6586 111.371 74.3839 111.126 74.2051C110.845 74 110.357 74 109.38 74H102.805C102.43 74 102.243 74 102.077 74.0561C101.93 74.1057 101.796 74.1868 101.684 74.2936C101.557 74.4144 101.469 74.5799 101.295 74.9111L96.3919 84.2151C96.3281 84.3362 96.2025 84.412 96.0656 84.412C95.9331 84.412 95.8107 84.3408 95.7451 84.2256L90.4182 74.8628C90.2395 74.5486 90.1501 74.3915 90.0243 74.2772C89.913 74.1761 89.7815 74.0996 89.6386 74.0529C89.477 74 89.2963 74 88.9348 74H82.1743C81.1981 74 80.71 74 80.4291 74.2049C80.1841 74.3837 80.0268 74.6582 79.9964 74.9599C79.9616 75.3059 80.2083 75.727 80.7017 76.5694L88.2643 89.4791C88.3359 89.6013 88.3736 89.7404 88.3736 89.882C88.3736 90.0219 88.3368 90.1593 88.2669 90.2805L80.6736 103.44Z" fill="#FED0FF"/>
<path d="M88.2669 90.2805L90.8654 91.7798L88.2669 90.2805ZM88.2643 89.4791L90.8528 87.9627L88.2643 89.4791ZM80.4291 74.2049L78.6611 71.7812L80.4291 74.2049ZM79.9964 74.9599L82.9813 75.2603L79.9964 74.9599ZM90.4182 74.8628L93.0257 73.3792L90.4182 74.8628ZM90.0243 74.2772L88.007 76.4977L90.0243 74.2772ZM89.6386 74.0529L88.7061 76.9043L89.6386 74.0529ZM95.7451 84.2256L93.1376 85.7091L95.7451 84.2256ZM96.3919 84.2151L99.0459 85.6137L96.3919 84.2151ZM102.077 74.0561L103.037 76.8984L102.077 74.0561ZM101.295 74.9111L98.6408 73.5125L101.295 74.9111ZM101.684 74.2936L103.751 76.468L101.684 74.2936ZM110.852 76.5704L113.439 78.0886L110.852 76.5704ZM111.559 74.9604L114.544 74.6615L111.559 74.9604ZM111.126 74.2051L109.358 76.6284L111.126 74.2051ZM103.391 89.2861L100.803 87.7679L103.391 89.2861ZM103.384 90.0885L105.997 88.6145L103.384 90.0885ZM111.158 105.798L109.402 103.366L111.158 105.798ZM110.924 103.455L108.311 104.929L110.924 103.455ZM111.594 105.052L114.575 105.387L111.594 105.052ZM101.137 105.143L98.5357 106.637L101.137 105.143ZM101.532 105.725L103.543 103.499L101.532 105.725ZM101.916 105.948L100.987 108.8L101.916 105.948ZM95.8123 95.8696L98.4139 94.3757L95.8123 95.8696ZM95.164 95.8801L92.5153 94.4714L95.164 95.8801ZM80.4167 105.796L82.1799 103.369L80.4167 105.796ZM79.9828 105.045L82.9663 104.731L79.9828 105.045ZM89.4811 105.944L88.5243 103.101L89.4811 105.944ZM90.2632 105.095L87.6145 103.686L90.2632 105.095ZM89.8737 105.708L91.9348 107.888L89.8737 105.708ZM78.0122 74.5824L75.3391 75.9444L78.0122 74.5824ZM77.546 74.1163L76.184 76.7893L77.546 74.1163ZM69.5824 105.884L68.2204 108.557L69.5824 105.884ZM69.1163 105.418L66.4432 106.78L69.1163 105.418ZM77.546 105.884L76.184 103.211L77.546 105.884ZM78.0122 105.418L80.6852 106.78L78.0122 105.418ZM76.4218 103H70.7067V109H76.4218V103ZM75.1284 75.7067V104.293H81.1284V75.7067H75.1284ZM70.7067 77H76.4218V71H70.7067V77ZM72 104.293V75.7067H66V104.293H72ZM88.7564 103H82.1518V109H88.7564V103ZM92.5153 94.4714L87.6145 103.686L92.9119 106.503L97.8127 97.2888L92.5153 94.4714ZM103.739 103.649L98.4139 94.3757L93.2107 97.3635L98.5357 106.637L103.739 103.649ZM109.438 103H102.617V109H109.438V103ZM100.771 91.5625L108.311 104.929L113.537 101.981L105.997 88.6145L100.771 91.5625ZM108.264 75.0522L100.803 87.7679L105.978 90.8044L113.439 78.0886L108.264 75.0522ZM102.805 77H109.38V71H102.805V77ZM99.0459 85.6137L103.949 76.3097L98.6408 73.5125L93.7379 82.8165L99.0459 85.6137ZM87.8107 76.3463L93.1376 85.7091L98.3526 82.742L93.0257 73.3792L87.8107 76.3463ZM82.1743 77H88.9348V71H82.1743V77ZM90.8528 87.9627L83.2903 75.053L78.1132 78.0857L85.6757 90.9954L90.8528 87.9627ZM83.272 104.94L90.8654 91.7798L85.6684 88.7812L78.0751 101.941L83.272 104.94ZM85.3736 89.882C85.3736 89.4956 85.4753 89.1159 85.6684 88.7812L90.8654 91.7798C91.1983 91.2028 91.3736 90.5483 91.3736 89.882H85.3736ZM85.6757 90.9954C85.4779 90.6577 85.3736 90.2734 85.3736 89.882H91.3736C91.3736 89.2073 91.1939 88.5448 90.8528 87.9627L85.6757 90.9954ZM82.1743 71C81.7454 71 81.2157 70.997 80.7669 71.0382C80.335 71.0778 79.4725 71.1894 78.6611 71.7812L82.1971 76.6287C81.9236 76.8281 81.6688 76.9247 81.5097 76.9703C81.3647 77.0119 81.2804 77.0163 81.3151 77.0131C81.3462 77.0103 81.4223 77.0055 81.5805 77.0028C81.7371 77.0001 81.9227 77 82.1743 77V71ZM83.2903 75.053C83.1631 74.8359 83.0694 74.6756 82.9925 74.5392C82.9149 74.4013 82.8805 74.3332 82.8672 74.305C82.8525 74.2734 82.8913 74.3484 82.9287 74.4945C82.9698 74.6549 83.0152 74.9235 82.9813 75.2603L77.0115 74.6595C76.9109 75.6587 77.2506 76.4593 77.4347 76.852C77.626 77.2601 77.8964 77.7156 78.1132 78.0857L83.2903 75.053ZM78.6611 71.7812C77.7271 72.4626 77.1272 73.5092 77.0115 74.6595L82.9813 75.2603C82.9263 75.8072 82.6411 76.3048 82.1971 76.6287L78.6611 71.7812ZM93.0257 73.3792C92.9478 73.2423 92.6053 72.5688 92.0415 72.0567L88.007 76.4977C87.9127 76.412 87.8375 76.3289 87.7807 76.2586C87.7272 76.1925 87.6951 76.1439 87.687 76.1314C87.6799 76.1205 87.6845 76.1269 87.709 76.1688C87.7338 76.2112 87.7635 76.2633 87.8107 76.3463L93.0257 73.3792ZM88.9348 77C89.0303 77 89.0902 77.0001 89.1393 77.0007C89.1879 77.0012 89.1958 77.0021 89.1828 77.0013C89.1679 77.0004 89.1098 76.9966 89.0259 76.9828C88.9366 76.9682 88.8273 76.9439 88.7061 76.9043L90.5711 71.2015C89.8472 70.9647 89.0924 71 88.9348 71V77ZM92.0415 72.0567C91.6171 71.6711 91.116 71.3797 90.5711 71.2015L88.7061 76.9043C88.447 76.8196 88.2088 76.681 88.007 76.4977L92.0415 72.0567ZM96.0656 81.412C97.0116 81.412 97.8848 81.9198 98.3526 82.742L93.1376 85.7091C93.7365 86.7618 94.8545 87.412 96.0656 87.412V81.412ZM93.7379 82.8165C94.1931 81.9527 95.0892 81.412 96.0656 81.412V87.412C97.3158 87.412 98.4631 86.7197 99.0459 85.6137L93.7379 82.8165ZM102.805 71C102.642 71 101.862 70.9625 101.117 71.2139L103.037 76.8984C102.779 76.9857 102.58 76.9994 102.546 77.0014C102.534 77.0022 102.542 77.0013 102.593 77.0007C102.644 77.0001 102.706 77 102.805 77V71ZM103.949 76.3097C103.995 76.2223 104.024 76.1672 104.048 76.1223C104.072 76.0779 104.077 76.0708 104.07 76.0819C104.053 76.1106 103.948 76.2799 103.751 76.468L99.6167 72.1192C99.0473 72.6606 98.7165 73.3689 98.6408 73.5125L103.949 76.3097ZM101.117 71.2139C100.557 71.403 100.045 71.712 99.6167 72.1192L103.751 76.468C103.547 76.6616 103.303 76.8085 103.037 76.8984L101.117 71.2139ZM113.439 78.0886C113.657 77.7184 113.927 77.2628 114.119 76.8547C114.303 76.4621 114.644 75.6613 114.544 74.6615L108.574 75.2593C108.54 74.9223 108.586 74.6535 108.627 74.4932C108.664 74.3471 108.703 74.2722 108.688 74.3038C108.675 74.3321 108.641 74.4003 108.563 74.5382C108.486 74.6747 108.392 74.835 108.264 75.0522L113.439 78.0886ZM109.38 77C109.632 77 109.817 77.0001 109.974 77.0028C110.132 77.0055 110.209 77.0103 110.24 77.0131C110.275 77.0163 110.19 77.0119 110.045 76.9704C109.886 76.9247 109.631 76.8281 109.358 76.6284L112.895 71.7818C112.083 71.1894 111.22 71.0778 110.788 71.0382C110.339 70.997 109.809 71 109.38 71V77ZM114.544 74.6615C114.429 73.5108 113.829 72.4635 112.895 71.7818L109.358 76.6284C108.914 76.3043 108.628 75.8064 108.574 75.2593L114.544 74.6615ZM106.28 89.6933C106.28 90.0839 106.176 90.4674 105.978 90.8044L100.803 87.7679C100.461 88.3517 100.28 89.0164 100.28 89.6933H106.28ZM105.997 88.6145C106.183 88.9437 106.28 89.3153 106.28 89.6933H100.28C100.28 90.3482 100.449 90.9921 100.771 91.5625L105.997 88.6145ZM109.438 109C109.859 109 110.383 109.003 110.827 108.962C111.258 108.923 112.109 108.812 112.914 108.231L109.402 103.366C109.672 103.171 109.923 103.076 110.082 103.03C110.227 102.989 110.312 102.984 110.279 102.987C110.25 102.99 110.176 102.995 110.021 102.997C109.868 103 109.685 103 109.438 103V109ZM108.311 104.929C108.433 105.145 108.522 105.303 108.596 105.438C108.669 105.575 108.702 105.641 108.714 105.668C108.727 105.698 108.689 105.622 108.654 105.475C108.616 105.315 108.575 105.049 108.612 104.718L114.575 105.387C114.686 104.4 114.364 103.604 114.187 103.21C114.004 102.802 113.744 102.348 113.537 101.981L108.311 104.929ZM112.914 108.231C113.844 107.559 114.447 106.526 114.575 105.387L108.612 104.718C108.673 104.176 108.96 103.685 109.402 103.366L112.914 108.231ZM98.5357 106.637C98.6138 106.773 98.9577 107.442 99.5207 107.951L103.543 103.499C103.637 103.584 103.712 103.666 103.769 103.736C103.822 103.802 103.855 103.85 103.863 103.863C103.87 103.874 103.865 103.867 103.841 103.826C103.816 103.784 103.786 103.732 103.739 103.649L98.5357 106.637ZM102.617 103C102.522 103 102.463 103 102.414 102.999C102.365 102.999 102.358 102.998 102.371 102.999C102.385 103 102.443 103.004 102.527 103.017C102.616 103.032 102.725 103.056 102.846 103.095L100.987 108.8C101.709 109.035 102.46 109 102.617 109V103ZM99.5207 107.951C99.9445 108.334 100.444 108.623 100.987 108.8L102.846 103.095C103.104 103.179 103.341 103.317 103.543 103.499L99.5207 107.951ZM95.491 98.6836C94.5494 98.6836 93.6796 98.1801 93.2107 97.3635L98.4139 94.3757C97.8129 93.329 96.698 92.6836 95.491 92.6836V98.6836ZM97.8127 97.2888C97.3562 98.1472 96.4633 98.6836 95.491 98.6836V92.6836C94.2449 92.6836 93.1004 93.3712 92.5153 94.4714L97.8127 97.2888ZM82.1518 103C81.9017 103 81.7175 103 81.5622 102.997C81.4053 102.995 81.3301 102.99 81.2998 102.987C81.266 102.984 81.3505 102.989 81.4954 103.03C81.6544 103.076 81.9078 103.172 82.1799 103.369L78.6535 108.224C79.4622 108.811 80.3201 108.922 80.7516 108.962C81.1987 109.003 81.726 109 82.1518 109V103ZM78.0751 101.941C77.8623 102.31 77.5962 102.765 77.4082 103.173C77.2268 103.566 76.8946 104.365 76.9993 105.359L82.9663 104.731C83.0015 105.065 82.9581 105.333 82.918 105.493C82.8815 105.64 82.8432 105.715 82.8574 105.684C82.8701 105.657 82.9036 105.589 82.9797 105.452C83.0551 105.316 83.1471 105.156 83.272 104.94L78.0751 101.941ZM82.1799 103.369C82.6231 103.691 82.9089 104.186 82.9663 104.731L76.9993 105.359C77.12 106.505 77.7212 107.546 78.6535 108.224L82.1799 103.369ZM88.7564 109C88.9181 109 89.6959 109.037 90.4379 108.788L88.5243 103.101C88.782 103.014 88.9798 103.001 89.0134 102.999C89.0264 102.998 89.0178 102.999 88.9676 102.999C88.9168 103 88.8547 103 88.7564 103V109ZM87.6145 103.686C87.5683 103.773 87.5391 103.828 87.5148 103.872C87.4906 103.916 87.4858 103.923 87.4926 103.912C87.5102 103.884 87.6151 103.715 87.8126 103.529L91.9348 107.888C92.5037 107.35 92.836 106.646 92.9119 106.503L87.6145 103.686ZM90.4379 108.788C90.9961 108.6 91.5068 108.293 91.9348 107.888L87.8126 103.529C88.0161 103.336 88.2589 103.19 88.5243 103.101L90.4379 108.788ZM70.7067 71C70.4575 71 70.0902 70.9977 69.7618 71.0245C69.3984 71.0542 68.8279 71.1337 68.2204 71.4432L70.9444 76.7893C70.5651 76.9826 70.258 77.0039 70.2504 77.0046C70.2447 77.005 70.2709 77.0028 70.3582 77.0014C70.4454 77.0001 70.5505 77 70.7067 77V71ZM72 75.7067C72 75.5505 72.0001 75.4454 72.0014 75.3582C72.0028 75.2709 72.005 75.2447 72.0046 75.2504C72.0039 75.258 71.9826 75.5651 71.7893 75.9444L66.4432 73.2204C66.1337 73.8279 66.0542 74.3984 66.0245 74.7618C65.9977 75.0902 66 75.4575 66 75.7067H72ZM68.2204 71.4432C67.4552 71.8331 66.8331 72.4552 66.4432 73.2204L71.7893 75.9444C71.6039 76.3082 71.3082 76.6039 70.9444 76.7893L68.2204 71.4432ZM81.1284 75.7067C81.1284 75.4575 81.1308 75.0902 81.1039 74.7618C81.0742 74.3984 80.9947 73.8279 80.6852 73.2204L75.3391 75.9444C75.1459 75.5651 75.1245 75.258 75.1239 75.2504C75.1234 75.2447 75.1256 75.2709 75.127 75.3582C75.1284 75.4454 75.1284 75.5505 75.1284 75.7067H81.1284ZM76.4218 77C76.578 77 76.683 77.0001 76.7702 77.0014C76.8575 77.0028 76.8837 77.005 76.878 77.0046C76.8704 77.0039 76.5634 76.9826 76.184 76.7893L78.908 71.4432C78.3005 71.1337 77.73 71.0542 77.3666 71.0245C77.0383 70.9977 76.671 71 76.4218 71V77ZM80.6852 73.2204C80.2953 72.4552 79.6732 71.8331 78.908 71.4432L76.184 76.7893C75.8203 76.6039 75.5245 76.3082 75.3391 75.9444L80.6852 73.2204ZM70.7067 103C70.5505 103 70.4454 103 70.3582 102.999C70.2709 102.997 70.2447 102.995 70.2504 102.995C70.258 102.996 70.5651 103.017 70.9444 103.211L68.2204 108.557C68.8279 108.866 69.3984 108.946 69.7618 108.976C70.0902 109.002 70.4575 109 70.7067 109V103ZM66 104.293C66 104.543 65.9977 104.91 66.0245 105.238C66.0542 105.602 66.1337 106.172 66.4432 106.78L71.7893 104.056C71.9826 104.435 72.0039 104.742 72.0046 104.75C72.005 104.755 72.0028 104.729 72.0014 104.642C72.0001 104.555 72 104.45 72 104.293H66ZM70.9444 103.211C71.3082 103.396 71.6039 103.692 71.7893 104.056L66.4432 106.78C66.8331 107.545 67.4552 108.167 68.2204 108.557L70.9444 103.211ZM76.4218 109C76.671 109 77.0383 109.002 77.3666 108.976C77.73 108.946 78.3005 108.866 78.908 108.557L76.184 103.211C76.5634 103.017 76.8704 102.996 76.878 102.995C76.8837 102.995 76.8575 102.997 76.7702 102.999C76.683 103 76.578 103 76.4218 103V109ZM75.1284 104.293C75.1284 104.45 75.1284 104.555 75.127 104.642C75.1256 104.729 75.1234 104.755 75.1239 104.75C75.1245 104.742 75.1459 104.435 75.3391 104.056L80.6852 106.78C80.9947 106.172 81.0742 105.602 81.1039 105.238C81.1308 104.91 81.1284 104.543 81.1284 104.293H75.1284ZM78.908 108.557C79.6732 108.167 80.2953 107.545 80.6852 106.78L75.3391 104.056C75.5245 103.692 75.8203 103.396 76.184 103.211L78.908 108.557Z" fill="black" fill-opacity="0.12" style="mix-blend-mode:plus-darker" mask="url(#path-31-outside-1_43_16992)"/>
<mask id="path-33-inside-2_43_16992" fill="white">
<path fill-rule="evenodd" clip-rule="evenodd" d="M69 104.293C69 104.891 69 105.189 69.1163 105.418C69.2185 105.618 69.3817 105.781 69.5824 105.884C69.8106 106 70.1093 106 70.7067 106H76.4218C77.0191 106 77.3178 106 77.546 105.884C77.7467 105.781 77.9099 105.618 78.0122 105.418C78.1284 105.189 78.1284 104.891 78.1284 104.293V75.7067C78.1284 75.1093 78.1284 74.8106 78.0122 74.5824C77.9099 74.3817 77.7467 74.2185 77.546 74.1163C77.3178 74 77.0191 74 76.4218 74H70.7067C70.1093 74 69.8106 74 69.5824 74.1163C69.3817 74.2185 69.2185 74.3817 69.1163 74.5824C69 74.8106 69 75.1093 69 75.7067V104.293ZM80.6736 103.44C80.1889 104.28 79.9465 104.7 79.9828 105.045C80.0145 105.346 80.1722 105.619 80.4167 105.796C80.6971 106 81.182 106 82.1518 106H88.7564C89.1292 106 89.3155 106 89.4811 105.944C89.6275 105.895 89.7615 105.815 89.8737 105.708C90.0006 105.588 90.0882 105.424 90.2632 105.095L95.164 95.8801C95.2283 95.7592 95.3541 95.6836 95.491 95.6836C95.6237 95.6836 95.7462 95.7546 95.8123 95.8696L101.137 105.143C101.316 105.455 101.406 105.611 101.532 105.725C101.643 105.825 101.774 105.901 101.916 105.948C102.077 106 102.257 106 102.617 106H109.438C110.398 106 110.878 106 111.158 105.798C111.402 105.622 111.56 105.351 111.594 105.052C111.632 104.71 111.396 104.291 110.924 103.455L103.384 90.0885C103.316 89.9679 103.28 89.8318 103.28 89.6933C103.28 89.5501 103.318 89.4096 103.391 89.2861L110.852 76.5704C111.346 75.7278 111.593 75.3065 111.559 74.9604C111.529 74.6586 111.371 74.3839 111.126 74.2051C110.845 74 110.357 74 109.38 74H102.805C102.43 74 102.243 74 102.077 74.0561C101.93 74.1057 101.796 74.1868 101.684 74.2936C101.557 74.4144 101.469 74.5799 101.295 74.9111L96.3919 84.2151C96.3281 84.3362 96.2025 84.412 96.0656 84.412C95.9331 84.412 95.8107 84.3408 95.7451 84.2256L90.4182 74.8628C90.2395 74.5486 90.1501 74.3915 90.0243 74.2772C89.913 74.1761 89.7815 74.0996 89.6386 74.0529C89.477 74 89.2963 74 88.9348 74H82.1743C81.1981 74 80.71 74 80.4291 74.2049C80.1841 74.3837 80.0268 74.6582 79.9964 74.9599C79.9616 75.3059 80.2083 75.727 80.7017 76.5694L88.2643 89.4791C88.3359 89.6013 88.3736 89.7404 88.3736 89.882C88.3736 90.0219 88.3368 90.1593 88.2669 90.2805L80.6736 103.44Z"/>
</mask>
<path d="M88.2669 90.2805L89.1331 90.7803L88.2669 90.2805ZM88.2643 89.4791L89.1271 88.9736L88.2643 89.4791ZM80.4291 74.2049L79.8398 73.397L80.4291 74.2049ZM79.9964 74.9599L80.9914 75.06L79.9964 74.9599ZM90.4182 74.8628L91.2874 74.3682L90.4182 74.8628ZM90.0243 74.2772L89.3519 75.0174L90.0243 74.2772ZM89.6386 74.0529L89.3278 75.0033L89.6386 74.0529ZM95.7451 84.2256L94.8759 84.7201L95.7451 84.2256ZM96.3919 84.2151L97.2766 84.6813L96.3919 84.2151ZM102.077 74.0561L102.397 75.0035L102.077 74.0561ZM101.295 74.9111L100.41 74.4449L101.295 74.9111ZM101.684 74.2936L102.373 75.0184L101.684 74.2936ZM110.852 76.5704L111.714 77.0765L110.852 76.5704ZM111.559 74.9604L112.554 74.8608L111.559 74.9604ZM111.126 74.2051L110.537 75.0129L111.126 74.2051ZM103.391 89.2861L102.528 88.7801L103.391 89.2861ZM103.384 90.0885L104.255 89.5972L103.384 90.0885ZM111.158 105.798L110.573 104.987L111.158 105.798ZM110.924 103.455L110.053 103.946L110.924 103.455ZM111.594 105.052L112.587 105.164L111.594 105.052ZM101.137 105.143L100.27 105.641L101.137 105.143ZM101.532 105.725L102.202 104.983L101.532 105.725ZM101.916 105.948L101.607 106.898L101.916 105.948ZM95.8123 95.8696L96.6795 95.3716L95.8123 95.8696ZM95.164 95.8801L94.2811 95.4105L95.164 95.8801ZM80.4167 105.796L81.0044 104.987L80.4167 105.796ZM79.9828 105.045L80.9773 104.94L79.9828 105.045ZM89.4811 105.944L89.1621 104.997L89.4811 105.944ZM90.2632 105.095L89.3803 104.625L90.2632 105.095ZM89.8737 105.708L90.5608 106.435L89.8737 105.708ZM78.0122 74.5824L77.1212 75.0364L78.0122 74.5824ZM77.546 74.1163L77.092 75.0073L77.546 74.1163ZM69.5824 105.884L69.1284 106.775L69.5824 105.884ZM69.1163 105.418L68.2253 105.872L69.1163 105.418ZM77.546 105.884L77.092 104.993L77.546 105.884ZM78.0122 105.418L78.9032 105.872L78.0122 105.418ZM76.4218 105H70.7067V107H76.4218V105ZM77.1284 75.7067V104.293H79.1284V75.7067H77.1284ZM70.7067 75H76.4218V73H70.7067V75ZM70 104.293V75.7067H68V104.293H70ZM88.7564 105H82.1518V107H88.7564V105ZM94.2811 95.4105L89.3803 104.625L91.1461 105.564L96.0469 96.3497L94.2811 95.4105ZM102.004 104.645L96.6795 95.3716L94.9451 96.3675L100.27 105.641L102.004 104.645ZM109.438 105H102.617V107H109.438V105ZM102.513 90.5799L110.053 103.946L111.795 102.963L104.255 89.5972L102.513 90.5799ZM109.989 76.0643L102.528 88.7801L104.253 89.7922L111.714 77.0765L109.989 76.0643ZM102.805 75H109.38V73H102.805V75ZM97.2766 84.6813L102.18 75.3773L100.41 74.4449L95.5072 83.7489L97.2766 84.6813ZM89.549 75.3573L94.8759 84.7201L96.6143 83.7311L91.2874 74.3682L89.549 75.3573ZM82.1743 75H88.9348V73H82.1743V75ZM89.1271 88.9736L81.5646 76.0639L79.8389 77.0748L87.4014 89.9845L89.1271 88.9736ZM81.5397 103.94L89.1331 90.7803L87.4008 89.7807L79.8074 102.941L81.5397 103.94ZM87.3736 89.882C87.3736 89.8465 87.383 89.8115 87.4008 89.7807L89.1331 90.7803C89.2907 90.5072 89.3736 90.1974 89.3736 89.882H87.3736ZM87.4014 89.9845C87.3832 89.9534 87.3736 89.9181 87.3736 89.882H89.3736C89.3736 89.5627 89.2885 89.2491 89.1271 88.9736L87.4014 89.9845ZM82.1743 73C81.706 73 81.2853 72.999 80.9496 73.0298C80.6195 73.0601 80.2039 73.1315 79.8398 73.397L81.0184 75.0129C80.9352 75.0735 80.9041 75.0424 81.1323 75.0215C81.355 75.001 81.6665 75 82.1743 75V73ZM81.5646 76.0639C81.3079 75.6257 81.1513 75.3564 81.0564 75.154C80.9591 74.9464 81.0017 74.9576 80.9914 75.06L79.0014 74.8598C78.9563 75.3082 79.1048 75.7029 79.2456 76.003C79.3887 76.3082 79.6021 76.6707 79.8389 77.0748L81.5646 76.0639ZM79.8398 73.397C79.3651 73.7433 79.0603 74.2752 79.0014 74.8598L80.9914 75.06C80.9933 75.0412 81.0031 75.024 81.0184 75.0129L79.8398 73.397ZM91.2874 74.3682C91.1423 74.1132 90.9685 73.7839 90.6967 73.537L89.3519 75.0174C89.3287 74.9963 89.3291 74.988 89.3633 75.0405C89.4037 75.1025 89.454 75.1901 89.549 75.3573L91.2874 74.3682ZM88.9348 75C89.1271 75 89.2281 75.0005 89.302 75.0049C89.3645 75.0086 89.3575 75.0131 89.3278 75.0033L89.9494 73.1024C89.6004 72.9883 89.2283 73 88.9348 73V75ZM90.6967 73.537C90.481 73.3411 90.2264 73.193 89.9494 73.1024L89.3278 75.0033C89.3367 75.0063 89.3449 75.011 89.3519 75.0174L90.6967 73.537ZM96.0656 83.412C96.2926 83.412 96.502 83.5338 96.6143 83.7311L94.8759 84.7201C95.1193 85.1478 95.5735 85.412 96.0656 85.412V83.412ZM95.5072 83.7489C95.6164 83.5417 95.8314 83.412 96.0656 83.412V85.412C96.5736 85.412 97.0398 85.1307 97.2766 84.6813L95.5072 83.7489ZM102.805 73C102.501 73 102.116 72.9875 101.757 73.1087L102.397 75.0035C102.366 75.014 102.359 75.0092 102.424 75.0052C102.501 75.0005 102.606 75 102.805 75V73ZM102.18 75.3773C102.272 75.2012 102.322 75.1086 102.362 75.0429C102.395 74.9872 102.396 74.996 102.373 75.0184L100.995 73.5688C100.72 73.8298 100.552 74.1763 100.41 74.4449L102.18 75.3773ZM101.757 73.1087C101.473 73.2048 101.212 73.3619 100.995 73.5688L102.373 75.0184C102.38 75.0117 102.388 75.0067 102.397 75.0035L101.757 73.1087ZM111.714 77.0765C111.952 76.6722 112.165 76.3097 112.309 76.0044C112.45 75.7043 112.599 75.3094 112.554 74.8608L110.564 75.0601C110.553 74.9575 110.596 74.9464 110.499 75.1541C110.403 75.3566 110.247 75.626 109.989 76.0643L111.714 77.0765ZM109.38 75C109.888 75 110.2 75.001 110.423 75.0215C110.651 75.0425 110.62 75.0736 110.537 75.0129L111.716 73.3973C111.351 73.1315 110.936 73.0602 110.605 73.0299C110.269 72.999 109.849 73 109.38 73V75ZM112.554 74.8608C112.495 74.276 112.19 73.7438 111.716 73.3973L110.537 75.0129C110.552 75.024 110.562 75.0412 110.564 75.0601L112.554 74.8608ZM104.28 89.6933C104.28 89.728 104.271 89.7622 104.253 89.7922L102.528 88.7801C102.366 89.057 102.28 89.3722 102.28 89.6933H104.28ZM104.255 89.5972C104.271 89.6265 104.28 89.6596 104.28 89.6933H102.28C102.28 90.0039 102.36 90.3093 102.513 90.5799L104.255 89.5972ZM109.438 107C109.898 107 110.313 107.001 110.645 106.971C110.972 106.941 111.382 106.87 111.743 106.609L110.573 104.987C110.655 104.928 110.685 104.959 110.462 104.979C110.243 104.999 109.938 105 109.438 105V107ZM110.053 103.946C110.299 104.382 110.448 104.648 110.538 104.848C110.63 105.053 110.589 105.041 110.6 104.941L112.587 105.164C112.637 104.721 112.497 104.329 112.362 104.029C112.226 103.725 112.021 103.365 111.795 102.963L110.053 103.946ZM111.743 106.609C112.216 106.268 112.522 105.743 112.587 105.164L110.6 104.941C110.598 104.959 110.588 104.976 110.573 104.987L111.743 106.609ZM100.27 105.641C100.416 105.895 100.59 106.222 100.861 106.467L102.202 104.983C102.225 105.004 102.225 105.012 102.191 104.96C102.15 104.898 102.1 104.811 102.004 104.645L100.27 105.641ZM102.617 105C102.426 105 102.325 105 102.252 104.995C102.19 104.992 102.197 104.987 102.226 104.997L101.607 106.898C101.955 107.012 102.325 107 102.617 107V105ZM100.861 106.467C101.077 106.662 101.331 106.809 101.607 106.898L102.226 104.997C102.217 104.994 102.209 104.989 102.202 104.983L100.861 106.467ZM95.491 96.6836C95.2656 96.6836 95.0573 96.5631 94.9451 96.3675L96.6795 95.3716C96.4351 94.9461 95.9818 94.6836 95.491 94.6836V96.6836ZM96.0469 96.3497C95.9376 96.5552 95.7238 96.6836 95.491 96.6836V94.6836C94.9844 94.6836 94.519 94.9632 94.2811 95.4105L96.0469 96.3497ZM82.1518 105C81.6472 105 81.338 104.999 81.1171 104.979C80.8909 104.958 80.9218 104.927 81.0044 104.987L79.829 106.605C80.192 106.869 80.6055 106.94 80.9343 106.97C81.2684 107.001 81.6866 107 82.1518 107V105ZM79.8074 102.941C79.5749 103.344 79.365 103.705 79.2246 104.01C79.0864 104.31 78.9413 104.704 78.9883 105.15L80.9773 104.94C80.988 105.042 80.946 105.053 81.041 104.847C81.1339 104.646 81.2875 104.377 81.5397 103.94L79.8074 102.941ZM81.0044 104.987C80.9891 104.976 80.9793 104.959 80.9773 104.94L78.9883 105.15C79.0496 105.732 79.3552 106.261 79.829 106.605L81.0044 104.987ZM88.7564 107C89.0588 107 89.4423 107.012 89.8 106.892L89.1621 104.997C89.1929 104.986 89.2002 104.991 89.1354 104.995C89.059 105 88.9546 105 88.7564 105V107ZM89.3803 104.625C89.2872 104.8 89.2378 104.892 89.1978 104.957C89.1639 105.013 89.1631 105.004 89.1867 104.982L90.5608 106.435C90.835 106.176 91.0041 105.831 91.1461 105.564L89.3803 104.625ZM89.8 106.892C90.0837 106.797 90.3433 106.641 90.5608 106.435L89.1867 104.982C89.1797 104.988 89.1713 104.993 89.1621 104.997L89.8 106.892ZM70.7067 73C70.4245 73 70.1527 72.9992 69.9247 73.0179C69.6849 73.0374 69.407 73.0833 69.1284 73.2253L70.0364 75.0073C69.986 75.0329 69.9715 75.0207 70.0875 75.0112C70.2152 75.0008 70.3915 75 70.7067 75V73ZM70 75.7067C70 75.3915 70.0008 75.2152 70.0112 75.0875C70.0207 74.9715 70.0329 74.986 70.0073 75.0364L68.2253 74.1284C68.0833 74.407 68.0374 74.6849 68.0179 74.9247C67.9992 75.1527 68 75.4245 68 75.7067H70ZM69.1284 73.2253C68.7396 73.4234 68.4234 73.7396 68.2253 74.1284L70.0073 75.0364C70.0137 75.0239 70.0239 75.0137 70.0364 75.0073L69.1284 73.2253ZM79.1284 75.7067C79.1284 75.4245 79.1292 75.1527 79.1106 74.9247C79.091 74.6849 79.0451 74.407 78.9032 74.1284L77.1212 75.0364C77.0955 74.986 77.1077 74.9715 77.1172 75.0875C77.1276 75.2152 77.1284 75.3915 77.1284 75.7067H79.1284ZM76.4218 75C76.737 75 76.9132 75.0008 77.0409 75.0112C77.1569 75.0207 77.1424 75.0329 77.092 75.0073L78 73.2253C77.7215 73.0833 77.4435 73.0374 77.2038 73.0179C76.9757 72.9992 76.704 73 76.4218 73V75ZM78.9032 74.1284C78.705 73.7396 78.3889 73.4234 78 73.2253L77.092 75.0073C77.1046 75.0137 77.1148 75.0239 77.1212 75.0364L78.9032 74.1284ZM70.7067 105C70.3915 105 70.2152 104.999 70.0875 104.989C69.9715 104.979 69.986 104.967 70.0364 104.993L69.1284 106.775C69.407 106.917 69.6849 106.963 69.9247 106.982C70.1527 107.001 70.4245 107 70.7067 107V105ZM68 104.293C68 104.576 67.9992 104.847 68.0179 105.075C68.0374 105.315 68.0833 105.593 68.2253 105.872L70.0073 104.964C70.0329 105.014 70.0207 105.029 70.0112 104.912C70.0008 104.785 70 104.609 70 104.293H68ZM70.0364 104.993C70.0239 104.986 70.0137 104.976 70.0073 104.964L68.2253 105.872C68.4234 106.26 68.7396 106.577 69.1284 106.775L70.0364 104.993ZM76.4218 107C76.704 107 76.9757 107.001 77.2038 106.982C77.4435 106.963 77.7215 106.917 78 106.775L77.092 104.993C77.1424 104.967 77.1569 104.979 77.0409 104.989C76.9132 104.999 76.737 105 76.4218 105V107ZM77.1284 104.293C77.1284 104.609 77.1276 104.785 77.1172 104.912C77.1077 105.029 77.0955 105.014 77.1212 104.964L78.9032 105.872C79.0451 105.593 79.091 105.315 79.1106 105.075C79.1292 104.847 79.1284 104.576 79.1284 104.293H77.1284ZM78 106.775C78.3889 106.577 78.705 106.26 78.9032 105.872L77.1212 104.964C77.1148 104.976 77.1046 104.986 77.092 104.993L78 106.775Z" fill="white" fill-opacity="0.25" mask="url(#path-33-inside-2_43_16992)"/>
<defs>
<filter id="filter0_i_43_16992" x="108" y="36.5" width="55.4968" height="59" filterUnits="userSpaceOnUse" color-interpolation-filters="sRGB">
<feFlood flood-opacity="0" result="BackgroundImageFix"/>
<feBlend mode="normal" in="SourceGraphic" in2="BackgroundImageFix" result="shape"/>
<feColorMatrix in="SourceAlpha" type="matrix" values="0 0 0 0 0 0 0 0 0 0 0 0 0 0 0 0 0 0 127 0" result="hardAlpha"/>
<feOffset dy="2"/>
<feGaussianBlur stdDeviation="0.5"/>
<feComposite in2="hardAlpha" operator="arithmetic" k2="-1" k3="1"/>
<feColorMatrix type="matrix" values="0 0 0 0 1 0 0 0 0 1 0 0 0 0 1 0 0 0 0.5 0"/>
<feBlend mode="normal" in2="shape" result="effect1_innerShadow_43_16992"/>
</filter>
<filter id="filter1_i_43_16992" x="122.5" y="35.9" width="40.9968" height="58.6" filterUnits="userSpaceOnUse" color-interpolation-filters="sRGB">
<feFlood flood-opacity="0" result="BackgroundImageFix"/>
<feBlend mode="normal" in="SourceGraphic" in2="BackgroundImageFix" result="shape"/>
<feColorMatrix in="SourceAlpha" type="matrix" values="0 0 0 0 0 0 0 0 0 0 0 0 0 0 0 0 0 0 127 0" result="hardAlpha"/>
<feOffset dy="-4"/>
<feGaussianBlur stdDeviation="0.3"/>
<feComposite in2="hardAlpha" operator="arithmetic" k2="-1" k3="1"/>
<feColorMatrix type="matrix" values="0 0 0 0 0 0 0 0 0 0 0 0 0 0 0 0 0 0 0.15 0"/>
<feBlend mode="color-burn" in2="shape" result="effect1_innerShadow_43_16992"/>
</filter>
<filter id="filter2_i_43_16992" x="121.5" y="90" width="44.5" height="43" filterUnits="userSpaceOnUse" color-interpolation-filters="sRGB">
<feFlood flood-opacity="0" result="BackgroundImageFix"/>
<feBlend mode="normal" in="SourceGraphic" in2="BackgroundImageFix" result="shape"/>
<feColorMatrix in="SourceAlpha" type="matrix" values="0 0 0 0 0 0 0 0 0 0 0 0 0 0 0 0 0 0 127 0" result="hardAlpha"/>
<feOffset dy="2"/>
<feGaussianBlur stdDeviation="0.5"/>
<feComposite in2="hardAlpha" operator="arithmetic" k2="-1" k3="1"/>
<feColorMatrix type="matrix" values="0 0 0 0 1 0 0 0 0 1 0 0 0 0 1 0 0 0 0.5 0"/>
<feBlend mode="normal" in2="shape" result="effect1_innerShadow_43_16992"/>
</filter>
<filter id="filter3_i_43_16992" x="121.5" y="89.4" width="44.5" height="42.6" filterUnits="userSpaceOnUse" color-interpolation-filters="sRGB">
<feFlood flood-opacity="0" result="BackgroundImageFix"/>
<feBlend mode="normal" in="SourceGraphic" in2="BackgroundImageFix" result="shape"/>
<feColorMatrix in="SourceAlpha" type="matrix" values="0 0 0 0 0 0 0 0 0 0 0 0 0 0 0 0 0 0 127 0" result="hardAlpha"/>
<feOffset dy="-4"/>
<feGaussianBlur stdDeviation="0.3"/>
<feComposite in2="hardAlpha" operator="arithmetic" k2="-1" k3="1"/>
<feColorMatrix type="matrix" values="0 0 0 0 0 0 0 0 0 0 0 0 0 0 0 0 0 0 0.15 0"/>
<feBlend mode="color-burn" in2="shape" result="effect1_innerShadow_43_16992"/>
</filter>
<filter id="filter4_i_43_16992" x="129.5" y="54.5" width="43.9702" height="59" filterUnits="userSpaceOnUse" color-interpolation-filters="sRGB">
<feFlood flood-opacity="0" result="BackgroundImageFix"/>
<feBlend mode="normal" in="SourceGraphic" in2="BackgroundImageFix" result="shape"/>
<feColorMatrix in="SourceAlpha" type="matrix" values="0 0 0 0 0 0 0 0 0 0 0 0 0 0 0 0 0 0 127 0" result="hardAlpha"/>
<feOffset dy="2"/>
<feGaussianBlur stdDeviation="0.5"/>
<feComposite in2="hardAlpha" operator="arithmetic" k2="-1" k3="1"/>
<feColorMatrix type="matrix" values="0 0 0 0 1 0 0 0 0 1 0 0 0 0 1 0 0 0 0.5 0"/>
<feBlend mode="normal" in2="shape" result="effect1_innerShadow_43_16992"/>
</filter>
<filter id="filter5_i_43_16992" x="131.5" y="53.9" width="41.9705" height="58.6" filterUnits="userSpaceOnUse" color-interpolation-filters="sRGB">
<feFlood flood-opacity="0" result="BackgroundImageFix"/>
<feBlend mode="normal" in="SourceGraphic" in2="BackgroundImageFix" result="shape"/>
<feColorMatrix in="SourceAlpha" type="matrix" values="0 0 0 0 0 0 0 0 0 0 0 0 0 0 0 0 0 0 127 0" result="hardAlpha"/>
<feOffset dy="-4"/>
<feGaussianBlur stdDeviation="0.3"/>
<feComposite in2="hardAlpha" operator="arithmetic" k2="-1" k3="1"/>
<feColorMatrix type="matrix" values="0 0 0 0 0 0 0 0 0 0 0 0 0 0 0 0 0 0 0.25 0"/>
<feBlend mode="color-burn" in2="shape" result="effect1_innerShadow_43_16992"/>
</filter>
<filter id="filter6_di_43_16992" x="102" y="57" width="55" height="74" filterUnits="userSpaceOnUse" color-interpolation-filters="sRGB">
<feFlood flood-opacity="0" result="BackgroundImageFix"/>
<feColorMatrix in="SourceAlpha" type="matrix" values="0 0 0 0 0 0 0 0 0 0 0 0 0 0 0 0 0 0 127 0" result="hardAlpha"/>
<feOffset dy="4"/>
<feGaussianBlur stdDeviation="2"/>
<feComposite in2="hardAlpha" operator="out"/>
<feColorMatrix type="matrix" values="0 0 0 0 0 0 0 0 0 0 0 0 0 0 0 0 0 0 0.25 0"/>
<feBlend mode="normal" in2="BackgroundImageFix" result="effect1_dropShadow_43_16992"/>
<feBlend mode="normal" in="SourceGraphic" in2="effect1_dropShadow_43_16992" result="shape"/>
<feColorMatrix in="SourceAlpha" type="matrix" values="0 0 0 0 0 0 0 0 0 0 0 0 0 0 0 0 0 0 127 0" result="hardAlpha"/>
<feOffset dy="4"/>
<feGaussianBlur stdDeviation="1"/>
<feComposite in2="hardAlpha" operator="arithmetic" k2="-1" k3="1"/>
<feColorMatrix type="matrix" values="0 0 0 0 1 0 0 0 0 1 0 0 0 0 1 0 0 0 0.5 0"/>
<feBlend mode="normal" in2="shape" result="effect2_innerShadow_43_16992"/>
</filter>
<filter id="filter7_i_43_16992" x="15.9734" y="36.5" width="55.4968" height="59" filterUnits="userSpaceOnUse" color-interpolation-filters="sRGB">
<feFlood flood-opacity="0" result="BackgroundImageFix"/>
<feBlend mode="normal" in="SourceGraphic" in2="BackgroundImageFix" result="shape"/>
<feColorMatrix in="SourceAlpha" type="matrix" values="0 0 0 0 0 0 0 0 0 0 0 0 0 0 0 0 0 0 127 0" result="hardAlpha"/>
<feOffset dy="2"/>
<feGaussianBlur stdDeviation="0.5"/>
<feComposite in2="hardAlpha" operator="arithmetic" k2="-1" k3="1"/>
<feColorMatrix type="matrix" values="0 0 0 0 1 0 0 0 0 1 0 0 0 0 1 0 0 0 0.5 0"/>
<feBlend mode="normal" in2="shape" result="effect1_innerShadow_43_16992"/>
</filter>
<filter id="filter8_i_43_16992" x="15.9734" y="35.9" width="40.9968" height="58.6" filterUnits="userSpaceOnUse" color-interpolation-filters="sRGB">
<feFlood flood-opacity="0" result="BackgroundImageFix"/>
<feBlend mode="normal" in="SourceGraphic" in2="BackgroundImageFix" result="shape"/>
<feColorMatrix in="SourceAlpha" type="matrix" values="0 0 0 0 0 0 0 0 0 0 0 0 0 0 0 0 0 0 127 0" result="hardAlpha"/>
<feOffset dy="-4"/>
<feGaussianBlur stdDeviation="0.3"/>
<feComposite in2="hardAlpha" operator="arithmetic" k2="-1" k3="1"/>
<feColorMatrix type="matrix" values="0 0 0 0 0 0 0 0 0 0 0 0 0 0 0 0 0 0 0.15 0"/>
<feBlend mode="color-burn" in2="shape" result="effect1_innerShadow_43_16992"/>
</filter>
<filter id="filter9_i_43_16992" x="13.4702" y="90" width="44.5" height="43" filterUnits="userSpaceOnUse" color-interpolation-filters="sRGB">
<feFlood flood-opacity="0" result="BackgroundImageFix"/>
<feBlend mode="normal" in="SourceGraphic" in2="BackgroundImageFix" result="shape"/>
<feColorMatrix in="SourceAlpha" type="matrix" values="0 0 0 0 0 0 0 0 0 0 0 0 0 0 0 0 0 0 127 0" result="hardAlpha"/>
<feOffset dy="2"/>
<feGaussianBlur stdDeviation="0.5"/>
<feComposite in2="hardAlpha" operator="arithmetic" k2="-1" k3="1"/>
<feColorMatrix type="matrix" values="0 0 0 0 1 0 0 0 0 1 0 0 0 0 1 0 0 0 0.5 0"/>
<feBlend mode="normal" in2="shape" result="effect1_innerShadow_43_16992"/>
</filter>
<filter id="filter10_i_43_16992" x="13.4702" y="89.4" width="44.5" height="42.6" filterUnits="userSpaceOnUse" color-interpolation-filters="sRGB">
<feFlood flood-opacity="0" result="BackgroundImageFix"/>
<feBlend mode="normal" in="SourceGraphic" in2="BackgroundImageFix" result="shape"/>
<feColorMatrix in="SourceAlpha" type="matrix" values="0 0 0 0 0 0 0 0 0 0 0 0 0 0 0 0 0 0 127 0" result="hardAlpha"/>
<feOffset dy="-4"/>
<feGaussianBlur stdDeviation="0.3"/>
<feComposite in2="hardAlpha" operator="arithmetic" k2="-1" k3="1"/>
<feColorMatrix type="matrix" values="0 0 0 0 0 0 0 0 0 0 0 0 0 0 0 0 0 0 0.15 0"/>
<feBlend mode="color-burn" in2="shape" result="effect1_innerShadow_43_16992"/>
</filter>
<filter id="filter11_i_43_16992" x="6" y="54.5" width="43.9702" height="59" filterUnits="userSpaceOnUse" color-interpolation-filters="sRGB">
<feFlood flood-opacity="0" result="BackgroundImageFix"/>
<feBlend mode="normal" in="SourceGraphic" in2="BackgroundImageFix" result="shape"/>
<feColorMatrix in="SourceAlpha" type="matrix" values="0 0 0 0 0 0 0 0 0 0 0 0 0 0 0 0 0 0 127 0" result="hardAlpha"/>
<feOffset dy="2"/>
<feGaussianBlur stdDeviation="0.5"/>
<feComposite in2="hardAlpha" operator="arithmetic" k2="-1" k3="1"/>
<feColorMatrix type="matrix" values="0 0 0 0 1 0 0 0 0 1 0 0 0 0 1 0 0 0 0.5 0"/>
<feBlend mode="normal" in2="shape" result="effect1_innerShadow_43_16992"/>
</filter>
<filter id="filter12_i_43_16992" x="5.99976" y="53.9" width="41.9705" height="58.6" filterUnits="userSpaceOnUse" color-interpolation-filters="sRGB">
<feFlood flood-opacity="0" result="BackgroundImageFix"/>
<feBlend mode="normal" in="SourceGraphic" in2="BackgroundImageFix" result="shape"/>
<feColorMatrix in="SourceAlpha" type="matrix" values="0 0 0 0 0 0 0 0 0 0 0 0 0 0 0 0 0 0 127 0" result="hardAlpha"/>
<feOffset dy="-4"/>
<feGaussianBlur stdDeviation="0.3"/>
<feComposite in2="hardAlpha" operator="arithmetic" k2="-1" k3="1"/>
<feColorMatrix type="matrix" values="0 0 0 0 0 0 0 0 0 0 0 0 0 0 0 0 0 0 0.25 0"/>
<feBlend mode="color-burn" in2="shape" result="effect1_innerShadow_43_16992"/>
</filter>
<filter id="filter13_di_43_16992" x="23" y="57" width="55" height="74" filterUnits="userSpaceOnUse" color-interpolation-filters="sRGB">
<feFlood flood-opacity="0" result="BackgroundImageFix"/>
<feColorMatrix in="SourceAlpha" type="matrix" values="0 0 0 0 0 0 0 0 0 0 0 0 0 0 0 0 0 0 127 0" result="hardAlpha"/>
<feOffset dy="4"/>
<feGaussianBlur stdDeviation="2"/>
<feComposite in2="hardAlpha" operator="out"/>
<feColorMatrix type="matrix" values="0 0 0 0 0 0 0 0 0 0 0 0 0 0 0 0 0 0 0.25 0"/>
<feBlend mode="normal" in2="BackgroundImageFix" result="effect1_dropShadow_43_16992"/>
<feBlend mode="normal" in="SourceGraphic" in2="effect1_dropShadow_43_16992" result="shape"/>
<feColorMatrix in="SourceAlpha" type="matrix" values="0 0 0 0 0 0 0 0 0 0 0 0 0 0 0 0 0 0 127 0" result="hardAlpha"/>
<feOffset dy="4"/>
<feGaussianBlur stdDeviation="1"/>
<feComposite in2="hardAlpha" operator="arithmetic" k2="-1" k3="1"/>
<feColorMatrix type="matrix" values="0 0 0 0 1 0 0 0 0 1 0 0 0 0 1 0 0 0 0.5 0"/>
<feBlend mode="normal" in2="shape" result="effect2_innerShadow_43_16992"/>
</filter>
<filter id="filter14_d_43_16992" x="32" y="34" width="116" height="116" filterUnits="userSpaceOnUse" color-interpolation-filters="sRGB">
<feFlood flood-opacity="0" result="BackgroundImageFix"/>
<feColorMatrix in="SourceAlpha" type="matrix" values="0 0 0 0 0 0 0 0 0 0 0 0 0 0 0 0 0 0 127 0" result="hardAlpha"/>
<feOffset dy="2"/>
<feGaussianBlur stdDeviation="2"/>
<feComposite in2="hardAlpha" operator="out"/>
<feColorMatrix type="matrix" values="0 0 0 0 0 0 0 0 0 0 0 0 0 0 0 0 0 0 0.25 0"/>
<feBlend mode="normal" in2="BackgroundImageFix" result="effect1_dropShadow_43_16992"/>
<feBlend mode="normal" in="SourceGraphic" in2="effect1_dropShadow_43_16992" result="shape"/>
</filter>
<filter id="filter15_i_43_16992" x="48" y="48" width="88" height="90" filterUnits="userSpaceOnUse" color-interpolation-filters="sRGB">
<feFlood flood-opacity="0" result="BackgroundImageFix"/>
<feBlend mode="normal" in="SourceGraphic" in2="BackgroundImageFix" result="shape"/>
<feColorMatrix in="SourceAlpha" type="matrix" values="0 0 0 0 0 0 0 0 0 0 0 0 0 0 0 0 0 0 127 0" result="hardAlpha"/>
<feOffset dx="4" dy="6"/>
<feGaussianBlur stdDeviation="5"/>
<feComposite in2="hardAlpha" operator="arithmetic" k2="-1" k3="1"/>
<feColorMatrix type="matrix" values="0 0 0 0 0 0 0 0 0 0 0 0 0 0 0 0 0 0 0.2 0"/>
<feBlend mode="plus-darker" in2="shape" result="effect1_innerShadow_43_16992"/>
</filter>
<linearGradient id="paint0_linear_43_16992" x1="112" y1="18" x2="112" y2="57.5" gradientUnits="userSpaceOnUse">
<stop stop-color="#FF80F2"/>
<stop offset="1" stop-color="#7346D3"/>
</linearGradient>
<linearGradient id="paint1_linear_43_16992" x1="138.777" y1="38.631" x2="121.202" y2="55.2019" gradientUnits="userSpaceOnUse">
<stop stop-color="#DCB6FF"/>
<stop offset="1" stop-color="#A35DFF"/>
</linearGradient>
<linearGradient id="paint2_linear_43_16992" x1="140.284" y1="53.6948" x2="127.73" y2="54.1969" gradientUnits="userSpaceOnUse">
<stop stop-color="#BC88FF"/>
<stop offset="1" stop-color="#5F24DA"/>
</linearGradient>
<linearGradient id="paint3_linear_43_16992" x1="138.777" y1="141.369" x2="121.202" y2="124.798" gradientUnits="userSpaceOnUse">
<stop stop-color="#DCB6FF"/>
<stop offset="1" stop-color="#A35DFF"/>
</linearGradient>
<linearGradient id="paint4_linear_43_16992" x1="140.284" y1="126.305" x2="127.73" y2="125.803" gradientUnits="userSpaceOnUse">
<stop stop-color="#BC88FF"/>
<stop offset="1" stop-color="#5F24DA"/>
</linearGradient>
<linearGradient id="paint5_linear_43_16992" x1="41.2227" y1="38.631" x2="58.7979" y2="55.2019" gradientUnits="userSpaceOnUse">
<stop stop-color="#DCB6FF"/>
<stop offset="1" stop-color="#A35DFF"/>
</linearGradient>
<linearGradient id="paint6_linear_43_16992" x1="39.7164" y1="53.6948" x2="52.2701" y2="54.1969" gradientUnits="userSpaceOnUse">
<stop stop-color="#BC88FF"/>
<stop offset="1" stop-color="#5F24DA"/>
</linearGradient>
<linearGradient id="paint7_linear_43_16992" x1="41.2227" y1="141.369" x2="58.7979" y2="124.798" gradientUnits="userSpaceOnUse">
<stop stop-color="#DCB6FF"/>
<stop offset="1" stop-color="#A35DFF"/>
</linearGradient>
<linearGradient id="paint8_linear_43_16992" x1="39.7164" y1="126.305" x2="52.2701" y2="125.803" gradientUnits="userSpaceOnUse">
<stop stop-color="#BC88FF"/>
<stop offset="1" stop-color="#5F24DA"/>
</linearGradient>
<linearGradient id="paint9_linear_43_16992" x1="112" y1="162" x2="112" y2="122.5" gradientUnits="userSpaceOnUse">
<stop stop-color="#8963F5"/>
<stop offset="1" stop-color="#6687FF"/>
</linearGradient>
<linearGradient id="paint10_linear_43_16992" x1="162.903" y1="37" x2="132.079" y2="80.6927" gradientUnits="userSpaceOnUse">
<stop stop-color="#9AE8FB"/>
<stop offset="1" stop-color="#00AAF9"/>
</linearGradient>
<linearGradient id="paint11_linear_43_16992" x1="169.387" y1="46.5" x2="128.798" y2="90.5526" gradientUnits="userSpaceOnUse">
<stop stop-color="#6BDFF5"/>
<stop offset="1" stop-color="#0087D9"/>
</linearGradient>
<linearGradient id="paint12_linear_43_16992" x1="165.524" y1="90.3621" x2="144.05" y2="124.067" gradientUnits="userSpaceOnUse">
<stop stop-color="#B973FF"/>
<stop offset="1" stop-color="#9D35FF"/>
</linearGradient>
<linearGradient id="paint13_linear_43_16992" x1="172.393" y1="97.2414" x2="146.08" y2="140.049" gradientUnits="userSpaceOnUse">
<stop stop-color="#B063FF"/>
<stop offset="1" stop-color="#8A00FF"/>
</linearGradient>
<linearGradient id="paint14_linear_43_16992" x1="173" y1="55" x2="140.5" y2="91.5" gradientUnits="userSpaceOnUse">
<stop stop-color="#FFDCFF"/>
<stop offset="1" stop-color="#FF61FC"/>
</linearGradient>
<linearGradient id="paint15_linear_43_16992" x1="179.5" y1="64.5" x2="139" y2="109.5" gradientUnits="userSpaceOnUse">
<stop stop-color="#FFC5FC"/>
<stop offset="1" stop-color="#FF00E3"/>
</linearGradient>
<linearGradient id="paint16_linear_43_16992" x1="129.5" y1="57" x2="129.5" y2="123" gradientUnits="userSpaceOnUse">
<stop stop-color="#FFEFA2"/>
<stop offset="1" stop-color="#F7B229"/>
</linearGradient>
<linearGradient id="paint17_linear_43_16992" x1="16.567" y1="37" x2="47.3912" y2="80.6927" gradientUnits="userSpaceOnUse">
<stop stop-color="#9AE8FB"/>
<stop offset="1" stop-color="#00AAF9"/>
</linearGradient>
<linearGradient id="paint18_linear_43_16992" x1="10.0836" y1="46.5" x2="50.6724" y2="90.5526" gradientUnits="userSpaceOnUse">
<stop stop-color="#6BDFF5"/>
<stop offset="1" stop-color="#0087D9"/>
</linearGradient>
<linearGradient id="paint19_linear_43_16992" x1="13.9462" y1="90.3621" x2="35.42" y2="124.067" gradientUnits="userSpaceOnUse">
<stop stop-color="#B973FF"/>
<stop offset="1" stop-color="#9D35FF"/>
</linearGradient>
<linearGradient id="paint20_linear_43_16992" x1="7.07714" y1="97.2414" x2="33.3898" y2="140.049" gradientUnits="userSpaceOnUse">
<stop stop-color="#B063FF"/>
<stop offset="1" stop-color="#8A00FF"/>
</linearGradient>
<linearGradient id="paint21_linear_43_16992" x1="6.47021" y1="55" x2="38.9702" y2="91.5" gradientUnits="userSpaceOnUse">
<stop stop-color="#FFDCFF"/>
<stop offset="1" stop-color="#FF61FC"/>
</linearGradient>
<linearGradient id="paint22_linear_43_16992" x1="-0.0297824" y1="64.5" x2="40.4702" y2="109.5" gradientUnits="userSpaceOnUse">
<stop stop-color="#FFC5FC"/>
<stop offset="1" stop-color="#FF00E3"/>
</linearGradient>
<linearGradient id="paint23_linear_43_16992" x1="50.5" y1="57" x2="50.5" y2="123" gradientUnits="userSpaceOnUse">
<stop stop-color="#FFEFA2"/>
<stop offset="1" stop-color="#F7B229"/>
</linearGradient>
<radialGradient id="paint24_radial_43_16992" cx="0" cy="0" r="1" gradientUnits="userSpaceOnUse" gradientTransform="translate(67.5 42) rotate(71.061) scale(107.838)">
<stop stop-color="#FFFEFF"/>
<stop offset="0.535094" stop-color="#A75BEE"/>
<stop offset="1" stop-color="#6C3EF1"/>
</radialGradient>
<radialGradient id="paint25_radial_43_16992" cx="0" cy="0" r="1" gradientUnits="userSpaceOnUse" gradientTransform="translate(70 47.3333) rotate(73.7074) scale(94.46)">
<stop stop-color="#AE3EFF"/>
<stop offset="0.588355" stop-color="#CF70FB"/>
<stop offset="1" stop-color="#FF99FF"/>
</radialGradient>
<linearGradient id="paint26_linear_43_16992" x1="90" y1="42" x2="90" y2="138" gradientUnits="userSpaceOnUse">
<stop stop-color="#AE41FF"/>
<stop offset="1" stop-color="#FFDAFF"/>
</linearGradient>
<radialGradient id="paint27_radial_43_16992" cx="0" cy="0" r="1" gradientUnits="userSpaceOnUse" gradientTransform="translate(87.75 90) rotate(75.6813) scale(73.7924)">
<stop stop-color="#AE86FC"/>
<stop offset="1" stop-color="#5730EB"/>
</radialGradient>
<linearGradient id="paint28_linear_43_16992" x1="90" y1="56" x2="90" y2="98" gradientUnits="userSpaceOnUse">
<stop stop-color="white"/>
<stop offset="1" stop-color="white" stop-opacity="0"/>
</linearGradient>
</defs>
</svg>
