<svg width="180" height="180" viewBox="0 0 180 180" fill="none" xmlns="http://www.w3.org/2000/svg">
<g filter="url(#filter0_d_43_16984)">
<path d="M77.2001 32.1616C81.8632 29.4693 84.1947 28.1232 86.6735 27.5963C88.8667 27.1301 91.1334 27.1301 93.3266 27.5963C95.8054 28.1232 98.137 29.4693 102.8 32.1616L133.256 49.7452C137.919 52.4374 140.25 53.7836 141.946 55.6668C143.446 57.3331 144.58 59.2961 145.273 61.4286C146.056 63.8387 146.056 66.531 146.056 71.9155V107.083C146.056 112.467 146.056 115.159 145.273 117.57C144.58 119.702 143.446 121.665 141.946 123.331C140.25 125.215 137.919 126.561 133.256 129.253L102.8 146.837C98.137 149.529 95.8054 150.875 93.3266 151.402C91.1334 151.868 88.8667 151.868 86.6735 151.402C84.1947 150.875 81.8632 149.529 77.2001 146.837L46.7443 129.253C42.0812 126.561 39.7497 125.215 38.054 123.331C36.5537 121.665 35.4203 119.702 34.7274 117.57C33.9443 115.159 33.9443 112.467 33.9443 107.083V71.9155C33.9443 66.531 33.9443 63.8387 34.7274 61.4286C35.4203 59.2961 36.5537 57.3331 38.054 55.6668C39.7497 53.7836 42.0812 52.4374 46.7443 49.7452L77.2001 32.1616Z" fill="url(#paint0_radial_43_16984)"/>
</g>
<path d="M80.4001 37.2124C83.8974 35.1933 85.6461 34.1837 87.5052 33.7885C89.1501 33.4389 90.8501 33.4389 92.495 33.7885C94.3541 34.1837 96.1028 35.1933 99.6001 37.2124L130.482 55.0421C133.979 57.0613 135.728 58.0709 137 59.4833C138.125 60.733 138.975 62.2053 139.495 63.8046C140.082 65.6122 140.082 67.6314 140.082 71.6698V107.329C140.082 111.367 140.082 113.387 139.495 115.194C138.975 116.794 138.125 118.266 137 119.516C135.728 120.928 133.979 121.938 130.482 123.957L99.6001 141.786C96.1028 143.806 94.3541 144.815 92.495 145.21C90.8501 145.56 89.1501 145.56 87.5052 145.21C85.6461 144.815 83.8974 143.806 80.4001 141.786L49.5182 123.957C46.0209 121.938 44.2722 120.928 43.0005 119.516C41.8752 118.266 41.0252 116.794 40.5055 115.194C39.9182 113.387 39.9182 111.367 39.9182 107.329V71.6698C39.9182 67.6314 39.9182 65.6122 40.5055 63.8046C41.0252 62.2053 41.8752 60.733 43.0005 59.4833C44.2722 58.0709 46.0209 57.0613 49.5182 55.0421L80.4001 37.2124Z" fill="url(#paint1_radial_43_16984)" stroke="url(#paint2_linear_43_16984)" stroke-width="1.88261"/>
<g filter="url(#filter1_i_43_16984)">
<path d="M87.0001 42.0738C88.8565 41.0021 91.1437 41.0021 93.0001 42.0738L129.572 63.1888C131.429 64.2606 132.572 66.2413 132.572 68.3849V110.615C132.572 112.758 131.429 114.739 129.572 115.811L93.0001 136.926C91.1437 137.998 88.8565 137.998 87.0001 136.926L50.428 115.811C48.5716 114.739 47.428 112.758 47.428 110.615V68.3849C47.428 66.2413 48.5716 64.2606 50.428 63.1888L87.0001 42.0738Z" fill="url(#paint3_radial_43_16984)"/>
</g>
<path opacity="0.5" d="M124.082 89.4482C124.082 108.473 108.841 85.7946 90.0409 85.7946C71.2406 85.7946 56 108.473 56 89.4482C56 70.423 71.2406 55 90.0409 55C108.841 55 124.082 70.423 124.082 89.4482Z" fill="url(#paint4_linear_43_16984)"/>
<mask id="path-5-outside-1_43_16984" maskUnits="userSpaceOnUse" x="83" y="70" width="15" height="38" fill="black">
<rect fill="white" x="83" y="70" width="15" height="38"/>
<path d="M95 103.293C95 103.891 95 104.189 94.8837 104.418C94.7815 104.618 94.6183 104.781 94.4176 104.884C94.1894 105 93.8907 105 93.2933 105H87.7067C87.1093 105 86.8106 105 86.5824 104.884C86.3817 104.781 86.2185 104.618 86.1163 104.418C86 104.189 86 103.891 86 103.293V74.7067C86 74.1093 86 73.8106 86.1163 73.5824C86.2185 73.3817 86.3817 73.2185 86.5824 73.1163C86.8106 73 87.1093 73 87.7067 73H93.2933C93.8907 73 94.1894 73 94.4176 73.1163C94.6183 73.2185 94.7815 73.3817 94.8837 73.5824C95 73.8106 95 74.1093 95 74.7067V103.293Z"/>
</mask>
<path d="M95 103.293C95 103.891 95 104.189 94.8837 104.418C94.7815 104.618 94.6183 104.781 94.4176 104.884C94.1894 105 93.8907 105 93.2933 105H87.7067C87.1093 105 86.8106 105 86.5824 104.884C86.3817 104.781 86.2185 104.618 86.1163 104.418C86 104.189 86 103.891 86 103.293V74.7067C86 74.1093 86 73.8106 86.1163 73.5824C86.2185 73.3817 86.3817 73.2185 86.5824 73.1163C86.8106 73 87.1093 73 87.7067 73H93.2933C93.8907 73 94.1894 73 94.4176 73.1163C94.6183 73.2185 94.7815 73.3817 94.8837 73.5824C95 73.8106 95 74.1093 95 74.7067V103.293Z" fill="#FFFAEC"/>
<path d="M94.4176 73.1163L93.0556 75.7893L94.4176 73.1163ZM94.8837 73.5824L92.2107 74.9444L94.8837 73.5824ZM86.5824 104.884L85.2204 107.557L86.5824 104.884ZM86.1163 104.418L83.4432 105.78L86.1163 104.418ZM94.4176 104.884L93.0556 102.211L94.4176 104.884ZM94.8837 104.418L97.5568 105.78L94.8837 104.418ZM93.2933 102H87.7067V108H93.2933V102ZM89 103.293V74.7067H83V103.293H89ZM87.7067 76H93.2933V70H87.7067V76ZM92 74.7067V103.293H98V74.7067H92ZM93.2933 76C93.4495 76 93.5546 76.0001 93.6418 76.0014C93.7291 76.0028 93.7553 76.005 93.7496 76.0046C93.742 76.0039 93.4349 75.9826 93.0556 75.7893L95.7796 70.4432C95.1721 70.1337 94.6016 70.0542 94.2382 70.0245C93.9098 69.9977 93.5425 70 93.2933 70V76ZM98 74.7067C98 74.4575 98.0023 74.0902 97.9755 73.7618C97.9458 73.3984 97.8663 72.8279 97.5568 72.2204L92.2107 74.9444C92.0174 74.5651 91.9961 74.258 91.9954 74.2504C91.995 74.2447 91.9972 74.2709 91.9986 74.3582C91.9999 74.4454 92 74.5505 92 74.7067H98ZM93.0556 75.7893C92.6918 75.6039 92.3961 75.3082 92.2107 74.9444L97.5568 72.2204C97.1669 71.4552 96.5448 70.8331 95.7796 70.4432L93.0556 75.7893ZM89 74.7067C89 74.5505 89.0001 74.4454 89.0014 74.3582C89.0028 74.2709 89.005 74.2447 89.0046 74.2504C89.0039 74.258 88.9826 74.5651 88.7893 74.9444L83.4432 72.2204C83.1337 72.8279 83.0542 73.3984 83.0245 73.7618C82.9977 74.0902 83 74.4575 83 74.7067H89ZM87.7067 70C87.4575 70 87.0902 69.9977 86.7618 70.0245C86.3984 70.0542 85.8279 70.1337 85.2204 70.4432L87.9444 75.7893C87.5651 75.9826 87.258 76.0039 87.2504 76.0046C87.2447 76.005 87.2709 76.0028 87.3582 76.0014C87.4454 76.0001 87.5505 76 87.7067 76V70ZM88.7893 74.9444C88.6039 75.3082 88.3082 75.6039 87.9444 75.7893L85.2204 70.4432C84.4552 70.8331 83.8331 71.4552 83.4432 72.2204L88.7893 74.9444ZM87.7067 102C87.5505 102 87.4454 102 87.3582 101.999C87.2709 101.997 87.2447 101.995 87.2504 101.995C87.258 101.996 87.5651 102.017 87.9444 102.211L85.2204 107.557C85.8279 107.866 86.3984 107.946 86.7618 107.976C87.0902 108.002 87.4575 108 87.7067 108V102ZM83 103.293C83 103.543 82.9977 103.91 83.0245 104.238C83.0542 104.602 83.1337 105.172 83.4432 105.78L88.7893 103.056C88.9826 103.435 89.0039 103.742 89.0046 103.75C89.005 103.755 89.0028 103.729 89.0014 103.642C89.0001 103.555 89 103.45 89 103.293H83ZM87.9444 102.211C88.3082 102.396 88.6039 102.692 88.7893 103.056L83.4432 105.78C83.8331 106.545 84.4552 107.167 85.2204 107.557L87.9444 102.211ZM93.2933 108C93.5425 108 93.9098 108.002 94.2382 107.976C94.6016 107.946 95.1721 107.866 95.7796 107.557L93.0556 102.211C93.4349 102.017 93.742 101.996 93.7496 101.995C93.7553 101.995 93.7291 101.997 93.6418 101.999C93.5546 102 93.4495 102 93.2933 102V108ZM92 103.293C92 103.45 91.9999 103.555 91.9986 103.642C91.9972 103.729 91.995 103.755 91.9954 103.75C91.9961 103.742 92.0174 103.435 92.2107 103.056L97.5568 105.78C97.8663 105.172 97.9458 104.602 97.9755 104.238C98.0023 103.91 98 103.543 98 103.293H92ZM95.7796 107.557C96.5448 107.167 97.1669 106.545 97.5568 105.78L92.2107 103.056C92.3961 102.692 92.6918 102.396 93.0556 102.211L95.7796 107.557Z" fill="black" fill-opacity="0.12" style="mix-blend-mode:plus-darker" mask="url(#path-5-outside-1_43_16984)"/>
<mask id="path-7-inside-2_43_16984" fill="white">
<path d="M95 102.994C95 103.696 95 104.047 94.8634 104.316C94.7432 104.551 94.5514 104.743 94.3156 104.863C94.0474 105 93.6964 105 92.9944 105H88.0056C87.3036 105 86.9526 105 86.6844 104.863C86.4486 104.743 86.2568 104.551 86.1366 104.316C86 104.047 86 103.696 86 102.994V75.0056C86 74.3036 86 73.9526 86.1366 73.6844C86.2568 73.4486 86.4486 73.2568 86.6844 73.1366C86.9526 73 87.3036 73 88.0056 73H92.9944C93.6964 73 94.0474 73 94.3156 73.1366C94.5514 73.2568 94.7432 73.4486 94.8634 73.6844C95 73.9526 95 74.3036 95 75.0056V102.994Z"/>
</mask>
<path d="M94.3156 73.1366L94.8491 72.0895L94.3156 73.1366ZM94.8634 73.6844L93.8163 74.218L94.8634 73.6844ZM86.1366 104.316L85.0895 104.849L86.1366 104.316ZM94.3156 104.863L93.782 103.816L94.3156 104.863ZM94.8634 104.316L93.8163 103.782L94.8634 104.316ZM92.9944 103.825H88.0056V106.175H92.9944V103.825ZM87.1752 102.994V75.0056H84.8248V102.994H87.1752ZM88.0056 74.1752H92.9944V71.8248H88.0056V74.1752ZM93.8248 75.0056V102.994H96.1752V75.0056H93.8248ZM92.9944 74.1752C93.3648 74.1752 93.5719 74.1761 93.722 74.1884C93.8583 74.1995 93.8413 74.2139 93.782 74.1837L94.8491 72.0895C94.5217 71.9227 94.1951 71.8688 93.9134 71.8458C93.6454 71.8239 93.326 71.8248 92.9944 71.8248V74.1752ZM96.1752 75.0056C96.1752 74.674 96.1761 74.3546 96.1542 74.0866C96.1312 73.8049 96.0773 73.4783 95.9105 73.1509L93.8163 74.218C93.7861 74.1587 93.8005 74.1417 93.8116 74.278C93.8239 74.4281 93.8248 74.6352 93.8248 75.0056H96.1752ZM93.782 74.1837C93.7968 74.1912 93.8088 74.2032 93.8163 74.218L95.9105 73.1509C95.6776 72.6939 95.3061 72.3224 94.8491 72.0895L93.782 74.1837ZM87.1752 75.0056C87.1752 74.6352 87.1761 74.4281 87.1884 74.278C87.1995 74.1417 87.2139 74.1587 87.1837 74.218L85.0895 73.1509C84.9227 73.4783 84.8688 73.8049 84.8458 74.0866C84.8239 74.3546 84.8248 74.674 84.8248 75.0056H87.1752ZM88.0056 71.8248C87.674 71.8248 87.3546 71.8239 87.0866 71.8458C86.8049 71.8688 86.4783 71.9227 86.1509 72.0895L87.218 74.1837C87.1587 74.2139 87.1417 74.1995 87.278 74.1884C87.4281 74.1761 87.6352 74.1752 88.0056 74.1752V71.8248ZM87.1837 74.218C87.1912 74.2032 87.2032 74.1912 87.218 74.1837L86.1509 72.0895C85.6939 72.3224 85.3224 72.6939 85.0895 73.1509L87.1837 74.218ZM88.0056 103.825C87.6352 103.825 87.4281 103.824 87.278 103.812C87.1417 103.801 87.1587 103.786 87.218 103.816L86.1509 105.91C86.4783 106.077 86.8049 106.131 87.0866 106.154C87.3546 106.176 87.674 106.175 88.0056 106.175V103.825ZM84.8248 102.994C84.8248 103.326 84.8239 103.645 84.8458 103.913C84.8688 104.195 84.9227 104.522 85.0895 104.849L87.1837 103.782C87.2139 103.841 87.1995 103.858 87.1884 103.722C87.1761 103.572 87.1752 103.365 87.1752 102.994H84.8248ZM87.218 103.816C87.2032 103.809 87.1912 103.797 87.1837 103.782L85.0895 104.849C85.3224 105.306 85.6939 105.678 86.1509 105.91L87.218 103.816ZM92.9944 106.175C93.326 106.175 93.6454 106.176 93.9134 106.154C94.1951 106.131 94.5217 106.077 94.8491 105.91L93.782 103.816C93.8413 103.786 93.8583 103.801 93.722 103.812C93.5719 103.824 93.3648 103.825 92.9944 103.825V106.175ZM93.8248 102.994C93.8248 103.365 93.8239 103.572 93.8116 103.722C93.8005 103.858 93.7861 103.841 93.8163 103.782L95.9105 104.849C96.0773 104.522 96.1312 104.195 96.1542 103.913C96.1761 103.645 96.1752 103.326 96.1752 102.994H93.8248ZM94.8491 105.91C95.3061 105.678 95.6776 105.306 95.9105 104.849L93.8163 103.782C93.8088 103.797 93.7968 103.809 93.782 103.816L94.8491 105.91Z" fill="white" fill-opacity="0.25" mask="url(#path-7-inside-2_43_16984)"/>
<defs>
<filter id="filter0_d_43_16984" x="26.8846" y="22.5396" width="126.231" height="138.625" filterUnits="userSpaceOnUse" color-interpolation-filters="sRGB">
<feFlood flood-opacity="0" result="BackgroundImageFix"/>
<feColorMatrix in="SourceAlpha" type="matrix" values="0 0 0 0 0 0 0 0 0 0 0 0 0 0 0 0 0 0 127 0" result="hardAlpha"/>
<feOffset dy="2.35326"/>
<feGaussianBlur stdDeviation="3.52989"/>
<feComposite in2="hardAlpha" operator="out"/>
<feColorMatrix type="matrix" values="0 0 0 0 0.395182 0 0 0 0 0.371874 0 0 0 0 0.361961 0 0 0 0.22 0"/>
<feBlend mode="color-burn" in2="BackgroundImageFix" result="effect1_dropShadow_43_16984"/>
<feBlend mode="normal" in="SourceGraphic" in2="effect1_dropShadow_43_16984" result="shape"/>
</filter>
<filter id="filter1_i_43_16984" x="47.428" y="41.2695" width="89.1443" height="102.461" filterUnits="userSpaceOnUse" color-interpolation-filters="sRGB">
<feFlood flood-opacity="0" result="BackgroundImageFix"/>
<feBlend mode="normal" in="SourceGraphic" in2="BackgroundImageFix" result="shape"/>
<feColorMatrix in="SourceAlpha" type="matrix" values="0 0 0 0 0 0 0 0 0 0 0 0 0 0 0 0 0 0 127 0" result="hardAlpha"/>
<feOffset dx="4" dy="6"/>
<feGaussianBlur stdDeviation="5"/>
<feComposite in2="hardAlpha" operator="arithmetic" k2="-1" k3="1"/>
<feColorMatrix type="matrix" values="0 0 0 0 0 0 0 0 0 0 0 0 0 0 0 0 0 0 0.2 0"/>
<feBlend mode="plus-darker" in2="shape" result="effect1_innerShadow_43_16984"/>
</filter>
<radialGradient id="paint0_radial_43_16984" cx="0" cy="0" r="1" gradientUnits="userSpaceOnUse" gradientTransform="translate(118.561 145.666) rotate(-116.589) scale(127.582)">
<stop stop-color="#D19C6C"/>
<stop offset="0.70233" stop-color="#D69F6D"/>
<stop offset="1" stop-color="#FFDCC1"/>
</radialGradient>
<radialGradient id="paint1_radial_43_16984" cx="0" cy="0" r="1" gradientUnits="userSpaceOnUse" gradientTransform="translate(116.09 128.275) rotate(-122.006) scale(100.794 95.4638)">
<stop stop-color="#FAE3D4"/>
<stop offset="0.5" stop-color="#DCAE84"/>
<stop offset="1" stop-color="#CE8C50"/>
</radialGradient>
<linearGradient id="paint2_linear_43_16984" x1="89.7825" y1="27.5298" x2="89.7826" y2="147.258" gradientUnits="userSpaceOnUse">
<stop stop-color="#D49A65"/>
<stop offset="1" stop-color="#FFF8F3"/>
</linearGradient>
<radialGradient id="paint3_radial_43_16984" cx="0" cy="0" r="1" gradientUnits="userSpaceOnUse" gradientTransform="translate(87.3666 89.4998) rotate(78.837) scale(69.7044)">
<stop stop-color="#EDCCB1"/>
<stop offset="1" stop-color="#C87528"/>
</radialGradient>
<linearGradient id="paint4_linear_43_16984" x1="90.0409" y1="55" x2="90.0409" y2="97.0506" gradientUnits="userSpaceOnUse">
<stop stop-color="white"/>
<stop offset="1" stop-color="white" stop-opacity="0"/>
</linearGradient>
</defs>
</svg>
