<svg width="180" height="180" viewBox="0 0 180 180" fill="none" xmlns="http://www.w3.org/2000/svg">
<mask id="mask0_43_16991" style="mask-type:alpha" maskUnits="userSpaceOnUse" x="0" y="0" width="180" height="180">
<rect width="180" height="180" fill="#D9D9D9"/>
</mask>
<g mask="url(#mask0_43_16991)">
<path d="M131.748 26L110.749 45.5C110.748 67.1 103.072 63 109.69 99C161.749 88 139.748 30 131.748 26Z" fill="url(#paint0_linear_43_16991)"/>
<path d="M49.4927 26L70.4927 45.5C70.4927 67.1 78.169 63 71.5517 99C19.4927 88 41.4927 30 49.4927 26Z" fill="url(#paint1_linear_43_16991)"/>
<path opacity="0.5" d="M128.662 28.8662L131.749 26C139.176 29.7138 158.672 79.9769 119.759 95.9541C151.25 79.0664 136.362 36.2239 128.662 28.8662Z" fill="white"/>
<path opacity="0.5" d="M52.5794 28.8662L49.4927 26C42.065 29.7138 22.5691 79.9769 61.4827 95.9541C29.9915 79.0664 44.8795 36.2239 52.5794 28.8662Z" fill="white"/>
<path d="M136.198 113.572L90.0001 159.77L43.8025 113.572H136.198Z" fill="url(#paint2_linear_43_16991)"/>
<path d="M136.198 113.572L90 159.77L90 113.572H136.198Z" fill="url(#paint3_linear_43_16991)"/>
<path d="M43.8022 66.4301L89.9999 20.2324L136.198 66.4301H43.8022Z" fill="url(#paint4_linear_43_16991)"/>
<path d="M43.8023 66.4301L90 20.2324L90 66.4301H43.8023Z" fill="url(#paint5_linear_43_16991)"/>
<g filter="url(#filter0_i_43_16991)">
<path d="M115.104 136.183C140.61 142.818 151.432 127.486 155.73 115.115C139.752 120.668 123.85 119.121 120.727 116.42L115.104 136.183Z" fill="url(#paint6_linear_43_16991)"/>
</g>
<g filter="url(#filter1_i_43_16991)">
<path d="M115.104 136.183C140.61 142.818 151.432 127.486 155.73 115.115C146.987 129.718 131.241 134.171 117.358 130.998C116.131 135.31 115.922 133.309 115.104 136.183Z" fill="url(#paint7_linear_43_16991)"/>
</g>
<g filter="url(#filter2_i_43_16991)">
<path d="M122.687 132C157.951 131.2 166.267 107.5 167.268 90C148.735 103 127.696 106.833 122.687 104.5V132Z" fill="url(#paint8_linear_43_16991)"/>
</g>
<g filter="url(#filter3_i_43_16991)">
<path d="M122.687 132C157.951 131.2 166.267 107.5 167.268 90C161.363 112 142.724 123.5 123.689 124.5C123.689 130.5 122.687 128 122.687 132Z" fill="url(#paint9_linear_43_16991)"/>
</g>
<g filter="url(#filter4_i_43_16991)">
<path d="M169.773 53.5C158.252 69.5 141.221 80.3333 130.702 83C130.702 83 132.706 97 132.706 112.5C171.276 107.5 178.289 76 169.773 53.5Z" fill="url(#paint10_linear_43_16991)"/>
</g>
<g filter="url(#filter5_i_43_16991)">
<path d="M169.773 53.5C169.773 82.5 142.5 99 132.705 101C132.705 101 132.705 97 132.705 112.5C171.276 107.5 178.288 76 169.773 53.5Z" fill="url(#paint11_linear_43_16991)"/>
</g>
<g filter="url(#filter6_i_43_16991)">
<path d="M161.257 28.5C141.221 54.5 120.851 63.1667 109.163 65L128.698 97C166.767 87.5 169.773 47.5 161.257 28.5Z" fill="url(#paint12_linear_43_16991)"/>
</g>
<g filter="url(#filter7_i_43_16991)">
<path d="M161.257 28.5C158.5 63.5 134.188 78.1667 122.5 80L128.698 97C166.768 87.5 169.773 47.5 161.257 28.5Z" fill="url(#paint13_linear_43_16991)"/>
</g>
<g filter="url(#filter8_i_43_16991)">
<path d="M64.8958 136.183C39.3896 142.818 28.5684 127.486 24.2704 115.115C40.2476 120.668 56.1505 119.121 59.2732 116.42L64.8958 136.183Z" fill="url(#paint14_linear_43_16991)"/>
</g>
<g filter="url(#filter9_i_43_16991)">
<path d="M64.8958 136.183C39.3896 142.818 28.5684 127.486 24.2704 115.115C33.0126 129.718 48.7587 134.171 62.6424 130.998C63.8691 135.31 64.0779 133.309 64.8958 136.183Z" fill="url(#paint15_linear_43_16991)"/>
</g>
<g filter="url(#filter10_i_43_16991)">
<path d="M57.3127 132C22.0485 131.2 13.7334 107.5 12.7316 90C31.2653 103 52.3036 106.833 57.3127 104.5V132Z" fill="url(#paint16_linear_43_16991)"/>
</g>
<g filter="url(#filter11_i_43_16991)">
<path d="M57.3127 132C22.0485 131.2 13.7334 107.5 12.7316 90C18.6373 112 37.2763 123.5 56.3109 124.5C56.3109 130.5 57.3127 128 57.3127 132Z" fill="url(#paint17_linear_43_16991)"/>
</g>
<g filter="url(#filter12_i_43_16991)">
<path d="M10.2269 53.5C21.7479 69.5 38.7789 80.3333 49.2981 83C49.2981 83 47.2945 97 47.2944 112.5C8.72421 107.5 1.71144 76 10.2269 53.5Z" fill="url(#paint18_linear_43_16991)"/>
</g>
<g filter="url(#filter13_i_43_16991)">
<path d="M10.2272 53.5C10.2272 82.5 37.5001 99 47.2947 101C47.2947 101 47.2947 97 47.2947 112.5C8.72443 107.5 1.71166 76 10.2272 53.5Z" fill="url(#paint19_linear_43_16991)"/>
</g>
<g filter="url(#filter14_i_43_16991)">
<path d="M18.7425 28.5C38.779 54.5 59.1495 63.1667 70.8374 65L51.3018 97C13.2325 87.5 10.227 47.5 18.7425 28.5Z" fill="url(#paint20_linear_43_16991)"/>
</g>
<g filter="url(#filter15_i_43_16991)">
<path d="M18.7425 28.5C21.5 63.5 45.812 78.1667 57.5 80L51.3018 97C13.2325 87.5 10.227 47.5 18.7425 28.5Z" fill="url(#paint21_linear_43_16991)"/>
</g>
<g filter="url(#filter16_d_43_16991)">
<circle cx="90" cy="90" r="54" fill="url(#paint22_radial_43_16991)"/>
</g>
<circle cx="90" cy="90" r="48" fill="url(#paint23_radial_43_16991)" stroke="url(#paint24_linear_43_16991)" stroke-width="1.6"/>
<g filter="url(#filter17_i_43_16991)">
<circle cx="90" cy="90" r="42" fill="url(#paint25_radial_43_16991)"/>
</g>
<path opacity="0.5" d="M124 90.4068C124 109.409 108.778 86.7576 90 86.7576C71.2223 86.7576 56 109.409 56 90.4068C56 71.4045 71.2223 56 90 56C108.778 56 124 71.4045 124 90.4068Z" fill="url(#paint26_linear_43_16991)"/>
<mask id="path-30-outside-1_43_16991" maskUnits="userSpaceOnUse" x="54" y="73" width="72" height="36" fill="black">
<rect fill="white" x="54" y="73" width="72" height="36"/>
<path fill-rule="evenodd" clip-rule="evenodd" d="M66.5432 104.921C66.6769 105.309 66.7438 105.503 66.8654 105.647C66.9728 105.773 67.1101 105.871 67.2648 105.932C67.44 106 67.6454 106 68.0561 106H77.4534C77.8635 106 78.0686 106 78.2437 105.932C78.3983 105.872 78.5355 105.774 78.6429 105.647C78.7645 105.504 78.8315 105.31 78.9655 104.923L88.2301 78.1228C88.4775 77.4071 88.6012 77.0493 88.532 76.764C88.4713 76.5143 88.3169 76.2976 88.1007 76.1587C87.8538 76 87.4752 76 86.7179 76H80.5903C80.1648 76 79.9521 76 79.7724 76.0723C79.6138 76.1361 79.4742 76.2396 79.3669 76.3728C79.2455 76.5236 79.1835 76.7271 79.0596 77.1342L73.2228 96.3157C73.172 96.4828 73.0178 96.597 72.8432 96.597C72.6694 96.597 72.5159 96.4839 72.4643 96.318L66.4979 77.125C66.3723 76.7211 66.3096 76.5191 66.188 76.3695C66.0807 76.2374 65.9415 76.1349 65.7835 76.0716C65.6046 76 65.3931 76 64.97 76H58.8318C58.0756 76 57.6974 76 57.4506 76.1585C57.2345 76.2972 57.0801 76.5136 57.0192 76.7631C56.9497 77.0481 57.0728 77.4056 57.3189 78.1207L66.5432 104.921ZM91.7822 104.4C91.7822 104.96 91.7822 105.24 91.8912 105.454C91.9871 105.642 92.1401 105.795 92.3282 105.891C92.5421 106 92.8222 106 93.3822 106H98.6592C99.2193 106 99.4993 106 99.7132 105.891C99.9014 105.795 100.054 105.642 100.15 105.454C100.259 105.24 100.259 104.96 100.259 104.4V77.6C100.259 77.0399 100.259 76.7599 100.15 76.546C100.054 76.3578 99.9014 76.2049 99.7132 76.109C99.4993 76 99.2193 76 98.6592 76H93.3822C92.8222 76 92.5421 76 92.3282 76.109C92.1401 76.2049 91.9871 76.3578 91.8912 76.546C91.7822 76.7599 91.7822 77.0399 91.7822 77.6V104.4ZM111.554 104.4C111.554 104.96 111.554 105.24 111.445 105.454C111.349 105.642 111.196 105.795 111.008 105.891C110.794 106 110.514 106 109.954 106H104.677C104.117 106 103.837 106 103.623 105.891C103.435 105.795 103.282 105.642 103.186 105.454C103.077 105.24 103.077 104.96 103.077 104.4V77.6C103.077 77.0399 103.077 76.7599 103.186 76.546C103.282 76.3578 103.435 76.2049 103.623 76.109C103.837 76 104.117 76 104.677 76H109.954C110.514 76 110.794 76 111.008 76.109C111.196 76.2049 111.349 76.3578 111.445 76.546C111.554 76.7599 111.554 77.0399 111.554 77.6V104.4ZM114.161 104.4C114.161 104.96 114.161 105.24 114.27 105.454C114.366 105.642 114.519 105.795 114.707 105.891C114.921 106 115.201 106 115.761 106H121.038C121.598 106 121.878 106 122.092 105.891C122.28 105.795 122.433 105.642 122.529 105.454C122.638 105.24 122.638 104.96 122.638 104.4V77.6C122.638 77.0399 122.638 76.7599 122.529 76.546C122.433 76.3578 122.28 76.2049 122.092 76.109C121.878 76 121.598 76 121.038 76H115.761C115.201 76 114.921 76 114.707 76.109C114.519 76.2049 114.366 76.3578 114.27 76.546C114.161 76.7599 114.161 77.0399 114.161 77.6V104.4Z"/>
</mask>
<path fill-rule="evenodd" clip-rule="evenodd" d="M66.5432 104.921C66.6769 105.309 66.7438 105.503 66.8654 105.647C66.9728 105.773 67.1101 105.871 67.2648 105.932C67.44 106 67.6454 106 68.0561 106H77.4534C77.8635 106 78.0686 106 78.2437 105.932C78.3983 105.872 78.5355 105.774 78.6429 105.647C78.7645 105.504 78.8315 105.31 78.9655 104.923L88.2301 78.1228C88.4775 77.4071 88.6012 77.0493 88.532 76.764C88.4713 76.5143 88.3169 76.2976 88.1007 76.1587C87.8538 76 87.4752 76 86.7179 76H80.5903C80.1648 76 79.9521 76 79.7724 76.0723C79.6138 76.1361 79.4742 76.2396 79.3669 76.3728C79.2455 76.5236 79.1835 76.7271 79.0596 77.1342L73.2228 96.3157C73.172 96.4828 73.0178 96.597 72.8432 96.597C72.6694 96.597 72.5159 96.4839 72.4643 96.318L66.4979 77.125C66.3723 76.7211 66.3096 76.5191 66.188 76.3695C66.0807 76.2374 65.9415 76.1349 65.7835 76.0716C65.6046 76 65.3931 76 64.97 76H58.8318C58.0756 76 57.6974 76 57.4506 76.1585C57.2345 76.2972 57.0801 76.5136 57.0192 76.7631C56.9497 77.0481 57.0728 77.4056 57.3189 78.1207L66.5432 104.921ZM91.7822 104.4C91.7822 104.96 91.7822 105.24 91.8912 105.454C91.9871 105.642 92.1401 105.795 92.3282 105.891C92.5421 106 92.8222 106 93.3822 106H98.6592C99.2193 106 99.4993 106 99.7132 105.891C99.9014 105.795 100.054 105.642 100.15 105.454C100.259 105.24 100.259 104.96 100.259 104.4V77.6C100.259 77.0399 100.259 76.7599 100.15 76.546C100.054 76.3578 99.9014 76.2049 99.7132 76.109C99.4993 76 99.2193 76 98.6592 76H93.3822C92.8222 76 92.5421 76 92.3282 76.109C92.1401 76.2049 91.9871 76.3578 91.8912 76.546C91.7822 76.7599 91.7822 77.0399 91.7822 77.6V104.4ZM111.554 104.4C111.554 104.96 111.554 105.24 111.445 105.454C111.349 105.642 111.196 105.795 111.008 105.891C110.794 106 110.514 106 109.954 106H104.677C104.117 106 103.837 106 103.623 105.891C103.435 105.795 103.282 105.642 103.186 105.454C103.077 105.24 103.077 104.96 103.077 104.4V77.6C103.077 77.0399 103.077 76.7599 103.186 76.546C103.282 76.3578 103.435 76.2049 103.623 76.109C103.837 76 104.117 76 104.677 76H109.954C110.514 76 110.794 76 111.008 76.109C111.196 76.2049 111.349 76.3578 111.445 76.546C111.554 76.7599 111.554 77.0399 111.554 77.6V104.4ZM114.161 104.4C114.161 104.96 114.161 105.24 114.27 105.454C114.366 105.642 114.519 105.795 114.707 105.891C114.921 106 115.201 106 115.761 106H121.038C121.598 106 121.878 106 122.092 105.891C122.28 105.795 122.433 105.642 122.529 105.454C122.638 105.24 122.638 104.96 122.638 104.4V77.6C122.638 77.0399 122.638 76.7599 122.529 76.546C122.433 76.3578 122.28 76.2049 122.092 76.109C121.878 76 121.598 76 121.038 76H115.761C115.201 76 114.921 76 114.707 76.109C114.519 76.2049 114.366 76.3578 114.27 76.546C114.161 76.7599 114.161 77.0399 114.161 77.6V104.4Z" fill="#FFE3FB"/>
<path d="M114.707 76.109L113.43 73.603L114.707 76.109ZM114.27 76.546L111.764 75.2692L114.27 76.546ZM122.529 76.546L125.035 75.2692L122.529 76.546ZM122.092 76.109L120.815 78.6149L122.092 76.109ZM114.707 105.891L113.43 108.397L114.707 105.891ZM114.27 105.454L116.776 104.177L114.27 105.454ZM122.092 105.891L123.369 108.397L122.092 105.891ZM122.529 105.454L125.035 106.731L122.529 105.454ZM111.008 76.109L112.285 73.603L111.008 76.109ZM111.445 76.546L113.951 75.2692L111.445 76.546ZM103.186 76.546L100.68 75.2692L103.186 76.546ZM103.623 76.109L102.346 73.603L103.623 76.109ZM111.008 105.891L109.731 103.385L111.008 105.891ZM111.445 105.454L113.951 106.731L111.445 105.454ZM103.623 105.891L102.346 108.397L103.623 105.891ZM103.186 105.454L100.68 106.731L103.186 105.454ZM92.3282 76.109L91.0514 73.603L92.3282 76.109ZM91.8912 76.546L94.3972 77.8229L91.8912 76.546ZM100.15 76.546L97.6443 77.8229L100.15 76.546ZM99.7132 76.109L100.99 73.603L99.7132 76.109ZM92.3282 105.891L93.6051 103.385L92.3282 105.891ZM91.8912 105.454L94.3972 104.177L91.8912 105.454ZM99.7132 105.891L100.99 108.397L99.7132 105.891ZM100.15 105.454L97.6443 104.177L100.15 105.454ZM57.0192 76.7631L54.2868 76.0967L57.0192 76.7631ZM66.4979 77.125L63.8122 77.9599L66.4979 77.125ZM66.188 76.3695L68.371 74.5962L66.188 76.3695ZM65.7835 76.0716L64.7382 78.6827L65.7835 76.0716ZM72.4643 96.318L75.15 95.4831L72.4643 96.318ZM73.2228 96.3157L70.5321 95.497L73.2228 96.3157ZM79.7724 76.0723L78.7223 73.4632L79.7724 76.0723ZM79.3669 76.3728L77.1765 74.6086L79.3669 76.3728ZM88.532 76.764L85.7989 77.4278L88.532 76.764ZM88.1007 76.1587L86.5805 78.5249L88.1007 76.1587ZM67.2648 105.932L68.2866 103.311L67.2648 105.932ZM66.5432 104.921L69.2026 104.005L66.5432 104.921ZM66.8654 105.647L69.0105 103.828L66.8654 105.647ZM78.2437 105.932L79.2644 108.553L78.2437 105.932ZM78.9655 104.923L76.3074 104.004L78.9655 104.923ZM78.6429 105.647L76.4994 103.827L78.6429 105.647ZM77.4534 103.188H68.0561V108.812H77.4534V103.188ZM85.572 77.2038L76.3074 104.004L81.6237 105.842L90.8883 79.0417L85.572 77.2038ZM80.5903 78.8125H86.7179V73.1875H80.5903V78.8125ZM75.9135 97.1345L81.7503 77.953L76.369 76.3155L70.5321 95.497L75.9135 97.1345ZM63.8122 77.9599L69.7786 97.1529L75.15 95.4831L69.1836 76.2901L63.8122 77.9599ZM58.8318 78.8125H64.97V73.1875H58.8318V78.8125ZM69.2026 104.005L59.9783 77.2054L54.6596 79.0361L63.8839 105.836L69.2026 104.005ZM98.6592 103.188H93.3822V108.812H98.6592V103.188ZM97.4467 77.6V104.4H103.072V77.6H97.4467ZM93.3822 78.8125H98.6592V73.1875H93.3822V78.8125ZM94.5947 104.4V77.6H88.9697V104.4H94.5947ZM104.677 108.812H109.954V103.188H104.677V108.812ZM100.265 77.6V104.4H105.89V77.6H100.265ZM109.954 73.1875H104.677V78.8125H109.954V73.1875ZM114.367 104.4V77.6H108.742V104.4H114.367ZM121.038 103.188H115.761V108.812H121.038V103.188ZM119.826 77.6V104.4H125.451V77.6H119.826ZM115.761 78.8125H121.038V73.1875H115.761V78.8125ZM116.974 104.4V77.6H111.349V104.4H116.974ZM115.761 73.1875C115.528 73.1875 115.183 73.1853 114.875 73.2105C114.535 73.2383 114 73.3129 113.43 73.603L115.984 78.6149C115.629 78.7961 115.341 78.8162 115.334 78.8168C115.328 78.8172 115.353 78.8151 115.435 78.8139C115.516 78.8126 115.615 78.8125 115.761 78.8125V73.1875ZM116.974 77.6C116.974 77.4536 116.974 77.3551 116.975 77.2733C116.976 77.1915 116.979 77.1669 116.978 77.1722C116.977 77.1794 116.957 77.4672 116.776 77.8229L111.764 75.2692C111.474 75.8387 111.4 76.3735 111.372 76.7142C111.347 77.022 111.349 77.3664 111.349 77.6H116.974ZM113.43 73.603C112.713 73.9686 112.13 74.5518 111.764 75.2692L116.776 77.8229C116.602 78.1639 116.325 78.4412 115.984 78.6149L113.43 73.603ZM125.451 77.6C125.451 77.3664 125.453 77.022 125.428 76.7142C125.4 76.3735 125.325 75.8387 125.035 75.2692L120.023 77.8229C119.842 77.4672 119.822 77.1794 119.822 77.1722C119.821 77.1669 119.823 77.1915 119.824 77.2733C119.826 77.3551 119.826 77.4536 119.826 77.6H125.451ZM121.038 78.8125C121.185 78.8125 121.283 78.8126 121.365 78.8139C121.447 78.8151 121.471 78.8172 121.466 78.8168C121.459 78.8162 121.171 78.7961 120.815 78.6149L123.369 73.603C122.8 73.3129 122.265 73.2383 121.924 73.2105C121.616 73.1853 121.272 73.1875 121.038 73.1875V78.8125ZM125.035 75.2692C124.67 74.5518 124.087 73.9686 123.369 73.603L120.815 78.6149C120.474 78.4412 120.197 78.1639 120.023 77.8229L125.035 75.2692ZM115.761 103.188C115.615 103.188 115.516 103.187 115.435 103.186C115.353 103.185 115.328 103.183 115.334 103.183C115.341 103.184 115.629 103.204 115.984 103.385L113.43 108.397C114 108.687 114.535 108.762 114.875 108.79C115.183 108.815 115.528 108.812 115.761 108.812V103.188ZM111.349 104.4C111.349 104.634 111.347 104.978 111.372 105.286C111.4 105.627 111.474 106.161 111.764 106.731L116.776 104.177C116.957 104.533 116.977 104.821 116.978 104.828C116.979 104.833 116.976 104.808 116.975 104.727C116.974 104.645 116.974 104.546 116.974 104.4H111.349ZM115.984 103.385C116.325 103.559 116.602 103.836 116.776 104.177L111.764 106.731C112.13 107.448 112.713 108.031 113.43 108.397L115.984 103.385ZM121.038 108.812C121.272 108.812 121.616 108.815 121.924 108.79C122.265 108.762 122.8 108.687 123.369 108.397L120.815 103.385C121.171 103.204 121.459 103.184 121.466 103.183C121.471 103.183 121.447 103.185 121.365 103.186C121.283 103.187 121.185 103.188 121.038 103.188V108.812ZM119.826 104.4C119.826 104.546 119.826 104.645 119.824 104.727C119.823 104.808 119.821 104.833 119.822 104.828C119.822 104.821 119.842 104.533 120.023 104.177L125.035 106.731C125.325 106.161 125.4 105.627 125.428 105.286C125.453 104.978 125.451 104.634 125.451 104.4H119.826ZM123.369 108.397C124.087 108.031 124.67 107.448 125.035 106.731L120.023 104.177C120.197 103.836 120.474 103.559 120.815 103.385L123.369 108.397ZM109.954 78.8125C110.101 78.8125 110.199 78.8126 110.281 78.8139C110.363 78.8151 110.387 78.8172 110.382 78.8168C110.375 78.8162 110.087 78.7961 109.731 78.6149L112.285 73.603C111.716 73.3129 111.181 73.2383 110.84 73.2105C110.532 73.1853 110.188 73.1875 109.954 73.1875V78.8125ZM114.367 77.6C114.367 77.3664 114.369 77.022 114.344 76.7142C114.316 76.3735 114.241 75.8387 113.951 75.2692L108.939 77.8229C108.758 77.4672 108.738 77.1794 108.738 77.1722C108.737 77.1669 108.739 77.1915 108.74 77.2733C108.742 77.3551 108.742 77.4536 108.742 77.6H114.367ZM109.731 78.6149C109.39 78.4412 109.113 78.1639 108.939 77.8229L113.951 75.2692C113.586 74.5518 113.003 73.9686 112.285 73.603L109.731 78.6149ZM105.89 77.6C105.89 77.4536 105.89 77.3551 105.891 77.2733C105.892 77.1915 105.895 77.1669 105.894 77.1722C105.894 77.1794 105.873 77.4672 105.692 77.8229L100.68 75.2692C100.39 75.8387 100.316 76.3735 100.288 76.7142C100.263 77.022 100.265 77.3664 100.265 77.6H105.89ZM104.677 73.1875C104.444 73.1875 104.099 73.1853 103.791 73.2105C103.451 73.2383 102.916 73.3129 102.346 73.603L104.9 78.6149C104.545 78.7961 104.257 78.8162 104.25 78.8168C104.244 78.8172 104.269 78.8151 104.351 78.8139C104.432 78.8126 104.531 78.8125 104.677 78.8125V73.1875ZM105.692 77.8229C105.518 78.1639 105.241 78.4412 104.9 78.6149L102.346 73.603C101.629 73.9686 101.046 74.5518 100.68 75.2692L105.692 77.8229ZM109.954 108.812C110.188 108.812 110.532 108.815 110.84 108.79C111.181 108.762 111.716 108.687 112.285 108.397L109.731 103.385C110.087 103.204 110.375 103.184 110.382 103.183C110.387 103.183 110.363 103.185 110.281 103.186C110.199 103.187 110.101 103.188 109.954 103.188V108.812ZM108.742 104.4C108.742 104.546 108.742 104.645 108.74 104.727C108.739 104.808 108.737 104.833 108.738 104.828C108.738 104.821 108.758 104.533 108.939 104.177L113.951 106.731C114.241 106.161 114.316 105.627 114.344 105.286C114.369 104.978 114.367 104.634 114.367 104.4H108.742ZM112.285 108.397C113.003 108.031 113.586 107.448 113.951 106.731L108.939 104.177C109.113 103.836 109.39 103.559 109.731 103.385L112.285 108.397ZM104.677 103.188C104.531 103.188 104.432 103.187 104.351 103.186C104.269 103.185 104.244 103.183 104.25 103.183C104.257 103.184 104.545 103.204 104.9 103.385L102.346 108.397C102.916 108.687 103.451 108.762 103.791 108.79C104.099 108.815 104.444 108.812 104.677 108.812V103.188ZM100.265 104.4C100.265 104.634 100.263 104.978 100.288 105.286C100.316 105.627 100.39 106.161 100.68 106.731L105.692 104.177C105.873 104.533 105.894 104.821 105.894 104.828C105.895 104.833 105.892 104.808 105.891 104.727C105.89 104.645 105.89 104.546 105.89 104.4H100.265ZM104.9 103.385C105.241 103.559 105.518 103.836 105.692 104.177L100.68 106.731C101.046 107.448 101.629 108.031 102.346 108.397L104.9 103.385ZM93.3822 73.1875C93.1486 73.1875 92.8042 73.1853 92.4964 73.2105C92.1557 73.2383 91.6209 73.3129 91.0514 73.603L93.6051 78.6149C93.2495 78.7961 92.9616 78.8162 92.9544 78.8168C92.9492 78.8172 92.9737 78.8151 93.0555 78.8139C93.1373 78.8126 93.2358 78.8125 93.3822 78.8125V73.1875ZM94.5947 77.6C94.5947 77.4536 94.5948 77.3551 94.5961 77.2733C94.5974 77.1915 94.5994 77.1669 94.599 77.1722C94.5984 77.1794 94.5784 77.4672 94.3972 77.8229L89.3853 75.2692C89.0951 75.8387 89.0205 76.3735 88.9927 76.7142C88.9675 77.022 88.9697 77.3664 88.9697 77.6H94.5947ZM91.0514 73.603C90.334 73.9686 89.7508 74.5518 89.3853 75.2692L94.3972 77.8229C94.2234 78.1639 93.9461 78.4412 93.6051 78.6149L91.0514 73.603ZM103.072 77.6C103.072 77.3664 103.074 77.022 103.049 76.7142C103.021 76.3735 102.946 75.8387 102.656 75.2692L97.6443 77.8229C97.4631 77.4672 97.443 77.1794 97.4424 77.1722C97.442 77.1669 97.4441 77.1915 97.4454 77.2733C97.4467 77.3551 97.4467 77.4536 97.4467 77.6H103.072ZM98.6592 78.8125C98.8057 78.8125 98.9042 78.8126 98.9859 78.8139C99.0677 78.8151 99.0923 78.8172 99.087 78.8168C99.0798 78.8162 98.792 78.7961 98.4364 78.6149L100.99 73.603C100.421 73.3129 99.8857 73.2383 99.5451 73.2105C99.2372 73.1853 98.8928 73.1875 98.6592 73.1875V78.8125ZM102.656 75.2692C102.291 74.5518 101.707 73.9686 100.99 73.603L98.4364 78.6149C98.0953 78.4412 97.818 78.1639 97.6443 77.8229L102.656 75.2692ZM93.3822 103.188C93.2358 103.188 93.1373 103.187 93.0555 103.186C92.9737 103.185 92.9492 103.183 92.9544 103.183C92.9616 103.184 93.2495 103.204 93.6051 103.385L91.0514 108.397C91.6209 108.687 92.1557 108.762 92.4964 108.79C92.8042 108.815 93.1486 108.812 93.3822 108.812V103.188ZM88.9697 104.4C88.9697 104.634 88.9675 104.978 88.9927 105.286C89.0205 105.627 89.0951 106.161 89.3853 106.731L94.3972 104.177C94.5784 104.533 94.5984 104.821 94.599 104.828C94.5994 104.833 94.5974 104.808 94.5961 104.727C94.5948 104.645 94.5947 104.546 94.5947 104.4H88.9697ZM93.6051 103.385C93.9461 103.559 94.2234 103.836 94.3972 104.177L89.3853 106.731C89.7508 107.448 90.334 108.031 91.0514 108.397L93.6051 103.385ZM98.6592 108.812C98.8928 108.812 99.2372 108.815 99.5451 108.79C99.8857 108.762 100.421 108.687 100.99 108.397L98.4364 103.385C98.792 103.204 99.0798 103.184 99.087 103.183C99.0923 103.183 99.0677 103.185 98.9859 103.186C98.9042 103.187 98.8057 103.188 98.6592 103.188V108.812ZM97.4467 104.4C97.4467 104.546 97.4467 104.645 97.4454 104.727C97.4441 104.808 97.442 104.833 97.4424 104.828C97.443 104.821 97.4631 104.533 97.6443 104.177L102.656 106.731C102.946 106.161 103.021 105.627 103.049 105.286C103.074 104.978 103.072 104.634 103.072 104.4H97.4467ZM100.99 108.397C101.707 108.031 102.291 107.448 102.656 106.731L97.6443 104.177C97.818 103.836 98.0953 103.559 98.4364 103.385L100.99 108.397ZM58.8318 73.1875C58.5068 73.1875 58.0736 73.1848 57.6979 73.2186C57.3089 73.2537 56.6185 73.3504 55.9312 73.7917L58.9699 78.5253C58.7485 78.6674 58.5442 78.7422 58.4019 78.7809C58.2717 78.8163 58.1904 78.8221 58.2025 78.821C58.2135 78.82 58.2617 78.8166 58.3795 78.8146C58.4963 78.8126 58.6357 78.8125 58.8318 78.8125V73.1875ZM59.9783 77.2054C59.9145 77.02 59.8692 76.8881 59.8331 76.777C59.7966 76.665 59.7842 76.6183 59.7815 76.6075C59.7786 76.5958 59.7996 76.6745 59.8085 76.8092C59.8182 76.9563 59.814 77.1738 59.7517 77.4294L54.2868 76.0967C54.0933 76.8902 54.2265 77.5745 54.32 77.9537C54.4102 78.32 54.5538 78.7287 54.6596 79.0361L59.9783 77.2054ZM55.9312 73.7917C55.1075 74.3204 54.5187 75.1458 54.2868 76.0967L59.7517 77.4294C59.6414 77.8815 59.3615 78.2739 58.9699 78.5253L55.9312 73.7917ZM69.1836 76.2901C69.1309 76.1206 68.9173 75.2687 68.371 74.5962L64.005 78.1428C63.8119 77.905 63.7305 77.6978 63.7205 77.672C63.7164 77.6616 63.7213 77.6732 63.7395 77.729C63.7578 77.7852 63.7792 77.8537 63.8122 77.9599L69.1836 76.2901ZM64.97 78.8125C65.0813 78.8125 65.1531 78.8126 65.2121 78.8134C65.2708 78.8142 65.2834 78.8154 65.2722 78.8146C65.2446 78.8127 65.0226 78.7965 64.7382 78.6827L66.8289 73.4606C66.0245 73.1386 65.1476 73.1875 64.97 73.1875V78.8125ZM68.371 74.5962C67.962 74.0926 67.4312 73.7018 66.8289 73.4606L64.7382 78.6827C64.4518 78.568 64.1995 78.3822 64.005 78.1428L68.371 74.5962ZM72.8432 93.7845C73.9011 93.7845 74.836 94.4729 75.15 95.4831L69.7786 97.1529C70.1958 98.495 71.4377 99.4095 72.8432 99.4095V93.7845ZM70.5321 95.497C70.8417 94.4797 71.7799 93.7845 72.8432 93.7845V99.4095C74.2558 99.4095 75.5023 98.4859 75.9135 97.1345L70.5321 95.497ZM80.5903 73.1875C80.4119 73.1875 79.5301 73.1381 78.7223 73.4632L80.8225 78.6814C80.5367 78.7965 80.3134 78.8127 80.286 78.8146C80.2749 78.8154 80.2877 78.8142 80.3468 78.8134C80.4062 78.8126 80.4784 78.8125 80.5903 78.8125V73.1875ZM81.7503 77.953C81.7829 77.8459 81.804 77.7768 81.8221 77.7202C81.84 77.6639 81.845 77.652 81.841 77.6625C81.8312 77.6881 81.7506 77.897 81.5574 78.1369L77.1765 74.6086C76.6304 75.2868 76.4209 76.1448 76.369 76.3155L81.7503 77.953ZM78.7223 73.4632C78.1176 73.7066 77.5854 74.1009 77.1765 74.6086L81.5574 78.1369C81.363 78.3782 81.11 78.5657 80.8225 78.6814L78.7223 73.4632ZM90.8883 79.0417C90.9946 78.734 91.1388 78.3251 91.2297 77.9587C91.3237 77.5795 91.458 76.8947 91.265 76.1002L85.7989 77.4278C85.7367 77.1717 85.7328 76.954 85.7427 76.8069C85.7518 76.6721 85.7729 76.5935 85.7699 76.6053C85.7672 76.6161 85.7547 76.6629 85.718 76.7751C85.6817 76.8863 85.6361 77.0183 85.572 77.2038L90.8883 79.0417ZM86.7179 78.8125C86.9143 78.8125 87.0539 78.8126 87.1709 78.8146C87.2889 78.8166 87.3372 78.82 87.3483 78.821C87.3605 78.8221 87.2792 78.8163 87.1489 78.7809C87.0066 78.7422 86.8021 78.6673 86.5805 78.5249L89.621 73.7925C88.9332 73.3506 88.2421 73.2537 87.853 73.2187C87.477 73.1848 87.0434 73.1875 86.7179 73.1875V78.8125ZM91.265 76.1002C91.0338 75.1484 90.4451 74.322 89.621 73.7925L86.5805 78.5249C86.1887 78.2732 85.9088 77.8803 85.7989 77.4278L91.265 76.1002ZM68.0561 103.188C67.948 103.188 67.8786 103.187 67.8215 103.187C67.7648 103.186 67.7531 103.185 67.7645 103.186C67.7931 103.188 68.0091 103.203 68.2866 103.311L66.2431 108.552C67.0303 108.859 67.8828 108.812 68.0561 108.812V103.188ZM63.8839 105.836C63.9403 106 64.1738 106.821 64.7202 107.466L69.0105 103.828C69.2032 104.055 69.2882 104.254 69.2994 104.281C69.3039 104.291 69.2989 104.28 69.2798 104.227C69.2605 104.173 69.2378 104.108 69.2026 104.005L63.8839 105.836ZM68.2866 103.311C68.567 103.421 68.8159 103.598 69.0105 103.828L64.7202 107.466C65.1297 107.949 65.6531 108.322 66.2431 108.552L68.2866 103.311ZM77.4534 108.812C77.6265 108.812 78.4779 108.859 79.2644 108.553L77.223 103.311C77.5002 103.203 77.7159 103.188 77.7445 103.186C77.756 103.185 77.7443 103.186 77.6877 103.187C77.6307 103.187 77.5613 103.188 77.4534 103.188V108.812ZM76.3074 104.004C76.2721 104.106 76.2494 104.171 76.2301 104.225C76.2109 104.278 76.2059 104.289 76.2104 104.278C76.2216 104.252 76.3069 104.053 76.4994 103.827L80.7863 107.468C81.3328 106.825 81.5671 106.005 81.6237 105.842L76.3074 104.004ZM79.2644 108.553C79.8538 108.323 80.3768 107.95 80.7863 107.468L76.4994 103.827C76.6941 103.597 76.9428 103.42 77.223 103.311L79.2644 108.553Z" fill="black" fill-opacity="0.12" style="mix-blend-mode:plus-darker" mask="url(#path-30-outside-1_43_16991)"/>
<mask id="path-32-inside-2_43_16991" fill="white">
<path fill-rule="evenodd" clip-rule="evenodd" d="M66.5432 104.921C66.6769 105.309 66.7438 105.503 66.8654 105.647C66.9728 105.773 67.1101 105.871 67.2648 105.932C67.44 106 67.6454 106 68.0561 106H77.4534C77.8635 106 78.0686 106 78.2437 105.932C78.3983 105.872 78.5355 105.774 78.6429 105.647C78.7645 105.504 78.8315 105.31 78.9655 104.923L88.2301 78.1228C88.4775 77.4071 88.6012 77.0493 88.532 76.764C88.4713 76.5143 88.3169 76.2976 88.1007 76.1587C87.8538 76 87.4752 76 86.7179 76H80.5903C80.1648 76 79.9521 76 79.7724 76.0723C79.6138 76.1361 79.4742 76.2396 79.3669 76.3728C79.2455 76.5236 79.1835 76.7271 79.0596 77.1342L73.2228 96.3157C73.172 96.4828 73.0178 96.597 72.8432 96.597C72.6694 96.597 72.5159 96.4839 72.4643 96.318L66.4979 77.125C66.3723 76.7211 66.3096 76.5191 66.188 76.3695C66.0807 76.2374 65.9415 76.1349 65.7835 76.0716C65.6046 76 65.3931 76 64.97 76H58.8318C58.0756 76 57.6974 76 57.4506 76.1585C57.2345 76.2972 57.0801 76.5136 57.0192 76.7631C56.9497 77.0481 57.0728 77.4056 57.3189 78.1207L66.5432 104.921ZM91.7822 104.4C91.7822 104.96 91.7822 105.24 91.8912 105.454C91.9871 105.642 92.1401 105.795 92.3282 105.891C92.5421 106 92.8222 106 93.3822 106H98.6592C99.2193 106 99.4993 106 99.7132 105.891C99.9014 105.795 100.054 105.642 100.15 105.454C100.259 105.24 100.259 104.96 100.259 104.4V77.6C100.259 77.0399 100.259 76.7599 100.15 76.546C100.054 76.3578 99.9014 76.2049 99.7132 76.109C99.4993 76 99.2193 76 98.6592 76H93.3822C92.8222 76 92.5421 76 92.3282 76.109C92.1401 76.2049 91.9871 76.3578 91.8912 76.546C91.7822 76.7599 91.7822 77.0399 91.7822 77.6V104.4ZM111.554 104.4C111.554 104.96 111.554 105.24 111.445 105.454C111.349 105.642 111.196 105.795 111.008 105.891C110.794 106 110.514 106 109.954 106H104.677C104.117 106 103.837 106 103.623 105.891C103.435 105.795 103.282 105.642 103.186 105.454C103.077 105.24 103.077 104.96 103.077 104.4V77.6C103.077 77.0399 103.077 76.7599 103.186 76.546C103.282 76.3578 103.435 76.2049 103.623 76.109C103.837 76 104.117 76 104.677 76H109.954C110.514 76 110.794 76 111.008 76.109C111.196 76.2049 111.349 76.3578 111.445 76.546C111.554 76.7599 111.554 77.0399 111.554 77.6V104.4ZM114.161 104.4C114.161 104.96 114.161 105.24 114.27 105.454C114.366 105.642 114.519 105.795 114.707 105.891C114.921 106 115.201 106 115.761 106H121.038C121.598 106 121.878 106 122.092 105.891C122.28 105.795 122.433 105.642 122.529 105.454C122.638 105.24 122.638 104.96 122.638 104.4V77.6C122.638 77.0399 122.638 76.7599 122.529 76.546C122.433 76.3578 122.28 76.2049 122.092 76.109C121.878 76 121.598 76 121.038 76H115.761C115.201 76 114.921 76 114.707 76.109C114.519 76.2049 114.366 76.3578 114.27 76.546C114.161 76.7599 114.161 77.0399 114.161 77.6V104.4Z"/>
</mask>
<path d="M114.707 76.109L114.282 75.2737L114.707 76.109ZM114.27 76.546L113.435 76.1204L114.27 76.546ZM122.529 76.546L123.365 76.1204L122.529 76.546ZM122.092 76.109L121.667 76.9443L122.092 76.109ZM114.707 105.891L114.282 106.726L114.707 105.891ZM114.27 105.454L115.106 105.028L114.27 105.454ZM122.092 105.891L122.518 106.726L122.092 105.891ZM122.529 105.454L123.365 105.88L122.529 105.454ZM111.008 76.109L111.434 75.2737L111.008 76.109ZM111.445 76.546L112.281 76.1204L111.445 76.546ZM103.186 76.546L102.351 76.1204L103.186 76.546ZM103.623 76.109L103.198 75.2737L103.623 76.109ZM111.008 105.891L110.583 105.056L111.008 105.891ZM111.445 105.454L112.281 105.88L111.445 105.454ZM103.623 105.891L103.198 106.726L103.623 105.891ZM103.186 105.454L102.351 105.88L103.186 105.454ZM92.3282 76.109L91.9026 75.2737L92.3282 76.109ZM91.8912 76.546L92.7265 76.9716L91.8912 76.546ZM100.15 76.546L99.3149 76.9716L100.15 76.546ZM99.7132 76.109L100.139 75.2737L99.7132 76.109ZM92.3282 105.891L92.7538 105.056L92.3282 105.891ZM91.8912 105.454L92.7265 105.028L91.8912 105.454ZM99.7132 105.891L100.139 106.726L99.7132 105.891ZM100.15 105.454L99.3149 105.028L100.15 105.454ZM57.0192 76.7631L56.1084 76.541L57.0192 76.7631ZM66.4979 77.125L65.6027 77.4033L66.4979 77.125ZM66.188 76.3695L66.9157 75.7784L66.188 76.3695ZM65.7835 76.0716L65.4351 76.942L65.7835 76.0716ZM72.4643 96.318L73.3595 96.0397L72.4643 96.318ZM73.2228 96.3157L72.3259 96.0428L73.2228 96.3157ZM79.7724 76.0723L79.4224 75.2026L79.7724 76.0723ZM79.3669 76.3728L78.6368 75.7847L79.3669 76.3728ZM88.532 76.764L87.6209 76.9852L88.532 76.764ZM88.1007 76.1587L87.594 76.9474L88.1007 76.1587ZM67.2648 105.932L67.6054 105.058L67.2648 105.932ZM66.5432 104.921L67.4297 104.616L66.5432 104.921ZM66.8654 105.647L67.5804 105.04L66.8654 105.647ZM78.2437 105.932L78.5839 106.805L78.2437 105.932ZM78.9655 104.923L78.0795 104.616L78.9655 104.923ZM78.6429 105.647L77.9284 105.04L78.6429 105.647ZM77.4534 105.062H68.0561V106.938H77.4534V105.062ZM87.3441 77.8165L78.0795 104.616L79.8516 105.229L89.1162 78.4291L87.3441 77.8165ZM80.5903 76.9375H86.7179V75.0625H80.5903V76.9375ZM74.1197 96.5887L79.9565 77.4071L78.1628 76.8613L72.3259 96.0428L74.1197 96.5887ZM65.6027 77.4033L71.5691 96.5963L73.3595 96.0397L67.3932 76.8467L65.6027 77.4033ZM58.8318 76.9375H64.97V75.0625H58.8318V76.9375ZM67.4297 104.616L58.2054 77.8156L56.4325 78.4258L65.6568 105.226L67.4297 104.616ZM98.6592 105.062H93.3822V106.938H98.6592V105.062ZM99.3217 77.6V104.4H101.197V77.6H99.3217ZM93.3822 76.9375H98.6592V75.0625H93.3822V76.9375ZM92.7197 104.4V77.6H90.8447V104.4H92.7197ZM104.677 106.938H109.954V105.062H104.677V106.938ZM102.14 77.6V104.4H104.015V77.6H102.14ZM109.954 75.0625H104.677V76.9375H109.954V75.0625ZM112.492 104.4V77.6H110.617V104.4H112.492ZM121.038 105.062H115.761V106.938H121.038V105.062ZM121.701 77.6V104.4H123.576V77.6H121.701ZM115.761 76.9375H121.038V75.0625H115.761V76.9375ZM115.099 104.4V77.6H113.224V104.4H115.099ZM115.761 75.0625C115.497 75.0625 115.242 75.0618 115.028 75.0792C114.803 75.0976 114.543 75.1406 114.282 75.2737L115.133 76.9443C115.086 76.9684 115.072 76.9569 115.181 76.948C115.301 76.9382 115.466 76.9375 115.761 76.9375V75.0625ZM115.099 77.6C115.099 77.3045 115.1 77.1393 115.109 77.0195C115.118 76.9108 115.13 76.9244 115.106 76.9716L113.435 76.1204C113.302 76.3815 113.259 76.6421 113.241 76.8669C113.223 77.0806 113.224 77.3354 113.224 77.6H115.099ZM114.282 75.2737C113.917 75.4594 113.621 75.7558 113.435 76.1204L115.106 76.9716C115.112 76.9599 115.121 76.9503 115.133 76.9443L114.282 75.2737ZM123.576 77.6C123.576 77.3354 123.577 77.0806 123.559 76.8669C123.541 76.6421 123.498 76.3815 123.365 76.1204L121.694 76.9716C121.67 76.9244 121.681 76.9108 121.69 77.0195C121.7 77.1393 121.701 77.3045 121.701 77.6H123.576ZM121.038 76.9375C121.334 76.9375 121.499 76.9382 121.619 76.948C121.728 76.9569 121.714 76.9684 121.667 76.9443L122.518 75.2737C122.257 75.1406 121.996 75.0976 121.771 75.0792C121.558 75.0618 121.303 75.0625 121.038 75.0625V76.9375ZM123.365 76.1204C123.179 75.7558 122.882 75.4594 122.518 75.2737L121.667 76.9443C121.678 76.9503 121.688 76.9599 121.694 76.9716L123.365 76.1204ZM115.761 105.062C115.466 105.062 115.301 105.062 115.181 105.052C115.072 105.043 115.086 105.032 115.133 105.056L114.282 106.726C114.543 106.859 114.803 106.902 115.028 106.921C115.242 106.938 115.497 106.938 115.761 106.938V105.062ZM113.224 104.4C113.224 104.665 113.223 104.919 113.241 105.133C113.259 105.358 113.302 105.618 113.435 105.88L115.106 105.028C115.13 105.076 115.118 105.089 115.109 104.98C115.1 104.861 115.099 104.695 115.099 104.4H113.224ZM115.133 105.056C115.121 105.05 115.112 105.04 115.106 105.028L113.435 105.88C113.621 106.244 113.917 106.541 114.282 106.726L115.133 105.056ZM121.038 106.938C121.303 106.938 121.558 106.938 121.771 106.921C121.996 106.902 122.257 106.859 122.518 106.726L121.667 105.056C121.714 105.032 121.728 105.043 121.619 105.052C121.499 105.062 121.334 105.062 121.038 105.062V106.938ZM121.701 104.4C121.701 104.695 121.7 104.861 121.69 104.98C121.681 105.089 121.67 105.076 121.694 105.028L123.365 105.88C123.498 105.618 123.541 105.358 123.559 105.133C123.577 104.919 123.576 104.665 123.576 104.4H121.701ZM122.518 106.726C122.882 106.541 123.179 106.244 123.365 105.88L121.694 105.028C121.688 105.04 121.678 105.05 121.667 105.056L122.518 106.726ZM109.954 76.9375C110.25 76.9375 110.415 76.9382 110.535 76.948C110.644 76.9569 110.63 76.9684 110.583 76.9443L111.434 75.2737C111.173 75.1406 110.912 75.0976 110.687 75.0792C110.474 75.0618 110.219 75.0625 109.954 75.0625V76.9375ZM112.492 77.6C112.492 77.3354 112.493 77.0806 112.475 76.8669C112.457 76.6421 112.414 76.3815 112.281 76.1204L110.61 76.9716C110.586 76.9244 110.597 76.9108 110.606 77.0195C110.616 77.1393 110.617 77.3045 110.617 77.6H112.492ZM110.583 76.9443C110.594 76.9503 110.604 76.9599 110.61 76.9716L112.281 76.1204C112.095 75.7558 111.798 75.4594 111.434 75.2737L110.583 76.9443ZM104.015 77.6C104.015 77.3045 104.016 77.1393 104.025 77.0195C104.034 76.9108 104.046 76.9244 104.022 76.9716L102.351 76.1204C102.218 76.3815 102.175 76.6421 102.157 76.8669C102.139 77.0806 102.14 77.3354 102.14 77.6H104.015ZM104.677 75.0625C104.413 75.0625 104.158 75.0618 103.944 75.0792C103.719 75.0976 103.459 75.1406 103.198 75.2737L104.049 76.9443C104.002 76.9684 103.988 76.9569 104.097 76.948C104.217 76.9382 104.382 76.9375 104.677 76.9375V75.0625ZM104.022 76.9716C104.028 76.9599 104.037 76.9503 104.049 76.9443L103.198 75.2737C102.833 75.4594 102.537 75.7558 102.351 76.1204L104.022 76.9716ZM109.954 106.938C110.219 106.938 110.474 106.938 110.687 106.921C110.912 106.902 111.173 106.859 111.434 106.726L110.583 105.056C110.63 105.032 110.644 105.043 110.535 105.052C110.415 105.062 110.25 105.062 109.954 105.062V106.938ZM110.617 104.4C110.617 104.695 110.616 104.861 110.606 104.98C110.597 105.089 110.586 105.076 110.61 105.028L112.281 105.88C112.414 105.618 112.457 105.358 112.475 105.133C112.493 104.919 112.492 104.665 112.492 104.4H110.617ZM111.434 106.726C111.798 106.541 112.095 106.244 112.281 105.88L110.61 105.028C110.604 105.04 110.594 105.05 110.583 105.056L111.434 106.726ZM104.677 105.062C104.382 105.062 104.217 105.062 104.097 105.052C103.988 105.043 104.002 105.032 104.049 105.056L103.198 106.726C103.459 106.859 103.719 106.902 103.944 106.921C104.158 106.938 104.413 106.938 104.677 106.938V105.062ZM102.14 104.4C102.14 104.665 102.139 104.919 102.157 105.133C102.175 105.358 102.218 105.618 102.351 105.88L104.022 105.028C104.046 105.076 104.034 105.089 104.025 104.98C104.016 104.861 104.015 104.695 104.015 104.4H102.14ZM104.049 105.056C104.037 105.05 104.028 105.04 104.022 105.028L102.351 105.88C102.537 106.244 102.833 106.541 103.198 106.726L104.049 105.056ZM93.3822 75.0625C93.1177 75.0625 92.8629 75.0618 92.6491 75.0792C92.4243 75.0976 92.1638 75.1406 91.9026 75.2737L92.7538 76.9443C92.7066 76.9684 92.693 76.9569 92.8018 76.948C92.9215 76.9382 93.0867 76.9375 93.3822 76.9375V75.0625ZM92.7197 77.6C92.7197 77.3045 92.7204 77.1393 92.7302 77.0195C92.7391 76.9108 92.7506 76.9244 92.7265 76.9716L91.0559 76.1204C90.9228 76.3815 90.8798 76.6421 90.8615 76.8669C90.844 77.0806 90.8447 77.3354 90.8447 77.6H92.7197ZM91.9026 75.2737C91.538 75.4594 91.2416 75.7558 91.0559 76.1204L92.7265 76.9716C92.7325 76.9599 92.7421 76.9503 92.7538 76.9443L91.9026 75.2737ZM101.197 77.6C101.197 77.3354 101.197 77.0806 101.18 76.8669C101.162 76.6421 101.119 76.3815 100.986 76.1204L99.3149 76.9716C99.2908 76.9244 99.3023 76.9108 99.3112 77.0195C99.321 77.1393 99.3217 77.3045 99.3217 77.6H101.197ZM98.6592 76.9375C98.9547 76.9375 99.12 76.9382 99.2397 76.948C99.3485 76.9569 99.3348 76.9684 99.2876 76.9443L100.139 75.2737C99.8777 75.1406 99.6171 75.0976 99.3924 75.0792C99.1786 75.0618 98.9238 75.0625 98.6592 75.0625V76.9375ZM100.986 76.1204C100.8 75.7558 100.503 75.4594 100.139 75.2737L99.2876 76.9443C99.2994 76.9503 99.3089 76.9599 99.3149 76.9716L100.986 76.1204ZM93.3822 105.062C93.0867 105.062 92.9215 105.062 92.8018 105.052C92.693 105.043 92.7066 105.032 92.7538 105.056L91.9026 106.726C92.1638 106.859 92.4243 106.902 92.6491 106.921C92.8629 106.938 93.1177 106.938 93.3822 106.938V105.062ZM90.8447 104.4C90.8447 104.665 90.844 104.919 90.8615 105.133C90.8798 105.358 90.9228 105.618 91.0559 105.88L92.7265 105.028C92.7506 105.076 92.7391 105.089 92.7302 104.98C92.7204 104.861 92.7197 104.695 92.7197 104.4H90.8447ZM92.7538 105.056C92.7421 105.05 92.7325 105.04 92.7265 105.028L91.0559 105.88C91.2416 106.244 91.538 106.541 91.9026 106.726L92.7538 105.056ZM98.6592 106.938C98.9238 106.938 99.1786 106.938 99.3924 106.921C99.6171 106.902 99.8777 106.859 100.139 106.726L99.2876 105.056C99.3348 105.032 99.3485 105.043 99.2397 105.052C99.12 105.062 98.9547 105.062 98.6592 105.062V106.938ZM99.3217 104.4C99.3217 104.695 99.321 104.861 99.3112 104.98C99.3023 105.089 99.2908 105.076 99.3149 105.028L100.986 105.88C101.119 105.618 101.162 105.358 101.18 105.133C101.197 104.919 101.197 104.665 101.197 104.4H99.3217ZM100.139 106.726C100.503 106.541 100.8 106.244 100.986 105.88L99.3149 105.028C99.3089 105.04 99.2994 105.05 99.2876 105.056L100.139 106.726ZM58.8318 75.0625C58.4714 75.0625 58.1379 75.0616 57.8661 75.0861C57.5898 75.111 57.2555 75.1696 56.9441 75.3695L57.957 76.9474C57.8925 76.9888 57.8707 76.9683 58.0343 76.9535C58.2022 76.9384 58.436 76.9375 58.8318 76.9375V75.0625ZM58.2054 77.8156C58.0766 77.4413 58.0013 77.22 57.961 77.0563C57.9217 76.8968 57.9482 76.9107 57.9301 76.9852L56.1084 76.541C56.0208 76.9005 56.0741 77.2356 56.1405 77.505C56.2058 77.77 56.3152 78.085 56.4325 78.4258L58.2054 77.8156ZM56.9441 75.3695C56.5255 75.6383 56.2263 76.0577 56.1084 76.541L57.9301 76.9852C57.9339 76.9696 57.9435 76.9561 57.957 76.9474L56.9441 75.3695ZM67.3932 76.8467C67.2919 76.5209 67.1788 76.1023 66.9157 75.7784L65.4604 76.9606C65.4365 76.9312 65.4401 76.9207 65.4678 76.9919C65.4998 77.0741 65.5361 77.1891 65.6027 77.4033L67.3932 76.8467ZM64.97 76.9375C65.1944 76.9375 65.315 76.938 65.403 76.9442C65.4792 76.9495 65.4702 76.9561 65.4351 76.942L66.132 75.2013C65.7446 75.0462 65.3113 75.0625 64.97 75.0625V76.9375ZM66.9157 75.7784C66.7078 75.5225 66.4381 75.3238 66.132 75.2013L65.4351 76.942C65.4449 76.9459 65.4536 76.9523 65.4604 76.9606L66.9157 75.7784ZM72.8432 95.6595C73.08 95.6595 73.2892 95.8136 73.3595 96.0397L71.5691 96.5963C71.7425 97.1543 72.2589 97.5345 72.8432 97.5345V95.6595ZM72.3259 96.0428C72.3952 95.8151 72.6052 95.6595 72.8432 95.6595V97.5345C73.4305 97.5345 73.9487 97.1505 74.1197 96.5887L72.3259 96.0428ZM80.5903 75.0625C80.2472 75.0625 79.8114 75.046 79.4224 75.2026L80.1224 76.942C80.087 76.9563 80.078 76.9496 80.1548 76.9442C80.2433 76.938 80.3647 76.9375 80.5903 76.9375V75.0625ZM79.9565 77.4071C80.0222 77.1912 80.0581 77.0753 80.0898 76.9924C80.1173 76.9205 80.121 76.9311 80.0971 76.9608L78.6368 75.7847C78.3738 76.1113 78.2626 76.533 78.1628 76.8613L79.9565 77.4071ZM79.4224 75.2026C79.1151 75.3263 78.8446 75.5267 78.6368 75.7847L80.0971 76.9608C80.1038 76.9525 80.1125 76.946 80.1224 76.942L79.4224 75.2026ZM89.1162 78.4291C89.2341 78.088 89.344 77.7728 89.4098 77.5075C89.4766 77.2381 89.5304 76.9026 89.443 76.5427L87.6209 76.9852C87.6028 76.9106 87.6294 76.8967 87.5898 77.0564C87.5492 77.2204 87.4736 77.4419 87.3441 77.8165L89.1162 78.4291ZM86.7179 76.9375C87.1143 76.9375 87.3483 76.9384 87.5166 76.9536C87.6804 76.9683 87.6586 76.9889 87.594 76.9474L88.6075 75.37C88.2959 75.1698 87.9613 75.111 87.6848 75.0861C87.4127 75.0616 87.0788 75.0625 86.7179 75.0625V76.9375ZM89.443 76.5427C89.3255 76.059 89.0263 75.639 88.6075 75.37L87.594 76.9474C87.6075 76.9561 87.6171 76.9696 87.6209 76.9852L89.443 76.5427ZM68.0561 105.062C67.8382 105.062 67.7214 105.062 67.6363 105.056C67.5627 105.051 67.5713 105.045 67.6054 105.058L66.9242 106.805C67.3035 106.953 67.7245 106.938 68.0561 106.938V105.062ZM65.6568 105.226C65.7647 105.539 65.8871 105.943 66.1503 106.253L67.5804 105.04C67.6041 105.068 67.601 105.078 67.5724 105.011C67.5391 104.932 67.5006 104.822 67.4297 104.616L65.6568 105.226ZM67.6054 105.058C67.5957 105.054 67.5872 105.048 67.5804 105.04L66.1503 106.253C66.3584 106.498 66.6244 106.688 66.9242 106.805L67.6054 105.058ZM77.4534 106.938C77.7845 106.938 78.2051 106.953 78.5839 106.805L77.9035 105.058C77.9375 105.045 77.9461 105.051 77.8726 105.056C77.7876 105.062 77.671 105.062 77.4534 105.062V106.938ZM78.0795 104.616C78.0084 104.822 77.9698 104.932 77.9365 105.011C77.9078 105.078 77.9048 105.068 77.9284 105.04L79.3574 106.254C79.6206 105.945 79.7434 105.542 79.8516 105.229L78.0795 104.616ZM78.5839 106.805C78.8835 106.689 79.1493 106.499 79.3574 106.254L77.9284 105.04C77.9217 105.048 77.9131 105.054 77.9035 105.058L78.5839 106.805Z" fill="white" fill-opacity="0.25" mask="url(#path-32-inside-2_43_16991)"/>
</g>
<defs>
<filter id="filter0_i_43_16991" x="115.104" y="115.115" width="40.6252" height="23.6699" filterUnits="userSpaceOnUse" color-interpolation-filters="sRGB">
<feFlood flood-opacity="0" result="BackgroundImageFix"/>
<feBlend mode="normal" in="SourceGraphic" in2="BackgroundImageFix" result="shape"/>
<feColorMatrix in="SourceAlpha" type="matrix" values="0 0 0 0 0 0 0 0 0 0 0 0 0 0 0 0 0 0 127 0" result="hardAlpha"/>
<feOffset dy="2"/>
<feGaussianBlur stdDeviation="0.5"/>
<feComposite in2="hardAlpha" operator="arithmetic" k2="-1" k3="1"/>
<feColorMatrix type="matrix" values="0 0 0 0 1 0 0 0 0 1 0 0 0 0 1 0 0 0 0.5 0"/>
<feBlend mode="normal" in2="shape" result="effect1_innerShadow_43_16991"/>
</filter>
<filter id="filter1_i_43_16991" x="115.104" y="114.515" width="40.6252" height="23.2699" filterUnits="userSpaceOnUse" color-interpolation-filters="sRGB">
<feFlood flood-opacity="0" result="BackgroundImageFix"/>
<feBlend mode="normal" in="SourceGraphic" in2="BackgroundImageFix" result="shape"/>
<feColorMatrix in="SourceAlpha" type="matrix" values="0 0 0 0 0 0 0 0 0 0 0 0 0 0 0 0 0 0 127 0" result="hardAlpha"/>
<feOffset dy="-4"/>
<feGaussianBlur stdDeviation="0.3"/>
<feComposite in2="hardAlpha" operator="arithmetic" k2="-1" k3="1"/>
<feColorMatrix type="matrix" values="0 0 0 0 0 0 0 0 0 0 0 0 0 0 0 0 0 0 0.15 0"/>
<feBlend mode="color-burn" in2="shape" result="effect1_innerShadow_43_16991"/>
</filter>
<filter id="filter2_i_43_16991" x="122.687" y="90" width="44.5813" height="43" filterUnits="userSpaceOnUse" color-interpolation-filters="sRGB">
<feFlood flood-opacity="0" result="BackgroundImageFix"/>
<feBlend mode="normal" in="SourceGraphic" in2="BackgroundImageFix" result="shape"/>
<feColorMatrix in="SourceAlpha" type="matrix" values="0 0 0 0 0 0 0 0 0 0 0 0 0 0 0 0 0 0 127 0" result="hardAlpha"/>
<feOffset dy="2"/>
<feGaussianBlur stdDeviation="0.5"/>
<feComposite in2="hardAlpha" operator="arithmetic" k2="-1" k3="1"/>
<feColorMatrix type="matrix" values="0 0 0 0 1 0 0 0 0 1 0 0 0 0 1 0 0 0 0.5 0"/>
<feBlend mode="normal" in2="shape" result="effect1_innerShadow_43_16991"/>
</filter>
<filter id="filter3_i_43_16991" x="122.687" y="89.4" width="44.5813" height="42.6" filterUnits="userSpaceOnUse" color-interpolation-filters="sRGB">
<feFlood flood-opacity="0" result="BackgroundImageFix"/>
<feBlend mode="normal" in="SourceGraphic" in2="BackgroundImageFix" result="shape"/>
<feColorMatrix in="SourceAlpha" type="matrix" values="0 0 0 0 0 0 0 0 0 0 0 0 0 0 0 0 0 0 127 0" result="hardAlpha"/>
<feOffset dy="-4"/>
<feGaussianBlur stdDeviation="0.3"/>
<feComposite in2="hardAlpha" operator="arithmetic" k2="-1" k3="1"/>
<feColorMatrix type="matrix" values="0 0 0 0 0 0 0 0 0 0 0 0 0 0 0 0 0 0 0.15 0"/>
<feBlend mode="color-burn" in2="shape" result="effect1_innerShadow_43_16991"/>
</filter>
<filter id="filter4_i_43_16991" x="130.702" y="53.5" width="42.2981" height="60" filterUnits="userSpaceOnUse" color-interpolation-filters="sRGB">
<feFlood flood-opacity="0" result="BackgroundImageFix"/>
<feBlend mode="normal" in="SourceGraphic" in2="BackgroundImageFix" result="shape"/>
<feColorMatrix in="SourceAlpha" type="matrix" values="0 0 0 0 0 0 0 0 0 0 0 0 0 0 0 0 0 0 127 0" result="hardAlpha"/>
<feOffset dy="2"/>
<feGaussianBlur stdDeviation="0.5"/>
<feComposite in2="hardAlpha" operator="arithmetic" k2="-1" k3="1"/>
<feColorMatrix type="matrix" values="0 0 0 0 1 0 0 0 0 1 0 0 0 0 1 0 0 0 0.5 0"/>
<feBlend mode="normal" in2="shape" result="effect1_innerShadow_43_16991"/>
</filter>
<filter id="filter5_i_43_16991" x="132.705" y="52.9" width="40.2944" height="59.6" filterUnits="userSpaceOnUse" color-interpolation-filters="sRGB">
<feFlood flood-opacity="0" result="BackgroundImageFix"/>
<feBlend mode="normal" in="SourceGraphic" in2="BackgroundImageFix" result="shape"/>
<feColorMatrix in="SourceAlpha" type="matrix" values="0 0 0 0 0 0 0 0 0 0 0 0 0 0 0 0 0 0 127 0" result="hardAlpha"/>
<feOffset dy="-4"/>
<feGaussianBlur stdDeviation="0.3"/>
<feComposite in2="hardAlpha" operator="arithmetic" k2="-1" k3="1"/>
<feColorMatrix type="matrix" values="0 0 0 0 0 0 0 0 0 0 0 0 0 0 0 0 0 0 0.25 0"/>
<feBlend mode="color-burn" in2="shape" result="effect1_innerShadow_43_16991"/>
</filter>
<filter id="filter6_i_43_16991" x="109.163" y="28.5" width="56.0232" height="69.5" filterUnits="userSpaceOnUse" color-interpolation-filters="sRGB">
<feFlood flood-opacity="0" result="BackgroundImageFix"/>
<feBlend mode="normal" in="SourceGraphic" in2="BackgroundImageFix" result="shape"/>
<feColorMatrix in="SourceAlpha" type="matrix" values="0 0 0 0 0 0 0 0 0 0 0 0 0 0 0 0 0 0 127 0" result="hardAlpha"/>
<feOffset dy="2"/>
<feGaussianBlur stdDeviation="0.5"/>
<feComposite in2="hardAlpha" operator="arithmetic" k2="-1" k3="1"/>
<feColorMatrix type="matrix" values="0 0 0 0 1 0 0 0 0 1 0 0 0 0 1 0 0 0 0.5 0"/>
<feBlend mode="normal" in2="shape" result="effect1_innerShadow_43_16991"/>
</filter>
<filter id="filter7_i_43_16991" x="122.5" y="27.9" width="42.6858" height="69.1" filterUnits="userSpaceOnUse" color-interpolation-filters="sRGB">
<feFlood flood-opacity="0" result="BackgroundImageFix"/>
<feBlend mode="normal" in="SourceGraphic" in2="BackgroundImageFix" result="shape"/>
<feColorMatrix in="SourceAlpha" type="matrix" values="0 0 0 0 0 0 0 0 0 0 0 0 0 0 0 0 0 0 127 0" result="hardAlpha"/>
<feOffset dy="-4"/>
<feGaussianBlur stdDeviation="0.3"/>
<feComposite in2="hardAlpha" operator="arithmetic" k2="-1" k3="1"/>
<feColorMatrix type="matrix" values="0 0 0 0 0 0 0 0 0 0 0 0 0 0 0 0 0 0 0.25 0"/>
<feBlend mode="color-burn" in2="shape" result="effect1_innerShadow_43_16991"/>
</filter>
<filter id="filter8_i_43_16991" x="24.2705" y="115.115" width="40.6252" height="23.6699" filterUnits="userSpaceOnUse" color-interpolation-filters="sRGB">
<feFlood flood-opacity="0" result="BackgroundImageFix"/>
<feBlend mode="normal" in="SourceGraphic" in2="BackgroundImageFix" result="shape"/>
<feColorMatrix in="SourceAlpha" type="matrix" values="0 0 0 0 0 0 0 0 0 0 0 0 0 0 0 0 0 0 127 0" result="hardAlpha"/>
<feOffset dy="2"/>
<feGaussianBlur stdDeviation="0.5"/>
<feComposite in2="hardAlpha" operator="arithmetic" k2="-1" k3="1"/>
<feColorMatrix type="matrix" values="0 0 0 0 1 0 0 0 0 1 0 0 0 0 1 0 0 0 0.5 0"/>
<feBlend mode="normal" in2="shape" result="effect1_innerShadow_43_16991"/>
</filter>
<filter id="filter9_i_43_16991" x="24.2705" y="114.515" width="40.6252" height="23.2699" filterUnits="userSpaceOnUse" color-interpolation-filters="sRGB">
<feFlood flood-opacity="0" result="BackgroundImageFix"/>
<feBlend mode="normal" in="SourceGraphic" in2="BackgroundImageFix" result="shape"/>
<feColorMatrix in="SourceAlpha" type="matrix" values="0 0 0 0 0 0 0 0 0 0 0 0 0 0 0 0 0 0 127 0" result="hardAlpha"/>
<feOffset dy="-4"/>
<feGaussianBlur stdDeviation="0.3"/>
<feComposite in2="hardAlpha" operator="arithmetic" k2="-1" k3="1"/>
<feColorMatrix type="matrix" values="0 0 0 0 0 0 0 0 0 0 0 0 0 0 0 0 0 0 0.15 0"/>
<feBlend mode="color-burn" in2="shape" result="effect1_innerShadow_43_16991"/>
</filter>
<filter id="filter10_i_43_16991" x="12.7314" y="90" width="44.5813" height="43" filterUnits="userSpaceOnUse" color-interpolation-filters="sRGB">
<feFlood flood-opacity="0" result="BackgroundImageFix"/>
<feBlend mode="normal" in="SourceGraphic" in2="BackgroundImageFix" result="shape"/>
<feColorMatrix in="SourceAlpha" type="matrix" values="0 0 0 0 0 0 0 0 0 0 0 0 0 0 0 0 0 0 127 0" result="hardAlpha"/>
<feOffset dy="2"/>
<feGaussianBlur stdDeviation="0.5"/>
<feComposite in2="hardAlpha" operator="arithmetic" k2="-1" k3="1"/>
<feColorMatrix type="matrix" values="0 0 0 0 1 0 0 0 0 1 0 0 0 0 1 0 0 0 0.5 0"/>
<feBlend mode="normal" in2="shape" result="effect1_innerShadow_43_16991"/>
</filter>
<filter id="filter11_i_43_16991" x="12.7314" y="89.4" width="44.5813" height="42.6" filterUnits="userSpaceOnUse" color-interpolation-filters="sRGB">
<feFlood flood-opacity="0" result="BackgroundImageFix"/>
<feBlend mode="normal" in="SourceGraphic" in2="BackgroundImageFix" result="shape"/>
<feColorMatrix in="SourceAlpha" type="matrix" values="0 0 0 0 0 0 0 0 0 0 0 0 0 0 0 0 0 0 127 0" result="hardAlpha"/>
<feOffset dy="-4"/>
<feGaussianBlur stdDeviation="0.3"/>
<feComposite in2="hardAlpha" operator="arithmetic" k2="-1" k3="1"/>
<feColorMatrix type="matrix" values="0 0 0 0 0 0 0 0 0 0 0 0 0 0 0 0 0 0 0.15 0"/>
<feBlend mode="color-burn" in2="shape" result="effect1_innerShadow_43_16991"/>
</filter>
<filter id="filter12_i_43_16991" x="7" y="53.5" width="42.2981" height="60" filterUnits="userSpaceOnUse" color-interpolation-filters="sRGB">
<feFlood flood-opacity="0" result="BackgroundImageFix"/>
<feBlend mode="normal" in="SourceGraphic" in2="BackgroundImageFix" result="shape"/>
<feColorMatrix in="SourceAlpha" type="matrix" values="0 0 0 0 0 0 0 0 0 0 0 0 0 0 0 0 0 0 127 0" result="hardAlpha"/>
<feOffset dy="2"/>
<feGaussianBlur stdDeviation="0.5"/>
<feComposite in2="hardAlpha" operator="arithmetic" k2="-1" k3="1"/>
<feColorMatrix type="matrix" values="0 0 0 0 1 0 0 0 0 1 0 0 0 0 1 0 0 0 0.5 0"/>
<feBlend mode="normal" in2="shape" result="effect1_innerShadow_43_16991"/>
</filter>
<filter id="filter13_i_43_16991" x="7.00024" y="52.9" width="40.2944" height="59.6" filterUnits="userSpaceOnUse" color-interpolation-filters="sRGB">
<feFlood flood-opacity="0" result="BackgroundImageFix"/>
<feBlend mode="normal" in="SourceGraphic" in2="BackgroundImageFix" result="shape"/>
<feColorMatrix in="SourceAlpha" type="matrix" values="0 0 0 0 0 0 0 0 0 0 0 0 0 0 0 0 0 0 127 0" result="hardAlpha"/>
<feOffset dy="-4"/>
<feGaussianBlur stdDeviation="0.3"/>
<feComposite in2="hardAlpha" operator="arithmetic" k2="-1" k3="1"/>
<feColorMatrix type="matrix" values="0 0 0 0 0 0 0 0 0 0 0 0 0 0 0 0 0 0 0.25 0"/>
<feBlend mode="color-burn" in2="shape" result="effect1_innerShadow_43_16991"/>
</filter>
<filter id="filter14_i_43_16991" x="14.8142" y="28.5" width="56.0232" height="69.5" filterUnits="userSpaceOnUse" color-interpolation-filters="sRGB">
<feFlood flood-opacity="0" result="BackgroundImageFix"/>
<feBlend mode="normal" in="SourceGraphic" in2="BackgroundImageFix" result="shape"/>
<feColorMatrix in="SourceAlpha" type="matrix" values="0 0 0 0 0 0 0 0 0 0 0 0 0 0 0 0 0 0 127 0" result="hardAlpha"/>
<feOffset dy="2"/>
<feGaussianBlur stdDeviation="0.5"/>
<feComposite in2="hardAlpha" operator="arithmetic" k2="-1" k3="1"/>
<feColorMatrix type="matrix" values="0 0 0 0 1 0 0 0 0 1 0 0 0 0 1 0 0 0 0.5 0"/>
<feBlend mode="normal" in2="shape" result="effect1_innerShadow_43_16991"/>
</filter>
<filter id="filter15_i_43_16991" x="14.8142" y="27.9" width="42.6858" height="69.1" filterUnits="userSpaceOnUse" color-interpolation-filters="sRGB">
<feFlood flood-opacity="0" result="BackgroundImageFix"/>
<feBlend mode="normal" in="SourceGraphic" in2="BackgroundImageFix" result="shape"/>
<feColorMatrix in="SourceAlpha" type="matrix" values="0 0 0 0 0 0 0 0 0 0 0 0 0 0 0 0 0 0 127 0" result="hardAlpha"/>
<feOffset dy="-4"/>
<feGaussianBlur stdDeviation="0.3"/>
<feComposite in2="hardAlpha" operator="arithmetic" k2="-1" k3="1"/>
<feColorMatrix type="matrix" values="0 0 0 0 0 0 0 0 0 0 0 0 0 0 0 0 0 0 0.25 0"/>
<feBlend mode="color-burn" in2="shape" result="effect1_innerShadow_43_16991"/>
</filter>
<filter id="filter16_d_43_16991" x="32" y="34" width="116" height="116" filterUnits="userSpaceOnUse" color-interpolation-filters="sRGB">
<feFlood flood-opacity="0" result="BackgroundImageFix"/>
<feColorMatrix in="SourceAlpha" type="matrix" values="0 0 0 0 0 0 0 0 0 0 0 0 0 0 0 0 0 0 127 0" result="hardAlpha"/>
<feOffset dy="2"/>
<feGaussianBlur stdDeviation="2"/>
<feComposite in2="hardAlpha" operator="out"/>
<feColorMatrix type="matrix" values="0 0 0 0 0 0 0 0 0 0 0 0 0 0 0 0 0 0 0.25 0"/>
<feBlend mode="normal" in2="BackgroundImageFix" result="effect1_dropShadow_43_16991"/>
<feBlend mode="normal" in="SourceGraphic" in2="effect1_dropShadow_43_16991" result="shape"/>
</filter>
<filter id="filter17_i_43_16991" x="48" y="48" width="88" height="90" filterUnits="userSpaceOnUse" color-interpolation-filters="sRGB">
<feFlood flood-opacity="0" result="BackgroundImageFix"/>
<feBlend mode="normal" in="SourceGraphic" in2="BackgroundImageFix" result="shape"/>
<feColorMatrix in="SourceAlpha" type="matrix" values="0 0 0 0 0 0 0 0 0 0 0 0 0 0 0 0 0 0 127 0" result="hardAlpha"/>
<feOffset dx="4" dy="6"/>
<feGaussianBlur stdDeviation="5"/>
<feComposite in2="hardAlpha" operator="arithmetic" k2="-1" k3="1"/>
<feColorMatrix type="matrix" values="0 0 0 0 0 0 0 0 0 0 0 0 0 0 0 0 0 0 0.2 0"/>
<feBlend mode="plus-darker" in2="shape" result="effect1_innerShadow_43_16991"/>
</filter>
<linearGradient id="paint0_linear_43_16991" x1="133.916" y1="23.3858" x2="111.96" y2="53.4891" gradientUnits="userSpaceOnUse">
<stop stop-color="#FB9AF3"/>
<stop offset="1" stop-color="#7F33FB"/>
</linearGradient>
<linearGradient id="paint1_linear_43_16991" x1="47.3249" y1="23.3858" x2="69.2812" y2="53.4891" gradientUnits="userSpaceOnUse">
<stop stop-color="#FB9AF3"/>
<stop offset="1" stop-color="#7F33FB"/>
</linearGradient>
<linearGradient id="paint2_linear_43_16991" x1="88.1675" y1="160.816" x2="87.4573" y2="136.671" gradientUnits="userSpaceOnUse">
<stop stop-color="#DCB6FF"/>
<stop offset="1" stop-color="#A35DFF"/>
</linearGradient>
<linearGradient id="paint3_linear_43_16991" x1="99.8847" y1="151.229" x2="91.363" y2="141.997" gradientUnits="userSpaceOnUse">
<stop stop-color="#BC88FF"/>
<stop offset="1" stop-color="#5F24DA"/>
</linearGradient>
<linearGradient id="paint4_linear_43_16991" x1="91.8325" y1="19.1863" x2="92.5427" y2="43.3312" gradientUnits="userSpaceOnUse">
<stop stop-color="#DCB6FF"/>
<stop offset="1" stop-color="#A35DFF"/>
</linearGradient>
<linearGradient id="paint5_linear_43_16991" x1="80.1153" y1="28.7731" x2="88.637" y2="38.005" gradientUnits="userSpaceOnUse">
<stop stop-color="#BC88FF"/>
<stop offset="1" stop-color="#5F24DA"/>
</linearGradient>
<linearGradient id="paint6_linear_43_16991" x1="155.313" y1="115.278" x2="132.994" y2="135.138" gradientUnits="userSpaceOnUse">
<stop stop-color="#FB9AF3"/>
<stop offset="1" stop-color="#B933FB"/>
</linearGradient>
<linearGradient id="paint7_linear_43_16991" x1="158.852" y1="121.628" x2="131.197" y2="147.047" gradientUnits="userSpaceOnUse">
<stop stop-color="#FFA4F7"/>
<stop offset="1" stop-color="#780CD4"/>
</linearGradient>
<linearGradient id="paint8_linear_43_16991" x1="166.792" y1="90.3621" x2="145.334" y2="124.103" gradientUnits="userSpaceOnUse">
<stop stop-color="#FB9AF3"/>
<stop offset="1" stop-color="#B933FB"/>
</linearGradient>
<linearGradient id="paint9_linear_43_16991" x1="173.673" y1="97.2414" x2="147.382" y2="140.091" gradientUnits="userSpaceOnUse">
<stop stop-color="#FFA4F7"/>
<stop offset="1" stop-color="#780CD4"/>
</linearGradient>
<linearGradient id="paint10_linear_43_16991" x1="172.548" y1="54.0086" x2="139.325" y2="89.2934" gradientUnits="userSpaceOnUse">
<stop stop-color="#FFDCFF"/>
<stop offset="1" stop-color="#FF61FC"/>
</linearGradient>
<linearGradient id="paint11_linear_43_16991" x1="178.789" y1="63.6724" x2="137.408" y2="107.067" gradientUnits="userSpaceOnUse">
<stop stop-color="#FFC5FC"/>
<stop offset="1" stop-color="#FF00E3"/>
</linearGradient>
<linearGradient id="paint12_linear_43_16991" x1="164.587" y1="29.0905" x2="126.645" y2="75.0601" gradientUnits="userSpaceOnUse">
<stop stop-color="#FFDCFF"/>
<stop offset="1" stop-color="#FF61FC"/>
</linearGradient>
<linearGradient id="paint13_linear_43_16991" x1="171.318" y1="40.3103" x2="123.268" y2="86.2871" gradientUnits="userSpaceOnUse">
<stop stop-color="#FFC5FC"/>
<stop offset="1" stop-color="#FF00E3"/>
</linearGradient>
<linearGradient id="paint14_linear_43_16991" x1="24.6871" y1="115.278" x2="47.0059" y2="135.138" gradientUnits="userSpaceOnUse">
<stop stop-color="#FB9AF3"/>
<stop offset="1" stop-color="#B933FB"/>
</linearGradient>
<linearGradient id="paint15_linear_43_16991" x1="21.1482" y1="121.628" x2="48.8031" y2="147.047" gradientUnits="userSpaceOnUse">
<stop stop-color="#FFA4F7"/>
<stop offset="1" stop-color="#780CD4"/>
</linearGradient>
<linearGradient id="paint16_linear_43_16991" x1="13.2084" y1="90.3621" x2="34.6657" y2="124.103" gradientUnits="userSpaceOnUse">
<stop stop-color="#FB9AF3"/>
<stop offset="1" stop-color="#B933FB"/>
</linearGradient>
<linearGradient id="paint17_linear_43_16991" x1="6.32682" y1="97.2414" x2="32.6178" y2="140.091" gradientUnits="userSpaceOnUse">
<stop stop-color="#FFA4F7"/>
<stop offset="1" stop-color="#780CD4"/>
</linearGradient>
<linearGradient id="paint18_linear_43_16991" x1="7.45235" y1="54.0086" x2="40.6754" y2="89.2934" gradientUnits="userSpaceOnUse">
<stop stop-color="#FFDCFF"/>
<stop offset="1" stop-color="#FF61FC"/>
</linearGradient>
<linearGradient id="paint19_linear_43_16991" x1="1.21123" y1="63.6724" x2="42.5916" y2="107.067" gradientUnits="userSpaceOnUse">
<stop stop-color="#FFC5FC"/>
<stop offset="1" stop-color="#FF00E3"/>
</linearGradient>
<linearGradient id="paint20_linear_43_16991" x1="15.4133" y1="29.0905" x2="53.3548" y2="75.0601" gradientUnits="userSpaceOnUse">
<stop stop-color="#FFDCFF"/>
<stop offset="1" stop-color="#FF61FC"/>
</linearGradient>
<linearGradient id="paint21_linear_43_16991" x1="8.68164" y1="40.3103" x2="56.7325" y2="86.2871" gradientUnits="userSpaceOnUse">
<stop stop-color="#FFC5FC"/>
<stop offset="1" stop-color="#FF00E3"/>
</linearGradient>
<radialGradient id="paint22_radial_43_16991" cx="0" cy="0" r="1" gradientUnits="userSpaceOnUse" gradientTransform="translate(67.5 42) rotate(71.061) scale(107.838)">
<stop stop-color="#FFFEFF"/>
<stop offset="0.535094" stop-color="#FC85FF"/>
<stop offset="1" stop-color="#EF36FF"/>
</radialGradient>
<radialGradient id="paint23_radial_43_16991" cx="0" cy="0" r="1" gradientUnits="userSpaceOnUse" gradientTransform="translate(70 47.3333) rotate(73.7074) scale(94.46)">
<stop stop-color="#F247FF"/>
<stop offset="0.588355" stop-color="#F761FF"/>
<stop offset="1" stop-color="#FF99FF"/>
</radialGradient>
<linearGradient id="paint24_linear_43_16991" x1="90" y1="42" x2="90" y2="138" gradientUnits="userSpaceOnUse">
<stop stop-color="#F65CFF"/>
<stop offset="1" stop-color="#FFDAFF"/>
</linearGradient>
<radialGradient id="paint25_radial_43_16991" cx="0" cy="0" r="1" gradientUnits="userSpaceOnUse" gradientTransform="translate(87.75 90) rotate(75.6813) scale(73.7924)">
<stop stop-color="#FF48EE"/>
<stop offset="1" stop-color="#A60BEF"/>
</radialGradient>
<linearGradient id="paint26_linear_43_16991" x1="90" y1="56" x2="90" y2="98" gradientUnits="userSpaceOnUse">
<stop stop-color="white"/>
<stop offset="1" stop-color="white" stop-opacity="0"/>
</linearGradient>
</defs>
</svg>
