<svg width="180" height="180" viewBox="0 0 180 180" fill="none" xmlns="http://www.w3.org/2000/svg">
<path d="M89.7545 14.8594L116.805 43.1473L154.829 52.4302L143.856 90.001L154.829 127.572L116.805 136.855L89.7545 165.143L62.7035 136.855L24.6799 127.572L35.6525 90.001L24.6799 52.4302L62.7035 43.1473L89.7545 14.8594Z" fill="url(#paint0_radial_43_16987)"/>
<path d="M90.0001 43.3006L90 15L117.06 43.3006H90.0001Z" fill="url(#paint1_linear_43_16987)" stroke="url(#paint2_linear_43_16987)" stroke-width="2" stroke-linejoin="round"/>
<path d="M90.0602 43.3006L90.0603 15L63 43.3006H90.0602Z" fill="url(#paint3_linear_43_16987)" stroke="url(#paint4_linear_43_16987)" stroke-width="2" stroke-linejoin="round"/>
<path d="M130 66.1503L154.509 52L143.53 89.5852L130 66.1503Z" fill="url(#paint5_linear_43_16987)"/>
<path d="M130.319 113.42L154.828 127.57L116.789 136.855L130.319 113.42Z" fill="url(#paint6_linear_43_16987)"/>
<path d="M48.697 115.102L35.6567 89.9844L24.6806 127.57L48.697 115.102Z" fill="#D9D9D9"/>
<path d="M48.697 115.102L35.6567 89.9844L24.6806 127.57L48.697 115.102Z" fill="url(#paint7_linear_43_16987)"/>
<path d="M47.4924 66.9826L62.7153 43.125L24.6804 52.4269L47.4924 66.9826Z" fill="url(#paint8_linear_43_16987)"/>
<path d="M89.7543 136.842L89.7544 165.143L62.6941 136.842L89.7543 136.842Z" fill="url(#paint9_linear_43_16987)"/>
<path d="M50.0393 113.436L25.5303 127.586L36.5092 90.0007L50.0393 113.436Z" fill="url(#paint10_linear_43_16987)" stroke="url(#paint11_linear_43_16987)" stroke-width="2" stroke-linejoin="round"/>
<path d="M50.0093 113.383L25.5002 127.533L63.5394 136.818L50.0093 113.383Z" fill="url(#paint12_linear_43_16987)" stroke="url(#paint13_linear_43_16987)" stroke-width="2" stroke-linejoin="round"/>
<path d="M129.5 113.436L154.009 127.586L143.03 90.0007L129.5 113.436Z" fill="url(#paint14_linear_43_16987)" stroke="url(#paint15_linear_43_16987)" stroke-width="2" stroke-linejoin="round"/>
<path d="M129.53 113.383L154.039 127.533L116 136.818L129.53 113.383Z" fill="url(#paint16_linear_43_16987)" stroke="url(#paint17_linear_43_16987)" stroke-width="2" stroke-linejoin="round"/>
<g filter="url(#filter0_d_43_16987)">
<circle cx="89.7542" cy="90.0003" r="54.0667" fill="url(#paint18_radial_43_16987)"/>
</g>
<circle cx="90.2087" cy="90.0007" r="48.0593" fill="url(#paint19_radial_43_16987)" stroke="url(#paint20_linear_43_16987)" stroke-width="1.88261"/>
<g filter="url(#filter1_i_43_16987)">
<circle cx="90.2086" cy="90.0011" r="42.0519" fill="url(#paint21_radial_43_16987)"/>
</g>
<path opacity="0.5" d="M124.251 90.4083C124.251 109.434 109.01 86.7546 90.2088 86.7546C71.4079 86.7546 56.1667 109.434 56.1667 90.4083C56.1667 71.3825 71.4079 55.959 90.2088 55.959C109.01 55.959 124.251 71.3825 124.251 90.4083Z" fill="url(#paint22_linear_43_16987)"/>
<mask id="path-18-outside-1_43_16987" maskUnits="userSpaceOnUse" x="63" y="70" width="54" height="40" fill="black">
<rect fill="white" x="63" y="70" width="54" height="40"/>
<path fill-rule="evenodd" clip-rule="evenodd" d="M102.967 104.647C102.799 105.134 102.715 105.377 102.563 105.557C102.428 105.716 102.256 105.839 102.062 105.914C101.843 106 101.585 106 101.07 106H91.4729C90.9587 106 90.7016 106 90.4822 105.915C90.2884 105.839 90.1164 105.717 89.9817 105.558C89.8293 105.379 89.7453 105.136 89.5773 104.65L79.9018 76.6609C79.5916 75.7638 79.4366 75.3153 79.5234 74.9577C79.5994 74.6447 79.793 74.373 80.064 74.1989C80.3736 74 80.8481 74 81.7973 74H87.6922C88.2256 74 88.4923 74 88.7175 74.0906C88.9164 74.1707 89.0914 74.3003 89.2258 74.4673C89.3781 74.6563 89.4557 74.9115 89.611 75.4218L95.7725 95.6701C95.8267 95.8483 95.9911 95.9701 96.1774 95.9701C96.3627 95.9701 96.5265 95.8495 96.5815 95.6725L102.88 75.4103C103.038 74.9039 103.116 74.6507 103.269 74.4632C103.403 74.2976 103.578 74.1691 103.776 74.0898C104 74 104.265 74 104.796 74H110.704C111.652 74 112.126 74 112.435 74.1986C112.706 74.3725 112.9 74.6439 112.976 74.9565C113.063 75.3138 112.909 75.762 112.6 76.6584L102.967 104.647ZM75.9759 103.994C75.9759 104.696 75.9759 105.047 75.8392 105.316C75.719 105.551 75.5273 105.743 75.2914 105.863C75.0233 106 74.6723 106 73.9702 106H68.9393C68.2373 106 67.8863 106 67.6181 105.863C67.3823 105.743 67.1905 105.551 67.0703 105.316C66.9337 105.047 66.9337 104.696 66.9337 103.994V76.0056C66.9337 75.3036 66.9337 74.9526 67.0703 74.6844C67.1905 74.4486 67.3823 74.2568 67.6181 74.1366C67.8863 74 68.2373 74 68.9393 74H73.9702C74.6723 74 75.0233 74 75.2914 74.1366C75.5273 74.2568 75.719 74.4486 75.8392 74.6844C75.9759 74.9526 75.9759 75.3036 75.9759 76.0056V103.994Z"/>
</mask>
<path fill-rule="evenodd" clip-rule="evenodd" d="M102.967 104.647C102.799 105.134 102.715 105.377 102.563 105.557C102.428 105.716 102.256 105.839 102.062 105.914C101.843 106 101.585 106 101.07 106H91.4729C90.9587 106 90.7016 106 90.4822 105.915C90.2884 105.839 90.1164 105.717 89.9817 105.558C89.8293 105.379 89.7453 105.136 89.5773 104.65L79.9018 76.6609C79.5916 75.7638 79.4366 75.3153 79.5234 74.9577C79.5994 74.6447 79.793 74.373 80.064 74.1989C80.3736 74 80.8481 74 81.7973 74H87.6922C88.2256 74 88.4923 74 88.7175 74.0906C88.9164 74.1707 89.0914 74.3003 89.2258 74.4673C89.3781 74.6563 89.4557 74.9115 89.611 75.4218L95.7725 95.6701C95.8267 95.8483 95.9911 95.9701 96.1774 95.9701C96.3627 95.9701 96.5265 95.8495 96.5815 95.6725L102.88 75.4103C103.038 74.9039 103.116 74.6507 103.269 74.4632C103.403 74.2976 103.578 74.1691 103.776 74.0898C104 74 104.265 74 104.796 74H110.704C111.652 74 112.126 74 112.435 74.1986C112.706 74.3725 112.9 74.6439 112.976 74.9565C113.063 75.3138 112.909 75.762 112.6 76.6584L102.967 104.647ZM75.9759 103.994C75.9759 104.696 75.9759 105.047 75.8392 105.316C75.719 105.551 75.5273 105.743 75.2914 105.863C75.0233 106 74.6723 106 73.9702 106H68.9393C68.2373 106 67.8863 106 67.6181 105.863C67.3823 105.743 67.1905 105.551 67.0703 105.316C66.9337 105.047 66.9337 104.696 66.9337 103.994V76.0056C66.9337 75.3036 66.9337 74.9526 67.0703 74.6844C67.1905 74.4486 67.3823 74.2568 67.6181 74.1366C67.8863 74 68.2373 74 68.9393 74H73.9702C74.6723 74 75.0233 74 75.2914 74.1366C75.5273 74.2568 75.719 74.4486 75.8392 74.6844C75.9759 74.9526 75.9759 75.3036 75.9759 76.0056V103.994Z" fill="#F5FAFF"/>
<path d="M75.2914 74.1366L76.892 70.9954L75.2914 74.1366ZM75.8392 74.6844L78.9805 73.0839L75.8392 74.6844ZM67.0703 74.6844L70.2116 76.285L67.0703 74.6844ZM67.6181 74.1366L66.0176 70.9954L67.6181 74.1366ZM75.2914 105.863L76.892 109.005L75.2914 105.863ZM75.8392 105.316L72.698 103.715L75.8392 105.316ZM67.6181 105.863L69.2187 102.722L67.6181 105.863ZM67.0703 105.316L70.2116 103.715L67.0703 105.316ZM102.88 75.4103L99.5137 74.3637L102.88 75.4103ZM103.269 74.4632L100.532 72.2403L103.269 74.4632ZM103.776 74.0898L105.086 77.3628L103.776 74.0898ZM96.5815 95.6725L99.9482 96.7191L96.5815 95.6725ZM95.7725 95.6701L99.1453 94.6438L95.7725 95.6701ZM88.7175 74.0906L87.4013 77.3612L88.7175 74.0906ZM89.611 75.4218L86.2382 76.4481L89.611 75.4218ZM89.2258 74.4673L86.48 76.6786L89.2258 74.4673ZM79.9018 76.6609L83.2338 75.5091V75.5091L79.9018 76.6609ZM79.5234 74.9577L82.9494 75.7897L79.5234 74.9577ZM80.064 74.1989L81.9697 77.165L80.064 74.1989ZM102.062 105.914L100.781 102.63L102.062 105.914ZM102.967 104.647L106.3 105.794L102.967 104.647ZM102.563 105.557L105.252 107.837L102.563 105.557ZM90.4822 105.915L89.2027 109.2L90.4822 105.915ZM89.9817 105.558L92.6686 103.275L89.9817 105.558ZM91.4729 102.474H101.07V109.526H91.4729V102.474ZM83.2338 75.5091L92.9093 103.498L86.2452 105.802L76.5697 77.8128L83.2338 75.5091ZM87.6922 77.5255H81.7973V70.4745H87.6922V77.5255ZM92.3996 96.6965L86.2382 76.4481L92.9838 74.3954L99.1453 94.6438L92.3996 96.6965ZM106.247 76.4568L99.9482 96.7191L93.2149 94.626L99.5137 74.3637L106.247 76.4568ZM110.704 77.5255H104.796V70.4745H110.704V77.5255ZM99.6332 103.5L109.267 75.511L115.934 77.8058L106.3 105.794L99.6332 103.5ZM68.9393 102.474H73.9702V109.526H68.9393V102.474ZM70.4592 76.0056V103.994H63.4082V76.0056H70.4592ZM73.9702 77.5255H68.9393V70.4745H73.9702V77.5255ZM72.4503 103.994V76.0056H79.5014V103.994H72.4503ZM73.9702 70.4745C74.2631 70.4745 74.6947 70.4717 75.0806 70.5033C75.5077 70.5381 76.1781 70.6316 76.892 70.9954L73.6909 77.2779C74.1366 77.505 74.4974 77.5302 74.5064 77.5309C74.5131 77.5314 74.4823 77.5288 74.3797 77.5272C74.2773 77.5256 74.1538 77.5255 73.9702 77.5255V70.4745ZM72.4503 76.0056C72.4503 75.8221 72.4502 75.6986 72.4486 75.5961C72.447 75.4936 72.4444 75.4628 72.445 75.4694C72.4457 75.4784 72.4708 75.8392 72.698 76.285L78.9805 73.0839C79.3443 73.7978 79.4377 74.4682 79.4726 74.8952C79.5041 75.2811 79.5014 75.7128 79.5014 76.0056H72.4503ZM76.892 70.9954C77.7912 71.4535 78.5223 72.1846 78.9805 73.0839L72.698 76.285C72.9158 76.7125 73.2634 77.0601 73.6909 77.2779L76.892 70.9954ZM63.4082 76.0056C63.4082 75.7128 63.4054 75.2811 63.437 74.8952C63.4719 74.4682 63.5653 73.7978 63.9291 73.0839L70.2116 76.285C70.4387 75.8392 70.4639 75.4784 70.4646 75.4694C70.4652 75.4628 70.4626 75.4936 70.4609 75.5961C70.4593 75.6986 70.4592 75.8221 70.4592 76.0056H63.4082ZM68.9393 77.5255C68.7558 77.5255 68.6323 77.5256 68.5299 77.5272C68.4273 77.5288 68.3965 77.5314 68.4031 77.5309C68.4121 77.5302 68.7729 77.505 69.2187 77.2779L66.0176 70.9954C66.7315 70.6316 67.4019 70.5381 67.8289 70.5033C68.2148 70.4717 68.6465 70.4745 68.9393 70.4745V77.5255ZM63.9291 73.0839C64.3873 72.1846 65.1184 71.4535 66.0176 70.9954L69.2187 77.2779C69.6462 77.0601 69.9938 76.7125 70.2116 76.285L63.9291 73.0839ZM73.9702 102.474C74.1538 102.474 74.2773 102.474 74.3797 102.473C74.4823 102.471 74.5131 102.469 74.5064 102.469C74.4974 102.47 74.1366 102.495 73.6909 102.722L76.892 109.005C76.1781 109.368 75.5077 109.462 75.0806 109.497C74.6947 109.528 74.2631 109.526 73.9702 109.526V102.474ZM79.5014 103.994C79.5014 104.287 79.5041 104.719 79.4726 105.105C79.4377 105.532 79.3443 106.202 78.9805 106.916L72.698 103.715C72.4708 104.161 72.4457 104.522 72.445 104.531C72.4444 104.537 72.447 104.506 72.4486 104.404C72.4502 104.301 72.4503 104.178 72.4503 103.994H79.5014ZM73.6909 102.722C73.2634 102.94 72.9158 103.288 72.698 103.715L78.9805 106.916C78.5223 107.815 77.7912 108.546 76.892 109.005L73.6909 102.722ZM68.9393 109.526C68.6465 109.526 68.2148 109.528 67.8289 109.497C67.4019 109.462 66.7315 109.368 66.0176 109.005L69.2187 102.722C68.7729 102.495 68.4121 102.47 68.4031 102.469C68.3965 102.469 68.4273 102.471 68.5299 102.473C68.6323 102.474 68.7558 102.474 68.9393 102.474V109.526ZM70.4592 103.994C70.4592 104.178 70.4593 104.301 70.4609 104.404C70.4626 104.506 70.4652 104.537 70.4646 104.531C70.4639 104.522 70.4387 104.161 70.2116 103.715L63.9291 106.916C63.5653 106.202 63.4719 105.532 63.437 105.105C63.4054 104.719 63.4082 104.287 63.4082 103.994H70.4592ZM66.0176 109.005C65.1184 108.546 64.3873 107.815 63.9291 106.916L70.2116 103.715C69.9938 103.288 69.6462 102.94 69.2187 102.722L66.0176 109.005ZM110.704 70.4745C111.111 70.4745 111.654 70.4711 112.125 70.5135C112.613 70.5574 113.478 70.6787 114.34 71.2318L110.531 77.1655C110.808 77.3437 111.064 77.4374 111.243 77.4859C111.406 77.5303 111.508 77.5375 111.493 77.5361C111.479 77.5349 111.418 77.5306 111.271 77.5281C111.124 77.5256 110.95 77.5255 110.704 77.5255V70.4745ZM109.267 75.511C109.347 75.2786 109.403 75.1133 109.449 74.974C109.494 74.8336 109.51 74.775 109.513 74.7616C109.517 74.7469 109.491 74.8455 109.479 75.0143C109.467 75.1987 109.473 75.4714 109.551 75.7918L116.401 74.1213C116.644 75.1159 116.477 75.9737 116.359 76.449C116.246 76.9082 116.066 77.4205 115.934 77.8058L109.267 75.511ZM114.34 71.2318C115.372 71.8946 116.11 72.9292 116.401 74.1213L109.551 75.7918C109.689 76.3585 110.04 76.8504 110.531 77.1655L114.34 71.2318ZM99.5137 74.3637C99.5798 74.1512 99.8476 73.0833 100.532 72.2403L106.005 76.6861C106.247 76.388 106.349 76.1282 106.362 76.0959C106.367 76.0828 106.361 76.0974 106.338 76.1674C106.315 76.2377 106.288 76.3236 106.247 76.4568L99.5137 74.3637ZM104.796 77.5255C104.656 77.5255 104.566 77.5256 104.492 77.5266C104.419 77.5276 104.403 77.5292 104.417 77.5282C104.451 77.5258 104.73 77.5055 105.086 77.3628L102.465 70.8168C103.474 70.4132 104.573 70.4745 104.796 70.4745V77.5255ZM100.532 72.2403C101.045 71.609 101.71 71.1191 102.465 70.8168L105.086 77.3628C105.445 77.2191 105.761 76.9861 106.005 76.6861L100.532 72.2403ZM96.1774 92.4446C94.8188 92.4446 93.6182 93.3286 93.2149 94.626L99.9482 96.7191C99.4348 98.3705 97.9067 99.4957 96.1774 99.4957V92.4446ZM99.1453 94.6438C98.7478 93.3374 97.5429 92.4446 96.1774 92.4446V99.4957C94.4393 99.4957 92.9056 98.3592 92.3996 96.6965L99.1453 94.6438ZM87.6922 70.4745C87.9159 70.4745 89.0213 70.4125 90.0338 70.82L87.4013 77.3612C87.7595 77.5054 88.0394 77.5258 88.0737 77.5282C88.0876 77.5292 88.0716 77.5276 87.9976 77.5266C87.9231 77.5256 87.8325 77.5255 87.6922 77.5255V70.4745ZM86.2382 76.4481C86.1973 76.3139 86.1709 76.2273 86.1482 76.1563C86.1257 76.0858 86.1196 76.0709 86.1245 76.0839C86.1368 76.116 86.2378 76.3779 86.48 76.6786L91.9716 72.2559C92.6562 73.1059 92.9187 74.1815 92.9838 74.3954L86.2382 76.4481ZM90.0338 70.82C90.7919 71.1251 91.459 71.6195 91.9716 72.2559L86.48 76.6786C86.7237 76.9812 87.0409 77.2162 87.4013 77.3612L90.0338 70.82ZM76.5697 77.8128C76.4364 77.4272 76.2556 76.9146 76.1418 76.4552C76.024 75.9799 75.8556 75.1215 76.0975 74.1256L82.9494 75.7897C83.0273 75.4688 83.0323 75.1959 83.0199 75.0114C83.0085 74.8425 82.982 74.7439 82.9857 74.7587C82.9891 74.7723 83.0048 74.831 83.0508 74.9716C83.0963 75.111 83.1534 75.2765 83.2338 75.5091L76.5697 77.8128ZM81.7973 77.5255C81.5512 77.5255 81.3762 77.5256 81.2295 77.5281C81.0817 77.5306 81.0211 77.5349 81.0071 77.5362C80.9919 77.5375 81.0937 77.5303 81.2571 77.4859C81.4355 77.4374 81.6918 77.3435 81.9697 77.165L78.1582 71.2328C79.0204 70.6789 79.8867 70.5575 80.3745 70.5136C80.8458 70.4711 81.3893 70.4745 81.7973 70.4745V77.5255ZM76.0975 74.1256C76.3873 72.9324 77.1252 71.8966 78.1582 71.2328L81.9697 77.165C82.4608 76.8495 82.8116 76.357 82.9494 75.7897L76.0975 74.1256ZM101.07 102.474C101.206 102.474 101.293 102.474 101.364 102.473C101.435 102.472 101.45 102.471 101.436 102.472C101.4 102.474 101.129 102.494 100.781 102.63L103.343 109.199C102.356 109.584 101.288 109.526 101.07 109.526V102.474ZM106.3 105.794C106.23 106 105.937 107.029 105.252 107.837L99.8739 103.277C99.6325 103.562 99.5258 103.812 99.5119 103.845C99.5063 103.858 99.5124 103.844 99.5365 103.777C99.5607 103.71 99.589 103.628 99.6332 103.5L106.3 105.794ZM100.781 102.63C100.43 102.767 100.118 102.989 99.8739 103.277L105.252 107.837C104.739 108.443 104.083 108.911 103.343 109.199L100.781 102.63ZM91.4729 109.526C91.2558 109.526 90.1886 109.584 89.2027 109.2L91.7616 102.629C91.4142 102.494 91.1437 102.474 91.1079 102.472C91.0935 102.471 91.1082 102.472 91.1792 102.473C91.2506 102.474 91.3375 102.474 91.4729 102.474V109.526ZM92.9093 103.498C92.9536 103.626 92.982 103.708 93.0063 103.775C93.0303 103.842 93.0365 103.855 93.0309 103.842C93.0169 103.809 92.91 103.56 92.6686 103.275L87.2949 107.841C86.6099 107.034 86.3162 106.007 86.2452 105.802L92.9093 103.498ZM89.2027 109.2C88.4639 108.912 87.8082 108.445 87.2949 107.841L92.6686 103.275C92.4246 102.988 92.1129 102.766 91.7616 102.629L89.2027 109.2Z" fill="black" fill-opacity="0.12" style="mix-blend-mode:color-burn" mask="url(#path-18-outside-1_43_16987)"/>
<mask id="path-20-inside-2_43_16987" fill="white">
<path fill-rule="evenodd" clip-rule="evenodd" d="M102.967 104.647C102.799 105.134 102.715 105.377 102.563 105.557C102.428 105.716 102.256 105.839 102.062 105.914C101.843 106 101.585 106 101.07 106H91.4729C90.9587 106 90.7016 106 90.4822 105.915C90.2884 105.839 90.1164 105.717 89.9817 105.558C89.8293 105.379 89.7453 105.136 89.5773 104.65L79.9018 76.6609C79.5916 75.7638 79.4366 75.3153 79.5234 74.9577C79.5994 74.6447 79.793 74.373 80.064 74.1989C80.3736 74 80.8481 74 81.7973 74H87.6922C88.2256 74 88.4923 74 88.7175 74.0906C88.9164 74.1707 89.0914 74.3003 89.2258 74.4673C89.3781 74.6563 89.4557 74.9115 89.611 75.4218L95.7725 95.6701C95.8267 95.8483 95.9911 95.9701 96.1774 95.9701C96.3627 95.9701 96.5265 95.8495 96.5815 95.6725L102.88 75.4103C103.038 74.9039 103.116 74.6507 103.269 74.4632C103.403 74.2976 103.578 74.1691 103.776 74.0898C104 74 104.265 74 104.796 74H110.704C111.652 74 112.126 74 112.435 74.1986C112.706 74.3725 112.9 74.6439 112.976 74.9565C113.063 75.3138 112.909 75.762 112.6 76.6584L102.967 104.647ZM75.9759 103.994C75.9759 104.696 75.9759 105.047 75.8392 105.316C75.719 105.551 75.5273 105.743 75.2914 105.863C75.0233 106 74.6723 106 73.9702 106H68.9393C68.2373 106 67.8863 106 67.6181 105.863C67.3823 105.743 67.1905 105.551 67.0703 105.316C66.9337 105.047 66.9337 104.696 66.9337 103.994V76.0056C66.9337 75.3036 66.9337 74.9526 67.0703 74.6844C67.1905 74.4486 67.3823 74.2568 67.6181 74.1366C67.8863 74 68.2373 74 68.9393 74H73.9702C74.6723 74 75.0233 74 75.2914 74.1366C75.5273 74.2568 75.719 74.4486 75.8392 74.6844C75.9759 74.9526 75.9759 75.3036 75.9759 76.0056V103.994Z"/>
</mask>
<path d="M75.2914 74.1366L75.8249 73.0895L75.2914 74.1366ZM75.8392 74.6844L76.8863 74.1509L75.8392 74.6844ZM67.0703 74.6844L68.1174 75.218L67.0703 74.6844ZM67.6181 74.1366L67.0846 73.0895L67.6181 74.1366ZM75.2914 105.863L75.8249 106.91L75.2914 105.863ZM75.8392 105.316L74.7921 104.782L75.8392 105.316ZM67.6181 105.863L68.1517 104.816L67.6181 105.863ZM67.0703 105.316L68.1174 104.782L67.0703 105.316ZM102.88 75.4103L101.758 75.0614L102.88 75.4103ZM103.269 74.4632L102.357 73.7222L103.269 74.4632ZM103.776 74.0898L104.213 75.1808L103.776 74.0898ZM96.5815 95.6725L97.7037 96.0214L96.5815 95.6725ZM95.7725 95.6701L96.8968 95.328L95.7725 95.6701ZM88.7175 74.0906L88.2788 75.1808L88.7175 74.0906ZM89.611 75.4218L88.4867 75.7639L89.611 75.4218ZM89.2258 74.4673L88.3105 75.2044L89.2258 74.4673ZM79.9018 76.6609L81.0125 76.277L79.9018 76.6609ZM79.5234 74.9577L80.6654 75.235L79.5234 74.9577ZM80.064 74.1989L80.6992 75.1876L80.064 74.1989ZM102.062 105.914L101.635 104.819L102.062 105.914ZM102.967 104.647L104.078 105.03L102.967 104.647ZM102.563 105.557L103.459 106.317L102.563 105.557ZM90.4822 105.915L90.0557 107.01L90.4822 105.915ZM89.9817 105.558L90.8774 104.797L89.9817 105.558ZM91.4729 104.825H101.07V107.175H91.4729V104.825ZM81.0125 76.277L90.688 104.266L88.4666 105.034L78.7911 77.0449L81.0125 76.277ZM87.6922 75.1752H81.7973V72.8248H87.6922V75.1752ZM94.6482 96.0122L88.4867 75.7639L90.7353 75.0797L96.8968 95.328L94.6482 96.0122ZM104.003 75.7591L97.7037 96.0214L95.4593 95.3237L101.758 75.0614L104.003 75.7591ZM110.704 75.1752H104.796V72.8248H110.704V75.1752ZM101.856 104.265L111.489 76.2759L113.711 77.0408L104.078 105.03L101.856 104.265ZM68.9393 104.825H73.9702V107.175H68.9393V104.825ZM68.1089 76.0056V103.994H65.7585V76.0056H68.1089ZM73.9702 75.1752H68.9393V72.8248H73.9702V75.1752ZM74.8007 103.994V76.0056H77.151V103.994H74.8007ZM73.9702 72.8248C74.3018 72.8248 74.6212 72.8239 74.8892 72.8458C75.1709 72.8688 75.4976 72.9227 75.8249 73.0895L74.7579 75.1837C74.8171 75.2139 74.8342 75.1995 74.6978 75.1884C74.5478 75.1761 74.3406 75.1752 73.9702 75.1752V72.8248ZM74.8007 76.0056C74.8007 75.6352 74.7998 75.4281 74.7875 75.278C74.7764 75.1417 74.762 75.1587 74.7921 75.218L76.8863 74.1509C77.0531 74.4783 77.107 74.8049 77.13 75.0866C77.1519 75.3546 77.151 75.674 77.151 76.0056H74.8007ZM75.8249 73.0895C76.2819 73.3224 76.6535 73.6939 76.8863 74.1509L74.7921 75.218C74.7846 75.2032 74.7726 75.1912 74.7579 75.1837L75.8249 73.0895ZM65.7585 76.0056C65.7585 75.674 65.7576 75.3546 65.7795 75.0866C65.8025 74.8049 65.8565 74.4783 66.0232 74.1509L68.1174 75.218C68.1476 75.1587 68.1332 75.1417 68.1221 75.278C68.1098 75.4281 68.1089 75.6352 68.1089 76.0056H65.7585ZM68.9393 75.1752C68.5689 75.1752 68.3618 75.1761 68.2117 75.1884C68.0754 75.1995 68.0925 75.2139 68.1517 75.1837L67.0846 73.0895C67.412 72.9227 67.7386 72.8688 68.0203 72.8458C68.2883 72.8239 68.6077 72.8248 68.9393 72.8248V75.1752ZM66.0232 74.1509C66.2561 73.6939 66.6276 73.3224 67.0846 73.0895L68.1517 75.1837C68.1369 75.1912 68.1249 75.2032 68.1174 75.218L66.0232 74.1509ZM73.9702 104.825C74.3406 104.825 74.5478 104.824 74.6978 104.812C74.8342 104.801 74.8171 104.786 74.7579 104.816L75.8249 106.91C75.4976 107.077 75.1709 107.131 74.8892 107.154C74.6212 107.176 74.3018 107.175 73.9702 107.175V104.825ZM77.151 103.994C77.151 104.326 77.1519 104.645 77.13 104.913C77.107 105.195 77.0531 105.522 76.8863 105.849L74.7921 104.782C74.762 104.841 74.7764 104.858 74.7875 104.722C74.7998 104.572 74.8007 104.365 74.8007 103.994H77.151ZM74.7579 104.816C74.7726 104.809 74.7846 104.797 74.7921 104.782L76.8863 105.849C76.6535 106.306 76.2819 106.678 75.8249 106.91L74.7579 104.816ZM68.9393 107.175C68.6077 107.175 68.2883 107.176 68.0203 107.154C67.7386 107.131 67.412 107.077 67.0846 106.91L68.1517 104.816C68.0925 104.786 68.0754 104.801 68.2117 104.812C68.3618 104.824 68.5689 104.825 68.9393 104.825V107.175ZM68.1089 103.994C68.1089 104.365 68.1098 104.572 68.1221 104.722C68.1332 104.858 68.1476 104.841 68.1174 104.782L66.0232 105.849C65.8565 105.522 65.8025 105.195 65.7795 104.913C65.7576 104.645 65.7585 104.326 65.7585 103.994H68.1089ZM67.0846 106.91C66.6276 106.678 66.2561 106.306 66.0232 105.849L68.1174 104.782C68.1249 104.797 68.1369 104.809 68.1517 104.816L67.0846 106.91ZM110.704 72.8248C111.156 72.8248 111.574 72.8237 111.914 72.8544C112.261 72.8856 112.68 72.9591 113.07 73.2097L111.8 75.1876C111.881 75.2395 111.909 75.2137 111.704 75.1953C111.493 75.1763 111.2 75.1752 110.704 75.1752V72.8248ZM111.489 76.2759C111.65 75.8067 111.745 75.5293 111.795 75.324C111.845 75.1241 111.811 75.1416 111.834 75.235L114.118 74.6781C114.227 75.1288 114.161 75.5489 114.077 75.8865C113.996 76.2187 113.858 76.6136 113.711 77.0408L111.489 76.2759ZM113.07 73.2097C113.595 73.5465 113.97 74.0723 114.118 74.6781L111.834 75.235C111.829 75.2154 111.817 75.1985 111.8 75.1876L113.07 73.2097ZM101.758 75.0614C101.885 74.653 102.027 74.1282 102.357 73.7222L104.181 75.2041C104.211 75.1673 104.206 75.1541 104.172 75.2434C104.132 75.3464 104.086 75.4905 104.003 75.7591L101.758 75.0614ZM104.796 75.1752C104.514 75.1752 104.363 75.1758 104.253 75.1835C104.157 75.1902 104.169 75.1984 104.213 75.1808L103.339 72.9988C103.825 72.8044 104.368 72.8248 104.796 72.8248V75.1752ZM102.357 73.7222C102.617 73.4014 102.955 73.1524 103.339 72.9988L104.213 75.1808C104.2 75.1857 104.189 75.1938 104.181 75.2041L102.357 73.7222ZM96.1774 94.795C95.8481 94.795 95.5571 95.0092 95.4593 95.3237L97.7037 96.0214C97.496 96.6898 96.8774 97.1453 96.1774 97.1453V94.795ZM96.8968 95.328C96.8004 95.0114 96.5084 94.795 96.1774 94.795V97.1453C95.4738 97.1453 94.853 96.6853 94.6482 96.0122L96.8968 95.328ZM87.6922 72.8248C88.1224 72.8248 88.6686 72.8042 89.1563 73.0004L88.2788 75.1808C88.3231 75.1987 88.3344 75.1904 88.2382 75.1836C88.1273 75.1758 87.9751 75.1752 87.6922 75.1752V72.8248ZM88.4867 75.7639C88.4044 75.4932 88.3594 75.3479 88.3197 75.244C88.2852 75.1539 88.2806 75.1672 88.3105 75.2044L90.1411 73.7301C90.4708 74.1395 90.6101 74.6681 90.7353 75.0797L88.4867 75.7639ZM89.1563 73.0004C89.5415 73.1555 89.8806 73.4067 90.1411 73.7301L88.3105 75.2044C88.3021 75.1939 88.2912 75.1858 88.2788 75.1808L89.1563 73.0004ZM78.7911 77.0449C78.6433 76.6173 78.5055 76.2222 78.4231 75.8897C78.3394 75.552 78.2719 75.1315 78.3815 74.6803L80.6654 75.235C80.6881 75.1415 80.6548 75.124 80.7044 75.3242C80.7553 75.5297 80.8501 75.8074 81.0125 76.277L78.7911 77.0449ZM81.7973 75.1752C81.3005 75.1752 81.0071 75.1763 80.7962 75.1953C80.5908 75.2138 80.6182 75.2397 80.6992 75.1876L79.4287 73.2102C79.8193 72.9593 80.2388 72.8857 80.5854 72.8544C80.9265 72.8237 81.3449 72.8248 81.7973 72.8248V75.1752ZM78.3815 74.6803C78.5287 74.074 78.9037 73.5475 79.4287 73.2102L80.6992 75.1876C80.6823 75.1985 80.6702 75.2155 80.6654 75.235L78.3815 74.6803ZM101.07 104.825C101.344 104.825 101.49 104.824 101.597 104.817C101.689 104.811 101.678 104.803 101.635 104.819L102.489 107.009C102.014 107.195 101.486 107.175 101.07 107.175V104.825ZM104.078 105.03C103.943 105.423 103.789 105.928 103.459 106.317L101.667 104.797C101.637 104.832 101.641 104.845 101.677 104.76C101.718 104.661 101.767 104.523 101.856 104.265L104.078 105.03ZM101.635 104.819C101.647 104.815 101.658 104.807 101.667 104.797L103.459 106.317C103.198 106.625 102.865 106.863 102.489 107.009L101.635 104.819ZM91.4729 107.175C91.0577 107.175 90.5306 107.195 90.0557 107.01L90.9086 104.819C90.866 104.803 90.8552 104.811 90.9473 104.817C91.0539 104.824 91.2 104.825 91.4729 104.825V107.175ZM90.688 104.266C90.7771 104.524 90.8255 104.661 90.8672 104.76C90.9032 104.845 90.907 104.832 90.8774 104.797L89.0861 106.319C88.7562 105.93 88.6022 105.426 88.4666 105.034L90.688 104.266ZM90.0557 107.01C89.6802 106.863 89.347 106.626 89.0861 106.319L90.8774 104.797C90.8858 104.807 90.8965 104.815 90.9086 104.819L90.0557 107.01Z" fill="white" fill-opacity="0.25" mask="url(#path-20-inside-2_43_16987)"/>
<defs>
<filter id="filter0_d_43_16987" x="28.6277" y="31.2271" width="122.253" height="122.252" filterUnits="userSpaceOnUse" color-interpolation-filters="sRGB">
<feFlood flood-opacity="0" result="BackgroundImageFix"/>
<feColorMatrix in="SourceAlpha" type="matrix" values="0 0 0 0 0 0 0 0 0 0 0 0 0 0 0 0 0 0 127 0" result="hardAlpha"/>
<feOffset dy="2.35326"/>
<feGaussianBlur stdDeviation="3.52989"/>
<feComposite in2="hardAlpha" operator="out"/>
<feColorMatrix type="matrix" values="0 0 0 0 0.395182 0 0 0 0 0.371874 0 0 0 0 0.361961 0 0 0 1 0"/>
<feBlend mode="color-burn" in2="BackgroundImageFix" result="effect1_dropShadow_43_16987"/>
<feBlend mode="normal" in="SourceGraphic" in2="effect1_dropShadow_43_16987" result="shape"/>
</filter>
<filter id="filter1_i_43_16987" x="48.1567" y="47.9492" width="88.1038" height="90.1035" filterUnits="userSpaceOnUse" color-interpolation-filters="sRGB">
<feFlood flood-opacity="0" result="BackgroundImageFix"/>
<feBlend mode="normal" in="SourceGraphic" in2="BackgroundImageFix" result="shape"/>
<feColorMatrix in="SourceAlpha" type="matrix" values="0 0 0 0 0 0 0 0 0 0 0 0 0 0 0 0 0 0 127 0" result="hardAlpha"/>
<feOffset dx="4" dy="6"/>
<feGaussianBlur stdDeviation="5"/>
<feComposite in2="hardAlpha" operator="arithmetic" k2="-1" k3="1"/>
<feColorMatrix type="matrix" values="0 0 0 0 0 0 0 0 0 0 0 0 0 0 0 0 0 0 0.2 0"/>
<feBlend mode="plus-darker" in2="shape" result="effect1_innerShadow_43_16987"/>
</filter>
<radialGradient id="paint0_radial_43_16987" cx="0" cy="0" r="1" gradientUnits="userSpaceOnUse" gradientTransform="translate(89.7545 90.001) rotate(90) scale(75.1417)">
<stop offset="0.01" stop-color="#8698D4"/>
<stop offset="0.475" stop-color="#8A96D4"/>
<stop offset="1" stop-color="#CCDAFA"/>
</radialGradient>
<linearGradient id="paint1_linear_43_16987" x1="97.5" y1="38" x2="113.5" y2="17" gradientUnits="userSpaceOnUse">
<stop stop-color="#2BD1FF"/>
<stop offset="1" stop-color="#4256FF"/>
</linearGradient>
<linearGradient id="paint2_linear_43_16987" x1="93" y1="16" x2="103.53" y2="43.3006" gradientUnits="userSpaceOnUse">
<stop stop-color="#BFCCE9"/>
<stop offset="1" stop-color="#E8EFFF"/>
</linearGradient>
<linearGradient id="paint3_linear_43_16987" x1="79.5" y1="26" x2="90" y2="37.5" gradientUnits="userSpaceOnUse">
<stop stop-color="#2BD1FF"/>
<stop offset="1" stop-color="#4256FF"/>
</linearGradient>
<linearGradient id="paint4_linear_43_16987" x1="84" y1="15" x2="81" y2="43" gradientUnits="userSpaceOnUse">
<stop stop-color="#BFCCE9"/>
<stop offset="1" stop-color="#EDF2FF"/>
</linearGradient>
<linearGradient id="paint5_linear_43_16987" x1="175" y1="55.5" x2="128.979" y2="71.0647" gradientUnits="userSpaceOnUse">
<stop stop-color="#D2D9E8"/>
<stop offset="1" stop-color="#8995D3"/>
</linearGradient>
<linearGradient id="paint6_linear_43_16987" x1="172" y1="151" x2="125.553" y2="114.993" gradientUnits="userSpaceOnUse">
<stop stop-color="#D2D9E8"/>
<stop offset="1" stop-color="#8995D3"/>
</linearGradient>
<linearGradient id="paint7_linear_43_16987" x1="16.5031" y1="81.9055" x2="46.9121" y2="119.793" gradientUnits="userSpaceOnUse">
<stop stop-color="#D2D9E8"/>
<stop offset="1" stop-color="#8995D3"/>
</linearGradient>
<linearGradient id="paint8_linear_43_16987" x1="60.1271" y1="22.499" x2="42.5376" y2="67.7844" gradientUnits="userSpaceOnUse">
<stop stop-color="#D2D9E8"/>
<stop offset="1" stop-color="#8995D3"/>
</linearGradient>
<linearGradient id="paint9_linear_43_16987" x1="76.4778" y1="181.138" x2="86.0087" y2="133.501" gradientUnits="userSpaceOnUse">
<stop stop-color="#D2D9E8"/>
<stop offset="1" stop-color="#8995D3"/>
</linearGradient>
<linearGradient id="paint10_linear_43_16987" x1="41.6989" y1="109.591" x2="15.5123" y2="106.234" gradientUnits="userSpaceOnUse">
<stop stop-color="#2BD1FF"/>
<stop offset="1" stop-color="#4256FF"/>
</linearGradient>
<linearGradient id="paint11_linear_43_16987" x1="24.8963" y1="124.488" x2="43.2742" y2="101.718" gradientUnits="userSpaceOnUse">
<stop stop-color="#BFCCE9"/>
<stop offset="1" stop-color="#E8EFFF"/>
</linearGradient>
<linearGradient id="paint12_linear_43_16987" x1="40.3067" y1="131.179" x2="45.016" y2="116.335" gradientUnits="userSpaceOnUse">
<stop stop-color="#2BD1FF"/>
<stop offset="1" stop-color="#4256FF"/>
</linearGradient>
<linearGradient id="paint13_linear_43_16987" x1="28.5304" y1="132.782" x2="54.2791" y2="121.38" gradientUnits="userSpaceOnUse">
<stop stop-color="#BFCCE9"/>
<stop offset="1" stop-color="#EDF2FF"/>
</linearGradient>
<linearGradient id="paint14_linear_43_16987" x1="137.84" y1="109.591" x2="164.027" y2="106.234" gradientUnits="userSpaceOnUse">
<stop stop-color="#2BD1FF"/>
<stop offset="1" stop-color="#4256FF"/>
</linearGradient>
<linearGradient id="paint15_linear_43_16987" x1="154.643" y1="124.488" x2="136.265" y2="101.718" gradientUnits="userSpaceOnUse">
<stop stop-color="#BFCCE9"/>
<stop offset="1" stop-color="#E8EFFF"/>
</linearGradient>
<linearGradient id="paint16_linear_43_16987" x1="139.232" y1="131.179" x2="134.523" y2="116.335" gradientUnits="userSpaceOnUse">
<stop stop-color="#2BD1FF"/>
<stop offset="1" stop-color="#4256FF"/>
</linearGradient>
<linearGradient id="paint17_linear_43_16987" x1="151.009" y1="132.782" x2="125.26" y2="121.38" gradientUnits="userSpaceOnUse">
<stop stop-color="#BFCCE9"/>
<stop offset="1" stop-color="#EDF2FF"/>
</linearGradient>
<radialGradient id="paint18_radial_43_16987" cx="0" cy="0" r="1" gradientUnits="userSpaceOnUse" gradientTransform="translate(113.611 136.916) rotate(-116.589) scale(106.569)">
<stop stop-color="#7893D1"/>
<stop offset="0.70233" stop-color="#D1DAEE"/>
<stop offset="1" stop-color="#EFFBFD"/>
</radialGradient>
<radialGradient id="paint19_radial_43_16987" cx="0" cy="0" r="1" gradientUnits="userSpaceOnUse" gradientTransform="translate(115.245 122.225) rotate(-125.818) scale(87.5991)">
<stop stop-color="#E3EEFF"/>
<stop offset="0.5" stop-color="#BDCAE8"/>
<stop offset="1" stop-color="#7688AE"/>
</radialGradient>
<linearGradient id="paint20_linear_43_16987" x1="90" y1="38.5007" x2="90" y2="138.001" gradientUnits="userSpaceOnUse">
<stop stop-color="#B6C5E6"/>
<stop offset="1" stop-color="#EDF9FC"/>
</linearGradient>
<radialGradient id="paint21_radial_43_16987" cx="0" cy="0" r="1" gradientUnits="userSpaceOnUse" gradientTransform="translate(87.9559 90.0011) rotate(78.837) scale(59.6282)">
<stop stop-color="#46DAFB"/>
<stop offset="1" stop-color="#0059DF"/>
</radialGradient>
<linearGradient id="paint22_linear_43_16987" x1="90.2088" y1="55.959" x2="90.2088" y2="98.0109" gradientUnits="userSpaceOnUse">
<stop stop-color="white"/>
<stop offset="1" stop-color="white" stop-opacity="0"/>
</linearGradient>
</defs>
</svg>
