<svg width="180" height="180" viewBox="0 0 180 180" fill="none" xmlns="http://www.w3.org/2000/svg">
<mask id="mask0_43_16990" style="mask-type:alpha" maskUnits="userSpaceOnUse" x="0" y="0" width="180" height="180">
<rect width="180" height="180" fill="#D9D9D9"/>
</mask>
<g mask="url(#mask0_43_16990)">
<g filter="url(#filter0_ii_43_16990)">
<path d="M157.179 119.587C165.944 112.222 167.685 102.643 167.088 96C159.024 107.12 141.732 109.523 136.057 109.811V122.232C140.189 124.302 149.892 125.711 157.179 119.587Z" fill="url(#paint0_linear_43_16990)"/>
</g>
<g filter="url(#filter1_ii_43_16990)">
<path d="M160.174 105.556C176.736 92.5 175.732 67.5 174.225 56C160.57 75.5619 132.61 87.2644 123 87.7725V109.621C129.996 113.262 147.307 115.699 160.174 105.556Z" fill="url(#paint1_linear_43_16990)"/>
</g>
<g filter="url(#filter2_ii_43_16990)">
<path d="M171.074 28C161.599 43.5717 141.72 55.5539 126.013 62.1264L136.57 96C143.437 94.3147 157.705 87.3342 165.667 76.7881C176.736 62.1264 173.392 38.8699 171.074 28Z" fill="url(#paint2_linear_43_16990)"/>
</g>
<g filter="url(#filter3_ii_43_16990)">
<path d="M22.8208 119.587C14.0556 112.222 12.3145 102.643 12.9118 96C20.9755 107.12 38.2682 109.523 43.9426 109.811V122.232C39.8112 124.302 30.108 125.711 22.8208 119.587Z" fill="url(#paint3_linear_43_16990)"/>
</g>
<g filter="url(#filter4_ii_43_16990)">
<path d="M19.8261 105.556C3.26362 92.5 4.26804 67.5 5.77466 56C19.4304 75.5619 47.3904 87.2644 57 87.7725V109.621C50.0035 113.262 32.6931 115.699 19.8261 105.556Z" fill="url(#paint4_linear_43_16990)"/>
</g>
<g filter="url(#filter5_ii_43_16990)">
<path d="M8.9257 28C18.4014 43.5717 38.2798 55.5539 53.9868 62.1264L43.4296 96C36.5632 94.3147 22.2951 87.3342 14.333 76.7881C3.26369 62.1264 6.60828 38.8699 8.9257 28Z" fill="url(#paint5_linear_43_16990)"/>
</g>
<path d="M136.198 113.572L90.0001 159.77L43.8025 113.572H136.198Z" fill="url(#paint6_linear_43_16990)"/>
<path d="M136.198 113.572L90 159.77L90 113.572H136.198Z" fill="url(#paint7_linear_43_16990)"/>
<path d="M43.8022 66.4301L89.9999 20.2324L136.198 66.4301H43.8022Z" fill="url(#paint8_linear_43_16990)"/>
<path d="M43.8023 66.4301L90 20.2324L90 66.4301H43.8023Z" fill="url(#paint9_linear_43_16990)"/>
<mask id="path-12-inside-1_43_16990" fill="white">
<path fill-rule="evenodd" clip-rule="evenodd" d="M69.3386 28.3535C43.569 36.9866 25 61.3253 25 90.0009C25 118.677 43.569 143.015 69.3385 151.648L86 90.0009L69.3386 28.3535ZM110.661 151.648C136.431 143.015 155 118.677 155 90.0009C155 61.3253 136.431 36.9866 110.661 28.3535L94 90.0009L110.661 151.648Z"/>
</mask>
<path fill-rule="evenodd" clip-rule="evenodd" d="M69.3386 28.3535C43.569 36.9866 25 61.3253 25 90.0009C25 118.677 43.569 143.015 69.3385 151.648L86 90.0009L69.3386 28.3535ZM110.661 151.648C136.431 143.015 155 118.677 155 90.0009C155 61.3253 136.431 36.9866 110.661 28.3535L94 90.0009L110.661 151.648Z" fill="url(#paint10_linear_43_16990)"/>
<path d="M69.3386 28.3535L71.2693 27.8317L70.7156 25.783L68.7032 26.4571L69.3386 28.3535ZM69.3385 151.648L68.7032 153.545L70.7156 154.219L71.2693 152.17L69.3385 151.648ZM86 90.0009L87.9307 90.5227L88.0718 90.0009L87.9307 89.4791L86 90.0009ZM110.661 151.648L108.731 152.17L109.284 154.219L111.297 153.545L110.661 151.648ZM110.661 28.3535L111.297 26.4571L109.284 25.783L108.731 27.8317L110.661 28.3535ZM94 90.0009L92.0693 89.4791L91.9282 90.0009L92.0693 90.5227L94 90.0009ZM27 90.0009C27 62.2107 44.9949 38.6182 69.9739 30.2499L68.7032 26.4571C42.1431 35.3551 23 60.4398 23 90.0009H27ZM69.9739 149.752C44.9949 141.384 27 117.791 27 90.0009H23C23 119.562 42.1431 144.647 68.7032 153.545L69.9739 149.752ZM71.2693 152.17L87.9307 90.5227L84.0693 89.4791L67.4078 151.126L71.2693 152.17ZM87.9307 89.4791L71.2693 27.8317L67.4078 28.8753L84.0693 90.5227L87.9307 89.4791ZM153 90.0009C153 117.791 135.005 141.384 110.026 149.752L111.297 153.545C137.857 144.647 157 119.562 157 90.0009H153ZM110.026 30.2499C135.005 38.6182 153 62.2107 153 90.0009H157C157 60.4398 137.857 35.3551 111.297 26.4571L110.026 30.2499ZM108.731 27.8317L92.0693 89.4791L95.9307 90.5227L112.592 28.8753L108.731 27.8317ZM92.0693 90.5227L108.731 152.17L112.592 151.126L95.9307 89.4791L92.0693 90.5227Z" fill="white" fill-opacity="0.2" mask="url(#path-12-inside-1_43_16990)"/>
<path d="M60.1666 143.353L68.7988 112.723H112.201L120.833 143.353L90.5 162.171L60.1666 143.353Z" fill="url(#paint11_linear_43_16990)" stroke="url(#paint12_linear_43_16990)" stroke-width="2"/>
<g filter="url(#filter6_d_43_16990)">
<mask id="path-15-inside-2_43_16990" fill="white">
<path fill-rule="evenodd" clip-rule="evenodd" d="M44.3198 43.7598C32.3916 55.5439 25 71.9096 25 90.0017C25 108.094 32.3916 124.46 44.3198 136.244L90 94.0017L135.68 136.244C147.608 124.46 155 108.094 155 90.0017C155 71.9096 147.608 55.5439 135.68 43.7598L90 86.0017L44.3198 43.7598Z"/>
</mask>
<path fill-rule="evenodd" clip-rule="evenodd" d="M44.3198 43.7598C32.3916 55.5439 25 71.9096 25 90.0017C25 108.094 32.3916 124.46 44.3198 136.244L90 94.0017L135.68 136.244C147.608 124.46 155 108.094 155 90.0017C155 71.9096 147.608 55.5439 135.68 43.7598L90 86.0017L44.3198 43.7598Z" fill="url(#paint13_linear_43_16990)"/>
<path d="M44.3198 43.7598L45.6776 42.2914L44.2741 40.9935L42.9142 42.337L44.3198 43.7598ZM44.3198 136.244L42.9142 137.666L44.2741 139.01L45.6776 137.712L44.3198 136.244ZM90 94.0017L91.3579 92.5333L90 91.2776L88.6421 92.5333L90 94.0017ZM135.68 136.244L134.322 137.712L135.726 139.01L137.086 137.666L135.68 136.244ZM135.68 43.7598L137.086 42.337L135.726 40.9935L134.322 42.2914L135.68 43.7598ZM90 86.0017L88.6421 87.4701L90 88.7258L91.3579 87.4701L90 86.0017ZM27 90.0017C27 72.4658 34.162 56.6064 45.7254 45.1825L42.9142 42.337C30.6213 54.4814 23 71.3534 23 90.0017H27ZM45.7254 134.821C34.162 123.397 27 107.538 27 90.0017H23C23 108.65 30.6213 125.522 42.9142 137.666L45.7254 134.821ZM88.6421 92.5333L42.9619 134.775L45.6776 137.712L91.3579 95.4701L88.6421 92.5333ZM137.038 134.775L91.3579 92.5333L88.6421 95.4701L134.322 137.712L137.038 134.775ZM153 90.0017C153 107.538 145.838 123.397 134.275 134.821L137.086 137.666C149.379 125.522 157 108.65 157 90.0017H153ZM134.275 45.1825C145.838 56.6064 153 72.4658 153 90.0017H157C157 71.3534 149.379 54.4814 137.086 42.337L134.275 45.1825ZM134.322 42.2914L88.6421 84.5333L91.3579 87.4701L137.038 45.2282L134.322 42.2914ZM91.3579 84.5333L45.6776 42.2914L42.9619 45.2282L88.6421 87.4701L91.3579 84.5333Z" fill="url(#paint14_linear_43_16990)" mask="url(#path-15-inside-2_43_16990)"/>
</g>
<g filter="url(#filter7_d_43_16990)">
<circle cx="90" cy="90" r="54" fill="url(#paint15_radial_43_16990)"/>
</g>
<circle cx="90" cy="90" r="48" fill="url(#paint16_radial_43_16990)" stroke="url(#paint17_linear_43_16990)" stroke-width="1.6"/>
<g filter="url(#filter8_i_43_16990)">
<circle cx="90" cy="90" r="42" fill="url(#paint18_radial_43_16990)"/>
</g>
<path opacity="0.5" d="M124 90.4068C124 109.409 108.778 86.7576 90 86.7576C71.2223 86.7576 56 109.409 56 90.4068C56 71.4045 71.2223 56 90 56C108.778 56 124 71.4045 124 90.4068Z" fill="url(#paint19_linear_43_16990)"/>
<mask id="path-21-outside-3_43_16990" maskUnits="userSpaceOnUse" x="58" y="70" width="65" height="40" fill="black">
<rect fill="white" x="58" y="70" width="65" height="40"/>
<path fill-rule="evenodd" clip-rule="evenodd" d="M84.4299 104.851C84.287 105.264 84.2155 105.471 84.0858 105.624C83.9712 105.759 83.8248 105.863 83.6599 105.927C83.4732 106 83.2544 106 82.8169 106H72.7932C72.3551 106 72.136 106 71.9491 105.927C71.7841 105.863 71.6377 105.758 71.5231 105.623C71.3933 105.47 71.322 105.263 71.1795 104.849L61.3402 76.2621C61.0777 75.4993 60.9464 75.1179 61.0205 74.814C61.0854 74.5479 61.2501 74.317 61.4806 74.169C61.7439 74 62.1473 74 62.954 74H69.5014C69.9526 74 70.1782 74 70.3691 74.0764C70.5376 74.1439 70.6861 74.2532 70.8006 74.3941C70.9302 74.5537 70.9972 74.7691 71.1311 75.2L77.4953 95.6725C77.5503 95.8495 77.7141 95.9701 77.8994 95.9701C78.0857 95.9701 78.2501 95.8483 78.3043 95.6701L84.5303 75.2098C84.6624 74.7756 84.7285 74.5585 84.8581 74.3976C84.9725 74.2556 85.1214 74.1452 85.2906 74.0771C85.4822 74 85.7092 74 86.163 74H92.6991C93.5068 74 93.9107 74 94.1741 74.1693C94.4047 74.3174 94.5694 74.5486 94.6341 74.8149C94.708 75.1192 94.576 75.5009 94.3121 76.2643L84.4299 104.851ZM107.143 104.293C107.143 104.891 107.143 105.189 107.027 105.418C106.925 105.618 106.761 105.781 106.561 105.884C106.333 106 106.034 106 105.437 106H99.8077C99.2103 106 98.9116 106 98.6834 105.884C98.4827 105.781 98.3196 105.618 98.2173 105.418C98.101 105.189 98.101 104.891 98.101 104.293V75.7067C98.101 75.1093 98.101 74.8106 98.2173 74.5824C98.3196 74.3817 98.4827 74.2185 98.6834 74.1163C98.9116 74 99.2103 74 99.8077 74H105.437C106.034 74 106.333 74 106.561 74.1163C106.761 74.2185 106.925 74.3817 107.027 74.5824C107.143 74.8106 107.143 75.1093 107.143 75.7067V104.293ZM110.149 104.293C110.149 104.891 110.149 105.189 110.265 105.418C110.368 105.618 110.531 105.781 110.732 105.884C110.96 106 111.258 106 111.856 106H117.485C118.082 106 118.381 106 118.609 105.884C118.81 105.781 118.973 105.618 119.075 105.418C119.191 105.189 119.191 104.891 119.191 104.293V75.7067C119.191 75.1093 119.191 74.8106 119.075 74.5824C118.973 74.3817 118.81 74.2185 118.609 74.1163C118.381 74 118.082 74 117.485 74H111.856C111.258 74 110.96 74 110.732 74.1163C110.531 74.2185 110.368 74.3817 110.265 74.5824C110.149 74.8106 110.149 75.1093 110.149 75.7067V104.293Z"/>
</mask>
<path fill-rule="evenodd" clip-rule="evenodd" d="M84.4299 104.851C84.287 105.264 84.2155 105.471 84.0858 105.624C83.9712 105.759 83.8248 105.863 83.6599 105.927C83.4732 106 83.2544 106 82.8169 106H72.7932C72.3551 106 72.136 106 71.9491 105.927C71.7841 105.863 71.6377 105.758 71.5231 105.623C71.3933 105.47 71.322 105.263 71.1795 104.849L61.3402 76.2621C61.0777 75.4993 60.9464 75.1179 61.0205 74.814C61.0854 74.5479 61.2501 74.317 61.4806 74.169C61.7439 74 62.1473 74 62.954 74H69.5014C69.9526 74 70.1782 74 70.3691 74.0764C70.5376 74.1439 70.6861 74.2532 70.8006 74.3941C70.9302 74.5537 70.9972 74.7691 71.1311 75.2L77.4953 95.6725C77.5503 95.8495 77.7141 95.9701 77.8994 95.9701C78.0857 95.9701 78.2501 95.8483 78.3043 95.6701L84.5303 75.2098C84.6624 74.7756 84.7285 74.5585 84.8581 74.3976C84.9725 74.2556 85.1214 74.1452 85.2906 74.0771C85.4822 74 85.7092 74 86.163 74H92.6991C93.5068 74 93.9107 74 94.1741 74.1693C94.4047 74.3174 94.5694 74.5486 94.6341 74.8149C94.708 75.1192 94.576 75.5009 94.3121 76.2643L84.4299 104.851ZM107.143 104.293C107.143 104.891 107.143 105.189 107.027 105.418C106.925 105.618 106.761 105.781 106.561 105.884C106.333 106 106.034 106 105.437 106H99.8077C99.2103 106 98.9116 106 98.6834 105.884C98.4827 105.781 98.3196 105.618 98.2173 105.418C98.101 105.189 98.101 104.891 98.101 104.293V75.7067C98.101 75.1093 98.101 74.8106 98.2173 74.5824C98.3196 74.3817 98.4827 74.2185 98.6834 74.1163C98.9116 74 99.2103 74 99.8077 74H105.437C106.034 74 106.333 74 106.561 74.1163C106.761 74.2185 106.925 74.3817 107.027 74.5824C107.143 74.8106 107.143 75.1093 107.143 75.7067V104.293ZM110.149 104.293C110.149 104.891 110.149 105.189 110.265 105.418C110.368 105.618 110.531 105.781 110.732 105.884C110.96 106 111.258 106 111.856 106H117.485C118.082 106 118.381 106 118.609 105.884C118.81 105.781 118.973 105.618 119.075 105.418C119.191 105.189 119.191 104.891 119.191 104.293V75.7067C119.191 75.1093 119.191 74.8106 119.075 74.5824C118.973 74.3817 118.81 74.2185 118.609 74.1163C118.381 74 118.082 74 117.485 74H111.856C111.258 74 110.96 74 110.732 74.1163C110.531 74.2185 110.368 74.3817 110.265 74.5824C110.149 74.8106 110.149 75.1093 110.149 75.7067V104.293Z" fill="#E3FFFC"/>
<path d="M110.732 74.1163L109.37 71.4432L110.732 74.1163ZM110.265 74.5824L112.938 75.9444L110.265 74.5824ZM119.075 74.5824L121.748 73.2204L119.075 74.5824ZM118.609 74.1163L119.971 71.4432L118.609 74.1163ZM110.732 105.884L109.37 108.557L110.732 105.884ZM110.265 105.418L112.938 104.056L110.265 105.418ZM118.609 105.884L117.247 103.211L118.609 105.884ZM119.075 105.418L121.748 106.78L119.075 105.418ZM106.561 74.1163L107.923 71.4432L106.561 74.1163ZM107.027 74.5824L109.7 73.2204L107.027 74.5824ZM98.2173 74.5824L95.5443 73.2204L98.2173 74.5824ZM98.6834 74.1163L97.3215 71.4432L98.6834 74.1163ZM106.561 105.884L107.923 108.557L106.561 105.884ZM107.027 105.418L109.7 106.78L107.027 105.418ZM98.6834 105.884L97.3215 108.557L98.6834 105.884ZM98.2173 105.418L95.5443 106.78L98.2173 105.418ZM94.1741 74.1693L92.5525 76.6932L94.1741 74.1693ZM94.3121 76.2643L91.4768 75.2841L94.3121 76.2643ZM94.6341 74.8149L91.7188 75.5229L94.6341 74.8149ZM84.5303 75.2098L81.6602 74.3365L84.5303 75.2098ZM84.8581 74.3976L82.5216 72.5159L84.8581 74.3976ZM85.2906 74.0771L84.1705 71.2941L85.2906 74.0771ZM78.3043 95.6701L81.1744 96.5435L78.3043 95.6701ZM77.4953 95.6725L80.36 94.782L77.4953 95.6725ZM70.3691 74.0764L71.4841 71.2913L70.3691 74.0764ZM61.0205 74.814L58.1059 74.1032L61.0205 74.814ZM83.6599 105.927L84.7487 108.723L83.6599 105.927ZM84.4299 104.851L87.2653 105.831L84.4299 104.851ZM84.0858 105.624L81.7994 103.682L84.0858 105.624ZM71.9491 105.927L73.039 103.132L71.9491 105.927ZM71.1795 104.849L74.0161 103.872L71.1795 104.849ZM71.5231 105.623L69.2349 107.563L71.5231 105.623ZM72.7932 109H82.8169V103H72.7932V109ZM58.5035 77.2385L68.3428 105.825L74.0161 103.872L64.1769 75.2857L58.5035 77.2385ZM69.5014 71H62.954V77H69.5014V71ZM80.36 94.782L73.9959 74.3095L68.2663 76.0906L74.6305 96.5631L80.36 94.782ZM81.6602 74.3365L75.4343 94.7968L81.1744 96.5435L87.4004 76.0832L81.6602 74.3365ZM92.6991 71H86.163V77H92.6991V71ZM87.2653 105.831L97.1475 77.2444L91.4768 75.2841L81.5946 103.871L87.2653 105.831ZM99.8077 109H105.437V103H99.8077V109ZM95.101 75.7067V104.293H101.101V75.7067H95.101ZM105.437 71H99.8077V77H105.437V71ZM110.143 104.293V75.7067H104.143V104.293H110.143ZM117.485 103H111.856V109H117.485V103ZM116.191 75.7067V104.293H122.191V75.7067H116.191ZM111.856 77H117.485V71H111.856V77ZM113.149 104.293V75.7067H107.149V104.293H113.149ZM111.856 71C111.607 71 111.239 70.9977 110.911 71.0245C110.548 71.0542 109.977 71.1337 109.37 71.4432L112.094 76.7893C111.714 76.9826 111.407 77.0039 111.4 77.0046C111.394 77.005 111.42 77.0028 111.507 77.0014C111.595 77.0001 111.7 77 111.856 77V71ZM113.149 75.7067C113.149 75.5505 113.149 75.4454 113.151 75.3582C113.152 75.2709 113.154 75.2447 113.154 75.2504C113.153 75.258 113.132 75.5651 112.938 75.9444L107.592 73.2204C107.283 73.8279 107.203 74.3984 107.174 74.7618C107.147 75.0902 107.149 75.4575 107.149 75.7067H113.149ZM109.37 71.4432C108.604 71.8331 107.982 72.4552 107.592 73.2204L112.938 75.9444C112.753 76.3082 112.457 76.6039 112.094 76.7893L109.37 71.4432ZM122.191 75.7067C122.191 75.4575 122.194 75.0902 122.167 74.7618C122.137 74.3984 122.058 73.8279 121.748 73.2204L116.402 75.9444C116.209 75.5651 116.187 75.258 116.187 75.2504C116.186 75.2447 116.188 75.2709 116.19 75.3582C116.191 75.4454 116.191 75.5505 116.191 75.7067H122.191ZM117.485 77C117.641 77 117.746 77.0001 117.833 77.0014C117.92 77.0028 117.947 77.005 117.941 77.0046C117.933 77.0039 117.626 76.9826 117.247 76.7893L119.971 71.4432C119.363 71.1337 118.793 71.0542 118.429 71.0245C118.101 70.9977 117.734 71 117.485 71V77ZM121.748 73.2204C121.358 72.4552 120.736 71.8331 119.971 71.4432L117.247 76.7893C116.883 76.6039 116.587 76.3082 116.402 75.9444L121.748 73.2204ZM111.856 103C111.7 103 111.595 103 111.507 102.999C111.42 102.997 111.394 102.995 111.4 102.995C111.407 102.996 111.714 103.017 112.094 103.211L109.37 108.557C109.977 108.866 110.548 108.946 110.911 108.976C111.239 109.002 111.607 109 111.856 109V103ZM107.149 104.293C107.149 104.543 107.147 104.91 107.174 105.238C107.203 105.602 107.283 106.172 107.592 106.78L112.938 104.056C113.132 104.435 113.153 104.742 113.154 104.75C113.154 104.755 113.152 104.729 113.151 104.642C113.149 104.555 113.149 104.45 113.149 104.293H107.149ZM112.094 103.211C112.457 103.396 112.753 103.692 112.938 104.056L107.592 106.78C107.982 107.545 108.604 108.167 109.37 108.557L112.094 103.211ZM117.485 109C117.734 109 118.101 109.002 118.429 108.976C118.793 108.946 119.363 108.866 119.971 108.557L117.247 103.211C117.626 103.017 117.933 102.996 117.941 102.995C117.947 102.995 117.92 102.997 117.833 102.999C117.746 103 117.641 103 117.485 103V109ZM116.191 104.293C116.191 104.45 116.191 104.555 116.19 104.642C116.188 104.729 116.186 104.755 116.187 104.75C116.187 104.742 116.209 104.435 116.402 104.056L121.748 106.78C122.058 106.172 122.137 105.602 122.167 105.238C122.194 104.91 122.191 104.543 122.191 104.293H116.191ZM119.971 108.557C120.736 108.167 121.358 107.545 121.748 106.78L116.402 104.056C116.587 103.692 116.883 103.396 117.247 103.211L119.971 108.557ZM105.437 77C105.593 77 105.698 77.0001 105.785 77.0014C105.872 77.0028 105.898 77.005 105.893 77.0046C105.885 77.0039 105.578 76.9826 105.199 76.7893L107.923 71.4432C107.315 71.1337 106.745 71.0542 106.381 71.0245C106.053 70.9977 105.686 71 105.437 71V77ZM110.143 75.7067C110.143 75.4575 110.146 75.0902 110.119 74.7618C110.089 74.3984 110.009 73.8279 109.7 73.2204L104.354 75.9444C104.161 75.5651 104.139 75.258 104.139 75.2504C104.138 75.2447 104.14 75.2709 104.142 75.3582C104.143 75.4454 104.143 75.5505 104.143 75.7067H110.143ZM105.199 76.7893C104.835 76.6039 104.539 76.3082 104.354 75.9444L109.7 73.2204C109.31 72.4552 108.688 71.8331 107.923 71.4432L105.199 76.7893ZM101.101 75.7067C101.101 75.5505 101.101 75.4454 101.102 75.3582C101.104 75.2709 101.106 75.2447 101.106 75.2504C101.105 75.258 101.084 75.5651 100.89 75.9444L95.5443 73.2204C95.2347 73.8279 95.1552 74.3984 95.1255 74.7618C95.0987 75.0902 95.101 75.4575 95.101 75.7067H101.101ZM99.8077 71C99.5585 71 99.1912 70.9977 98.8628 71.0245C98.4994 71.0542 97.929 71.1337 97.3215 71.4432L100.045 76.7893C99.6661 76.9826 99.3591 77.0039 99.3514 77.0046C99.3458 77.005 99.372 77.0028 99.4592 77.0014C99.5464 77.0001 99.6515 77 99.8077 77V71ZM100.89 75.9444C100.705 76.3082 100.409 76.6039 100.045 76.7893L97.3215 71.4432C96.5563 71.8331 95.9342 72.4552 95.5443 73.2204L100.89 75.9444ZM105.437 109C105.686 109 106.053 109.002 106.381 108.976C106.745 108.946 107.315 108.866 107.923 108.557L105.199 103.211C105.578 103.017 105.885 102.996 105.893 102.995C105.898 102.995 105.872 102.997 105.785 102.999C105.698 103 105.593 103 105.437 103V109ZM104.143 104.293C104.143 104.45 104.143 104.555 104.142 104.642C104.14 104.729 104.138 104.755 104.139 104.75C104.139 104.742 104.161 104.435 104.354 104.056L109.7 106.78C110.009 106.172 110.089 105.602 110.119 105.238C110.146 104.91 110.143 104.543 110.143 104.293H104.143ZM107.923 108.557C108.688 108.167 109.31 107.545 109.7 106.78L104.354 104.056C104.539 103.692 104.835 103.396 105.199 103.211L107.923 108.557ZM99.8077 103C99.6515 103 99.5464 103 99.4592 102.999C99.372 102.997 99.3458 102.995 99.3514 102.995C99.3591 102.996 99.6661 103.017 100.045 103.211L97.3215 108.557C97.929 108.866 98.4994 108.946 98.8628 108.976C99.1912 109.002 99.5585 109 99.8077 109V103ZM95.101 104.293C95.101 104.543 95.0987 104.91 95.1255 105.238C95.1552 105.602 95.2347 106.172 95.5443 106.78L100.89 104.056C101.084 104.435 101.105 104.742 101.106 104.75C101.106 104.755 101.104 104.729 101.102 104.642C101.101 104.555 101.101 104.45 101.101 104.293H95.101ZM100.045 103.211C100.409 103.396 100.705 103.692 100.89 104.056L95.5443 106.78C95.9342 107.545 96.5563 108.167 97.3215 108.557L100.045 103.211ZM92.6991 77C92.9086 77 93.0575 77.0001 93.1823 77.0022C93.3081 77.0044 93.3597 77.008 93.3715 77.0091C93.3845 77.0102 93.2979 77.0041 93.1589 76.9663C93.007 76.925 92.7889 76.8451 92.5525 76.6932L95.7958 71.6453C95.0621 71.1739 94.3249 71.0706 93.9099 71.0333C93.5088 70.9971 93.0463 71 92.6991 71V77ZM97.1475 77.2444C97.2609 76.9163 97.4148 76.4802 97.5117 76.0892C97.6119 75.6848 97.7551 74.9543 97.5493 74.1069L91.7188 75.5229C91.6525 75.2499 91.6483 75.0176 91.6589 74.8606C91.6685 74.7169 91.691 74.633 91.6879 74.6456C91.6851 74.6572 91.6716 74.7071 91.6326 74.8267C91.5938 74.9454 91.5452 75.0862 91.4768 75.2841L97.1475 77.2444ZM92.5525 76.6932C92.1346 76.4247 91.8361 76.0056 91.7188 75.5229L97.5493 74.1069C97.3027 73.0916 96.6748 72.2101 95.7958 71.6453L92.5525 76.6932ZM87.4004 76.0832C87.4351 75.969 87.4576 75.8953 87.4769 75.8349C87.496 75.7749 87.5013 75.7622 87.497 75.7733C87.4866 75.8006 87.4007 76.0234 87.1945 76.2793L82.5216 72.5159C81.939 73.2392 81.7156 74.1544 81.6602 74.3365L87.4004 76.0832ZM86.163 71C85.9727 71 85.0321 70.9473 84.1705 71.2941L86.4106 76.8602C86.1058 76.9829 85.8676 77.0002 85.8384 77.0023C85.8266 77.0031 85.8402 77.0018 85.9032 77.0009C85.9666 77.0001 86.0436 77 86.163 77V71ZM87.1945 76.2793C86.9872 76.5368 86.7173 76.7368 86.4106 76.8602L84.1705 71.2941C83.5255 71.5537 82.9577 71.9743 82.5216 72.5159L87.1945 76.2793ZM77.8994 98.9701C79.4061 98.9701 80.7357 97.985 81.1744 96.5435L75.4343 94.7968C75.7644 93.7117 76.7653 92.9701 77.8994 92.9701V98.9701ZM74.6305 96.5631C75.0755 97.9947 76.4003 98.9701 77.8994 98.9701V92.9701C79.0279 92.9701 80.025 93.7044 80.36 94.782L74.6305 96.5631ZM69.5014 77C69.6201 77 69.6966 77.0001 69.7596 77.0009C69.8222 77.0018 69.8356 77.0031 69.8237 77.0023C69.7943 77.0002 69.5574 76.983 69.254 76.8615L71.4841 71.2913C70.6262 70.9478 69.6908 71 69.5014 71V77ZM73.9959 74.3095C73.9397 74.1286 73.7118 73.2199 73.1291 72.5026L68.472 76.2857C68.266 76.032 68.1792 75.8109 68.1685 75.7835C68.1642 75.7723 68.1694 75.7848 68.1888 75.8443C68.2083 75.9042 68.2311 75.9772 68.2663 76.0906L73.9959 74.3095ZM69.254 76.8615C68.9486 76.7392 68.6795 76.541 68.472 76.2857L73.1291 72.5026C72.6928 71.9654 72.1266 71.5485 71.4841 71.2913L69.254 76.8615ZM64.1769 75.2857C64.1088 75.088 64.0605 74.9473 64.0219 74.8288C63.9831 74.7093 63.9698 74.6595 63.9669 74.648C63.9639 74.6355 63.9862 74.7195 63.9957 74.8631C64.0061 75.02 64.0016 75.252 63.9351 75.5247L58.1059 74.1032C57.8995 74.9496 58.0416 75.6795 58.1413 76.0839C58.2376 76.4747 58.3907 76.9106 58.5035 77.2385L64.1769 75.2857ZM62.954 71C62.6072 71 62.1452 70.9971 61.7444 71.0332C61.3295 71.0706 60.5931 71.1738 59.86 71.6444L63.1012 76.6936C62.865 76.8453 62.6471 76.925 62.4954 76.9663C62.3564 77.004 62.2698 77.0102 62.2826 77.009C62.2944 77.008 62.3458 77.0043 62.4714 77.0022C62.5961 77.0001 62.7448 77 62.954 77V71ZM63.9351 75.5247C63.8175 76.007 63.5189 76.4255 63.1012 76.6936L59.86 71.6444C58.9813 72.2085 58.3533 73.0888 58.1059 74.1032L63.9351 75.5247ZM82.8169 109C83.0016 109 83.9097 109.049 84.7487 108.723L82.5712 103.132C82.8669 103.017 83.097 103 83.1275 102.998C83.1397 102.997 83.1272 102.998 83.0668 102.999C83.006 103 82.9321 103 82.8169 103V109ZM81.5946 103.871C81.5569 103.98 81.5327 104.049 81.5121 104.107C81.4916 104.163 81.4863 104.175 81.4911 104.164C81.5031 104.135 81.594 103.923 81.7994 103.682L86.3721 107.566C86.955 106.88 87.2049 106.006 87.2653 105.831L81.5946 103.871ZM84.7487 108.723C85.3774 108.478 85.9353 108.08 86.3721 107.566L81.7994 103.682C82.0071 103.437 82.2723 103.248 82.5712 103.132L84.7487 108.723ZM72.7932 103C72.6779 103 72.6038 103 72.5429 102.999C72.4825 102.998 72.4699 102.997 72.4821 102.998C72.5126 103 72.743 103.017 73.039 103.132L70.8593 108.722C71.699 109.05 72.6083 109 72.7932 109V103ZM68.3428 105.825C68.403 106 68.652 106.876 69.2349 107.563L73.8112 103.683C74.0167 103.925 74.1075 104.138 74.1193 104.166C74.1241 104.177 74.1189 104.166 74.0984 104.109C74.0778 104.051 74.0537 103.981 74.0161 103.872L68.3428 105.825ZM73.039 103.132C73.3382 103.249 73.6036 103.438 73.8112 103.683L69.2349 107.563C69.6717 108.079 70.23 108.477 70.8593 108.722L73.039 103.132Z" fill="black" fill-opacity="0.12" style="mix-blend-mode:plus-darker" mask="url(#path-21-outside-3_43_16990)"/>
<mask id="path-23-inside-4_43_16990" fill="white">
<path fill-rule="evenodd" clip-rule="evenodd" d="M84.4299 104.851C84.287 105.264 84.2155 105.471 84.0858 105.624C83.9712 105.759 83.8248 105.863 83.6599 105.927C83.4732 106 83.2544 106 82.8169 106H72.7932C72.3551 106 72.136 106 71.9491 105.927C71.7841 105.863 71.6377 105.758 71.5231 105.623C71.3933 105.47 71.322 105.263 71.1795 104.849L61.3402 76.2621C61.0777 75.4993 60.9464 75.1179 61.0205 74.814C61.0854 74.5479 61.2501 74.317 61.4806 74.169C61.7439 74 62.1473 74 62.954 74H69.5014C69.9526 74 70.1782 74 70.3691 74.0764C70.5376 74.1439 70.6861 74.2532 70.8006 74.3941C70.9302 74.5537 70.9972 74.7691 71.1311 75.2L77.4953 95.6725C77.5503 95.8495 77.7141 95.9701 77.8994 95.9701C78.0857 95.9701 78.2501 95.8483 78.3043 95.6701L84.5303 75.2098C84.6624 74.7756 84.7285 74.5585 84.8581 74.3976C84.9725 74.2556 85.1214 74.1452 85.2906 74.0771C85.4822 74 85.7092 74 86.163 74H92.6991C93.5068 74 93.9107 74 94.1741 74.1693C94.4047 74.3174 94.5694 74.5486 94.6341 74.8149C94.708 75.1192 94.576 75.5009 94.3121 76.2643L84.4299 104.851ZM107.143 104.293C107.143 104.891 107.143 105.189 107.027 105.418C106.925 105.618 106.761 105.781 106.561 105.884C106.333 106 106.034 106 105.437 106H99.8077C99.2103 106 98.9116 106 98.6834 105.884C98.4827 105.781 98.3196 105.618 98.2173 105.418C98.101 105.189 98.101 104.891 98.101 104.293V75.7067C98.101 75.1093 98.101 74.8106 98.2173 74.5824C98.3196 74.3817 98.4827 74.2185 98.6834 74.1163C98.9116 74 99.2103 74 99.8077 74H105.437C106.034 74 106.333 74 106.561 74.1163C106.761 74.2185 106.925 74.3817 107.027 74.5824C107.143 74.8106 107.143 75.1093 107.143 75.7067V104.293ZM110.149 104.293C110.149 104.891 110.149 105.189 110.265 105.418C110.368 105.618 110.531 105.781 110.732 105.884C110.96 106 111.258 106 111.856 106H117.485C118.082 106 118.381 106 118.609 105.884C118.81 105.781 118.973 105.618 119.075 105.418C119.191 105.189 119.191 104.891 119.191 104.293V75.7067C119.191 75.1093 119.191 74.8106 119.075 74.5824C118.973 74.3817 118.81 74.2185 118.609 74.1163C118.381 74 118.082 74 117.485 74H111.856C111.258 74 110.96 74 110.732 74.1163C110.531 74.2185 110.368 74.3817 110.265 74.5824C110.149 74.8106 110.149 75.1093 110.149 75.7067V104.293Z"/>
</mask>
<path d="M110.732 74.1163L110.278 73.2253L110.732 74.1163ZM110.265 74.5824L111.156 75.0364L110.265 74.5824ZM119.075 74.5824L119.966 74.1284L119.075 74.5824ZM118.609 74.1163L119.063 73.2253L118.609 74.1163ZM110.732 105.884L110.278 106.775L110.732 105.884ZM110.265 105.418L111.156 104.964L110.265 105.418ZM118.609 105.884L118.155 104.993L118.609 105.884ZM119.075 105.418L119.966 105.872L119.075 105.418ZM106.561 74.1163L107.015 73.2253L106.561 74.1163ZM107.027 74.5824L107.918 74.1284L107.027 74.5824ZM98.2173 74.5824L97.3263 74.1284L98.2173 74.5824ZM98.6834 74.1163L98.2295 73.2253L98.6834 74.1163ZM106.561 105.884L107.015 106.775L106.561 105.884ZM107.027 105.418L107.918 105.872L107.027 105.418ZM98.6834 105.884L98.2295 106.775L98.6834 105.884ZM98.2173 105.418L97.3263 105.872L98.2173 105.418ZM94.1741 74.1693L93.6336 75.0106L94.1741 74.1693ZM94.3121 76.2643L93.367 75.9376L94.3121 76.2643ZM94.6341 74.8149L93.6623 75.0509L94.6341 74.8149ZM84.5303 75.2098L83.5736 74.9187L84.5303 75.2098ZM84.8581 74.3976L84.0792 73.7704L84.8581 74.3976ZM85.2906 74.0771L84.9172 73.1494L85.2906 74.0771ZM78.3043 95.6701L79.261 95.9612L78.3043 95.6701ZM77.4953 95.6725L78.4502 95.3757L77.4953 95.6725ZM70.3691 74.0764L70.7408 73.1481L70.3691 74.0764ZM61.0205 74.814L60.049 74.577L61.0205 74.814ZM83.6599 105.927L84.0228 106.859L83.6599 105.927ZM84.4299 104.851L85.375 105.178L84.4299 104.851ZM84.0858 105.624L83.3236 104.976L84.0858 105.624ZM71.9491 105.927L72.3124 104.995L71.9491 105.927ZM71.1795 104.849L72.125 104.523L71.1795 104.849ZM71.5231 105.623L70.7604 106.27L71.5231 105.623ZM72.7932 107H82.8169V105H72.7932V107ZM60.3946 76.5876L70.2339 105.174L72.125 104.523L62.2858 75.9367L60.3946 76.5876ZM69.5014 73H62.954V75H69.5014V73ZM78.4502 95.3757L72.086 74.9032L70.1762 75.4969L76.5403 95.9694L78.4502 95.3757ZM83.5736 74.9187L77.3476 95.379L79.261 95.9612L85.487 75.5009L83.5736 74.9187ZM92.6991 73H86.163V75H92.6991V73ZM85.375 105.178L95.2573 76.591L93.367 75.9376L83.4848 104.524L85.375 105.178ZM99.8077 107H105.437V105H99.8077V107ZM97.101 75.7067V104.293H99.101V75.7067H97.101ZM105.437 73H99.8077V75H105.437V73ZM108.143 104.293V75.7067H106.143V104.293H108.143ZM117.485 105H111.856V107H117.485V105ZM118.191 75.7067V104.293H120.191V75.7067H118.191ZM111.856 75H117.485V73H111.856V75ZM111.149 104.293V75.7067H109.149V104.293H111.149ZM111.856 73C111.574 73 111.302 72.9992 111.074 73.0179C110.834 73.0374 110.556 73.0833 110.278 73.2253L111.186 75.0073C111.135 75.0329 111.121 75.0207 111.237 75.0112C111.364 75.0008 111.541 75 111.856 75V73ZM111.149 75.7067C111.149 75.3915 111.15 75.2152 111.16 75.0875C111.17 74.9715 111.182 74.986 111.156 75.0364L109.374 74.1284C109.232 74.407 109.187 74.6849 109.167 74.9247C109.148 75.1527 109.149 75.4245 109.149 75.7067H111.149ZM110.278 73.2253C109.889 73.4234 109.573 73.7396 109.374 74.1284L111.156 75.0364C111.163 75.0239 111.173 75.0137 111.186 75.0073L110.278 73.2253ZM120.191 75.7067C120.191 75.4245 120.192 75.1527 120.173 74.9247C120.154 74.6849 120.108 74.407 119.966 74.1284L118.184 75.0364C118.158 74.986 118.171 74.9715 118.18 75.0875C118.19 75.2152 118.191 75.3915 118.191 75.7067H120.191ZM117.485 75C117.8 75 117.976 75.0008 118.104 75.0112C118.22 75.0207 118.205 75.0329 118.155 75.0073L119.063 73.2253C118.784 73.0833 118.506 73.0374 118.267 73.0179C118.039 72.9992 117.767 73 117.485 73V75ZM119.966 74.1284C119.768 73.7396 119.452 73.4234 119.063 73.2253L118.155 75.0073C118.167 75.0137 118.178 75.0239 118.184 75.0364L119.966 74.1284ZM111.856 105C111.541 105 111.364 104.999 111.237 104.989C111.121 104.979 111.135 104.967 111.186 104.993L110.278 106.775C110.556 106.917 110.834 106.963 111.074 106.982C111.302 107.001 111.574 107 111.856 107V105ZM109.149 104.293C109.149 104.576 109.148 104.847 109.167 105.075C109.187 105.315 109.232 105.593 109.374 105.872L111.156 104.964C111.182 105.014 111.17 105.029 111.16 104.912C111.15 104.785 111.149 104.609 111.149 104.293H109.149ZM111.186 104.993C111.173 104.986 111.163 104.976 111.156 104.964L109.374 105.872C109.573 106.26 109.889 106.577 110.278 106.775L111.186 104.993ZM117.485 107C117.767 107 118.039 107.001 118.267 106.982C118.506 106.963 118.784 106.917 119.063 106.775L118.155 104.993C118.205 104.967 118.22 104.979 118.104 104.989C117.976 104.999 117.8 105 117.485 105V107ZM118.191 104.293C118.191 104.609 118.19 104.785 118.18 104.912C118.171 105.029 118.158 105.014 118.184 104.964L119.966 105.872C120.108 105.593 120.154 105.315 120.173 105.075C120.192 104.847 120.191 104.576 120.191 104.293H118.191ZM119.063 106.775C119.452 106.577 119.768 106.26 119.966 105.872L118.184 104.964C118.178 104.976 118.167 104.986 118.155 104.993L119.063 106.775ZM105.437 75C105.752 75 105.928 75.0008 106.056 75.0112C106.172 75.0207 106.157 75.0329 106.107 75.0073L107.015 73.2253C106.736 73.0833 106.458 73.0374 106.219 73.0179C105.99 72.9992 105.719 73 105.437 73V75ZM108.143 75.7067C108.143 75.4245 108.144 75.1527 108.125 74.9247C108.106 74.6849 108.06 74.407 107.918 74.1284L106.136 75.0364C106.11 74.986 106.122 74.9715 106.132 75.0875C106.142 75.2152 106.143 75.3915 106.143 75.7067H108.143ZM106.107 75.0073C106.119 75.0137 106.13 75.0239 106.136 75.0364L107.918 74.1284C107.72 73.7396 107.404 73.4234 107.015 73.2253L106.107 75.0073ZM99.101 75.7067C99.101 75.3915 99.1018 75.2152 99.1122 75.0875C99.1217 74.9715 99.134 74.986 99.1083 75.0364L97.3263 74.1284C97.1844 74.407 97.1385 74.6849 97.1189 74.9247C97.1003 75.1527 97.101 75.4245 97.101 75.7067H99.101ZM99.8077 73C99.5255 73 99.2537 72.9992 99.0257 73.0179C98.786 73.0374 98.508 73.0833 98.2295 73.2253L99.1374 75.0073C99.0871 75.0329 99.0725 75.0207 99.1885 75.0112C99.3162 75.0008 99.4925 75 99.8077 75V73ZM99.1083 75.0364C99.1147 75.0239 99.1249 75.0137 99.1374 75.0073L98.2295 73.2253C97.8406 73.4234 97.5244 73.7396 97.3263 74.1284L99.1083 75.0364ZM105.437 107C105.719 107 105.99 107.001 106.219 106.982C106.458 106.963 106.736 106.917 107.015 106.775L106.107 104.993C106.157 104.967 106.172 104.979 106.056 104.989C105.928 104.999 105.752 105 105.437 105V107ZM106.143 104.293C106.143 104.609 106.142 104.785 106.132 104.912C106.122 105.029 106.11 105.014 106.136 104.964L107.918 105.872C108.06 105.593 108.106 105.315 108.125 105.075C108.144 104.847 108.143 104.576 108.143 104.293H106.143ZM107.015 106.775C107.404 106.577 107.72 106.26 107.918 105.872L106.136 104.964C106.13 104.976 106.119 104.986 106.107 104.993L107.015 106.775ZM99.8077 105C99.4925 105 99.3162 104.999 99.1885 104.989C99.0725 104.979 99.0871 104.967 99.1374 104.993L98.2295 106.775C98.508 106.917 98.786 106.963 99.0257 106.982C99.2537 107.001 99.5255 107 99.8077 107V105ZM97.101 104.293C97.101 104.576 97.1003 104.847 97.1189 105.075C97.1385 105.315 97.1844 105.593 97.3263 105.872L99.1083 104.964C99.134 105.014 99.1217 105.029 99.1122 104.912C99.1018 104.785 99.101 104.609 99.101 104.293H97.101ZM99.1374 104.993C99.1249 104.986 99.1147 104.976 99.1083 104.964L97.3263 105.872C97.5244 106.26 97.8406 106.577 98.2295 106.775L99.1374 104.993ZM92.6991 75C93.1219 75 93.3716 75.001 93.551 75.0171C93.7258 75.0329 93.7025 75.0549 93.6336 75.0106L94.7147 73.328C94.3823 73.1144 94.0254 73.0518 93.7305 73.0252C93.4402 72.999 93.0841 73 92.6991 73V75ZM95.2573 76.591C95.383 76.2272 95.5003 75.8909 95.5704 75.608C95.6417 75.3206 95.6991 74.9628 95.6058 74.5789L93.6623 75.0509C93.643 74.9713 93.6714 74.9565 93.6292 75.1268C93.5858 75.3017 93.5051 75.538 93.367 75.9376L95.2573 76.591ZM93.6336 75.0106C93.648 75.0198 93.6583 75.0343 93.6623 75.0509L95.6058 74.5789C95.4805 74.0629 95.1614 73.615 94.7147 73.328L93.6336 75.0106ZM85.487 75.5009C85.5571 75.2706 85.5953 75.1469 85.6291 75.0586C85.6584 74.9819 85.6624 74.9932 85.6369 75.0249L84.0792 73.7704C83.7987 74.1187 83.6802 74.5685 83.5736 74.9187L85.487 75.5009ZM86.163 73C85.797 73 85.3322 72.9824 84.9172 73.1494L85.6639 75.0048C85.6262 75.02 85.6166 75.0129 85.6985 75.0072C85.7928 75.0006 85.9223 75 86.163 75V73ZM85.6369 75.0249C85.644 75.016 85.6533 75.0091 85.6639 75.0048L84.9172 73.1494C84.5894 73.2814 84.3009 73.4951 84.0792 73.7704L85.6369 75.0249ZM77.8994 96.9701C78.5259 96.9701 79.0786 96.5605 79.261 95.9612L77.3476 95.379C77.4215 95.1361 77.6456 94.9701 77.8994 94.9701V96.9701ZM76.5403 95.9694C76.7254 96.5646 77.2761 96.9701 77.8994 96.9701V94.9701C78.152 94.9701 78.3752 95.1345 78.4502 95.3757L76.5403 95.9694ZM69.5014 75C69.7407 75 69.8694 75.0006 69.9632 75.0071C70.0445 75.0128 70.0349 75.0198 69.9974 75.0048L70.7408 73.1481C70.3275 72.9826 69.8653 73 69.5014 73V75ZM72.086 74.9032C71.978 74.5556 71.8574 74.1091 71.5767 73.7636L70.0244 75.0246C69.9989 74.9933 70.0028 74.9821 70.0323 75.058C70.0664 75.1457 70.1051 75.2683 70.1762 75.4969L72.086 74.9032ZM69.9974 75.0048C70.0079 75.009 70.0172 75.0158 70.0244 75.0246L71.5767 73.7636C71.355 73.4906 71.0673 73.2788 70.7408 73.1481L69.9974 75.0048ZM62.2858 75.9367C62.1483 75.5374 62.0681 75.3013 62.0251 75.1267C61.9831 74.9566 62.0114 74.9714 61.9921 75.0509L60.049 74.577C59.9555 74.9605 60.0124 75.318 60.0832 75.6053C60.1529 75.888 60.2695 76.224 60.3946 76.5876L62.2858 75.9367ZM62.954 73C62.5695 73 62.2138 72.999 61.9238 73.0252C61.6291 73.0517 61.2725 73.1143 60.9404 73.3275L62.0208 75.0106C61.952 75.0548 61.9287 75.0328 62.1032 75.0171C62.2824 75.001 62.5317 75 62.954 75V73ZM61.9921 75.0509C61.9961 75.0342 62.0064 75.0198 62.0208 75.0106L60.9404 73.3275C60.4939 73.6141 60.1747 74.0615 60.049 74.577L61.9921 75.0509ZM82.8169 107C83.1702 107 83.6187 107.016 84.0228 106.859L83.297 104.995C83.3333 104.981 83.3425 104.988 83.2642 104.993C83.1734 104.999 83.0491 105 82.8169 105V107ZM83.4848 104.524C83.4089 104.744 83.3678 104.861 83.3323 104.945C83.3016 105.017 83.2984 105.006 83.3236 104.976L84.8479 106.271C85.1287 105.941 85.2596 105.512 85.375 105.178L83.4848 104.524ZM84.0228 106.859C84.3424 106.735 84.6259 106.533 84.8479 106.271L83.3236 104.976C83.3165 104.985 83.3073 104.991 83.297 104.995L84.0228 106.859ZM72.7932 105C72.5607 105 72.4362 104.999 72.3454 104.993C72.2669 104.988 72.2761 104.981 72.3124 104.995L71.5859 106.859C71.9904 107.017 72.4395 107 72.7932 107V105ZM70.2339 105.174C70.349 105.509 70.4796 105.939 70.7604 106.27L72.2858 104.976C72.311 105.006 72.3078 105.017 72.2772 104.945C72.2417 104.861 72.2007 104.743 72.125 104.523L70.2339 105.174ZM72.3124 104.995C72.3021 104.991 72.293 104.985 72.2858 104.976L70.7604 106.27C70.9823 106.532 71.2661 106.734 71.5859 106.859L72.3124 104.995Z" fill="white" fill-opacity="0.25" mask="url(#path-23-inside-4_43_16990)"/>
</g>
<defs>
<filter id="filter0_ii_43_16990" x="135.057" y="95" width="32.137" height="29" filterUnits="userSpaceOnUse" color-interpolation-filters="sRGB">
<feFlood flood-opacity="0" result="BackgroundImageFix"/>
<feBlend mode="normal" in="SourceGraphic" in2="BackgroundImageFix" result="shape"/>
<feColorMatrix in="SourceAlpha" type="matrix" values="0 0 0 0 0 0 0 0 0 0 0 0 0 0 0 0 0 0 127 0" result="hardAlpha"/>
<feOffset dy="-8"/>
<feGaussianBlur stdDeviation="0.5"/>
<feComposite in2="hardAlpha" operator="arithmetic" k2="-1" k3="1"/>
<feColorMatrix type="matrix" values="0 0 0 0 0.310612 0 0 0 0 0.300895 0 0 0 0 0.300895 0 0 0 0.15 0"/>
<feBlend mode="color-burn" in2="shape" result="effect1_innerShadow_43_16990"/>
<feColorMatrix in="SourceAlpha" type="matrix" values="0 0 0 0 0 0 0 0 0 0 0 0 0 0 0 0 0 0 127 0" result="hardAlpha"/>
<feOffset dx="-1" dy="-1"/>
<feGaussianBlur stdDeviation="1"/>
<feComposite in2="hardAlpha" operator="arithmetic" k2="-1" k3="1"/>
<feColorMatrix type="matrix" values="0 0 0 0 0 0 0 0 0 0 0 0 0 0 0 0 0 0 0.5 0"/>
<feBlend mode="overlay" in2="effect1_innerShadow_43_16990" result="effect2_innerShadow_43_16990"/>
</filter>
<filter id="filter1_ii_43_16990" x="122" y="52" width="53" height="60.7754" filterUnits="userSpaceOnUse" color-interpolation-filters="sRGB">
<feFlood flood-opacity="0" result="BackgroundImageFix"/>
<feBlend mode="normal" in="SourceGraphic" in2="BackgroundImageFix" result="shape"/>
<feColorMatrix in="SourceAlpha" type="matrix" values="0 0 0 0 0 0 0 0 0 0 0 0 0 0 0 0 0 0 127 0" result="hardAlpha"/>
<feOffset dx="-1" dy="-16"/>
<feGaussianBlur stdDeviation="0.5"/>
<feComposite in2="hardAlpha" operator="arithmetic" k2="-1" k3="1"/>
<feColorMatrix type="matrix" values="0 0 0 0 0.310612 0 0 0 0 0.300895 0 0 0 0 0.300895 0 0 0 0.15 0"/>
<feBlend mode="color-burn" in2="shape" result="effect1_innerShadow_43_16990"/>
<feColorMatrix in="SourceAlpha" type="matrix" values="0 0 0 0 0 0 0 0 0 0 0 0 0 0 0 0 0 0 127 0" result="hardAlpha"/>
<feOffset dx="-1" dy="-4"/>
<feGaussianBlur stdDeviation="2"/>
<feComposite in2="hardAlpha" operator="arithmetic" k2="-1" k3="1"/>
<feColorMatrix type="matrix" values="0 0 0 0 0 0 0 0 0 0 0 0 0 0 0 0 0 0 0.5 0"/>
<feBlend mode="overlay" in2="effect1_innerShadow_43_16990" result="effect2_innerShadow_43_16990"/>
</filter>
<filter id="filter2_ii_43_16990" x="125.013" y="24" width="48.4082" height="72" filterUnits="userSpaceOnUse" color-interpolation-filters="sRGB">
<feFlood flood-opacity="0" result="BackgroundImageFix"/>
<feBlend mode="normal" in="SourceGraphic" in2="BackgroundImageFix" result="shape"/>
<feColorMatrix in="SourceAlpha" type="matrix" values="0 0 0 0 0 0 0 0 0 0 0 0 0 0 0 0 0 0 127 0" result="hardAlpha"/>
<feOffset dx="-1" dy="-16"/>
<feGaussianBlur stdDeviation="0.5"/>
<feComposite in2="hardAlpha" operator="arithmetic" k2="-1" k3="1"/>
<feColorMatrix type="matrix" values="0 0 0 0 0.310612 0 0 0 0 0.300895 0 0 0 0 0.300895 0 0 0 0.15 0"/>
<feBlend mode="color-burn" in2="shape" result="effect1_innerShadow_43_16990"/>
<feColorMatrix in="SourceAlpha" type="matrix" values="0 0 0 0 0 0 0 0 0 0 0 0 0 0 0 0 0 0 127 0" result="hardAlpha"/>
<feOffset dx="-1" dy="-4"/>
<feGaussianBlur stdDeviation="2"/>
<feComposite in2="hardAlpha" operator="arithmetic" k2="-1" k3="1"/>
<feColorMatrix type="matrix" values="0 0 0 0 0 0 0 0 0 0 0 0 0 0 0 0 0 0 0.5 0"/>
<feBlend mode="overlay" in2="effect1_innerShadow_43_16990" result="effect2_innerShadow_43_16990"/>
</filter>
<filter id="filter3_ii_43_16990" x="11.8057" y="95" width="32.137" height="29" filterUnits="userSpaceOnUse" color-interpolation-filters="sRGB">
<feFlood flood-opacity="0" result="BackgroundImageFix"/>
<feBlend mode="normal" in="SourceGraphic" in2="BackgroundImageFix" result="shape"/>
<feColorMatrix in="SourceAlpha" type="matrix" values="0 0 0 0 0 0 0 0 0 0 0 0 0 0 0 0 0 0 127 0" result="hardAlpha"/>
<feOffset dy="-8"/>
<feGaussianBlur stdDeviation="0.5"/>
<feComposite in2="hardAlpha" operator="arithmetic" k2="-1" k3="1"/>
<feColorMatrix type="matrix" values="0 0 0 0 0.310612 0 0 0 0 0.300895 0 0 0 0 0.300895 0 0 0 0.15 0"/>
<feBlend mode="color-burn" in2="shape" result="effect1_innerShadow_43_16990"/>
<feColorMatrix in="SourceAlpha" type="matrix" values="0 0 0 0 0 0 0 0 0 0 0 0 0 0 0 0 0 0 127 0" result="hardAlpha"/>
<feOffset dx="-1" dy="-1"/>
<feGaussianBlur stdDeviation="1"/>
<feComposite in2="hardAlpha" operator="arithmetic" k2="-1" k3="1"/>
<feColorMatrix type="matrix" values="0 0 0 0 0 0 0 0 0 0 0 0 0 0 0 0 0 0 0.5 0"/>
<feBlend mode="overlay" in2="effect1_innerShadow_43_16990" result="effect2_innerShadow_43_16990"/>
</filter>
<filter id="filter4_ii_43_16990" x="4" y="52" width="53" height="60.7754" filterUnits="userSpaceOnUse" color-interpolation-filters="sRGB">
<feFlood flood-opacity="0" result="BackgroundImageFix"/>
<feBlend mode="normal" in="SourceGraphic" in2="BackgroundImageFix" result="shape"/>
<feColorMatrix in="SourceAlpha" type="matrix" values="0 0 0 0 0 0 0 0 0 0 0 0 0 0 0 0 0 0 127 0" result="hardAlpha"/>
<feOffset dx="-1" dy="-16"/>
<feGaussianBlur stdDeviation="0.5"/>
<feComposite in2="hardAlpha" operator="arithmetic" k2="-1" k3="1"/>
<feColorMatrix type="matrix" values="0 0 0 0 0.310612 0 0 0 0 0.300895 0 0 0 0 0.300895 0 0 0 0.15 0"/>
<feBlend mode="color-burn" in2="shape" result="effect1_innerShadow_43_16990"/>
<feColorMatrix in="SourceAlpha" type="matrix" values="0 0 0 0 0 0 0 0 0 0 0 0 0 0 0 0 0 0 127 0" result="hardAlpha"/>
<feOffset dx="-1" dy="-4"/>
<feGaussianBlur stdDeviation="2"/>
<feComposite in2="hardAlpha" operator="arithmetic" k2="-1" k3="1"/>
<feColorMatrix type="matrix" values="0 0 0 0 0 0 0 0 0 0 0 0 0 0 0 0 0 0 0.5 0"/>
<feBlend mode="overlay" in2="effect1_innerShadow_43_16990" result="effect2_innerShadow_43_16990"/>
</filter>
<filter id="filter5_ii_43_16990" x="5.57861" y="24" width="48.4082" height="72" filterUnits="userSpaceOnUse" color-interpolation-filters="sRGB">
<feFlood flood-opacity="0" result="BackgroundImageFix"/>
<feBlend mode="normal" in="SourceGraphic" in2="BackgroundImageFix" result="shape"/>
<feColorMatrix in="SourceAlpha" type="matrix" values="0 0 0 0 0 0 0 0 0 0 0 0 0 0 0 0 0 0 127 0" result="hardAlpha"/>
<feOffset dx="-1" dy="-16"/>
<feGaussianBlur stdDeviation="0.5"/>
<feComposite in2="hardAlpha" operator="arithmetic" k2="-1" k3="1"/>
<feColorMatrix type="matrix" values="0 0 0 0 0.310612 0 0 0 0 0.300895 0 0 0 0 0.300895 0 0 0 0.15 0"/>
<feBlend mode="color-burn" in2="shape" result="effect1_innerShadow_43_16990"/>
<feColorMatrix in="SourceAlpha" type="matrix" values="0 0 0 0 0 0 0 0 0 0 0 0 0 0 0 0 0 0 127 0" result="hardAlpha"/>
<feOffset dx="-1" dy="-4"/>
<feGaussianBlur stdDeviation="2"/>
<feComposite in2="hardAlpha" operator="arithmetic" k2="-1" k3="1"/>
<feColorMatrix type="matrix" values="0 0 0 0 0 0 0 0 0 0 0 0 0 0 0 0 0 0 0.5 0"/>
<feBlend mode="overlay" in2="effect1_innerShadow_43_16990" result="effect2_innerShadow_43_16990"/>
</filter>
<filter id="filter6_d_43_16990" x="21" y="41.7598" width="138" height="100.484" filterUnits="userSpaceOnUse" color-interpolation-filters="sRGB">
<feFlood flood-opacity="0" result="BackgroundImageFix"/>
<feColorMatrix in="SourceAlpha" type="matrix" values="0 0 0 0 0 0 0 0 0 0 0 0 0 0 0 0 0 0 127 0" result="hardAlpha"/>
<feOffset dy="2"/>
<feGaussianBlur stdDeviation="2"/>
<feComposite in2="hardAlpha" operator="out"/>
<feColorMatrix type="matrix" values="0 0 0 0 0 0 0 0 0 0 0 0 0 0 0 0 0 0 0.25 0"/>
<feBlend mode="normal" in2="BackgroundImageFix" result="effect1_dropShadow_43_16990"/>
<feBlend mode="normal" in="SourceGraphic" in2="effect1_dropShadow_43_16990" result="shape"/>
</filter>
<filter id="filter7_d_43_16990" x="32" y="34" width="116" height="116" filterUnits="userSpaceOnUse" color-interpolation-filters="sRGB">
<feFlood flood-opacity="0" result="BackgroundImageFix"/>
<feColorMatrix in="SourceAlpha" type="matrix" values="0 0 0 0 0 0 0 0 0 0 0 0 0 0 0 0 0 0 127 0" result="hardAlpha"/>
<feOffset dy="2"/>
<feGaussianBlur stdDeviation="2"/>
<feComposite in2="hardAlpha" operator="out"/>
<feColorMatrix type="matrix" values="0 0 0 0 0 0 0 0 0 0 0 0 0 0 0 0 0 0 0.25 0"/>
<feBlend mode="normal" in2="BackgroundImageFix" result="effect1_dropShadow_43_16990"/>
<feBlend mode="normal" in="SourceGraphic" in2="effect1_dropShadow_43_16990" result="shape"/>
</filter>
<filter id="filter8_i_43_16990" x="48" y="48" width="88" height="90" filterUnits="userSpaceOnUse" color-interpolation-filters="sRGB">
<feFlood flood-opacity="0" result="BackgroundImageFix"/>
<feBlend mode="normal" in="SourceGraphic" in2="BackgroundImageFix" result="shape"/>
<feColorMatrix in="SourceAlpha" type="matrix" values="0 0 0 0 0 0 0 0 0 0 0 0 0 0 0 0 0 0 127 0" result="hardAlpha"/>
<feOffset dx="4" dy="6"/>
<feGaussianBlur stdDeviation="5"/>
<feComposite in2="hardAlpha" operator="arithmetic" k2="-1" k3="1"/>
<feColorMatrix type="matrix" values="0 0 0 0 0 0 0 0 0 0 0 0 0 0 0 0 0 0 0.2 0"/>
<feBlend mode="plus-darker" in2="shape" result="effect1_innerShadow_43_16990"/>
</filter>
<linearGradient id="paint0_linear_43_16990" x1="166.403" y1="96.6176" x2="151.906" y2="123.201" gradientUnits="userSpaceOnUse">
<stop stop-color="#8EE9FF"/>
<stop offset="1" stop-color="#00C1FF"/>
</linearGradient>
<linearGradient id="paint1_linear_43_16990" x1="173.678" y1="57.2524" x2="141.487" y2="105.87" gradientUnits="userSpaceOnUse">
<stop stop-color="#8EE9FF"/>
<stop offset="1" stop-color="#00C1FF"/>
</linearGradient>
<linearGradient id="paint2_linear_43_16990" x1="172.216" y1="29.5" x2="130.741" y2="77.1812" gradientUnits="userSpaceOnUse">
<stop stop-color="#8EE9FF"/>
<stop offset="1" stop-color="#00C1FF"/>
</linearGradient>
<linearGradient id="paint3_linear_43_16990" x1="13.5971" y1="96.6176" x2="28.0938" y2="123.201" gradientUnits="userSpaceOnUse">
<stop stop-color="#8EE9FF"/>
<stop offset="1" stop-color="#00C1FF"/>
</linearGradient>
<linearGradient id="paint4_linear_43_16990" x1="6.3217" y1="57.2524" x2="38.5132" y2="105.87" gradientUnits="userSpaceOnUse">
<stop stop-color="#8EE9FF"/>
<stop offset="1" stop-color="#00C1FF"/>
</linearGradient>
<linearGradient id="paint5_linear_43_16990" x1="7.78357" y1="29.5" x2="49.2586" y2="77.1812" gradientUnits="userSpaceOnUse">
<stop stop-color="#8EE9FF"/>
<stop offset="1" stop-color="#00C1FF"/>
</linearGradient>
<linearGradient id="paint6_linear_43_16990" x1="88.1675" y1="160.816" x2="87.4573" y2="136.671" gradientUnits="userSpaceOnUse">
<stop stop-color="#DCB6FF"/>
<stop offset="1" stop-color="#A35DFF"/>
</linearGradient>
<linearGradient id="paint7_linear_43_16990" x1="99.8847" y1="151.229" x2="91.363" y2="141.997" gradientUnits="userSpaceOnUse">
<stop stop-color="#BC88FF"/>
<stop offset="1" stop-color="#5F24DA"/>
</linearGradient>
<linearGradient id="paint8_linear_43_16990" x1="91.8325" y1="19.1863" x2="92.5427" y2="43.3312" gradientUnits="userSpaceOnUse">
<stop stop-color="#60DCFF"/>
<stop offset="1" stop-color="#23B9E7"/>
</linearGradient>
<linearGradient id="paint9_linear_43_16990" x1="80.1153" y1="28.7731" x2="87.5" y2="43.0003" gradientUnits="userSpaceOnUse">
<stop stop-color="#9BEBFF"/>
<stop offset="1" stop-color="#3CC7F1"/>
</linearGradient>
<linearGradient id="paint10_linear_43_16990" x1="90" y1="28.9108" x2="90" y2="151.091" gradientUnits="userSpaceOnUse">
<stop stop-color="#29D5FD"/>
<stop offset="1" stop-color="#00AFE6"/>
</linearGradient>
<linearGradient id="paint11_linear_43_16990" x1="90.5" y1="111.723" x2="90.5" y2="163.348" gradientUnits="userSpaceOnUse">
<stop stop-color="#00A7ED"/>
<stop offset="1" stop-color="#00A6ED"/>
</linearGradient>
<linearGradient id="paint12_linear_43_16990" x1="90.5" y1="111.723" x2="90.5" y2="163.348" gradientUnits="userSpaceOnUse">
<stop stop-color="#17B8EA"/>
<stop offset="1" stop-color="#B2F2FF"/>
</linearGradient>
<linearGradient id="paint13_linear_43_16990" x1="90" y1="43.7598" x2="90" y2="136.244" gradientUnits="userSpaceOnUse">
<stop stop-color="#2FDFFF"/>
<stop offset="1" stop-color="#0098EC"/>
</linearGradient>
<linearGradient id="paint14_linear_43_16990" x1="90" y1="43.7598" x2="90" y2="136.244" gradientUnits="userSpaceOnUse">
<stop stop-color="#E3FAFF"/>
<stop offset="1" stop-color="#05C4EE"/>
</linearGradient>
<radialGradient id="paint15_radial_43_16990" cx="0" cy="0" r="1" gradientUnits="userSpaceOnUse" gradientTransform="translate(67.5 42) rotate(71.061) scale(107.838)">
<stop stop-color="#FFFEFF"/>
<stop offset="0.535094" stop-color="#4ED3FD"/>
<stop offset="1" stop-color="#14C2F9"/>
</radialGradient>
<radialGradient id="paint16_radial_43_16990" cx="0" cy="0" r="1" gradientUnits="userSpaceOnUse" gradientTransform="translate(70 47.3333) rotate(73.7074) scale(94.46)">
<stop stop-color="#0ABBF2"/>
<stop offset="0.588355" stop-color="#32C2FF"/>
<stop offset="1" stop-color="#A7F6FF"/>
</radialGradient>
<linearGradient id="paint17_linear_43_16990" x1="90" y1="42" x2="90" y2="138" gradientUnits="userSpaceOnUse">
<stop stop-color="#2ABFFF"/>
<stop offset="1" stop-color="#EAFBFF"/>
</linearGradient>
<radialGradient id="paint18_radial_43_16990" cx="0" cy="0" r="1" gradientUnits="userSpaceOnUse" gradientTransform="translate(87.75 90) rotate(75.6813) scale(73.7924)">
<stop stop-color="#46DAFB"/>
<stop offset="1" stop-color="#1184EE"/>
</radialGradient>
<linearGradient id="paint19_linear_43_16990" x1="90" y1="56" x2="90" y2="98" gradientUnits="userSpaceOnUse">
<stop stop-color="white"/>
<stop offset="1" stop-color="white" stop-opacity="0"/>
</linearGradient>
</defs>
</svg>
