<svg width="180" height="180" viewBox="0 0 180 180" fill="none" xmlns="http://www.w3.org/2000/svg">
<g filter="url(#filter0_iii_43_16985)">
<path d="M164.5 59.5203C154.349 68.0745 140.79 74.3769 128 76.7023L128 111.5C132.024 111.5 156.713 110 163.713 99C170.321 88.6158 167.776 69.2307 165.99 60.0261C165.857 59.3419 165.033 59.0712 164.5 59.5203Z" fill="url(#paint0_linear_43_16985)"/>
</g>
<g filter="url(#filter1_iii_43_16985)">
<path d="M15.4889 59.5286C25.5784 68.0785 39.0522 74.3776 51.7621 76.7023L51.762 111.5C47.762 111.5 23.2203 110 16.2619 99C9.69497 88.6188 12.221 69.2417 13.9964 60.034C14.1286 59.348 14.9559 59.077 15.4889 59.5286Z" fill="url(#paint1_linear_43_16985)"/>
</g>
<g filter="url(#filter2_d_43_16985)">
<path d="M77.2001 32.6616C81.8632 29.9693 84.1947 28.6232 86.6735 28.0963C88.8667 27.6301 91.1334 27.6301 93.3266 28.0963C95.8054 28.6232 98.137 29.9693 102.8 32.6616L133.256 50.2452C137.919 52.9374 140.25 54.2836 141.946 56.1668C143.446 57.8331 144.58 59.7961 145.273 61.9286C146.056 64.3387 146.056 67.031 146.056 72.4155V107.583C146.056 112.967 146.056 115.659 145.273 118.07C144.58 120.202 143.446 122.165 141.946 123.831C140.25 125.715 137.919 127.061 133.256 129.753L102.8 147.337C98.137 150.029 95.8054 151.375 93.3266 151.902C91.1334 152.368 88.8667 152.368 86.6735 151.902C84.1947 151.375 81.8632 150.029 77.2001 147.337L46.7443 129.753C42.0812 127.061 39.7497 125.715 38.054 123.831C36.5537 122.165 35.4203 120.202 34.7274 118.07C33.9443 115.659 33.9443 112.967 33.9443 107.583V72.4155C33.9443 67.031 33.9443 64.3387 34.7274 61.9286C35.4203 59.7961 36.5537 57.8331 38.054 56.1668C39.7497 54.2836 42.0812 52.9374 46.7443 50.2452L77.2001 32.6616Z" fill="url(#paint2_radial_43_16985)"/>
</g>
<g filter="url(#filter3_d_43_16985)">
<path d="M80.4001 37.7124C83.8974 35.6933 85.6461 34.6837 87.5052 34.2885C89.1501 33.9389 90.8501 33.9389 92.495 34.2885C94.3541 34.6837 96.1028 35.6933 99.6001 37.7124L130.482 55.5421C133.979 57.5613 135.728 58.5709 137 59.9833C138.125 61.233 138.975 62.7053 139.495 64.3046C140.082 66.1122 140.082 68.1314 140.082 72.1698V107.829C140.082 111.867 140.082 113.887 139.495 115.694C138.975 117.294 138.125 118.766 137 120.016C135.728 121.428 133.979 122.438 130.482 124.457L99.6001 142.286C96.1028 144.306 94.3541 145.315 92.495 145.71C90.8501 146.06 89.1501 146.06 87.5052 145.71C85.6461 145.315 83.8974 144.306 80.4001 142.286L49.5182 124.457C46.0209 122.438 44.2722 121.428 43.0005 120.016C41.8752 118.766 41.0252 117.294 40.5055 115.694C39.9182 113.887 39.9182 111.867 39.9182 107.829V72.1698C39.9182 68.1314 39.9182 66.1122 40.5055 64.3046C41.0252 62.7053 41.8752 61.233 43.0005 59.9833C44.2722 58.5709 46.0209 57.5613 49.5182 55.5421L80.4001 37.7124Z" fill="url(#paint3_radial_43_16985)"/>
<path d="M80.4001 37.7124C83.8974 35.6933 85.6461 34.6837 87.5052 34.2885C89.1501 33.9389 90.8501 33.9389 92.495 34.2885C94.3541 34.6837 96.1028 35.6933 99.6001 37.7124L130.482 55.5421C133.979 57.5613 135.728 58.5709 137 59.9833C138.125 61.233 138.975 62.7053 139.495 64.3046C140.082 66.1122 140.082 68.1314 140.082 72.1698V107.829C140.082 111.867 140.082 113.887 139.495 115.694C138.975 117.294 138.125 118.766 137 120.016C135.728 121.428 133.979 122.438 130.482 124.457L99.6001 142.286C96.1028 144.306 94.3541 145.315 92.495 145.71C90.8501 146.06 89.1501 146.06 87.5052 145.71C85.6461 145.315 83.8974 144.306 80.4001 142.286L49.5182 124.457C46.0209 122.438 44.2722 121.428 43.0005 120.016C41.8752 118.766 41.0252 117.294 40.5055 115.694C39.9182 113.887 39.9182 111.867 39.9182 107.829V72.1698C39.9182 68.1314 39.9182 66.1122 40.5055 64.3046C41.0252 62.7053 41.8752 61.233 43.0005 59.9833C44.2722 58.5709 46.0209 57.5613 49.5182 55.5421L80.4001 37.7124Z" stroke="url(#paint4_linear_43_16985)" stroke-width="1.2"/>
</g>
<g filter="url(#filter4_i_43_16985)">
<path d="M85.2001 43.6131C86.9487 42.6035 87.8231 42.0987 88.7526 41.9011C89.5751 41.7263 90.4251 41.7263 91.2475 41.9011C92.1771 42.0987 93.0514 42.6035 94.8001 43.6131L127.772 62.6495C129.521 63.6591 130.395 64.1639 131.031 64.8701C131.594 65.495 132.019 66.2311 132.278 67.0308C132.572 67.9346 132.572 68.9442 132.572 70.9634V109.036C132.572 111.055 132.572 112.065 132.278 112.969C132.019 113.769 131.594 114.505 131.031 115.13C130.395 115.836 129.521 116.341 127.772 117.35L94.8001 136.387C93.0514 137.396 92.1771 137.901 91.2475 138.099C90.4251 138.273 89.5751 138.273 88.7526 138.099C87.8231 137.901 86.9487 137.396 85.2001 136.387L52.228 117.35C50.4793 116.341 49.605 115.836 48.9691 115.13C48.4065 114.505 47.9815 113.769 47.7216 112.969C47.428 112.065 47.428 111.055 47.428 109.036V70.9634C47.428 68.9442 47.428 67.9346 47.7216 67.0308C47.9815 66.2311 48.4065 65.495 48.9691 64.8701C49.605 64.1639 50.4793 63.6591 52.228 62.6495L85.2001 43.6131Z" fill="url(#paint5_radial_43_16985)"/>
</g>
<path opacity="0.5" d="M124.082 89.9482C124.082 108.973 108.841 86.2946 90.0409 86.2946C71.2406 86.2946 56 108.973 56 89.9482C56 70.923 71.2406 55.5 90.0409 55.5C108.841 55.5 124.082 70.923 124.082 89.9482Z" fill="url(#paint6_linear_43_16985)"/>
<mask id="path-7-outside-1_43_16985" maskUnits="userSpaceOnUse" x="75" y="70.5" width="30" height="38" fill="black">
<rect fill="white" x="75" y="70.5" width="30" height="38"/>
<path fill-rule="evenodd" clip-rule="evenodd" d="M78 103.793C78 104.391 78 104.689 78.1163 104.918C78.2185 105.118 78.3817 105.281 78.5824 105.384C78.8106 105.5 79.1093 105.5 79.7067 105.5H85.2933C85.8907 105.5 86.1894 105.5 86.4176 105.384C86.6183 105.281 86.7815 105.118 86.8837 104.918C87 104.689 87 104.391 87 103.793V75.2067C87 74.6093 87 74.3106 86.8837 74.0824C86.7815 73.8817 86.6183 73.7185 86.4176 73.6163C86.1894 73.5 85.8907 73.5 85.2933 73.5H79.7067C79.1093 73.5 78.8106 73.5 78.5824 73.6163C78.3817 73.7185 78.2185 73.8817 78.1163 74.0824C78 74.3106 78 74.6093 78 75.2067V103.793ZM93 103.793C93 104.391 93 104.689 93.1163 104.918C93.2185 105.118 93.3817 105.281 93.5824 105.384C93.8106 105.5 94.1093 105.5 94.7067 105.5H100.293C100.891 105.5 101.189 105.5 101.418 105.384C101.618 105.281 101.781 105.118 101.884 104.918C102 104.689 102 104.391 102 103.793V75.2067C102 74.6093 102 74.3106 101.884 74.0824C101.781 73.8817 101.618 73.7185 101.418 73.6163C101.189 73.5 100.891 73.5 100.293 73.5H94.7067C94.1093 73.5 93.8106 73.5 93.5824 73.6163C93.3817 73.7185 93.2185 73.8817 93.1163 74.0824C93 74.3106 93 74.6093 93 75.2067V103.793Z"/>
</mask>
<path fill-rule="evenodd" clip-rule="evenodd" d="M78 103.793C78 104.391 78 104.689 78.1163 104.918C78.2185 105.118 78.3817 105.281 78.5824 105.384C78.8106 105.5 79.1093 105.5 79.7067 105.5H85.2933C85.8907 105.5 86.1894 105.5 86.4176 105.384C86.6183 105.281 86.7815 105.118 86.8837 104.918C87 104.689 87 104.391 87 103.793V75.2067C87 74.6093 87 74.3106 86.8837 74.0824C86.7815 73.8817 86.6183 73.7185 86.4176 73.6163C86.1894 73.5 85.8907 73.5 85.2933 73.5H79.7067C79.1093 73.5 78.8106 73.5 78.5824 73.6163C78.3817 73.7185 78.2185 73.8817 78.1163 74.0824C78 74.3106 78 74.6093 78 75.2067V103.793ZM93 103.793C93 104.391 93 104.689 93.1163 104.918C93.2185 105.118 93.3817 105.281 93.5824 105.384C93.8106 105.5 94.1093 105.5 94.7067 105.5H100.293C100.891 105.5 101.189 105.5 101.418 105.384C101.618 105.281 101.781 105.118 101.884 104.918C102 104.689 102 104.391 102 103.793V75.2067C102 74.6093 102 74.3106 101.884 74.0824C101.781 73.8817 101.618 73.7185 101.418 73.6163C101.189 73.5 100.891 73.5 100.293 73.5H94.7067C94.1093 73.5 93.8106 73.5 93.5824 73.6163C93.3817 73.7185 93.2185 73.8817 93.1163 74.0824C93 74.3106 93 74.6093 93 75.2067V103.793Z" fill="#FFE4D9"/>
<path d="M93.5824 73.6163L92.2204 70.9432L93.5824 73.6163ZM93.1163 74.0824L95.7893 75.4444L93.1163 74.0824ZM101.884 74.0824L99.2107 75.4444L101.884 74.0824ZM101.418 73.6163L100.056 76.2893L101.418 73.6163ZM93.5824 105.384L94.9444 102.711L93.5824 105.384ZM93.1163 104.918L95.7893 103.556L93.1163 104.918ZM101.418 105.384L102.78 108.057L101.418 105.384ZM101.884 104.918L104.557 106.28L101.884 104.918ZM86.8837 74.0824L84.2107 75.4444L86.8837 74.0824ZM86.4176 73.6163L85.0556 76.2893L86.4176 73.6163ZM78.5824 105.384L77.2204 108.057L78.5824 105.384ZM78.1163 104.918L75.4432 106.28L78.1163 104.918ZM86.4176 105.384L87.7796 108.057L86.4176 105.384ZM86.8837 104.918L89.5568 106.28L86.8837 104.918ZM85.2933 102.5H79.7067V108.5H85.2933V102.5ZM84 75.2067V103.793H90V75.2067H84ZM79.7067 76.5H85.2933V70.5H79.7067V76.5ZM81 103.793V75.2067H75V103.793H81ZM100.293 102.5H94.7067V108.5H100.293V102.5ZM99 75.2067V103.793H105V75.2067H99ZM94.7067 76.5H100.293V70.5H94.7067V76.5ZM96 103.793V75.2067H90V103.793H96ZM94.7067 70.5C94.4575 70.5 94.0902 70.4977 93.7618 70.5245C93.3984 70.5542 92.8279 70.6337 92.2204 70.9432L94.9444 76.2893C94.5651 76.4826 94.258 76.5039 94.2504 76.5046C94.2447 76.505 94.2709 76.5028 94.3582 76.5014C94.4454 76.5001 94.5505 76.5 94.7067 76.5V70.5ZM96 75.2067C96 75.0505 96.0001 74.9454 96.0014 74.8582C96.0028 74.7709 96.005 74.7447 96.0046 74.7504C96.0039 74.758 95.9826 75.0651 95.7893 75.4444L90.4432 72.7204C90.1337 73.3279 90.0542 73.8984 90.0245 74.2618C89.9977 74.5902 90 74.9575 90 75.2067H96ZM92.2204 70.9432C91.4552 71.3331 90.8331 71.9552 90.4432 72.7204L95.7893 75.4444C95.6039 75.8082 95.3082 76.1039 94.9444 76.2893L92.2204 70.9432ZM105 75.2067C105 74.9575 105.002 74.5902 104.976 74.2618C104.946 73.8984 104.866 73.3279 104.557 72.7204L99.2107 75.4444C99.0174 75.0651 98.9961 74.758 98.9954 74.7504C98.995 74.7447 98.9972 74.7709 98.9986 74.8582C98.9999 74.9454 99 75.0505 99 75.2067H105ZM100.293 76.5C100.45 76.5 100.555 76.5001 100.642 76.5014C100.729 76.5028 100.755 76.505 100.75 76.5046C100.742 76.5039 100.435 76.4826 100.056 76.2893L102.78 70.9432C102.172 70.6337 101.602 70.5542 101.238 70.5245C100.91 70.4977 100.543 70.5 100.293 70.5V76.5ZM104.557 72.7204C104.167 71.9552 103.545 71.3331 102.78 70.9432L100.056 76.2893C99.6918 76.1039 99.3961 75.8082 99.2107 75.4444L104.557 72.7204ZM94.7067 102.5C94.5505 102.5 94.4454 102.5 94.3582 102.499C94.2709 102.497 94.2447 102.495 94.2504 102.495C94.258 102.496 94.5651 102.517 94.9444 102.711L92.2204 108.057C92.8279 108.366 93.3984 108.446 93.7618 108.476C94.0902 108.502 94.4575 108.5 94.7067 108.5V102.5ZM90 103.793C90 104.043 89.9977 104.41 90.0245 104.738C90.0542 105.102 90.1337 105.672 90.4432 106.28L95.7893 103.556C95.9826 103.935 96.0039 104.242 96.0046 104.25C96.005 104.255 96.0028 104.229 96.0014 104.142C96.0001 104.055 96 103.95 96 103.793H90ZM94.9444 102.711C95.3082 102.896 95.6039 103.192 95.7893 103.556L90.4432 106.28C90.8331 107.045 91.4552 107.667 92.2204 108.057L94.9444 102.711ZM100.293 108.5C100.543 108.5 100.91 108.502 101.238 108.476C101.602 108.446 102.172 108.366 102.78 108.057L100.056 102.711C100.435 102.517 100.742 102.496 100.75 102.495C100.755 102.495 100.729 102.497 100.642 102.499C100.555 102.5 100.45 102.5 100.293 102.5V108.5ZM99 103.793C99 103.95 98.9999 104.055 98.9986 104.142C98.9972 104.229 98.995 104.255 98.9954 104.25C98.9961 104.242 99.0174 103.935 99.2107 103.556L104.557 106.28C104.866 105.672 104.946 105.102 104.976 104.738C105.002 104.41 105 104.043 105 103.793H99ZM102.78 108.057C103.545 107.667 104.167 107.045 104.557 106.28L99.2107 103.556C99.3961 103.192 99.6918 102.896 100.056 102.711L102.78 108.057ZM79.7067 70.5C79.4575 70.5 79.0902 70.4977 78.7618 70.5245C78.3984 70.5542 77.8279 70.6337 77.2204 70.9432L79.9444 76.2893C79.5651 76.4826 79.258 76.5039 79.2504 76.5046C79.2447 76.505 79.2709 76.5028 79.3582 76.5014C79.4454 76.5001 79.5505 76.5 79.7067 76.5V70.5ZM81 75.2067C81 75.0505 81.0001 74.9454 81.0014 74.8582C81.0028 74.7709 81.005 74.7447 81.0046 74.7504C81.0039 74.758 80.9826 75.0651 80.7893 75.4444L75.4432 72.7204C75.1337 73.3279 75.0542 73.8984 75.0245 74.2618C74.9977 74.5902 75 74.9575 75 75.2067H81ZM77.2204 70.9432C76.4552 71.3331 75.8331 71.9552 75.4432 72.7204L80.7893 75.4444C80.6039 75.8082 80.3082 76.1039 79.9444 76.2893L77.2204 70.9432ZM90 75.2067C90 74.9575 90.0023 74.5902 89.9755 74.2618C89.9458 73.8984 89.8663 73.3279 89.5568 72.7204L84.2107 75.4444C84.0174 75.0651 83.9961 74.758 83.9954 74.7504C83.995 74.7447 83.9972 74.7709 83.9986 74.8582C83.9999 74.9454 84 75.0505 84 75.2067H90ZM85.2933 76.5C85.4495 76.5 85.5546 76.5001 85.6418 76.5014C85.7291 76.5028 85.7553 76.505 85.7496 76.5046C85.742 76.5039 85.4349 76.4826 85.0556 76.2893L87.7796 70.9432C87.1721 70.6337 86.6016 70.5542 86.2382 70.5245C85.9098 70.4977 85.5425 70.5 85.2933 70.5V76.5ZM89.5568 72.7204C89.1669 71.9552 88.5448 71.3331 87.7796 70.9432L85.0556 76.2893C84.6918 76.1039 84.3961 75.8082 84.2107 75.4444L89.5568 72.7204ZM79.7067 102.5C79.5505 102.5 79.4454 102.5 79.3582 102.499C79.2709 102.497 79.2447 102.495 79.2504 102.495C79.258 102.496 79.5651 102.517 79.9444 102.711L77.2204 108.057C77.8279 108.366 78.3984 108.446 78.7618 108.476C79.0902 108.502 79.4575 108.5 79.7067 108.5V102.5ZM75 103.793C75 104.043 74.9977 104.41 75.0245 104.738C75.0542 105.102 75.1337 105.672 75.4432 106.28L80.7893 103.556C80.9826 103.935 81.0039 104.242 81.0046 104.25C81.005 104.255 81.0028 104.229 81.0014 104.142C81.0001 104.055 81 103.95 81 103.793H75ZM79.9444 102.711C80.3082 102.896 80.6039 103.192 80.7893 103.556L75.4432 106.28C75.8331 107.045 76.4552 107.667 77.2204 108.057L79.9444 102.711ZM85.2933 108.5C85.5425 108.5 85.9098 108.502 86.2382 108.476C86.6016 108.446 87.1721 108.366 87.7796 108.057L85.0556 102.711C85.4349 102.517 85.742 102.496 85.7496 102.495C85.7553 102.495 85.7291 102.497 85.6418 102.499C85.5546 102.5 85.4495 102.5 85.2933 102.5V108.5ZM84 103.793C84 103.95 83.9999 104.055 83.9986 104.142C83.9972 104.229 83.995 104.255 83.9954 104.25C83.9961 104.242 84.0174 103.935 84.2107 103.556L89.5568 106.28C89.8663 105.672 89.9458 105.102 89.9755 104.738C90.0023 104.41 90 104.043 90 103.793H84ZM87.7796 108.057C88.5448 107.667 89.1669 107.045 89.5568 106.28L84.2107 103.556C84.3961 103.192 84.6918 102.896 85.0556 102.711L87.7796 108.057Z" fill="black" fill-opacity="0.12" style="mix-blend-mode:plus-darker" mask="url(#path-7-outside-1_43_16985)"/>
<mask id="path-9-inside-2_43_16985" fill="white">
<path fill-rule="evenodd" clip-rule="evenodd" d="M78 103.494C78 104.196 78 104.547 78.1366 104.816C78.2568 105.051 78.4486 105.243 78.6844 105.363C78.9526 105.5 79.3036 105.5 80.0056 105.5H84.9944C85.6964 105.5 86.0474 105.5 86.3156 105.363C86.5514 105.243 86.7432 105.051 86.8634 104.816C87 104.547 87 104.196 87 103.494V75.5056C87 74.8036 87 74.4526 86.8634 74.1844C86.7432 73.9486 86.5514 73.7568 86.3156 73.6366C86.0474 73.5 85.6964 73.5 84.9944 73.5H80.0056C79.3036 73.5 78.9526 73.5 78.6844 73.6366C78.4486 73.7568 78.2568 73.9486 78.1366 74.1844C78 74.4526 78 74.8036 78 75.5056V103.494ZM93 103.494C93 104.196 93 104.547 93.1366 104.816C93.2568 105.051 93.4486 105.243 93.6844 105.363C93.9526 105.5 94.3036 105.5 95.0056 105.5H99.9944C100.696 105.5 101.047 105.5 101.316 105.363C101.551 105.243 101.743 105.051 101.863 104.816C102 104.547 102 104.196 102 103.494V75.5056C102 74.8036 102 74.4526 101.863 74.1844C101.743 73.9486 101.551 73.7568 101.316 73.6366C101.047 73.5 100.696 73.5 99.9944 73.5H95.0056C94.3036 73.5 93.9526 73.5 93.6844 73.6366C93.4486 73.7568 93.2568 73.9486 93.1366 74.1844C93 74.4526 93 74.8036 93 75.5056V103.494Z"/>
</mask>
<path d="M93.6844 73.6366L93.1509 72.5895L93.6844 73.6366ZM93.1366 74.1844L92.0895 73.6509L93.1366 74.1844ZM101.863 74.1844L100.816 74.718L101.863 74.1844ZM101.316 73.6366L101.849 72.5895L101.316 73.6366ZM93.6844 105.363L93.1509 106.41L93.6844 105.363ZM93.1366 104.816L94.1837 104.282L93.1366 104.816ZM101.316 105.363L100.782 104.316L101.316 105.363ZM101.863 104.816L100.816 104.282L101.863 104.816ZM86.8634 74.1844L85.8163 74.718L86.8634 74.1844ZM86.3156 73.6366L85.782 74.6837L86.3156 73.6366ZM78.6844 105.363L78.1509 106.41L78.6844 105.363ZM78.1366 104.816L77.0895 105.349L78.1366 104.816ZM86.3156 105.363L86.8491 106.41L86.3156 105.363ZM86.8634 104.816L85.8163 104.282L86.8634 104.816ZM84.9944 104.325H80.0056V106.675H84.9944V104.325ZM85.8248 75.5056V103.494H88.1752V75.5056H85.8248ZM80.0056 74.6752H84.9944V72.3248H80.0056V74.6752ZM79.1752 103.494V75.5056H76.8248V103.494H79.1752ZM99.9944 104.325H95.0056V106.675H99.9944V104.325ZM100.825 75.5056V103.494H103.175V75.5056H100.825ZM95.0056 74.6752H99.9944V72.3248H95.0056V74.6752ZM94.1752 103.494V75.5056H91.8248V103.494H94.1752ZM95.0056 72.3248C94.674 72.3248 94.3546 72.3239 94.0866 72.3458C93.8049 72.3688 93.4783 72.4227 93.1509 72.5895L94.218 74.6837C94.1587 74.7139 94.1417 74.6995 94.278 74.6884C94.4281 74.6761 94.6352 74.6752 95.0056 74.6752V72.3248ZM94.1752 75.5056C94.1752 75.1352 94.1761 74.9281 94.1884 74.778C94.1995 74.6417 94.2139 74.6587 94.1837 74.718L92.0895 73.6509C91.9227 73.9783 91.8688 74.3049 91.8458 74.5866C91.8239 74.8546 91.8248 75.174 91.8248 75.5056H94.1752ZM93.1509 72.5895C92.6939 72.8224 92.3224 73.1939 92.0895 73.6509L94.1837 74.718C94.1912 74.7032 94.2032 74.6912 94.218 74.6837L93.1509 72.5895ZM103.175 75.5056C103.175 75.174 103.176 74.8546 103.154 74.5866C103.131 74.3049 103.077 73.9783 102.91 73.6509L100.816 74.718C100.786 74.6587 100.801 74.6417 100.812 74.778C100.824 74.9281 100.825 75.1352 100.825 75.5056H103.175ZM99.9944 74.6752C100.365 74.6752 100.572 74.6761 100.722 74.6884C100.858 74.6995 100.841 74.7139 100.782 74.6837L101.849 72.5895C101.522 72.4227 101.195 72.3688 100.913 72.3458C100.645 72.3239 100.326 72.3248 99.9944 72.3248V74.6752ZM102.91 73.6509C102.678 73.1939 102.306 72.8224 101.849 72.5895L100.782 74.6837C100.797 74.6912 100.809 74.7032 100.816 74.718L102.91 73.6509ZM95.0056 104.325C94.6352 104.325 94.4281 104.324 94.278 104.312C94.1417 104.301 94.1587 104.286 94.218 104.316L93.1509 106.41C93.4783 106.577 93.8049 106.631 94.0866 106.654C94.3546 106.676 94.674 106.675 95.0056 106.675V104.325ZM91.8248 103.494C91.8248 103.826 91.8239 104.145 91.8458 104.413C91.8688 104.695 91.9227 105.022 92.0895 105.349L94.1837 104.282C94.2139 104.341 94.1995 104.358 94.1884 104.222C94.1761 104.072 94.1752 103.865 94.1752 103.494H91.8248ZM94.218 104.316C94.2032 104.309 94.1912 104.297 94.1837 104.282L92.0895 105.349C92.3224 105.806 92.6939 106.178 93.1509 106.41L94.218 104.316ZM99.9944 106.675C100.326 106.675 100.645 106.676 100.913 106.654C101.195 106.631 101.522 106.577 101.849 106.41L100.782 104.316C100.841 104.286 100.858 104.301 100.722 104.312C100.572 104.324 100.365 104.325 99.9944 104.325V106.675ZM100.825 103.494C100.825 103.865 100.824 104.072 100.812 104.222C100.801 104.358 100.786 104.341 100.816 104.282L102.91 105.349C103.077 105.022 103.131 104.695 103.154 104.413C103.176 104.145 103.175 103.826 103.175 103.494H100.825ZM101.849 106.41C102.306 106.178 102.678 105.806 102.91 105.349L100.816 104.282C100.809 104.297 100.797 104.309 100.782 104.316L101.849 106.41ZM80.0056 72.3248C79.674 72.3248 79.3546 72.3239 79.0866 72.3458C78.8049 72.3688 78.4783 72.4227 78.1509 72.5895L79.218 74.6837C79.1587 74.7139 79.1417 74.6995 79.278 74.6884C79.4281 74.6761 79.6352 74.6752 80.0056 74.6752V72.3248ZM79.1752 75.5056C79.1752 75.1352 79.1761 74.9281 79.1884 74.778C79.1995 74.6417 79.2139 74.6587 79.1837 74.718L77.0895 73.6509C76.9227 73.9783 76.8688 74.3049 76.8458 74.5866C76.8239 74.8546 76.8248 75.174 76.8248 75.5056H79.1752ZM78.1509 72.5895C77.6939 72.8224 77.3224 73.1939 77.0895 73.6509L79.1837 74.718C79.1912 74.7032 79.2032 74.6912 79.218 74.6837L78.1509 72.5895ZM88.1752 75.5056C88.1752 75.174 88.1761 74.8546 88.1542 74.5866C88.1312 74.3049 88.0773 73.9783 87.9105 73.6509L85.8163 74.718C85.7861 74.6587 85.8005 74.6417 85.8116 74.778C85.8239 74.9281 85.8248 75.1352 85.8248 75.5056H88.1752ZM84.9944 74.6752C85.3648 74.6752 85.5719 74.6761 85.722 74.6884C85.8583 74.6995 85.8413 74.7139 85.782 74.6837L86.8491 72.5895C86.5217 72.4227 86.1951 72.3688 85.9134 72.3458C85.6454 72.3239 85.326 72.3248 84.9944 72.3248V74.6752ZM87.9105 73.6509C87.6776 73.1939 87.3061 72.8224 86.8491 72.5895L85.782 74.6837C85.7968 74.6912 85.8088 74.7032 85.8163 74.718L87.9105 73.6509ZM80.0056 104.325C79.6352 104.325 79.4281 104.324 79.278 104.312C79.1417 104.301 79.1587 104.286 79.218 104.316L78.1509 106.41C78.4783 106.577 78.8049 106.631 79.0866 106.654C79.3546 106.676 79.674 106.675 80.0056 106.675V104.325ZM76.8248 103.494C76.8248 103.826 76.8239 104.145 76.8458 104.413C76.8688 104.695 76.9227 105.022 77.0895 105.349L79.1837 104.282C79.2139 104.341 79.1995 104.358 79.1884 104.222C79.1761 104.072 79.1752 103.865 79.1752 103.494H76.8248ZM79.218 104.316C79.2032 104.309 79.1912 104.297 79.1837 104.282L77.0895 105.349C77.3224 105.806 77.6939 106.178 78.1509 106.41L79.218 104.316ZM84.9944 106.675C85.326 106.675 85.6454 106.676 85.9134 106.654C86.1951 106.631 86.5217 106.577 86.8491 106.41L85.782 104.316C85.8413 104.286 85.8583 104.301 85.722 104.312C85.5719 104.324 85.3648 104.325 84.9944 104.325V106.675ZM85.8248 103.494C85.8248 103.865 85.8239 104.072 85.8116 104.222C85.8005 104.358 85.7861 104.341 85.8163 104.282L87.9105 105.349C88.0773 105.022 88.1312 104.695 88.1542 104.413C88.1761 104.145 88.1752 103.826 88.1752 103.494H85.8248ZM86.8491 106.41C87.3061 106.178 87.6776 105.806 87.9105 105.349L85.8163 104.282C85.8088 104.297 85.7968 104.309 85.782 104.316L86.8491 106.41Z" fill="white" fill-opacity="0.25" mask="url(#path-9-inside-2_43_16985)"/>
<defs>
<filter id="filter0_iii_43_16985" x="127.091" y="55.6643" width="40.9086" height="56.7357" filterUnits="userSpaceOnUse" color-interpolation-filters="sRGB">
<feFlood flood-opacity="0" result="BackgroundImageFix"/>
<feBlend mode="normal" in="SourceGraphic" in2="BackgroundImageFix" result="shape"/>
<feColorMatrix in="SourceAlpha" type="matrix" values="0 0 0 0 0 0 0 0 0 0 0 0 0 0 0 0 0 0 127 0" result="hardAlpha"/>
<feOffset dx="-0.908635" dy="-14.5382"/>
<feGaussianBlur stdDeviation="0.454318"/>
<feComposite in2="hardAlpha" operator="arithmetic" k2="-1" k3="1"/>
<feColorMatrix type="matrix" values="0 0 0 0 0.310612 0 0 0 0 0.300895 0 0 0 0 0.300895 0 0 0 0.15 0"/>
<feBlend mode="color-burn" in2="shape" result="effect1_innerShadow_43_16985"/>
<feColorMatrix in="SourceAlpha" type="matrix" values="0 0 0 0 0 0 0 0 0 0 0 0 0 0 0 0 0 0 127 0" result="hardAlpha"/>
<feOffset dx="-0.908635" dy="-3.63454"/>
<feGaussianBlur stdDeviation="1.81727"/>
<feComposite in2="hardAlpha" operator="arithmetic" k2="-1" k3="1"/>
<feColorMatrix type="matrix" values="0 0 0 0 0 0 0 0 0 0 0 0 0 0 0 0 0 0 0.5 0"/>
<feBlend mode="overlay" in2="effect1_innerShadow_43_16985" result="effect2_innerShadow_43_16985"/>
<feColorMatrix in="SourceAlpha" type="matrix" values="0 0 0 0 0 0 0 0 0 0 0 0 0 0 0 0 0 0 127 0" result="hardAlpha"/>
<feOffset dy="1"/>
<feGaussianBlur stdDeviation="0.45"/>
<feComposite in2="hardAlpha" operator="arithmetic" k2="-1" k3="1"/>
<feColorMatrix type="matrix" values="0 0 0 0 1 0 0 0 0 0.959147 0 0 0 0 0.959147 0 0 0 0.25 0"/>
<feBlend mode="normal" in2="effect2_innerShadow_43_16985" result="effect3_innerShadow_43_16985"/>
</filter>
<filter id="filter1_iii_43_16985" x="11.0914" y="55.6721" width="40.6706" height="56.7279" filterUnits="userSpaceOnUse" color-interpolation-filters="sRGB">
<feFlood flood-opacity="0" result="BackgroundImageFix"/>
<feBlend mode="normal" in="SourceGraphic" in2="BackgroundImageFix" result="shape"/>
<feColorMatrix in="SourceAlpha" type="matrix" values="0 0 0 0 0 0 0 0 0 0 0 0 0 0 0 0 0 0 127 0" result="hardAlpha"/>
<feOffset dx="-0.908635" dy="-14.5382"/>
<feGaussianBlur stdDeviation="0.454318"/>
<feComposite in2="hardAlpha" operator="arithmetic" k2="-1" k3="1"/>
<feColorMatrix type="matrix" values="0 0 0 0 0.310612 0 0 0 0 0.300895 0 0 0 0 0.300895 0 0 0 0.15 0"/>
<feBlend mode="color-burn" in2="shape" result="effect1_innerShadow_43_16985"/>
<feColorMatrix in="SourceAlpha" type="matrix" values="0 0 0 0 0 0 0 0 0 0 0 0 0 0 0 0 0 0 127 0" result="hardAlpha"/>
<feOffset dx="-0.908635" dy="-3.63454"/>
<feGaussianBlur stdDeviation="1.81727"/>
<feComposite in2="hardAlpha" operator="arithmetic" k2="-1" k3="1"/>
<feColorMatrix type="matrix" values="0 0 0 0 0 0 0 0 0 0 0 0 0 0 0 0 0 0 0.5 0"/>
<feBlend mode="overlay" in2="effect1_innerShadow_43_16985" result="effect2_innerShadow_43_16985"/>
<feColorMatrix in="SourceAlpha" type="matrix" values="0 0 0 0 0 0 0 0 0 0 0 0 0 0 0 0 0 0 127 0" result="hardAlpha"/>
<feOffset dy="1"/>
<feGaussianBlur stdDeviation="0.45"/>
<feComposite in2="hardAlpha" operator="arithmetic" k2="-1" k3="1"/>
<feColorMatrix type="matrix" values="0 0 0 0 1 0 0 0 0 0.959147 0 0 0 0 0.959147 0 0 0 0.25 0"/>
<feBlend mode="normal" in2="effect2_innerShadow_43_16985" result="effect3_innerShadow_43_16985"/>
</filter>
<filter id="filter2_d_43_16985" x="27.9443" y="23.7461" width="124.112" height="136.506" filterUnits="userSpaceOnUse" color-interpolation-filters="sRGB">
<feFlood flood-opacity="0" result="BackgroundImageFix"/>
<feColorMatrix in="SourceAlpha" type="matrix" values="0 0 0 0 0 0 0 0 0 0 0 0 0 0 0 0 0 0 127 0" result="hardAlpha"/>
<feOffset dy="2"/>
<feGaussianBlur stdDeviation="3"/>
<feComposite in2="hardAlpha" operator="out"/>
<feColorMatrix type="matrix" values="0 0 0 0 0.764404 0 0 0 0 0.280586 0 0 0 0 0.0780578 0 0 0 1 0"/>
<feBlend mode="color-burn" in2="BackgroundImageFix" result="effect1_dropShadow_43_16985"/>
<feBlend mode="normal" in="SourceGraphic" in2="effect1_dropShadow_43_16985" result="shape"/>
</filter>
<filter id="filter3_d_43_16985" x="36.6181" y="31.7258" width="106.764" height="118.546" filterUnits="userSpaceOnUse" color-interpolation-filters="sRGB">
<feFlood flood-opacity="0" result="BackgroundImageFix"/>
<feColorMatrix in="SourceAlpha" type="matrix" values="0 0 0 0 0 0 0 0 0 0 0 0 0 0 0 0 0 0 127 0" result="hardAlpha"/>
<feOffset dy="1"/>
<feGaussianBlur stdDeviation="1.35"/>
<feComposite in2="hardAlpha" operator="out"/>
<feColorMatrix type="matrix" values="0 0 0 0 0.513411 0 0 0 0 0.247579 0 0 0 0 0.145542 0 0 0 0.2 0"/>
<feBlend mode="normal" in2="BackgroundImageFix" result="effect1_dropShadow_43_16985"/>
<feBlend mode="normal" in="SourceGraphic" in2="effect1_dropShadow_43_16985" result="shape"/>
</filter>
<filter id="filter4_i_43_16985" x="47.428" y="41.7695" width="89.1443" height="102.461" filterUnits="userSpaceOnUse" color-interpolation-filters="sRGB">
<feFlood flood-opacity="0" result="BackgroundImageFix"/>
<feBlend mode="normal" in="SourceGraphic" in2="BackgroundImageFix" result="shape"/>
<feColorMatrix in="SourceAlpha" type="matrix" values="0 0 0 0 0 0 0 0 0 0 0 0 0 0 0 0 0 0 127 0" result="hardAlpha"/>
<feOffset dx="4" dy="6"/>
<feGaussianBlur stdDeviation="5"/>
<feComposite in2="hardAlpha" operator="arithmetic" k2="-1" k3="1"/>
<feColorMatrix type="matrix" values="0 0 0 0 0 0 0 0 0 0 0 0 0 0 0 0 0 0 0.2 0"/>
<feBlend mode="plus-darker" in2="shape" result="effect1_innerShadow_43_16985"/>
</filter>
<linearGradient id="paint0_linear_43_16985" x1="173" y1="52" x2="124.663" y2="96.6676" gradientUnits="userSpaceOnUse">
<stop stop-color="#FFCABF"/>
<stop offset="1" stop-color="#BF4F2F"/>
</linearGradient>
<linearGradient id="paint1_linear_43_16985" x1="5.5" y1="49.5" x2="57.3972" y2="88.8889" gradientUnits="userSpaceOnUse">
<stop stop-color="#FFCABF"/>
<stop offset="1" stop-color="#BF4F2F"/>
</linearGradient>
<radialGradient id="paint2_radial_43_16985" cx="0" cy="0" r="1" gradientUnits="userSpaceOnUse" gradientTransform="translate(51.5845 36.9737) rotate(57.054) scale(130.54)">
<stop stop-color="#FFFCFA"/>
<stop offset="0.21" stop-color="#FFA27A"/>
<stop offset="0.681712" stop-color="#F19F7C"/>
<stop offset="1" stop-color="#B93F13"/>
</radialGradient>
<radialGradient id="paint3_radial_43_16985" cx="0" cy="0" r="1" gradientUnits="userSpaceOnUse" gradientTransform="translate(69.1326 38.5954) rotate(73.3194) scale(111.483 99.1987)">
<stop stop-color="#B94C25"/>
<stop offset="0.553078" stop-color="#DC7B52"/>
<stop offset="1" stop-color="#FFAD90"/>
</radialGradient>
<linearGradient id="paint4_linear_43_16985" x1="90.0001" y1="147.227" x2="90.0001" y2="31.5678" gradientUnits="userSpaceOnUse">
<stop stop-color="#FFDBCB"/>
<stop offset="1" stop-color="#D76F47"/>
</linearGradient>
<radialGradient id="paint5_radial_43_16985" cx="0" cy="0" r="1" gradientUnits="userSpaceOnUse" gradientTransform="translate(90.0001 89.4148) rotate(-118.706) scale(56.0463)">
<stop stop-color="#FFB27E"/>
<stop offset="1" stop-color="#B33406"/>
</radialGradient>
<linearGradient id="paint6_linear_43_16985" x1="90.0409" y1="55.5" x2="90.0409" y2="97.5506" gradientUnits="userSpaceOnUse">
<stop stop-color="white"/>
<stop offset="1" stop-color="white" stop-opacity="0"/>
</linearGradient>
</defs>
</svg>
