<svg width="180" height="180" viewBox="0 0 180 180" fill="none" xmlns="http://www.w3.org/2000/svg">
<path d="M88.4132 14.3965L120.196 51.2358L165.054 70.0792L139.839 111.691L135.78 160.176L88.4132 149.054L41.0466 160.176L36.9873 111.691L11.7725 70.0792L56.6302 51.2358L88.4132 14.3965Z" fill="url(#paint0_radial_43_16986)"/>
<path d="M88.4131 51.3505L88.4131 14.3965L120.301 51.3505H88.4131Z" fill="url(#paint1_linear_43_16986)"/>
<path d="M129.896 81.4661L165.052 70.0801L139.721 111.803L129.896 81.4661Z" fill="url(#paint2_linear_43_16986)"/>
<path d="M114.063 130.279L135.783 160.176L88.2648 149.021L114.063 130.279Z" fill="url(#paint3_linear_43_16986)"/>
<path d="M62.765 130.281L41.0449 160.178L36.9667 111.538L62.765 130.281Z" fill="url(#paint4_linear_43_16986)"/>
<path d="M46.9261 81.5004L11.7822 70.0761L56.784 51.1746L46.9261 81.5004Z" fill="url(#paint5_linear_43_16986)"/>
<g filter="url(#filter0_d_43_16986)">
<circle cx="88.4131" cy="94.981" r="54.065" fill="url(#paint6_radial_43_16986)"/>
</g>
<circle cx="88.8678" cy="94.9816" r="48.0578" fill="url(#paint7_radial_43_16986)" stroke="url(#paint8_linear_43_16986)" stroke-width="1.88261"/>
<g filter="url(#filter1_i_43_16986)">
<circle cx="88.8677" cy="94.9802" r="42.0506" fill="url(#paint9_radial_43_16986)"/>
</g>
<path opacity="0.5" d="M122.909 95.3877C122.909 114.413 107.668 91.7341 88.8678 91.7341C70.0675 91.7341 54.8269 114.413 54.8269 95.3877C54.8269 76.3624 70.0675 60.9395 88.8678 60.9395C107.668 60.9395 122.909 76.3624 122.909 95.3877Z" fill="url(#paint10_linear_43_16986)"/>
<mask id="path-11-outside-1_43_16986" maskUnits="userSpaceOnUse" x="65" y="75" width="47" height="40" fill="black">
<rect fill="white" x="65" y="75" width="47" height="40"/>
<path fill-rule="evenodd" clip-rule="evenodd" d="M78 108.994C78 109.696 78 110.047 77.8634 110.316C77.7432 110.551 77.5514 110.743 77.3156 110.863C77.0474 111 76.6964 111 75.9944 111H71.0056C70.3036 111 69.9526 111 69.6844 110.863C69.4486 110.743 69.2568 110.551 69.1366 110.316C69 110.047 69 109.696 69 108.994V81.0056C69 80.3036 69 79.9526 69.1366 79.6844C69.2568 79.4486 69.4486 79.2568 69.6844 79.1366C69.9526 79 70.3036 79 71.0056 79H75.9944C76.6964 79 77.0474 79 77.3156 79.1366C77.5514 79.2568 77.7432 79.4486 77.8634 79.6844C78 79.9526 78 80.3036 78 81.0056V108.994ZM93 108.994C93 109.696 93 110.047 92.8634 110.316C92.7432 110.551 92.5514 110.743 92.3156 110.863C92.0474 111 91.6964 111 90.9944 111H86.0056C85.3036 111 84.9526 111 84.6844 110.863C84.4486 110.743 84.2568 110.551 84.1366 110.316C84 110.047 84 109.696 84 108.994V81.0056C84 80.3036 84 79.9526 84.1366 79.6844C84.2568 79.4486 84.4486 79.2568 84.6844 79.1366C84.9526 79 85.3036 79 86.0056 79H90.9944C91.6964 79 92.0474 79 92.3156 79.1366C92.5514 79.2568 92.7432 79.4486 92.8634 79.6844C93 79.9526 93 80.3036 93 81.0056V108.994ZM99 108.994C99 109.696 99 110.047 99.1366 110.316C99.2568 110.551 99.4486 110.743 99.6844 110.863C99.9526 111 100.304 111 101.006 111H105.994C106.696 111 107.047 111 107.316 110.863C107.551 110.743 107.743 110.551 107.863 110.316C108 110.047 108 109.696 108 108.994V81.0056C108 80.3036 108 79.9526 107.863 79.6844C107.743 79.4486 107.551 79.2568 107.316 79.1366C107.047 79 106.696 79 105.994 79H101.006C100.304 79 99.9526 79 99.6844 79.1366C99.4486 79.2568 99.2568 79.4486 99.1366 79.6844C99 79.9526 99 80.3036 99 81.0056V108.994Z"/>
</mask>
<path fill-rule="evenodd" clip-rule="evenodd" d="M78 108.994C78 109.696 78 110.047 77.8634 110.316C77.7432 110.551 77.5514 110.743 77.3156 110.863C77.0474 111 76.6964 111 75.9944 111H71.0056C70.3036 111 69.9526 111 69.6844 110.863C69.4486 110.743 69.2568 110.551 69.1366 110.316C69 110.047 69 109.696 69 108.994V81.0056C69 80.3036 69 79.9526 69.1366 79.6844C69.2568 79.4486 69.4486 79.2568 69.6844 79.1366C69.9526 79 70.3036 79 71.0056 79H75.9944C76.6964 79 77.0474 79 77.3156 79.1366C77.5514 79.2568 77.7432 79.4486 77.8634 79.6844C78 79.9526 78 80.3036 78 81.0056V108.994ZM93 108.994C93 109.696 93 110.047 92.8634 110.316C92.7432 110.551 92.5514 110.743 92.3156 110.863C92.0474 111 91.6964 111 90.9944 111H86.0056C85.3036 111 84.9526 111 84.6844 110.863C84.4486 110.743 84.2568 110.551 84.1366 110.316C84 110.047 84 109.696 84 108.994V81.0056C84 80.3036 84 79.9526 84.1366 79.6844C84.2568 79.4486 84.4486 79.2568 84.6844 79.1366C84.9526 79 85.3036 79 86.0056 79H90.9944C91.6964 79 92.0474 79 92.3156 79.1366C92.5514 79.2568 92.7432 79.4486 92.8634 79.6844C93 79.9526 93 80.3036 93 81.0056V108.994ZM99 108.994C99 109.696 99 110.047 99.1366 110.316C99.2568 110.551 99.4486 110.743 99.6844 110.863C99.9526 111 100.304 111 101.006 111H105.994C106.696 111 107.047 111 107.316 110.863C107.551 110.743 107.743 110.551 107.863 110.316C108 110.047 108 109.696 108 108.994V81.0056C108 80.3036 108 79.9526 107.863 79.6844C107.743 79.4486 107.551 79.2568 107.316 79.1366C107.047 79 106.696 79 105.994 79H101.006C100.304 79 99.9526 79 99.6844 79.1366C99.4486 79.2568 99.2568 79.4486 99.1366 79.6844C99 79.9526 99 80.3036 99 81.0056V108.994Z" fill="#F4ECFF"/>
<path d="M99.6844 79.1366L98.0839 75.9954L99.6844 79.1366ZM99.1366 79.6844L95.9954 78.0839L99.1366 79.6844ZM107.863 79.6844L104.722 81.285L107.863 79.6844ZM107.316 79.1366L108.916 75.9954L107.316 79.1366ZM99.6844 110.863L98.0839 114.005L99.6844 110.863ZM99.1366 110.316L102.278 108.715L99.1366 110.316ZM107.316 110.863L105.715 107.722L107.316 110.863ZM107.863 110.316L104.722 108.715L107.863 110.316ZM92.3156 79.1366L93.9161 75.9954L92.3156 79.1366ZM92.8634 79.6844L89.7221 81.285L92.8634 79.6844ZM84.1366 79.6844L80.9954 78.0839L84.1366 79.6844ZM84.6844 79.1366L83.0839 75.9954L84.6844 79.1366ZM92.3156 110.863L90.715 107.722L92.3156 110.863ZM92.8634 110.316L89.7221 108.715L92.8634 110.316ZM84.6844 110.863L83.0839 114.005L84.6844 110.863ZM84.1366 110.316L87.2779 108.715L84.1366 110.316ZM77.3156 79.1366L75.715 82.2779L77.3156 79.1366ZM77.8634 79.6844L74.7221 81.285L77.8634 79.6844ZM77.3156 110.863L78.9161 114.005L77.3156 110.863ZM77.8634 110.316L74.7221 108.715L77.8634 110.316ZM69.6844 110.863L68.0839 114.005L69.6844 110.863ZM69.1366 110.316L65.9954 111.916L69.1366 110.316ZM71.0056 114.526H75.9944V107.474H71.0056V114.526ZM65.4745 81.0056V108.994H72.5255V81.0056H65.4745ZM75.9944 75.4745H71.0056V82.5255H75.9944V75.4745ZM81.5255 108.994V81.0056H74.4745V108.994H81.5255ZM86.0056 114.526H90.9944V107.474H86.0056V114.526ZM80.4745 81.0056V108.994H87.5255V81.0056H80.4745ZM90.9944 75.4745H86.0056V82.5255H90.9944V75.4745ZM96.5255 108.994V81.0056H89.4745V108.994H96.5255ZM105.994 107.474H101.006V114.526H105.994V107.474ZM104.474 81.0056V108.994H111.526V81.0056H104.474ZM101.006 82.5255H105.994V75.4745H101.006V82.5255ZM102.526 108.994V81.0056H95.4745V108.994H102.526ZM101.006 75.4745C100.713 75.4745 100.281 75.4717 99.8952 75.5033C99.4682 75.5381 98.7978 75.6316 98.0839 75.9954L101.285 82.2779C100.839 82.505 100.478 82.5302 100.469 82.5309C100.463 82.5314 100.494 82.5288 100.596 82.5272C100.699 82.5256 100.822 82.5255 101.006 82.5255V75.4745ZM102.526 81.0056C102.526 80.8221 102.526 80.6986 102.527 80.5961C102.529 80.4936 102.531 80.4628 102.531 80.4694C102.53 80.4784 102.505 80.8392 102.278 81.285L95.9954 78.0839C95.6316 78.7978 95.5381 79.4682 95.5033 79.8952C95.4717 80.2811 95.4745 80.7128 95.4745 81.0056H102.526ZM98.0839 75.9954C97.1846 76.4535 96.4535 77.1846 95.9954 78.0839L102.278 81.285C102.06 81.7125 101.712 82.0601 101.285 82.2779L98.0839 75.9954ZM111.526 81.0056C111.526 80.7128 111.528 80.2811 111.497 79.8952C111.462 79.4682 111.368 78.7978 111.005 78.0839L104.722 81.285C104.495 80.8392 104.47 80.4784 104.469 80.4694C104.469 80.4628 104.471 80.4936 104.473 80.5961C104.474 80.6986 104.474 80.8221 104.474 81.0056H111.526ZM105.994 82.5255C106.178 82.5255 106.301 82.5256 106.404 82.5272C106.506 82.5288 106.537 82.5314 106.531 82.5309C106.522 82.5302 106.161 82.505 105.715 82.2779L108.916 75.9954C108.202 75.6316 107.532 75.5381 107.105 75.5033C106.719 75.4717 106.287 75.4745 105.994 75.4745V82.5255ZM111.005 78.0839C110.546 77.1846 109.815 76.4535 108.916 75.9954L105.715 82.2779C105.288 82.0601 104.94 81.7125 104.722 81.285L111.005 78.0839ZM101.006 107.474C100.822 107.474 100.699 107.474 100.596 107.473C100.494 107.471 100.463 107.469 100.469 107.469C100.478 107.47 100.839 107.495 101.285 107.722L98.0839 114.005C98.7978 114.368 99.4682 114.462 99.8952 114.497C100.281 114.528 100.713 114.526 101.006 114.526V107.474ZM95.4745 108.994C95.4745 109.287 95.4717 109.719 95.5033 110.105C95.5381 110.532 95.6316 111.202 95.9954 111.916L102.278 108.715C102.505 109.161 102.53 109.522 102.531 109.531C102.531 109.537 102.529 109.506 102.527 109.404C102.526 109.301 102.526 109.178 102.526 108.994H95.4745ZM101.285 107.722C101.712 107.94 102.06 108.288 102.278 108.715L95.9954 111.916C96.4535 112.815 97.1846 113.546 98.0839 114.005L101.285 107.722ZM105.994 114.526C106.287 114.526 106.719 114.528 107.105 114.497C107.532 114.462 108.202 114.368 108.916 114.005L105.715 107.722C106.161 107.495 106.522 107.47 106.531 107.469C106.537 107.469 106.506 107.471 106.404 107.473C106.301 107.474 106.178 107.474 105.994 107.474V114.526ZM104.474 108.994C104.474 109.178 104.474 109.301 104.473 109.404C104.471 109.506 104.469 109.537 104.469 109.531C104.47 109.522 104.495 109.161 104.722 108.715L111.005 111.916C111.368 111.202 111.462 110.532 111.497 110.105C111.528 109.719 111.526 109.287 111.526 108.994H104.474ZM108.916 114.005C109.815 113.546 110.546 112.815 111.005 111.916L104.722 108.715C104.94 108.288 105.288 107.94 105.715 107.722L108.916 114.005ZM90.9944 82.5255C91.1779 82.5255 91.3014 82.5256 91.4039 82.5272C91.5064 82.5288 91.5372 82.5314 91.5306 82.5309C91.5216 82.5302 91.1608 82.505 90.715 82.2779L93.9161 75.9954C93.2022 75.6316 92.5318 75.5381 92.1048 75.5033C91.7189 75.4717 91.2872 75.4745 90.9944 75.4745V82.5255ZM96.5255 81.0056C96.5255 80.7128 96.5283 80.2811 96.4967 79.8952C96.4619 79.4682 96.3684 78.7978 96.0046 78.0839L89.7221 81.285C89.495 80.8392 89.4698 80.4784 89.4691 80.4694C89.4686 80.4628 89.4712 80.4936 89.4728 80.5961C89.4744 80.6986 89.4745 80.8221 89.4745 81.0056H96.5255ZM90.715 82.2779C90.2875 82.0601 89.9399 81.7125 89.7221 81.285L96.0046 78.0839C95.5465 77.1846 94.8154 76.4535 93.9161 75.9954L90.715 82.2779ZM87.5255 81.0056C87.5255 80.8221 87.5256 80.6986 87.5272 80.5961C87.5288 80.4936 87.5314 80.4628 87.5309 80.4694C87.5302 80.4784 87.505 80.8392 87.2779 81.285L80.9954 78.0839C80.6316 78.7978 80.5381 79.4682 80.5033 79.8952C80.4717 80.2811 80.4745 80.7128 80.4745 81.0056H87.5255ZM86.0056 75.4745C85.7128 75.4745 85.2811 75.4717 84.8952 75.5033C84.4682 75.5381 83.7978 75.6316 83.0839 75.9954L86.285 82.2779C85.8392 82.505 85.4784 82.5302 85.4694 82.5309C85.4628 82.5314 85.4936 82.5288 85.5961 82.5272C85.6986 82.5256 85.8221 82.5255 86.0056 82.5255V75.4745ZM87.2779 81.285C87.0601 81.7125 86.7125 82.0601 86.285 82.2779L83.0839 75.9954C82.1846 76.4535 81.4535 77.1846 80.9954 78.0839L87.2779 81.285ZM90.9944 114.526C91.2872 114.526 91.7189 114.528 92.1048 114.497C92.5318 114.462 93.2022 114.368 93.9161 114.005L90.715 107.722C91.1608 107.495 91.5216 107.47 91.5306 107.469C91.5372 107.469 91.5064 107.471 91.4039 107.473C91.3014 107.474 91.1779 107.474 90.9944 107.474V114.526ZM89.4745 108.994C89.4745 109.178 89.4744 109.301 89.4728 109.404C89.4712 109.506 89.4686 109.537 89.4691 109.531C89.4698 109.522 89.495 109.161 89.7221 108.715L96.0046 111.916C96.3684 111.202 96.4619 110.532 96.4967 110.105C96.5283 109.719 96.5255 109.287 96.5255 108.994H89.4745ZM93.9161 114.005C94.8154 113.546 95.5465 112.815 96.0046 111.916L89.7221 108.715C89.9399 108.288 90.2875 107.94 90.715 107.722L93.9161 114.005ZM86.0056 107.474C85.8221 107.474 85.6986 107.474 85.5961 107.473C85.4936 107.471 85.4628 107.469 85.4694 107.469C85.4784 107.47 85.8392 107.495 86.285 107.722L83.0839 114.005C83.7978 114.368 84.4682 114.462 84.8952 114.497C85.2811 114.528 85.7128 114.526 86.0056 114.526V107.474ZM80.4745 108.994C80.4745 109.287 80.4717 109.719 80.5033 110.105C80.5381 110.532 80.6316 111.202 80.9954 111.916L87.2779 108.715C87.505 109.161 87.5302 109.522 87.5309 109.531C87.5314 109.537 87.5288 109.506 87.5272 109.404C87.5256 109.301 87.5255 109.178 87.5255 108.994H80.4745ZM86.285 107.722C86.7125 107.94 87.0601 108.288 87.2779 108.715L80.9954 111.916C81.4535 112.815 82.1846 113.546 83.0839 114.005L86.285 107.722ZM75.9944 82.5255C76.1779 82.5255 76.3014 82.5256 76.4039 82.5272C76.5064 82.5288 76.5372 82.5314 76.5306 82.5309C76.5216 82.5302 76.1608 82.505 75.715 82.2779L78.9161 75.9954C78.2022 75.6316 77.5318 75.5381 77.1048 75.5033C76.7189 75.4717 76.2872 75.4745 75.9944 75.4745V82.5255ZM81.5255 81.0056C81.5255 80.7128 81.5283 80.2811 81.4967 79.8952C81.4619 79.4682 81.3684 78.7978 81.0046 78.0839L74.7221 81.285C74.495 80.8392 74.4698 80.4784 74.4691 80.4694C74.4686 80.4628 74.4712 80.4936 74.4728 80.5961C74.4744 80.6986 74.4745 80.8221 74.4745 81.0056H81.5255ZM75.715 82.2779C75.2875 82.0601 74.9399 81.7125 74.7221 81.285L81.0046 78.0839C80.5465 77.1846 79.8154 76.4535 78.9161 75.9954L75.715 82.2779ZM72.5255 81.0056C72.5255 80.8221 72.5256 80.6986 72.5272 80.5961C72.5288 80.4936 72.5314 80.4628 72.5309 80.4694C72.5302 80.4784 72.505 80.8392 72.2779 81.285L65.9954 78.0839C65.6316 78.7978 65.5381 79.4682 65.5033 79.8952C65.4717 80.2811 65.4745 80.7128 65.4745 81.0056H72.5255ZM71.0056 75.4745C70.7128 75.4745 70.2811 75.4717 69.8952 75.5033C69.4682 75.5381 68.7978 75.6316 68.0839 75.9954L71.285 82.2779C70.8392 82.505 70.4784 82.5302 70.4694 82.5309C70.4628 82.5314 70.4936 82.5288 70.5961 82.5272C70.6986 82.5256 70.8221 82.5255 71.0056 82.5255V75.4745ZM72.2779 81.285C72.0601 81.7125 71.7125 82.0601 71.285 82.2779L68.0839 75.9954C67.1846 76.4535 66.4535 77.1846 65.9954 78.0839L72.2779 81.285ZM75.9944 114.526C76.2872 114.526 76.7189 114.528 77.1048 114.497C77.5318 114.462 78.2022 114.368 78.9161 114.005L75.715 107.722C76.1608 107.495 76.5216 107.47 76.5306 107.469C76.5372 107.469 76.5064 107.471 76.4039 107.473C76.3014 107.474 76.1779 107.474 75.9944 107.474V114.526ZM74.4745 108.994C74.4745 109.178 74.4744 109.301 74.4728 109.404C74.4712 109.506 74.4686 109.537 74.4691 109.531C74.4698 109.522 74.495 109.161 74.7221 108.715L81.0046 111.916C81.3684 111.202 81.4619 110.532 81.4967 110.105C81.5283 109.719 81.5255 109.287 81.5255 108.994H74.4745ZM78.9161 114.005C79.8154 113.546 80.5465 112.815 81.0046 111.916L74.7221 108.715C74.9399 108.288 75.2875 107.94 75.715 107.722L78.9161 114.005ZM71.0056 107.474C70.8221 107.474 70.6986 107.474 70.5961 107.473C70.4936 107.471 70.4628 107.469 70.4694 107.469C70.4784 107.47 70.8392 107.495 71.285 107.722L68.0839 114.005C68.7978 114.368 69.4682 114.462 69.8952 114.497C70.2811 114.528 70.7128 114.526 71.0056 114.526V107.474ZM65.4745 108.994C65.4745 109.287 65.4717 109.719 65.5033 110.105C65.5381 110.532 65.6316 111.202 65.9954 111.916L72.2779 108.715C72.505 109.161 72.5302 109.522 72.5309 109.531C72.5314 109.537 72.5288 109.506 72.5272 109.404C72.5256 109.301 72.5255 109.178 72.5255 108.994H65.4745ZM71.285 107.722C71.7125 107.94 72.0601 108.288 72.2779 108.715L65.9954 111.916C66.4535 112.815 67.1846 113.546 68.0839 114.005L71.285 107.722Z" fill="black" fill-opacity="0.12" style="mix-blend-mode:color-burn" mask="url(#path-11-outside-1_43_16986)"/>
<mask id="path-13-inside-2_43_16986" fill="white">
<path fill-rule="evenodd" clip-rule="evenodd" d="M78 108.994C78 109.696 78 110.047 77.8634 110.316C77.7432 110.551 77.5514 110.743 77.3156 110.863C77.0474 111 76.6964 111 75.9944 111H71.0056C70.3036 111 69.9526 111 69.6844 110.863C69.4486 110.743 69.2568 110.551 69.1366 110.316C69 110.047 69 109.696 69 108.994V81.0056C69 80.3036 69 79.9526 69.1366 79.6844C69.2568 79.4486 69.4486 79.2568 69.6844 79.1366C69.9526 79 70.3036 79 71.0056 79H75.9944C76.6964 79 77.0474 79 77.3156 79.1366C77.5514 79.2568 77.7432 79.4486 77.8634 79.6844C78 79.9526 78 80.3036 78 81.0056V108.994ZM93 108.994C93 109.696 93 110.047 92.8634 110.316C92.7432 110.551 92.5514 110.743 92.3156 110.863C92.0474 111 91.6964 111 90.9944 111H86.0056C85.3036 111 84.9526 111 84.6844 110.863C84.4486 110.743 84.2568 110.551 84.1366 110.316C84 110.047 84 109.696 84 108.994V81.0056C84 80.3036 84 79.9526 84.1366 79.6844C84.2568 79.4486 84.4486 79.2568 84.6844 79.1366C84.9526 79 85.3036 79 86.0056 79H90.9944C91.6964 79 92.0474 79 92.3156 79.1366C92.5514 79.2568 92.7432 79.4486 92.8634 79.6844C93 79.9526 93 80.3036 93 81.0056V108.994ZM99 108.994C99 109.696 99 110.047 99.1366 110.316C99.2568 110.551 99.4486 110.743 99.6844 110.863C99.9526 111 100.304 111 101.006 111H105.994C106.696 111 107.047 111 107.316 110.863C107.551 110.743 107.743 110.551 107.863 110.316C108 110.047 108 109.696 108 108.994V81.0056C108 80.3036 108 79.9526 107.863 79.6844C107.743 79.4486 107.551 79.2568 107.316 79.1366C107.047 79 106.696 79 105.994 79H101.006C100.304 79 99.9526 79 99.6844 79.1366C99.4486 79.2568 99.2568 79.4486 99.1366 79.6844C99 79.9526 99 80.3036 99 81.0056V108.994Z"/>
</mask>
<path d="M99.6844 79.1366L99.1509 78.0895L99.6844 79.1366ZM99.1366 79.6844L98.0895 79.1509L99.1366 79.6844ZM107.863 79.6844L106.816 80.218L107.863 79.6844ZM107.316 79.1366L107.849 78.0895L107.316 79.1366ZM99.6844 110.863L99.1509 111.91L99.6844 110.863ZM99.1366 110.316L100.184 109.782L99.1366 110.316ZM107.316 110.863L106.782 109.816L107.316 110.863ZM107.863 110.316L106.816 109.782L107.863 110.316ZM92.3156 79.1366L92.8491 78.0895L92.3156 79.1366ZM92.8634 79.6844L91.8163 80.218L92.8634 79.6844ZM84.1366 79.6844L83.0895 79.1509L84.1366 79.6844ZM84.6844 79.1366L84.1509 78.0895L84.6844 79.1366ZM92.3156 110.863L91.782 109.816L92.3156 110.863ZM92.8634 110.316L91.8163 109.782L92.8634 110.316ZM84.6844 110.863L84.1509 111.91L84.6844 110.863ZM84.1366 110.316L85.1837 109.782L84.1366 110.316ZM77.3156 79.1366L76.782 80.1837L77.3156 79.1366ZM77.8634 79.6844L76.8163 80.218L77.8634 79.6844ZM77.3156 110.863L77.8491 111.91L77.3156 110.863ZM77.8634 110.316L76.8163 109.782L77.8634 110.316ZM69.6844 110.863L69.1509 111.91L69.6844 110.863ZM69.1366 110.316L68.0895 110.849L69.1366 110.316ZM71.0056 112.175H75.9944V109.825H71.0056V112.175ZM67.8248 81.0056V108.994H70.1752V81.0056H67.8248ZM75.9944 77.8248H71.0056V80.1752H75.9944V77.8248ZM79.1752 108.994V81.0056H76.8248V108.994H79.1752ZM86.0056 112.175H90.9944V109.825H86.0056V112.175ZM82.8248 81.0056V108.994H85.1752V81.0056H82.8248ZM90.9944 77.8248H86.0056V80.1752H90.9944V77.8248ZM94.1752 108.994V81.0056H91.8248V108.994H94.1752ZM105.994 109.825H101.006V112.175H105.994V109.825ZM106.825 81.0056V108.994H109.175V81.0056H106.825ZM101.006 80.1752H105.994V77.8248H101.006V80.1752ZM100.175 108.994V81.0056H97.8248V108.994H100.175ZM101.006 77.8248C100.674 77.8248 100.355 77.8239 100.087 77.8458C99.8049 77.8688 99.4783 77.9227 99.1509 78.0895L100.218 80.1837C100.159 80.2139 100.142 80.1995 100.278 80.1884C100.428 80.1761 100.635 80.1752 101.006 80.1752V77.8248ZM100.175 81.0056C100.175 80.6352 100.176 80.4281 100.188 80.278C100.199 80.1417 100.214 80.1587 100.184 80.218L98.0895 79.1509C97.9227 79.4783 97.8688 79.8049 97.8458 80.0866C97.8239 80.3546 97.8248 80.674 97.8248 81.0056H100.175ZM99.1509 78.0895C98.6939 78.3224 98.3224 78.6939 98.0895 79.1509L100.184 80.218C100.191 80.2032 100.203 80.1912 100.218 80.1837L99.1509 78.0895ZM109.175 81.0056C109.175 80.674 109.176 80.3546 109.154 80.0866C109.131 79.8049 109.077 79.4783 108.91 79.1509L106.816 80.218C106.786 80.1587 106.801 80.1417 106.812 80.278C106.824 80.4281 106.825 80.6352 106.825 81.0056H109.175ZM105.994 80.1752C106.365 80.1752 106.572 80.1761 106.722 80.1884C106.858 80.1995 106.841 80.2139 106.782 80.1837L107.849 78.0895C107.522 77.9227 107.195 77.8688 106.913 77.8458C106.645 77.8239 106.326 77.8248 105.994 77.8248V80.1752ZM108.91 79.1509C108.678 78.6939 108.306 78.3224 107.849 78.0895L106.782 80.1837C106.797 80.1912 106.809 80.2032 106.816 80.218L108.91 79.1509ZM101.006 109.825C100.635 109.825 100.428 109.824 100.278 109.812C100.142 109.801 100.159 109.786 100.218 109.816L99.1509 111.91C99.4783 112.077 99.8049 112.131 100.087 112.154C100.355 112.176 100.674 112.175 101.006 112.175V109.825ZM97.8248 108.994C97.8248 109.326 97.8239 109.645 97.8458 109.913C97.8688 110.195 97.9227 110.522 98.0895 110.849L100.184 109.782C100.214 109.841 100.199 109.858 100.188 109.722C100.176 109.572 100.175 109.365 100.175 108.994H97.8248ZM100.218 109.816C100.203 109.809 100.191 109.797 100.184 109.782L98.0895 110.849C98.3224 111.306 98.6939 111.678 99.1509 111.91L100.218 109.816ZM105.994 112.175C106.326 112.175 106.645 112.176 106.913 112.154C107.195 112.131 107.522 112.077 107.849 111.91L106.782 109.816C106.841 109.786 106.858 109.801 106.722 109.812C106.572 109.824 106.365 109.825 105.994 109.825V112.175ZM106.825 108.994C106.825 109.365 106.824 109.572 106.812 109.722C106.801 109.858 106.786 109.841 106.816 109.782L108.91 110.849C109.077 110.522 109.131 110.195 109.154 109.913C109.176 109.645 109.175 109.326 109.175 108.994H106.825ZM107.849 111.91C108.306 111.678 108.678 111.306 108.91 110.849L106.816 109.782C106.809 109.797 106.797 109.809 106.782 109.816L107.849 111.91ZM90.9944 80.1752C91.3648 80.1752 91.5719 80.1761 91.722 80.1884C91.8583 80.1995 91.8413 80.2139 91.782 80.1837L92.8491 78.0895C92.5217 77.9227 92.1951 77.8688 91.9134 77.8458C91.6454 77.8239 91.326 77.8248 90.9944 77.8248V80.1752ZM94.1752 81.0056C94.1752 80.674 94.1761 80.3546 94.1542 80.0866C94.1312 79.8049 94.0773 79.4783 93.9105 79.1509L91.8163 80.218C91.7861 80.1587 91.8005 80.1417 91.8116 80.278C91.8239 80.4281 91.8248 80.6352 91.8248 81.0056H94.1752ZM91.782 80.1837C91.7968 80.1912 91.8088 80.2032 91.8163 80.218L93.9105 79.1509C93.6776 78.6939 93.3061 78.3224 92.8491 78.0895L91.782 80.1837ZM85.1752 81.0056C85.1752 80.6352 85.1761 80.4281 85.1884 80.278C85.1995 80.1417 85.2139 80.1587 85.1837 80.218L83.0895 79.1509C82.9227 79.4783 82.8688 79.8049 82.8458 80.0866C82.8239 80.3546 82.8248 80.674 82.8248 81.0056H85.1752ZM86.0056 77.8248C85.674 77.8248 85.3546 77.8239 85.0866 77.8458C84.8049 77.8688 84.4783 77.9227 84.1509 78.0895L85.218 80.1837C85.1587 80.2139 85.1417 80.1995 85.278 80.1884C85.4281 80.1761 85.6352 80.1752 86.0056 80.1752V77.8248ZM85.1837 80.218C85.1912 80.2032 85.2032 80.1912 85.218 80.1837L84.1509 78.0895C83.6939 78.3224 83.3224 78.6939 83.0895 79.1509L85.1837 80.218ZM90.9944 112.175C91.326 112.175 91.6454 112.176 91.9134 112.154C92.1951 112.131 92.5217 112.077 92.8491 111.91L91.782 109.816C91.8413 109.786 91.8583 109.801 91.722 109.812C91.5719 109.824 91.3648 109.825 90.9944 109.825V112.175ZM91.8248 108.994C91.8248 109.365 91.8239 109.572 91.8116 109.722C91.8005 109.858 91.7861 109.841 91.8163 109.782L93.9105 110.849C94.0773 110.522 94.1312 110.195 94.1542 109.913C94.1761 109.645 94.1752 109.326 94.1752 108.994H91.8248ZM92.8491 111.91C93.3061 111.678 93.6776 111.306 93.9105 110.849L91.8163 109.782C91.8088 109.797 91.7968 109.809 91.782 109.816L92.8491 111.91ZM86.0056 109.825C85.6352 109.825 85.4281 109.824 85.278 109.812C85.1417 109.801 85.1587 109.786 85.218 109.816L84.1509 111.91C84.4783 112.077 84.8049 112.131 85.0866 112.154C85.3546 112.176 85.674 112.175 86.0056 112.175V109.825ZM82.8248 108.994C82.8248 109.326 82.8239 109.645 82.8458 109.913C82.8688 110.195 82.9227 110.522 83.0895 110.849L85.1837 109.782C85.2139 109.841 85.1995 109.858 85.1884 109.722C85.1761 109.572 85.1752 109.365 85.1752 108.994H82.8248ZM85.218 109.816C85.2032 109.809 85.1912 109.797 85.1837 109.782L83.0895 110.849C83.3224 111.306 83.6939 111.678 84.1509 111.91L85.218 109.816ZM75.9944 80.1752C76.3648 80.1752 76.5719 80.1761 76.722 80.1884C76.8583 80.1995 76.8413 80.2139 76.782 80.1837L77.8491 78.0895C77.5217 77.9227 77.1951 77.8688 76.9134 77.8458C76.6454 77.8239 76.326 77.8248 75.9944 77.8248V80.1752ZM79.1752 81.0056C79.1752 80.674 79.1761 80.3546 79.1542 80.0866C79.1312 79.8049 79.0773 79.4783 78.9105 79.1509L76.8163 80.218C76.7861 80.1587 76.8005 80.1417 76.8116 80.278C76.8239 80.4281 76.8248 80.6352 76.8248 81.0056H79.1752ZM76.782 80.1837C76.7968 80.1912 76.8088 80.2032 76.8163 80.218L78.9105 79.1509C78.6776 78.6939 78.3061 78.3224 77.8491 78.0895L76.782 80.1837ZM70.1752 81.0056C70.1752 80.6352 70.1761 80.4281 70.1884 80.278C70.1995 80.1417 70.2139 80.1587 70.1837 80.218L68.0895 79.1509C67.9227 79.4783 67.8688 79.8049 67.8458 80.0866C67.8239 80.3546 67.8248 80.674 67.8248 81.0056H70.1752ZM71.0056 77.8248C70.674 77.8248 70.3546 77.8239 70.0866 77.8458C69.8049 77.8688 69.4783 77.9227 69.1509 78.0895L70.218 80.1837C70.1587 80.2139 70.1417 80.1995 70.278 80.1884C70.4281 80.1761 70.6352 80.1752 71.0056 80.1752V77.8248ZM70.1837 80.218C70.1912 80.2032 70.2032 80.1912 70.218 80.1837L69.1509 78.0895C68.6939 78.3224 68.3224 78.6939 68.0895 79.1509L70.1837 80.218ZM75.9944 112.175C76.326 112.175 76.6454 112.176 76.9134 112.154C77.1951 112.131 77.5217 112.077 77.8491 111.91L76.782 109.816C76.8413 109.786 76.8583 109.801 76.722 109.812C76.5719 109.824 76.3648 109.825 75.9944 109.825V112.175ZM76.8248 108.994C76.8248 109.365 76.8239 109.572 76.8116 109.722C76.8005 109.858 76.7861 109.841 76.8163 109.782L78.9105 110.849C79.0773 110.522 79.1312 110.195 79.1542 109.913C79.1761 109.645 79.1752 109.326 79.1752 108.994H76.8248ZM77.8491 111.91C78.3061 111.678 78.6776 111.306 78.9105 110.849L76.8163 109.782C76.8088 109.797 76.7968 109.809 76.782 109.816L77.8491 111.91ZM71.0056 109.825C70.6352 109.825 70.4281 109.824 70.278 109.812C70.1417 109.801 70.1587 109.786 70.218 109.816L69.1509 111.91C69.4783 112.077 69.8049 112.131 70.0866 112.154C70.3546 112.176 70.674 112.175 71.0056 112.175V109.825ZM67.8248 108.994C67.8248 109.326 67.8239 109.645 67.8458 109.913C67.8688 110.195 67.9227 110.522 68.0895 110.849L70.1837 109.782C70.2139 109.841 70.1995 109.858 70.1884 109.722C70.1761 109.572 70.1752 109.365 70.1752 108.994H67.8248ZM70.218 109.816C70.2032 109.809 70.1912 109.797 70.1837 109.782L68.0895 110.849C68.3224 111.306 68.6939 111.678 69.1509 111.91L70.218 109.816Z" fill="white" fill-opacity="0.25" mask="url(#path-13-inside-2_43_16986)"/>
<defs>
<filter id="filter0_d_43_16986" x="27.2884" y="36.2095" width="122.249" height="122.25" filterUnits="userSpaceOnUse" color-interpolation-filters="sRGB">
<feFlood flood-opacity="0" result="BackgroundImageFix"/>
<feColorMatrix in="SourceAlpha" type="matrix" values="0 0 0 0 0 0 0 0 0 0 0 0 0 0 0 0 0 0 127 0" result="hardAlpha"/>
<feOffset dy="2.35326"/>
<feGaussianBlur stdDeviation="3.52989"/>
<feComposite in2="hardAlpha" operator="out"/>
<feColorMatrix type="matrix" values="0 0 0 0 0.395182 0 0 0 0 0.371874 0 0 0 0 0.361961 0 0 0 0.5 0"/>
<feBlend mode="color-burn" in2="BackgroundImageFix" result="effect1_dropShadow_43_16986"/>
<feBlend mode="normal" in="SourceGraphic" in2="effect1_dropShadow_43_16986" result="shape"/>
</filter>
<filter id="filter1_i_43_16986" x="46.8171" y="52.9297" width="88.1011" height="90.1016" filterUnits="userSpaceOnUse" color-interpolation-filters="sRGB">
<feFlood flood-opacity="0" result="BackgroundImageFix"/>
<feBlend mode="normal" in="SourceGraphic" in2="BackgroundImageFix" result="shape"/>
<feColorMatrix in="SourceAlpha" type="matrix" values="0 0 0 0 0 0 0 0 0 0 0 0 0 0 0 0 0 0 127 0" result="hardAlpha"/>
<feOffset dx="4" dy="6"/>
<feGaussianBlur stdDeviation="5"/>
<feComposite in2="hardAlpha" operator="arithmetic" k2="-1" k3="1"/>
<feColorMatrix type="matrix" values="0 0 0 0 0 0 0 0 0 0 0 0 0 0 0 0 0 0 0.2 0"/>
<feBlend mode="plus-darker" in2="shape" result="effect1_innerShadow_43_16986"/>
</filter>
<radialGradient id="paint0_radial_43_16986" cx="0" cy="0" r="1" gradientUnits="userSpaceOnUse" gradientTransform="translate(88.4132 94.9813) rotate(90) scale(80.5848)">
<stop offset="0.01" stop-color="#7D4CBD"/>
<stop offset="0.475" stop-color="#AE87DF"/>
<stop offset="1" stop-color="#D8CAE2"/>
</radialGradient>
<linearGradient id="paint1_linear_43_16986" x1="98.6666" y1="7.16639" x2="96.4079" y2="47.4103" gradientUnits="userSpaceOnUse">
<stop offset="0.345661" stop-color="#E5D6F0"/>
<stop offset="1" stop-color="#8958C8"/>
</linearGradient>
<linearGradient id="paint2_linear_43_16986" x1="175.089" y1="77.6071" x2="136.107" y2="87.858" gradientUnits="userSpaceOnUse">
<stop offset="0.345661" stop-color="#E5D6F0"/>
<stop offset="1" stop-color="#8958C8"/>
</linearGradient>
<linearGradient id="paint3_linear_43_16986" x1="131.737" y1="172.052" x2="109.911" y2="138.165" gradientUnits="userSpaceOnUse">
<stop offset="0.345661" stop-color="#E5D6F0"/>
<stop offset="1" stop-color="#8958C8"/>
</linearGradient>
<linearGradient id="paint4_linear_43_16986" x1="28.4999" y1="160.001" x2="53.981" y2="128.769" gradientUnits="userSpaceOnUse">
<stop offset="0.345661" stop-color="#E5D6F0"/>
<stop offset="1" stop-color="#8958C8"/>
</linearGradient>
<linearGradient id="paint5_linear_43_16986" x1="8.07614" y1="58.0897" x2="45.6505" y2="72.6791" gradientUnits="userSpaceOnUse">
<stop offset="0.345661" stop-color="#E5D6F0"/>
<stop offset="1" stop-color="#8958C8"/>
</linearGradient>
<radialGradient id="paint6_radial_43_16986" cx="0" cy="0" r="1" gradientUnits="userSpaceOnUse" gradientTransform="translate(114.5 143.999) rotate(-116.565) scale(108.449)">
<stop stop-color="#9767D7"/>
<stop offset="0.592735" stop-color="#C39AD8"/>
<stop offset="1" stop-color="#F7F2FF"/>
</radialGradient>
<radialGradient id="paint7_radial_43_16986" cx="0" cy="0" r="1" gradientUnits="userSpaceOnUse" gradientTransform="translate(117.5 131) rotate(-126.248) scale(92.7814)">
<stop stop-color="#F8E3FF"/>
<stop offset="0.464937" stop-color="#D5BDE8"/>
<stop offset="1" stop-color="#A664BD"/>
</radialGradient>
<linearGradient id="paint8_linear_43_16986" x1="88.6591" y1="43.4833" x2="88.6591" y2="142.98" gradientUnits="userSpaceOnUse">
<stop stop-color="#C89BDA"/>
<stop offset="1" stop-color="#FCEDF7"/>
</linearGradient>
<radialGradient id="paint9_radial_43_16986" cx="0" cy="0" r="1" gradientUnits="userSpaceOnUse" gradientTransform="translate(89 94.9986) rotate(81.0991) scale(59.1926)">
<stop stop-color="#CAA1FC"/>
<stop offset="1" stop-color="#8A55D0"/>
</radialGradient>
<linearGradient id="paint10_linear_43_16986" x1="88.8678" y1="60.9395" x2="88.8678" y2="102.99" gradientUnits="userSpaceOnUse">
<stop stop-color="white"/>
<stop offset="1" stop-color="white" stop-opacity="0"/>
</linearGradient>
</defs>
</svg>
