<svg width="180" height="180" viewBox="0 0 180 180" fill="none" xmlns="http://www.w3.org/2000/svg">
<mask id="mask0_43_16989" style="mask-type:alpha" maskUnits="userSpaceOnUse" x="0" y="0" width="180" height="180">
<rect width="180" height="180" fill="#D9D9D9"/>
</mask>
<g mask="url(#mask0_43_16989)">
<g filter="url(#filter0_ii_43_16989)">
<path d="M159.616 114.3C163.445 107.069 158.436 97.7333 155.37 94L126 112.2L128.831 129C132.369 128.3 155.167 122.7 159.616 114.3Z" fill="url(#paint0_linear_43_16989)"/>
</g>
<g filter="url(#filter1_ii_43_16989)">
<path d="M170.299 94.52C175.004 85.4292 168.85 73.6933 165.083 69L129 91.88L132.478 113C136.825 112.12 164.834 105.08 170.299 94.52Z" fill="url(#paint1_linear_43_16989)"/>
</g>
<g filter="url(#filter2_ii_43_16989)">
<path d="M173.864 70.9C179.773 59.5365 172.045 44.8667 167.313 39L122 67.6L126.368 94C131.827 92.9 167.001 84.1 173.864 70.9Z" fill="url(#paint2_linear_43_16989)"/>
</g>
<g filter="url(#filter3_ii_43_16989)">
<path d="M20.3842 114.3C16.5547 107.069 21.5637 97.7333 24.6304 94L54 112.2L51.1692 129C47.6307 128.3 24.8326 122.7 20.3842 114.3Z" fill="url(#paint3_linear_43_16989)"/>
</g>
<g filter="url(#filter4_ii_43_16989)">
<path d="M9.70062 94.52C4.99579 85.4292 11.1497 73.6933 14.9174 69L51 91.88L47.5222 113C43.1749 112.12 15.1658 105.08 9.70062 94.52Z" fill="url(#paint4_linear_43_16989)"/>
</g>
<g filter="url(#filter5_ii_43_16989)">
<path d="M6.13567 70.9C0.227276 59.5365 7.95547 44.8667 12.687 39L58 67.6L53.6325 94C48.1731 92.9 12.9989 84.1 6.13567 70.9Z" fill="url(#paint5_linear_43_16989)"/>
</g>
<path d="M136.198 113.572L90.0001 159.77L43.8025 113.572H136.198Z" fill="url(#paint6_linear_43_16989)"/>
<path d="M136.198 113.572L90 159.77L90 113.572H136.198Z" fill="url(#paint7_linear_43_16989)"/>
<path d="M43.8022 73.4301H38.9738L42.388 70.0159L88.5857 23.8182L89.9999 22.404L91.4141 23.8182L137.612 70.0159L141.026 73.4301H136.198H43.8022Z" fill="url(#paint8_linear_43_16989)" stroke="#FFDC57" stroke-width="4"/>
<path d="M43.8023 71.4301L90 25.2324L90 71.4301H43.8023Z" fill="url(#paint9_linear_43_16989)"/>
<mask id="path-12-inside-1_43_16989" fill="white">
<path fill-rule="evenodd" clip-rule="evenodd" d="M69.8615 30.2891C44.9435 38.6897 27 62.2502 27 90.0017C27 117.753 44.9435 141.314 69.8614 149.714L86 90.0016L69.8615 30.2891ZM110.139 149.714C135.057 141.314 153 117.753 153 90.0017C153 62.2502 135.057 38.6897 110.139 30.2891L94 90.0016L110.139 149.714Z"/>
</mask>
<path fill-rule="evenodd" clip-rule="evenodd" d="M69.8615 30.2891C44.9435 38.6897 27 62.2502 27 90.0017C27 117.753 44.9435 141.314 69.8614 149.714L86 90.0016L69.8615 30.2891ZM110.139 149.714C135.057 141.314 153 117.753 153 90.0017C153 62.2502 135.057 38.6897 110.139 30.2891L94 90.0016L110.139 149.714Z" fill="url(#paint10_linear_43_16989)"/>
<path d="M69.8615 30.2891L71.7922 29.7672L71.2374 27.7146L69.2225 28.3939L69.8615 30.2891ZM69.8614 149.714L69.2225 151.609L71.2374 152.289L71.7922 150.236L69.8614 149.714ZM86 90.0016L87.9307 90.5234L88.0718 90.0016L87.9307 89.4798L86 90.0016ZM110.139 149.714L108.208 150.236L108.763 152.289L110.778 151.609L110.139 149.714ZM110.139 30.2891L110.777 28.3939L108.763 27.7146L108.208 29.7672L110.139 30.2891ZM94 90.0016L92.0693 89.4798L91.9282 90.0016L92.0693 90.5234L94 90.0016ZM29 90.0017C29 63.1343 46.3711 40.319 70.5004 32.1843L69.2225 28.3939C43.5158 37.0604 25 61.3661 25 90.0017H29ZM70.5004 147.819C46.3711 139.684 29 116.869 29 90.0017H25C25 118.637 43.5158 142.943 69.2225 151.609L70.5004 147.819ZM71.7922 150.236L87.9307 90.5234L84.0693 89.4798L67.9307 149.192L71.7922 150.236ZM87.9307 89.4798L71.7922 29.7672L67.9308 30.8109L84.0693 90.5234L87.9307 89.4798ZM151 90.0017C151 116.869 133.629 139.684 109.5 147.819L110.778 151.609C136.484 142.943 155 118.637 155 90.0017H151ZM109.5 32.1843C133.629 40.319 151 63.1343 151 90.0017H155C155 61.3661 136.484 37.0604 110.777 28.3939L109.5 32.1843ZM108.208 29.7672L92.0693 89.4798L95.9307 90.5234L112.069 30.8109L108.208 29.7672ZM92.0693 90.5234L108.208 150.236L112.069 149.192L95.9307 89.4798L92.0693 90.5234Z" fill="white" fill-opacity="0.2" mask="url(#path-12-inside-1_43_16989)"/>
<g filter="url(#filter6_d_43_16989)">
<path d="M68.0417 111.723H112.958L122 143.806L90.5 163.348L59 143.806L68.0417 111.723Z" fill="#FFC600"/>
</g>
<path d="M90.5 111.723H112.958L122 143.806L90.5 163.348L90.5 111.723Z" fill="url(#paint11_linear_43_16989)"/>
<g filter="url(#filter7_d_43_16989)">
<circle cx="90" cy="90" r="54" fill="url(#paint12_radial_43_16989)"/>
</g>
<circle cx="90" cy="90" r="48" fill="url(#paint13_radial_43_16989)" stroke="url(#paint14_linear_43_16989)" stroke-width="1.6"/>
<g filter="url(#filter8_i_43_16989)">
<circle cx="90" cy="90" r="42" fill="url(#paint15_radial_43_16989)"/>
</g>
<path opacity="0.5" d="M124 90.4068C124 109.409 108.778 86.7576 90 86.7576C71.2223 86.7576 56 109.409 56 90.4068C56 71.4045 71.2223 56 90 56C108.778 56 124 71.4045 124 90.4068Z" fill="url(#paint16_linear_43_16989)"/>
<mask id="path-20-outside-2_43_16989" maskUnits="userSpaceOnUse" x="64" y="70" width="53" height="40" fill="black">
<rect fill="white" x="64" y="70" width="53" height="40"/>
<path fill-rule="evenodd" clip-rule="evenodd" d="M77.1795 104.849C77.322 105.263 77.3933 105.47 77.5231 105.623C77.6377 105.758 77.7841 105.863 77.9491 105.927C78.136 106 78.3551 106 78.7932 106H88.8169C89.2544 106 89.4732 106 89.6599 105.927C89.8248 105.863 89.9712 105.759 90.0858 105.624C90.2155 105.471 90.287 105.264 90.4299 104.851L100.312 76.2643C100.576 75.5009 100.708 75.1192 100.634 74.8149C100.569 74.5486 100.405 74.3174 100.174 74.1693C99.9107 74 99.5068 74 98.6991 74H92.163C91.7092 74 91.4822 74 91.2906 74.0771C91.1214 74.1452 90.9725 74.2556 90.8581 74.3976C90.7285 74.5585 90.6624 74.7756 90.5303 75.2098L84.3043 95.6701C84.2501 95.8483 84.0857 95.9701 83.8994 95.9701C83.7141 95.9701 83.5503 95.8495 83.4953 95.6725L77.1311 75.2C76.9972 74.7691 76.9302 74.5537 76.8006 74.3941C76.6861 74.2532 76.5376 74.1439 76.3691 74.0764C76.1782 74 75.9526 74 75.5014 74H68.954C68.1473 74 67.7439 74 67.4806 74.169C67.2501 74.317 67.0854 74.5479 67.0205 74.814C66.9464 75.1179 67.0777 75.4993 67.3402 76.2621L77.1795 104.849ZM104.101 104.293C104.101 104.891 104.101 105.189 104.217 105.418C104.32 105.618 104.483 105.781 104.683 105.884C104.912 106 105.21 106 105.808 106H111.437C112.034 106 112.333 106 112.561 105.884C112.761 105.781 112.925 105.618 113.027 105.418C113.143 105.189 113.143 104.891 113.143 104.293V75.7067C113.143 75.1093 113.143 74.8106 113.027 74.5824C112.925 74.3817 112.761 74.2185 112.561 74.1163C112.333 74 112.034 74 111.437 74H105.808C105.21 74 104.912 74 104.683 74.1163C104.483 74.2185 104.32 74.3817 104.217 74.5824C104.101 74.8106 104.101 75.1093 104.101 75.7067V104.293Z"/>
</mask>
<path fill-rule="evenodd" clip-rule="evenodd" d="M77.1795 104.849C77.322 105.263 77.3933 105.47 77.5231 105.623C77.6377 105.758 77.7841 105.863 77.9491 105.927C78.136 106 78.3551 106 78.7932 106H88.8169C89.2544 106 89.4732 106 89.6599 105.927C89.8248 105.863 89.9712 105.759 90.0858 105.624C90.2155 105.471 90.287 105.264 90.4299 104.851L100.312 76.2643C100.576 75.5009 100.708 75.1192 100.634 74.8149C100.569 74.5486 100.405 74.3174 100.174 74.1693C99.9107 74 99.5068 74 98.6991 74H92.163C91.7092 74 91.4822 74 91.2906 74.0771C91.1214 74.1452 90.9725 74.2556 90.8581 74.3976C90.7285 74.5585 90.6624 74.7756 90.5303 75.2098L84.3043 95.6701C84.2501 95.8483 84.0857 95.9701 83.8994 95.9701C83.7141 95.9701 83.5503 95.8495 83.4953 95.6725L77.1311 75.2C76.9972 74.7691 76.9302 74.5537 76.8006 74.3941C76.6861 74.2532 76.5376 74.1439 76.3691 74.0764C76.1782 74 75.9526 74 75.5014 74H68.954C68.1473 74 67.7439 74 67.4806 74.169C67.2501 74.317 67.0854 74.5479 67.0205 74.814C66.9464 75.1179 67.0777 75.4993 67.3402 76.2621L77.1795 104.849ZM104.101 104.293C104.101 104.891 104.101 105.189 104.217 105.418C104.32 105.618 104.483 105.781 104.683 105.884C104.912 106 105.21 106 105.808 106H111.437C112.034 106 112.333 106 112.561 105.884C112.761 105.781 112.925 105.618 113.027 105.418C113.143 105.189 113.143 104.891 113.143 104.293V75.7067C113.143 75.1093 113.143 74.8106 113.027 74.5824C112.925 74.3817 112.761 74.2185 112.561 74.1163C112.333 74 112.034 74 111.437 74H105.808C105.21 74 104.912 74 104.683 74.1163C104.483 74.2185 104.32 74.3817 104.217 74.5824C104.101 74.8106 104.101 75.1093 104.101 75.7067V104.293Z" fill="#FFF6E3"/>
<path d="M104.683 74.1163L103.321 71.4432L104.683 74.1163ZM104.217 74.5824L101.544 73.2204L104.217 74.5824ZM113.027 74.5824L115.7 73.2204L113.027 74.5824ZM112.561 74.1163L113.923 71.4432L112.561 74.1163ZM104.683 105.884L103.321 108.557L104.683 105.884ZM104.217 105.418L101.544 106.78L104.217 105.418ZM112.561 105.884L113.923 108.557L112.561 105.884ZM113.027 105.418L115.7 106.78L113.027 105.418ZM77.1311 75.2L74.2663 76.0906L77.1311 75.2ZM76.8006 74.3941L79.1291 72.5026L76.8006 74.3941ZM76.3691 74.0764L75.254 76.8615L76.3691 74.0764ZM83.4953 95.6725L86.36 94.782L83.4953 95.6725ZM84.3043 95.6701L87.1744 96.5435L84.3043 95.6701ZM91.2906 74.0771L92.4106 76.8602L91.2906 74.0771ZM90.5303 75.2098L87.6602 74.3365L90.5303 75.2098ZM90.8581 74.3976L88.5216 72.5159L90.8581 74.3976ZM100.312 76.2643L97.4768 75.2841L100.312 76.2643ZM100.634 74.8149L103.549 74.1069L100.634 74.8149ZM100.174 74.1693L98.5525 76.6932L100.174 74.1693ZM77.9491 105.927L79.039 103.132L77.9491 105.927ZM77.1795 104.849L80.0161 103.872L77.1795 104.849ZM77.5231 105.623L75.2349 107.563L77.5231 105.623ZM89.6599 105.927L90.7487 108.723L89.6599 105.927ZM90.0858 105.624L87.7994 103.682L90.0858 105.624ZM88.8169 103H78.7932V109H88.8169V103ZM97.4768 75.2841L87.5946 103.871L93.2653 105.831L103.148 77.2444L97.4768 75.2841ZM92.163 77H98.6991V71H92.163V77ZM87.1744 96.5435L93.4004 76.0832L87.6602 74.3365L81.4343 94.7968L87.1744 96.5435ZM74.2663 76.0906L80.6305 96.5631L86.36 94.782L79.9959 74.3095L74.2663 76.0906ZM68.954 77H75.5014V71H68.954V77ZM80.0161 103.872L70.1769 75.2857L64.5035 77.2385L74.3428 105.825L80.0161 103.872ZM111.437 103H105.808V109H111.437V103ZM110.143 75.7067V104.293H116.143V75.7067H110.143ZM105.808 77H111.437V71H105.808V77ZM107.101 104.293V75.7067H101.101V104.293H107.101ZM105.808 71C105.559 71 105.191 70.9977 104.863 71.0245C104.499 71.0542 103.929 71.1337 103.321 71.4432L106.045 76.7893C105.666 76.9826 105.359 77.0039 105.351 77.0046C105.346 77.005 105.372 77.0028 105.459 77.0014C105.546 77.0001 105.652 77 105.808 77V71ZM107.101 75.7067C107.101 75.5505 107.101 75.4454 107.102 75.3582C107.104 75.2709 107.106 75.2447 107.106 75.2504C107.105 75.258 107.084 75.5651 106.89 75.9444L101.544 73.2204C101.235 73.8279 101.155 74.3984 101.126 74.7618C101.099 75.0902 101.101 75.4575 101.101 75.7067H107.101ZM103.321 71.4432C102.556 71.8331 101.934 72.4552 101.544 73.2204L106.89 75.9444C106.705 76.3082 106.409 76.6039 106.045 76.7893L103.321 71.4432ZM116.143 75.7067C116.143 75.4575 116.146 75.0902 116.119 74.7618C116.089 74.3984 116.009 73.8279 115.7 73.2204L110.354 75.9444C110.161 75.5651 110.139 75.258 110.139 75.2504C110.138 75.2447 110.14 75.2709 110.142 75.3582C110.143 75.4454 110.143 75.5505 110.143 75.7067H116.143ZM111.437 77C111.593 77 111.698 77.0001 111.785 77.0014C111.872 77.0028 111.898 77.005 111.893 77.0046C111.885 77.0039 111.578 76.9826 111.199 76.7893L113.923 71.4432C113.315 71.1337 112.745 71.0542 112.381 71.0245C112.053 70.9977 111.686 71 111.437 71V77ZM115.7 73.2204C115.31 72.4552 114.688 71.8331 113.923 71.4432L111.199 76.7893C110.835 76.6039 110.539 76.3082 110.354 75.9444L115.7 73.2204ZM105.808 103C105.652 103 105.546 103 105.459 102.999C105.372 102.997 105.346 102.995 105.351 102.995C105.359 102.996 105.666 103.017 106.045 103.211L103.321 108.557C103.929 108.866 104.499 108.946 104.863 108.976C105.191 109.002 105.559 109 105.808 109V103ZM101.101 104.293C101.101 104.543 101.099 104.91 101.126 105.238C101.155 105.602 101.235 106.172 101.544 106.78L106.89 104.056C107.084 104.435 107.105 104.742 107.106 104.75C107.106 104.755 107.104 104.729 107.102 104.642C107.101 104.555 107.101 104.45 107.101 104.293H101.101ZM106.045 103.211C106.409 103.396 106.705 103.692 106.89 104.056L101.544 106.78C101.934 107.545 102.556 108.167 103.321 108.557L106.045 103.211ZM111.437 109C111.686 109 112.053 109.002 112.381 108.976C112.745 108.946 113.315 108.866 113.923 108.557L111.199 103.211C111.578 103.017 111.885 102.996 111.893 102.995C111.898 102.995 111.872 102.997 111.785 102.999C111.698 103 111.593 103 111.437 103V109ZM110.143 104.293C110.143 104.45 110.143 104.555 110.142 104.642C110.14 104.729 110.138 104.755 110.139 104.75C110.139 104.742 110.161 104.435 110.354 104.056L115.7 106.78C116.009 106.172 116.089 105.602 116.119 105.238C116.146 104.91 116.143 104.543 116.143 104.293H110.143ZM113.923 108.557C114.688 108.167 115.31 107.545 115.7 106.78L110.354 104.056C110.539 103.692 110.835 103.396 111.199 103.211L113.923 108.557ZM68.954 71C68.6072 71 68.1452 70.9971 67.7444 71.0332C67.3295 71.0706 66.5931 71.1738 65.86 71.6444L69.1012 76.6936C68.865 76.8453 68.6471 76.925 68.4954 76.9663C68.3564 77.004 68.2698 77.0102 68.2826 77.009C68.2944 77.008 68.3458 77.0043 68.4714 77.0022C68.5961 77.0001 68.7448 77 68.954 77V71ZM70.1769 75.2857C70.1088 75.088 70.0605 74.9473 70.0219 74.8288C69.9831 74.7093 69.9698 74.6595 69.9669 74.648C69.9639 74.6355 69.9862 74.7195 69.9957 74.8631C70.0061 75.02 70.0016 75.252 69.9351 75.5247L64.1059 74.1032C63.8995 74.9496 64.0416 75.6795 64.1413 76.0839C64.2376 76.4747 64.3907 76.9106 64.5035 77.2385L70.1769 75.2857ZM65.86 71.6444C64.9813 72.2085 64.3533 73.0888 64.1059 74.1032L69.9351 75.5247C69.8175 76.007 69.5189 76.4255 69.1012 76.6936L65.86 71.6444ZM79.9959 74.3095C79.9397 74.1286 79.7118 73.2199 79.1291 72.5026L74.472 76.2857C74.266 76.032 74.1792 75.8109 74.1685 75.7835C74.1642 75.7723 74.1694 75.7848 74.1888 75.8443C74.2083 75.9042 74.2311 75.9772 74.2663 76.0906L79.9959 74.3095ZM75.5014 77C75.6201 77 75.6966 77.0001 75.7596 77.0009C75.8222 77.0018 75.8356 77.0031 75.8237 77.0023C75.7943 77.0002 75.5574 76.983 75.254 76.8615L77.4841 71.2913C76.6262 70.9478 75.6908 71 75.5014 71V77ZM79.1291 72.5026C78.6928 71.9654 78.1266 71.5485 77.4841 71.2913L75.254 76.8615C74.9486 76.7392 74.6795 76.541 74.472 76.2857L79.1291 72.5026ZM83.8994 92.9701C85.0279 92.9701 86.025 93.7044 86.36 94.782L80.6305 96.5631C81.0755 97.9947 82.4002 98.9701 83.8994 98.9701V92.9701ZM81.4343 94.7968C81.7644 93.7117 82.7652 92.9701 83.8994 92.9701V98.9701C85.4062 98.9701 86.7357 97.985 87.1744 96.5435L81.4343 94.7968ZM92.163 71C91.9727 71 91.0321 70.9473 90.1705 71.2941L92.4106 76.8602C92.1058 76.9829 91.8676 77.0002 91.8384 77.0023C91.8266 77.0031 91.8402 77.0018 91.9032 77.0009C91.9666 77.0001 92.0436 77 92.163 77V71ZM93.4004 76.0832C93.4351 75.969 93.4576 75.8953 93.4769 75.8349C93.496 75.7749 93.5013 75.7622 93.497 75.7733C93.4866 75.8006 93.4007 76.0234 93.1945 76.2793L88.5216 72.5159C87.939 73.2392 87.7156 74.1544 87.6602 74.3365L93.4004 76.0832ZM90.1705 71.2941C89.5255 71.5537 88.9577 71.9743 88.5216 72.5159L93.1945 76.2793C92.9872 76.5368 92.7173 76.7368 92.4106 76.8602L90.1705 71.2941ZM103.148 77.2444C103.261 76.9163 103.415 76.4802 103.512 76.0892C103.612 75.6848 103.755 74.9543 103.549 74.1069L97.7188 75.5229C97.6525 75.2499 97.6483 75.0176 97.6589 74.8606C97.6685 74.7169 97.691 74.633 97.6879 74.6456C97.6851 74.6572 97.6716 74.7071 97.6326 74.8267C97.5938 74.9454 97.5452 75.0862 97.4768 75.2841L103.148 77.2444ZM98.6991 77C98.9086 77 99.0575 77.0001 99.1823 77.0022C99.3081 77.0044 99.3597 77.008 99.3715 77.0091C99.3845 77.0102 99.2979 77.0041 99.1589 76.9663C99.007 76.925 98.7889 76.8451 98.5525 76.6932L101.796 71.6453C101.062 71.1739 100.325 71.0706 99.9099 71.0333C99.5088 70.9971 99.0463 71 98.6991 71V77ZM103.549 74.1069C103.303 73.0916 102.675 72.2101 101.796 71.6453L98.5525 76.6932C98.1346 76.4247 97.8361 76.0056 97.7188 75.5229L103.549 74.1069ZM78.7932 103C78.6779 103 78.6038 103 78.5429 102.999C78.4825 102.998 78.4699 102.997 78.4821 102.998C78.5126 103 78.743 103.017 79.039 103.132L76.8593 108.722C77.699 109.05 78.6083 109 78.7932 109V103ZM74.3428 105.825C74.403 106 74.652 106.876 75.2349 107.563L79.8112 103.683C80.0167 103.925 80.1075 104.138 80.1193 104.166C80.1241 104.177 80.1189 104.166 80.0984 104.109C80.0778 104.051 80.0537 103.981 80.0161 103.872L74.3428 105.825ZM79.039 103.132C79.3382 103.249 79.6036 103.438 79.8112 103.683L75.2349 107.563C75.6717 108.079 76.23 108.477 76.8593 108.722L79.039 103.132ZM88.8169 109C89.0016 109 89.9097 109.049 90.7487 108.723L88.5712 103.132C88.8669 103.017 89.097 103 89.1275 102.998C89.1397 102.997 89.1272 102.998 89.0668 102.999C89.006 103 88.9321 103 88.8169 103V109ZM87.5946 103.871C87.5569 103.98 87.5327 104.05 87.5121 104.107C87.4916 104.163 87.4863 104.175 87.4911 104.164C87.5031 104.135 87.594 103.923 87.7994 103.682L92.3721 107.566C92.955 106.88 93.2049 106.006 93.2653 105.831L87.5946 103.871ZM90.7487 108.723C91.3774 108.478 91.9353 108.08 92.3721 107.566L87.7994 103.682C88.0071 103.437 88.2723 103.248 88.5712 103.132L90.7487 108.723Z" fill="black" fill-opacity="0.12" style="mix-blend-mode:plus-darker" mask="url(#path-20-outside-2_43_16989)"/>
<mask id="path-22-inside-3_43_16989" fill="white">
<path fill-rule="evenodd" clip-rule="evenodd" d="M77.1795 104.849C77.322 105.263 77.3933 105.47 77.5231 105.623C77.6377 105.758 77.7841 105.863 77.9491 105.927C78.136 106 78.3551 106 78.7932 106H88.8169C89.2544 106 89.4732 106 89.6599 105.927C89.8248 105.863 89.9712 105.759 90.0858 105.624C90.2155 105.471 90.287 105.264 90.4299 104.851L100.312 76.2643C100.576 75.5009 100.708 75.1192 100.634 74.8149C100.569 74.5486 100.405 74.3174 100.174 74.1693C99.9107 74 99.5068 74 98.6991 74H92.163C91.7092 74 91.4822 74 91.2906 74.0771C91.1214 74.1452 90.9725 74.2556 90.8581 74.3976C90.7285 74.5585 90.6624 74.7756 90.5303 75.2098L84.3043 95.6701C84.2501 95.8483 84.0857 95.9701 83.8994 95.9701C83.7141 95.9701 83.5503 95.8495 83.4953 95.6725L77.1311 75.2C76.9972 74.7691 76.9302 74.5537 76.8006 74.3941C76.6861 74.2532 76.5376 74.1439 76.3691 74.0764C76.1782 74 75.9526 74 75.5014 74H68.954C68.1473 74 67.7439 74 67.4806 74.169C67.2501 74.317 67.0854 74.5479 67.0205 74.814C66.9464 75.1179 67.0777 75.4993 67.3402 76.2621L77.1795 104.849ZM104.101 104.293C104.101 104.891 104.101 105.189 104.217 105.418C104.32 105.618 104.483 105.781 104.683 105.884C104.912 106 105.21 106 105.808 106H111.437C112.034 106 112.333 106 112.561 105.884C112.761 105.781 112.925 105.618 113.027 105.418C113.143 105.189 113.143 104.891 113.143 104.293V75.7067C113.143 75.1093 113.143 74.8106 113.027 74.5824C112.925 74.3817 112.761 74.2185 112.561 74.1163C112.333 74 112.034 74 111.437 74H105.808C105.21 74 104.912 74 104.683 74.1163C104.483 74.2185 104.32 74.3817 104.217 74.5824C104.101 74.8106 104.101 75.1093 104.101 75.7067V104.293Z"/>
</mask>
<path d="M104.683 74.1163L104.229 73.2253L104.683 74.1163ZM104.217 74.5824L103.326 74.1284L104.217 74.5824ZM113.027 74.5824L113.918 74.1284L113.027 74.5824ZM112.561 74.1163L113.015 73.2253L112.561 74.1163ZM104.683 105.884L104.229 106.775L104.683 105.884ZM104.217 105.418L103.326 105.872L104.217 105.418ZM112.561 105.884L113.015 106.775L112.561 105.884ZM113.027 105.418L113.918 105.872L113.027 105.418ZM77.1311 75.2L76.1762 75.4969L77.1311 75.2ZM76.8006 74.3941L77.5767 73.7636L76.8006 74.3941ZM76.3691 74.0764L75.9974 75.0048L76.3691 74.0764ZM83.4953 95.6725L84.4502 95.3757L83.4953 95.6725ZM84.3043 95.6701L85.261 95.9612L84.3043 95.6701ZM91.2906 74.0771L91.6639 75.0048L91.2906 74.0771ZM90.5303 75.2098L89.5736 74.9187L90.5303 75.2098ZM90.8581 74.3976L90.0792 73.7704L90.8581 74.3976ZM100.312 76.2643L99.367 75.9376L100.312 76.2643ZM100.634 74.8149L101.606 74.5789L100.634 74.8149ZM100.174 74.1693L99.6336 75.0106L100.174 74.1693ZM77.9491 105.927L78.3124 104.995L77.9491 105.927ZM77.1795 104.849L78.125 104.523L77.1795 104.849ZM77.5231 105.623L76.7604 106.27L77.5231 105.623ZM89.6599 105.927L90.0228 106.859L89.6599 105.927ZM90.0858 105.624L89.3236 104.976L90.0858 105.624ZM88.8169 105H78.7932V107H88.8169V105ZM99.367 75.9376L89.4848 104.524L91.375 105.178L101.257 76.591L99.367 75.9376ZM92.163 75H98.6991V73H92.163V75ZM85.261 95.9612L91.487 75.5009L89.5736 74.9187L83.3476 95.379L85.261 95.9612ZM76.1762 75.4969L82.5403 95.9694L84.4502 95.3757L78.086 74.9032L76.1762 75.4969ZM68.954 75H75.5014V73H68.954V75ZM78.125 104.523L68.2858 75.9367L66.3946 76.5876L76.2339 105.174L78.125 104.523ZM111.437 105H105.808V107H111.437V105ZM112.143 75.7067V104.293H114.143V75.7067H112.143ZM105.808 75H111.437V73H105.808V75ZM105.101 104.293V75.7067H103.101V104.293H105.101ZM105.808 73C105.526 73 105.254 72.9992 105.026 73.0179C104.786 73.0374 104.508 73.0833 104.229 73.2253L105.137 75.0073C105.087 75.0329 105.073 75.0207 105.189 75.0112C105.316 75.0008 105.493 75 105.808 75V73ZM105.101 75.7067C105.101 75.3915 105.102 75.2152 105.112 75.0875C105.122 74.9715 105.134 74.986 105.108 75.0364L103.326 74.1284C103.184 74.407 103.138 74.6849 103.119 74.9247C103.1 75.1527 103.101 75.4245 103.101 75.7067H105.101ZM104.229 73.2253C103.841 73.4234 103.524 73.7396 103.326 74.1284L105.108 75.0364C105.115 75.0239 105.125 75.0137 105.137 75.0073L104.229 73.2253ZM114.143 75.7067C114.143 75.4245 114.144 75.1527 114.125 74.9247C114.106 74.6849 114.06 74.407 113.918 74.1284L112.136 75.0364C112.11 74.986 112.122 74.9715 112.132 75.0875C112.142 75.2152 112.143 75.3915 112.143 75.7067H114.143ZM111.437 75C111.752 75 111.928 75.0008 112.056 75.0112C112.172 75.0207 112.157 75.0329 112.107 75.0073L113.015 73.2253C112.736 73.0833 112.458 73.0374 112.219 73.0179C111.99 72.9992 111.719 73 111.437 73V75ZM113.918 74.1284C113.72 73.7396 113.404 73.4234 113.015 73.2253L112.107 75.0073C112.119 75.0137 112.13 75.0239 112.136 75.0364L113.918 74.1284ZM105.808 105C105.493 105 105.316 104.999 105.189 104.989C105.073 104.979 105.087 104.967 105.137 104.993L104.229 106.775C104.508 106.917 104.786 106.963 105.026 106.982C105.254 107.001 105.526 107 105.808 107V105ZM103.101 104.293C103.101 104.576 103.1 104.847 103.119 105.075C103.138 105.315 103.184 105.593 103.326 105.872L105.108 104.964C105.134 105.014 105.122 105.029 105.112 104.912C105.102 104.785 105.101 104.609 105.101 104.293H103.101ZM105.137 104.993C105.125 104.986 105.115 104.976 105.108 104.964L103.326 105.872C103.524 106.26 103.841 106.577 104.229 106.775L105.137 104.993ZM111.437 107C111.719 107 111.99 107.001 112.219 106.982C112.458 106.963 112.736 106.917 113.015 106.775L112.107 104.993C112.157 104.967 112.172 104.979 112.056 104.989C111.928 104.999 111.752 105 111.437 105V107ZM112.143 104.293C112.143 104.609 112.142 104.785 112.132 104.912C112.122 105.029 112.11 105.014 112.136 104.964L113.918 105.872C114.06 105.593 114.106 105.315 114.125 105.075C114.144 104.847 114.143 104.576 114.143 104.293H112.143ZM113.015 106.775C113.404 106.577 113.72 106.26 113.918 105.872L112.136 104.964C112.13 104.976 112.119 104.986 112.107 104.993L113.015 106.775ZM68.954 73C68.5695 73 68.2138 72.999 67.9238 73.0252C67.6291 73.0517 67.2725 73.1143 66.9404 73.3275L68.0208 75.0106C67.952 75.0548 67.9287 75.0328 68.1032 75.0171C68.2824 75.001 68.5317 75 68.954 75V73ZM68.2858 75.9367C68.1483 75.5374 68.0681 75.3013 68.0251 75.1267C67.9831 74.9566 68.0114 74.9714 67.9921 75.0509L66.049 74.577C65.9555 74.9605 66.0124 75.318 66.0832 75.6053C66.1529 75.888 66.2695 76.224 66.3946 76.5876L68.2858 75.9367ZM66.9404 73.3275C66.4939 73.6141 66.1747 74.0615 66.049 74.577L67.9921 75.0509C67.9961 75.0342 68.0064 75.0198 68.0208 75.0106L66.9404 73.3275ZM78.086 74.9032C77.978 74.5556 77.8574 74.1091 77.5767 73.7636L76.0244 75.0246C75.9989 74.9933 76.0028 74.9821 76.0323 75.058C76.0664 75.1457 76.1051 75.2683 76.1762 75.4969L78.086 74.9032ZM75.5014 75C75.7407 75 75.8694 75.0006 75.9632 75.0071C76.0445 75.0128 76.0349 75.0198 75.9974 75.0048L76.7408 73.1481C76.3275 72.9826 75.8653 73 75.5014 73V75ZM77.5767 73.7636C77.355 73.4906 77.0673 73.2788 76.7408 73.1481L75.9974 75.0048C76.0079 75.009 76.0172 75.0158 76.0244 75.0246L77.5767 73.7636ZM83.8994 94.9701C84.152 94.9701 84.3752 95.1345 84.4502 95.3757L82.5403 95.9694C82.7254 96.5646 83.2761 96.9701 83.8994 96.9701V94.9701ZM83.3476 95.379C83.4215 95.1361 83.6455 94.9701 83.8994 94.9701V96.9701C84.5259 96.9701 85.0786 96.5605 85.261 95.9612L83.3476 95.379ZM92.163 73C91.797 73 91.3322 72.9824 90.9172 73.1494L91.6639 75.0048C91.6262 75.02 91.6166 75.0129 91.6985 75.0072C91.7928 75.0006 91.9223 75 92.163 75V73ZM91.487 75.5009C91.5571 75.2706 91.5953 75.1469 91.6291 75.0586C91.6584 74.9819 91.6624 74.9932 91.6369 75.0249L90.0792 73.7704C89.7987 74.1187 89.6802 74.5685 89.5736 74.9187L91.487 75.5009ZM90.9172 73.1494C90.5894 73.2814 90.3009 73.4951 90.0792 73.7704L91.6369 75.0249C91.644 75.016 91.6533 75.0091 91.6639 75.0048L90.9172 73.1494ZM101.257 76.591C101.383 76.2272 101.5 75.8909 101.57 75.608C101.642 75.3206 101.699 74.9628 101.606 74.5789L99.6623 75.0509C99.643 74.9713 99.6714 74.9565 99.6292 75.1268C99.5858 75.3017 99.5051 75.538 99.367 75.9376L101.257 76.591ZM98.6991 75C99.1219 75 99.3716 75.001 99.551 75.0171C99.7258 75.0329 99.7025 75.0549 99.6336 75.0106L100.715 73.328C100.382 73.1144 100.025 73.0518 99.7305 73.0252C99.4402 72.999 99.0841 73 98.6991 73V75ZM101.606 74.5789C101.481 74.0629 101.161 73.615 100.715 73.328L99.6336 75.0106C99.648 75.0198 99.6583 75.0343 99.6623 75.0509L101.606 74.5789ZM78.7932 105C78.5607 105 78.4362 104.999 78.3454 104.993C78.2669 104.988 78.2761 104.981 78.3124 104.995L77.5859 106.859C77.9904 107.017 78.4395 107 78.7932 107V105ZM76.2339 105.174C76.349 105.509 76.4796 105.939 76.7604 106.27L78.2858 104.976C78.311 105.006 78.3078 105.017 78.2772 104.945C78.2417 104.861 78.2007 104.743 78.125 104.523L76.2339 105.174ZM78.3124 104.995C78.3021 104.991 78.293 104.985 78.2858 104.976L76.7604 106.27C76.9823 106.532 77.2661 106.734 77.5859 106.859L78.3124 104.995ZM88.8169 107C89.1702 107 89.6187 107.016 90.0228 106.859L89.297 104.995C89.3333 104.981 89.3425 104.988 89.2641 104.993C89.1734 104.999 89.0491 105 88.8169 105V107ZM89.4848 104.524C89.4089 104.744 89.3678 104.861 89.3323 104.945C89.3016 105.017 89.2984 105.006 89.3236 104.976L90.8479 106.271C91.1287 105.941 91.2596 105.512 91.375 105.178L89.4848 104.524ZM90.0228 106.859C90.3424 106.735 90.6259 106.533 90.8479 106.271L89.3236 104.976C89.3165 104.985 89.3073 104.991 89.297 104.995L90.0228 106.859Z" fill="white" fill-opacity="0.25" mask="url(#path-22-inside-3_43_16989)"/>
</g>
<defs>
<filter id="filter0_ii_43_16989" x="125" y="90" width="36" height="39" filterUnits="userSpaceOnUse" color-interpolation-filters="sRGB">
<feFlood flood-opacity="0" result="BackgroundImageFix"/>
<feBlend mode="normal" in="SourceGraphic" in2="BackgroundImageFix" result="shape"/>
<feColorMatrix in="SourceAlpha" type="matrix" values="0 0 0 0 0 0 0 0 0 0 0 0 0 0 0 0 0 0 127 0" result="hardAlpha"/>
<feOffset dx="-1" dy="-16"/>
<feGaussianBlur stdDeviation="0.5"/>
<feComposite in2="hardAlpha" operator="arithmetic" k2="-1" k3="1"/>
<feColorMatrix type="matrix" values="0 0 0 0 0.310612 0 0 0 0 0.300895 0 0 0 0 0.300895 0 0 0 0.15 0"/>
<feBlend mode="color-burn" in2="shape" result="effect1_innerShadow_43_16989"/>
<feColorMatrix in="SourceAlpha" type="matrix" values="0 0 0 0 0 0 0 0 0 0 0 0 0 0 0 0 0 0 127 0" result="hardAlpha"/>
<feOffset dx="-1" dy="-4"/>
<feGaussianBlur stdDeviation="2"/>
<feComposite in2="hardAlpha" operator="arithmetic" k2="-1" k3="1"/>
<feColorMatrix type="matrix" values="0 0 0 0 0 0 0 0 0 0 0 0 0 0 0 0 0 0 0.5 0"/>
<feBlend mode="overlay" in2="effect1_innerShadow_43_16989" result="effect2_innerShadow_43_16989"/>
</filter>
<filter id="filter1_ii_43_16989" x="128" y="65" width="44" height="48" filterUnits="userSpaceOnUse" color-interpolation-filters="sRGB">
<feFlood flood-opacity="0" result="BackgroundImageFix"/>
<feBlend mode="normal" in="SourceGraphic" in2="BackgroundImageFix" result="shape"/>
<feColorMatrix in="SourceAlpha" type="matrix" values="0 0 0 0 0 0 0 0 0 0 0 0 0 0 0 0 0 0 127 0" result="hardAlpha"/>
<feOffset dx="-1" dy="-16"/>
<feGaussianBlur stdDeviation="0.5"/>
<feComposite in2="hardAlpha" operator="arithmetic" k2="-1" k3="1"/>
<feColorMatrix type="matrix" values="0 0 0 0 0.310612 0 0 0 0 0.300895 0 0 0 0 0.300895 0 0 0 0.15 0"/>
<feBlend mode="color-burn" in2="shape" result="effect1_innerShadow_43_16989"/>
<feColorMatrix in="SourceAlpha" type="matrix" values="0 0 0 0 0 0 0 0 0 0 0 0 0 0 0 0 0 0 127 0" result="hardAlpha"/>
<feOffset dx="-1" dy="-4"/>
<feGaussianBlur stdDeviation="2"/>
<feComposite in2="hardAlpha" operator="arithmetic" k2="-1" k3="1"/>
<feColorMatrix type="matrix" values="0 0 0 0 0 0 0 0 0 0 0 0 0 0 0 0 0 0 0.5 0"/>
<feBlend mode="overlay" in2="effect1_innerShadow_43_16989" result="effect2_innerShadow_43_16989"/>
</filter>
<filter id="filter2_ii_43_16989" x="121" y="35" width="55" height="59" filterUnits="userSpaceOnUse" color-interpolation-filters="sRGB">
<feFlood flood-opacity="0" result="BackgroundImageFix"/>
<feBlend mode="normal" in="SourceGraphic" in2="BackgroundImageFix" result="shape"/>
<feColorMatrix in="SourceAlpha" type="matrix" values="0 0 0 0 0 0 0 0 0 0 0 0 0 0 0 0 0 0 127 0" result="hardAlpha"/>
<feOffset dx="-1" dy="-16"/>
<feGaussianBlur stdDeviation="0.5"/>
<feComposite in2="hardAlpha" operator="arithmetic" k2="-1" k3="1"/>
<feColorMatrix type="matrix" values="0 0 0 0 0.310612 0 0 0 0 0.300895 0 0 0 0 0.300895 0 0 0 0.15 0"/>
<feBlend mode="color-burn" in2="shape" result="effect1_innerShadow_43_16989"/>
<feColorMatrix in="SourceAlpha" type="matrix" values="0 0 0 0 0 0 0 0 0 0 0 0 0 0 0 0 0 0 127 0" result="hardAlpha"/>
<feOffset dx="-1" dy="-4"/>
<feGaussianBlur stdDeviation="2"/>
<feComposite in2="hardAlpha" operator="arithmetic" k2="-1" k3="1"/>
<feColorMatrix type="matrix" values="0 0 0 0 0 0 0 0 0 0 0 0 0 0 0 0 0 0 0.5 0"/>
<feBlend mode="overlay" in2="effect1_innerShadow_43_16989" result="effect2_innerShadow_43_16989"/>
</filter>
<filter id="filter3_ii_43_16989" x="18" y="90" width="36" height="39" filterUnits="userSpaceOnUse" color-interpolation-filters="sRGB">
<feFlood flood-opacity="0" result="BackgroundImageFix"/>
<feBlend mode="normal" in="SourceGraphic" in2="BackgroundImageFix" result="shape"/>
<feColorMatrix in="SourceAlpha" type="matrix" values="0 0 0 0 0 0 0 0 0 0 0 0 0 0 0 0 0 0 127 0" result="hardAlpha"/>
<feOffset dx="-1" dy="-16"/>
<feGaussianBlur stdDeviation="0.5"/>
<feComposite in2="hardAlpha" operator="arithmetic" k2="-1" k3="1"/>
<feColorMatrix type="matrix" values="0 0 0 0 0.310612 0 0 0 0 0.300895 0 0 0 0 0.300895 0 0 0 0.15 0"/>
<feBlend mode="color-burn" in2="shape" result="effect1_innerShadow_43_16989"/>
<feColorMatrix in="SourceAlpha" type="matrix" values="0 0 0 0 0 0 0 0 0 0 0 0 0 0 0 0 0 0 127 0" result="hardAlpha"/>
<feOffset dx="-1" dy="-4"/>
<feGaussianBlur stdDeviation="2"/>
<feComposite in2="hardAlpha" operator="arithmetic" k2="-1" k3="1"/>
<feColorMatrix type="matrix" values="0 0 0 0 0 0 0 0 0 0 0 0 0 0 0 0 0 0 0.5 0"/>
<feBlend mode="overlay" in2="effect1_innerShadow_43_16989" result="effect2_innerShadow_43_16989"/>
</filter>
<filter id="filter4_ii_43_16989" x="7" y="65" width="44" height="48" filterUnits="userSpaceOnUse" color-interpolation-filters="sRGB">
<feFlood flood-opacity="0" result="BackgroundImageFix"/>
<feBlend mode="normal" in="SourceGraphic" in2="BackgroundImageFix" result="shape"/>
<feColorMatrix in="SourceAlpha" type="matrix" values="0 0 0 0 0 0 0 0 0 0 0 0 0 0 0 0 0 0 127 0" result="hardAlpha"/>
<feOffset dx="-1" dy="-16"/>
<feGaussianBlur stdDeviation="0.5"/>
<feComposite in2="hardAlpha" operator="arithmetic" k2="-1" k3="1"/>
<feColorMatrix type="matrix" values="0 0 0 0 0.310612 0 0 0 0 0.300895 0 0 0 0 0.300895 0 0 0 0.15 0"/>
<feBlend mode="color-burn" in2="shape" result="effect1_innerShadow_43_16989"/>
<feColorMatrix in="SourceAlpha" type="matrix" values="0 0 0 0 0 0 0 0 0 0 0 0 0 0 0 0 0 0 127 0" result="hardAlpha"/>
<feOffset dx="-1" dy="-4"/>
<feGaussianBlur stdDeviation="2"/>
<feComposite in2="hardAlpha" operator="arithmetic" k2="-1" k3="1"/>
<feColorMatrix type="matrix" values="0 0 0 0 0 0 0 0 0 0 0 0 0 0 0 0 0 0 0.5 0"/>
<feBlend mode="overlay" in2="effect1_innerShadow_43_16989" result="effect2_innerShadow_43_16989"/>
</filter>
<filter id="filter5_ii_43_16989" x="3" y="35" width="55" height="59" filterUnits="userSpaceOnUse" color-interpolation-filters="sRGB">
<feFlood flood-opacity="0" result="BackgroundImageFix"/>
<feBlend mode="normal" in="SourceGraphic" in2="BackgroundImageFix" result="shape"/>
<feColorMatrix in="SourceAlpha" type="matrix" values="0 0 0 0 0 0 0 0 0 0 0 0 0 0 0 0 0 0 127 0" result="hardAlpha"/>
<feOffset dx="-1" dy="-16"/>
<feGaussianBlur stdDeviation="0.5"/>
<feComposite in2="hardAlpha" operator="arithmetic" k2="-1" k3="1"/>
<feColorMatrix type="matrix" values="0 0 0 0 0.310612 0 0 0 0 0.300895 0 0 0 0 0.300895 0 0 0 0.15 0"/>
<feBlend mode="color-burn" in2="shape" result="effect1_innerShadow_43_16989"/>
<feColorMatrix in="SourceAlpha" type="matrix" values="0 0 0 0 0 0 0 0 0 0 0 0 0 0 0 0 0 0 127 0" result="hardAlpha"/>
<feOffset dx="-1" dy="-4"/>
<feGaussianBlur stdDeviation="2"/>
<feComposite in2="hardAlpha" operator="arithmetic" k2="-1" k3="1"/>
<feColorMatrix type="matrix" values="0 0 0 0 0 0 0 0 0 0 0 0 0 0 0 0 0 0 0.5 0"/>
<feBlend mode="overlay" in2="effect1_innerShadow_43_16989" result="effect2_innerShadow_43_16989"/>
</filter>
<filter id="filter6_d_43_16989" x="55" y="111.723" width="71" height="59.625" filterUnits="userSpaceOnUse" color-interpolation-filters="sRGB">
<feFlood flood-opacity="0" result="BackgroundImageFix"/>
<feColorMatrix in="SourceAlpha" type="matrix" values="0 0 0 0 0 0 0 0 0 0 0 0 0 0 0 0 0 0 127 0" result="hardAlpha"/>
<feOffset dy="4"/>
<feGaussianBlur stdDeviation="2"/>
<feComposite in2="hardAlpha" operator="out"/>
<feColorMatrix type="matrix" values="0 0 0 0 0 0 0 0 0 0 0 0 0 0 0 0 0 0 0.25 0"/>
<feBlend mode="color-burn" in2="BackgroundImageFix" result="effect1_dropShadow_43_16989"/>
<feBlend mode="normal" in="SourceGraphic" in2="effect1_dropShadow_43_16989" result="shape"/>
</filter>
<filter id="filter7_d_43_16989" x="30" y="32" width="120" height="120" filterUnits="userSpaceOnUse" color-interpolation-filters="sRGB">
<feFlood flood-opacity="0" result="BackgroundImageFix"/>
<feColorMatrix in="SourceAlpha" type="matrix" values="0 0 0 0 0 0 0 0 0 0 0 0 0 0 0 0 0 0 127 0" result="hardAlpha"/>
<feOffset dy="2"/>
<feGaussianBlur stdDeviation="3"/>
<feComposite in2="hardAlpha" operator="out"/>
<feColorMatrix type="matrix" values="0 0 0 0 0 0 0 0 0 0 0 0 0 0 0 0 0 0 0.5 0"/>
<feBlend mode="color-burn" in2="BackgroundImageFix" result="effect1_dropShadow_43_16989"/>
<feBlend mode="normal" in="SourceGraphic" in2="effect1_dropShadow_43_16989" result="shape"/>
</filter>
<filter id="filter8_i_43_16989" x="48" y="48" width="88" height="90" filterUnits="userSpaceOnUse" color-interpolation-filters="sRGB">
<feFlood flood-opacity="0" result="BackgroundImageFix"/>
<feBlend mode="normal" in="SourceGraphic" in2="BackgroundImageFix" result="shape"/>
<feColorMatrix in="SourceAlpha" type="matrix" values="0 0 0 0 0 0 0 0 0 0 0 0 0 0 0 0 0 0 127 0" result="hardAlpha"/>
<feOffset dx="4" dy="6"/>
<feGaussianBlur stdDeviation="5"/>
<feComposite in2="hardAlpha" operator="arithmetic" k2="-1" k3="1"/>
<feColorMatrix type="matrix" values="0 0 0 0 0 0 0 0 0 0 0 0 0 0 0 0 0 0 0.2 0"/>
<feBlend mode="plus-darker" in2="shape" result="effect1_innerShadow_43_16989"/>
</filter>
<linearGradient id="paint0_linear_43_16989" x1="160.11" y1="94.7721" x2="140.996" y2="126.291" gradientUnits="userSpaceOnUse">
<stop stop-color="#FFDD85"/>
<stop offset="1" stop-color="#FFA300"/>
</linearGradient>
<linearGradient id="paint1_linear_43_16989" x1="170.907" y1="69.9706" x2="146.626" y2="109.1" gradientUnits="userSpaceOnUse">
<stop stop-color="#FFDD85"/>
<stop offset="1" stop-color="#FFA300"/>
</linearGradient>
<linearGradient id="paint2_linear_43_16989" x1="174.627" y1="40.2132" x2="144.339" y2="89.2504" gradientUnits="userSpaceOnUse">
<stop stop-color="#FFDD85"/>
<stop offset="1" stop-color="#FFA300"/>
</linearGradient>
<linearGradient id="paint3_linear_43_16989" x1="19.8896" y1="94.7721" x2="39.0039" y2="126.291" gradientUnits="userSpaceOnUse">
<stop stop-color="#FFDD85"/>
<stop offset="1" stop-color="#FFA300"/>
</linearGradient>
<linearGradient id="paint4_linear_43_16989" x1="9.09295" y1="69.9706" x2="33.374" y2="109.1" gradientUnits="userSpaceOnUse">
<stop stop-color="#FFDD85"/>
<stop offset="1" stop-color="#FFA300"/>
</linearGradient>
<linearGradient id="paint5_linear_43_16989" x1="5.37254" y1="40.2132" x2="35.6611" y2="89.2504" gradientUnits="userSpaceOnUse">
<stop stop-color="#FFDD85"/>
<stop offset="1" stop-color="#FFA300"/>
</linearGradient>
<linearGradient id="paint6_linear_43_16989" x1="88.1675" y1="160.816" x2="87.4573" y2="136.671" gradientUnits="userSpaceOnUse">
<stop stop-color="#DCB6FF"/>
<stop offset="1" stop-color="#A35DFF"/>
</linearGradient>
<linearGradient id="paint7_linear_43_16989" x1="99.8847" y1="151.229" x2="91.363" y2="141.997" gradientUnits="userSpaceOnUse">
<stop stop-color="#BC88FF"/>
<stop offset="1" stop-color="#5F24DA"/>
</linearGradient>
<linearGradient id="paint8_linear_43_16989" x1="91.8325" y1="24.1863" x2="92.5427" y2="48.3312" gradientUnits="userSpaceOnUse">
<stop stop-color="#F75700"/>
<stop offset="1" stop-color="#FFC634"/>
</linearGradient>
<linearGradient id="paint9_linear_43_16989" x1="80.1153" y1="33.7731" x2="87.5" y2="48.0003" gradientUnits="userSpaceOnUse">
<stop stop-color="#FFF163"/>
<stop offset="1" stop-color="#F97300"/>
</linearGradient>
<linearGradient id="paint10_linear_43_16989" x1="90" y1="30.2891" x2="90" y2="149.714" gradientUnits="userSpaceOnUse">
<stop stop-color="#FFF9AB"/>
<stop offset="0.52" stop-color="#FFD84C"/>
<stop offset="1" stop-color="#FFF9AB"/>
</linearGradient>
<linearGradient id="paint11_linear_43_16989" x1="106.25" y1="111.723" x2="106.25" y2="163.348" gradientUnits="userSpaceOnUse">
<stop stop-color="#FFC600"/>
<stop offset="1" stop-color="#FFE529"/>
</linearGradient>
<radialGradient id="paint12_radial_43_16989" cx="0" cy="0" r="1" gradientUnits="userSpaceOnUse" gradientTransform="translate(67.5 42) rotate(71.061) scale(107.838)">
<stop stop-color="#FFF699"/>
<stop offset="0.535094" stop-color="#FFCB15"/>
<stop offset="1" stop-color="#FF9500"/>
</radialGradient>
<radialGradient id="paint13_radial_43_16989" cx="0" cy="0" r="1" gradientUnits="userSpaceOnUse" gradientTransform="translate(70 47.3333) rotate(73.7074) scale(94.46)">
<stop stop-color="#FFB800"/>
<stop offset="0.588355" stop-color="#FFC100"/>
<stop offset="1" stop-color="#FFD900"/>
</radialGradient>
<linearGradient id="paint14_linear_43_16989" x1="90" y1="42" x2="90" y2="138" gradientUnits="userSpaceOnUse">
<stop stop-color="#FFBA01"/>
<stop offset="1" stop-color="#FFF2A0"/>
</linearGradient>
<radialGradient id="paint15_radial_43_16989" cx="0" cy="0" r="1" gradientUnits="userSpaceOnUse" gradientTransform="translate(87.75 90) rotate(76.5514) scale(59.1213)">
<stop stop-color="#FFE046"/>
<stop offset="1" stop-color="#FA5915"/>
</radialGradient>
<linearGradient id="paint16_linear_43_16989" x1="90" y1="56" x2="90" y2="98" gradientUnits="userSpaceOnUse">
<stop stop-color="white"/>
<stop offset="1" stop-color="white" stop-opacity="0"/>
</linearGradient>
</defs>
</svg>
