<svg width="180" height="180" viewBox="0 0 180 180" fill="none" xmlns="http://www.w3.org/2000/svg">
<mask id="mask0_43_16988" style="mask-type:alpha" maskUnits="userSpaceOnUse" x="0" y="0" width="180" height="180">
<rect width="180" height="180" fill="#D9D9D9"/>
</mask>
<g mask="url(#mask0_43_16988)">
<g filter="url(#filter0_iii_43_16988)">
<path d="M130 121.5L133.182 87.9265L149.288 82.8206L162.124 76.1185C162.693 75.8217 163.382 76.1937 163.444 76.832C165.636 99.446 162.669 119.285 130 121.5Z" fill="url(#paint0_linear_43_16988)"/>
</g>
<g filter="url(#filter1_iii_43_16988)">
<path d="M166.273 47.5286C156.184 56.0785 142.71 62.3776 130 64.7023L139.818 93.5C176.296 88.1946 170.836 62.4395 167.782 48.0375L167.781 48.0322C167.636 47.3488 166.806 47.077 166.273 47.5286Z" fill="url(#paint1_linear_43_16988)"/>
</g>
<g filter="url(#filter2_iii_43_16988)">
<path d="M50 121.5L46.8176 87.9265L30.7115 82.8206L17.8756 76.1185C17.3071 75.8217 16.6182 76.1937 16.5563 76.832C14.3636 99.446 17.3309 119.285 50 121.5Z" fill="url(#paint2_linear_43_16988)"/>
</g>
<g filter="url(#filter3_iii_43_16988)">
<path d="M13.7268 47.5286C23.8163 56.0785 37.2901 62.3776 50 64.7023L40.1816 93.5C3.70431 88.1946 9.16436 62.4395 12.2176 48.0375L12.2187 48.0322C12.3636 47.3488 13.1938 47.077 13.7268 47.5286Z" fill="url(#paint3_linear_43_16988)"/>
</g>
<path d="M50.5896 67.8556H45.7612L49.1754 64.4414L88.5857 25.0311L89.9999 23.6169L91.4141 25.0311L130.824 64.4414L134.239 67.8556H129.41H50.5896Z" fill="url(#paint4_linear_43_16988)" stroke="#FFB293" stroke-width="4"/>
<path d="M50.5894 65.8556L89.9997 26.4453L89.9998 65.8556H50.5894Z" fill="url(#paint5_linear_43_16988)"/>
<path d="M136.198 113.572L90.0001 159.77L43.8025 113.572H136.198Z" fill="url(#paint6_linear_43_16988)"/>
<path d="M136.198 113.572L90 159.77L90 113.572H136.198Z" fill="url(#paint7_linear_43_16988)"/>
<g filter="url(#filter4_d_43_16988)">
<circle cx="90" cy="90" r="54" fill="url(#paint8_radial_43_16988)"/>
</g>
<g filter="url(#filter5_d_43_16988)">
<circle cx="90" cy="90" r="48" fill="url(#paint9_radial_43_16988)"/>
<circle cx="90" cy="90" r="48" stroke="url(#paint10_linear_43_16988)" stroke-width="1.2"/>
</g>
<g filter="url(#filter6_i_43_16988)">
<circle cx="90" cy="90" r="42" fill="url(#paint11_radial_43_16988)"/>
</g>
<path opacity="0.5" d="M124 90.4068C124 109.409 108.778 86.7576 90 86.7576C71.2223 86.7576 56 109.409 56 90.4068C56 71.4045 71.2223 56 90 56C108.778 56 124 71.4045 124 90.4068Z" fill="url(#paint12_linear_43_16988)"/>
<mask id="path-14-outside-1_43_16988" maskUnits="userSpaceOnUse" x="70" y="70.5" width="40" height="40" fill="black">
<rect fill="white" x="70" y="70.5" width="40" height="40"/>
<path d="M96.4299 105.351C96.287 105.764 96.2155 105.971 96.0858 106.124C95.9712 106.259 95.8248 106.363 95.6599 106.427C95.4732 106.5 95.2544 106.5 94.8169 106.5H84.7932C84.3551 106.5 84.136 106.5 83.9491 106.427C83.7841 106.363 83.6377 106.258 83.5231 106.123C83.3933 105.97 83.322 105.763 83.1795 105.349L73.3402 76.7621C73.0777 75.9993 72.9464 75.6179 73.0205 75.314C73.0854 75.0479 73.2501 74.817 73.4806 74.669C73.7439 74.5 74.1473 74.5 74.954 74.5H81.5014C81.9526 74.5 82.1782 74.5 82.3691 74.5764C82.5376 74.6439 82.6861 74.7532 82.8006 74.8941C82.9302 75.0537 82.9972 75.2691 83.1311 75.7L89.4953 96.1725C89.5503 96.3495 89.7141 96.4701 89.8994 96.4701C90.0857 96.4701 90.2501 96.3483 90.3043 96.1701L96.5303 75.7098C96.6624 75.2756 96.7285 75.0585 96.8581 74.8976C96.9725 74.7556 97.1214 74.6452 97.2906 74.5771C97.4822 74.5 97.7092 74.5 98.163 74.5H104.699C105.507 74.5 105.911 74.5 106.174 74.6693C106.405 74.8174 106.569 75.0486 106.634 75.3149C106.708 75.6192 106.576 76.0009 106.312 76.7643L96.4299 105.351Z"/>
</mask>
<path d="M96.4299 105.351C96.287 105.764 96.2155 105.971 96.0858 106.124C95.9712 106.259 95.8248 106.363 95.6599 106.427C95.4732 106.5 95.2544 106.5 94.8169 106.5H84.7932C84.3551 106.5 84.136 106.5 83.9491 106.427C83.7841 106.363 83.6377 106.258 83.5231 106.123C83.3933 105.97 83.322 105.763 83.1795 105.349L73.3402 76.7621C73.0777 75.9993 72.9464 75.6179 73.0205 75.314C73.0854 75.0479 73.2501 74.817 73.4806 74.669C73.7439 74.5 74.1473 74.5 74.954 74.5H81.5014C81.9526 74.5 82.1782 74.5 82.3691 74.5764C82.5376 74.6439 82.6861 74.7532 82.8006 74.8941C82.9302 75.0537 82.9972 75.2691 83.1311 75.7L89.4953 96.1725C89.5503 96.3495 89.7141 96.4701 89.8994 96.4701C90.0857 96.4701 90.2501 96.3483 90.3043 96.1701L96.5303 75.7098C96.6624 75.2756 96.7285 75.0585 96.8581 74.8976C96.9725 74.7556 97.1214 74.6452 97.2906 74.5771C97.4822 74.5 97.7092 74.5 98.163 74.5H104.699C105.507 74.5 105.911 74.5 106.174 74.6693C106.405 74.8174 106.569 75.0486 106.634 75.3149C106.708 75.6192 106.576 76.0009 106.312 76.7643L96.4299 105.351Z" fill="#FFE4D9"/>
<path d="M106.174 74.6693L107.796 72.1453L106.174 74.6693ZM106.634 75.3149L103.719 76.0229L106.634 75.3149ZM96.5303 75.7098L93.6602 74.8365L96.5303 75.7098ZM96.8581 74.8976L99.1945 76.7793V76.7793L96.8581 74.8976ZM97.2906 74.5771L98.4106 77.3602L97.2906 74.5771ZM90.3043 96.1701L93.1744 97.0435L90.3043 96.1701ZM89.4953 96.1725L92.36 95.282L89.4953 96.1725ZM82.3691 74.5764L83.4841 71.7913L82.3691 74.5764ZM83.1311 75.7L85.9959 74.8095L83.1311 75.7ZM82.8006 74.8941L85.1291 73.0026L82.8006 74.8941ZM73.3402 76.7621L70.5035 77.7385L73.3402 76.7621ZM73.0205 75.314L70.1059 74.6032L73.0205 75.314ZM83.9491 106.427L85.039 103.632L83.9491 106.427ZM83.5231 106.123L85.8112 104.183L83.5231 106.123ZM95.6599 106.427L94.5712 103.632L95.6599 106.427ZM96.0858 106.124L93.7994 104.182L96.0858 106.124ZM94.8169 103.5H84.7932V109.5H94.8169V103.5ZM86.0161 104.372L76.1769 75.7857L70.5035 77.7385L80.3428 106.325L86.0161 104.372ZM74.954 77.5H81.5014V71.5H74.954V77.5ZM80.2663 76.5906L86.6305 97.0631L92.36 95.282L85.9959 74.8095L80.2663 76.5906ZM93.1744 97.0435L99.4004 76.5832L93.6602 74.8365L87.4343 95.2968L93.1744 97.0435ZM98.163 77.5H104.699V71.5H98.163V77.5ZM103.477 75.7841L93.5946 104.371L99.2653 106.331L109.148 77.7444L103.477 75.7841ZM104.699 77.5C104.909 77.5 105.057 77.5001 105.182 77.5022C105.308 77.5044 105.36 77.508 105.372 77.5091C105.384 77.5102 105.298 77.5041 105.159 77.4663C105.007 77.425 104.789 77.3451 104.552 77.1932L107.796 72.1453C107.062 71.6739 106.325 71.5706 105.91 71.5333C105.509 71.4971 105.046 71.5 104.699 71.5V77.5ZM109.148 77.7444C109.261 77.4163 109.415 76.9802 109.512 76.5892C109.612 76.1848 109.755 75.4543 109.549 74.6069L103.719 76.0229C103.653 75.7499 103.648 75.5176 103.659 75.3606C103.669 75.2169 103.691 75.133 103.688 75.1456C103.685 75.1572 103.672 75.2071 103.633 75.3267C103.594 75.4454 103.545 75.5862 103.477 75.7841L109.148 77.7444ZM104.552 77.1932C104.135 76.9247 103.836 76.5056 103.719 76.0229L109.549 74.6069C109.303 73.5916 108.675 72.7101 107.796 72.1453L104.552 77.1932ZM99.4004 76.5832C99.4351 76.469 99.4576 76.3953 99.4769 76.3349C99.496 76.2749 99.5013 76.2622 99.497 76.2733C99.4866 76.3006 99.4007 76.5234 99.1945 76.7793L94.5216 73.0159C93.939 73.7392 93.7156 74.6544 93.6602 74.8365L99.4004 76.5832ZM98.163 71.5C97.9727 71.5 97.0321 71.4473 96.1705 71.7941L98.4106 77.3602C98.1058 77.4829 97.8676 77.5002 97.8384 77.5023C97.8266 77.5031 97.8402 77.5018 97.9032 77.5009C97.9666 77.5001 98.0436 77.5 98.163 77.5V71.5ZM99.1945 76.7793C98.9872 77.0368 98.7173 77.2368 98.4106 77.3602L96.1705 71.7941C95.5255 72.0537 94.9577 72.4743 94.5216 73.0159L99.1945 76.7793ZM89.8994 99.4701C91.4062 99.4701 92.7357 98.485 93.1744 97.0435L87.4343 95.2968C87.7644 94.2117 88.7652 93.4701 89.8994 93.4701V99.4701ZM86.6305 97.0631C87.0755 98.4947 88.4003 99.4701 89.8994 99.4701V93.4701C91.0279 93.4701 92.025 94.2044 92.36 95.282L86.6305 97.0631ZM81.5014 77.5C81.6201 77.5 81.6966 77.5001 81.7596 77.5009C81.8222 77.5018 81.8356 77.5031 81.8237 77.5023C81.7943 77.5002 81.5574 77.483 81.254 77.3615L83.4841 71.7913C82.6262 71.4478 81.6908 71.5 81.5014 71.5V77.5ZM85.9959 74.8095C85.9397 74.6286 85.7118 73.7199 85.1291 73.0026L80.472 76.7857C80.266 76.532 80.1792 76.3109 80.1685 76.2835C80.1642 76.2723 80.1694 76.2848 80.1888 76.3443C80.2083 76.4042 80.2311 76.4772 80.2663 76.5906L85.9959 74.8095ZM81.254 77.3615C80.9486 77.2392 80.6795 77.041 80.472 76.7857L85.1291 73.0026C84.6928 72.4654 84.1266 72.0485 83.4841 71.7913L81.254 77.3615ZM76.1769 75.7857C76.1088 75.588 76.0605 75.4473 76.0219 75.3288C75.9831 75.2093 75.9698 75.1595 75.9669 75.148C75.9639 75.1355 75.9862 75.2195 75.9957 75.3631C76.0061 75.52 76.0016 75.752 75.9351 76.0247L70.1059 74.6032C69.8995 75.4496 70.0416 76.1795 70.1413 76.5839C70.2376 76.9747 70.3907 77.4106 70.5035 77.7385L76.1769 75.7857ZM74.954 71.5C74.6072 71.5 74.1452 71.4971 73.7444 71.5332C73.3295 71.5706 72.5931 71.6738 71.86 72.1444L75.1012 77.1936C74.865 77.3453 74.6471 77.425 74.4954 77.4663C74.3564 77.504 74.2698 77.5102 74.2826 77.509C74.2944 77.508 74.3458 77.5043 74.4714 77.5022C74.5961 77.5001 74.7448 77.5 74.954 77.5V71.5ZM75.9351 76.0247C75.8175 76.507 75.5189 76.9255 75.1012 77.1936L71.86 72.1444C70.9813 72.7085 70.3533 73.5888 70.1059 74.6032L75.9351 76.0247ZM84.7932 103.5C84.6779 103.5 84.6038 103.5 84.5429 103.499C84.4825 103.498 84.4699 103.497 84.4821 103.498C84.5126 103.5 84.743 103.517 85.039 103.632L82.8593 109.222C83.699 109.55 84.6083 109.5 84.7932 109.5V103.5ZM80.3428 106.325C80.403 106.5 80.652 107.376 81.2349 108.063L85.8112 104.183C86.0167 104.425 86.1075 104.638 86.1193 104.666C86.1241 104.677 86.1189 104.666 86.0984 104.609C86.0778 104.551 86.0537 104.481 86.0161 104.372L80.3428 106.325ZM85.039 103.632C85.3382 103.749 85.6036 103.938 85.8112 104.183L81.2349 108.063C81.6717 108.579 82.23 108.977 82.8593 109.222L85.039 103.632ZM94.8169 109.5C95.0016 109.5 95.9097 109.549 96.7487 109.223L94.5712 103.632C94.8669 103.517 95.097 103.5 95.1275 103.498C95.1397 103.497 95.1272 103.498 95.0668 103.499C95.006 103.5 94.9321 103.5 94.8169 103.5V109.5ZM93.5946 104.371C93.5569 104.48 93.5327 104.55 93.5121 104.607C93.4916 104.663 93.4863 104.675 93.4911 104.664C93.5031 104.635 93.594 104.423 93.7994 104.182L98.3721 108.066C98.955 107.38 99.2049 106.506 99.2653 106.331L93.5946 104.371ZM96.7487 109.223C97.3774 108.978 97.9353 108.58 98.3721 108.066L93.7994 104.182C94.0071 103.937 94.2723 103.748 94.5712 103.632L96.7487 109.223Z" fill="black" fill-opacity="0.12" style="mix-blend-mode:plus-darker" mask="url(#path-14-outside-1_43_16988)"/>
<mask id="path-16-inside-2_43_16988" fill="white">
<path d="M96.4299 105.351C96.287 105.764 96.2155 105.971 96.0858 106.124C95.9712 106.259 95.8248 106.363 95.6599 106.427C95.4732 106.5 95.2544 106.5 94.8169 106.5H84.7932C84.3551 106.5 84.136 106.5 83.9491 106.427C83.7841 106.363 83.6377 106.258 83.5231 106.123C83.3933 105.97 83.322 105.763 83.1795 105.349L73.3402 76.7621C73.0777 75.9993 72.9464 75.6179 73.0205 75.314C73.0854 75.0479 73.2501 74.817 73.4806 74.669C73.7439 74.5 74.1473 74.5 74.954 74.5H81.5014C81.9526 74.5 82.1782 74.5 82.3691 74.5764C82.5376 74.6439 82.6861 74.7532 82.8006 74.8941C82.9302 75.0537 82.9972 75.2691 83.1311 75.7L89.4953 96.1725C89.5503 96.3495 89.7141 96.4701 89.8994 96.4701C90.0857 96.4701 90.2501 96.3483 90.3043 96.1701L96.5303 75.7098C96.6624 75.2756 96.7285 75.0585 96.8581 74.8976C96.9725 74.7556 97.1214 74.6452 97.2906 74.5771C97.4822 74.5 97.7092 74.5 98.163 74.5H104.699C105.507 74.5 105.911 74.5 106.174 74.6693C106.405 74.8174 106.569 75.0486 106.634 75.3149C106.708 75.6192 106.576 76.0009 106.312 76.7643L96.4299 105.351Z"/>
</mask>
<path d="M106.174 74.6693L106.715 73.828L106.174 74.6693ZM106.634 75.3149L105.662 75.5509L106.634 75.3149ZM96.5303 75.7098L95.5736 75.4187L96.5303 75.7098ZM96.8581 74.8976L97.6369 75.5249L96.8581 74.8976ZM97.2906 74.5771L97.6639 75.5048L97.2906 74.5771ZM90.3043 96.1701L91.261 96.4612L90.3043 96.1701ZM89.4953 96.1725L90.4502 95.8757L89.4953 96.1725ZM82.3691 74.5764L82.7408 73.6481L82.3691 74.5764ZM83.1311 75.7L84.086 75.4032L83.1311 75.7ZM82.8006 74.8941L83.5767 74.2636L82.8006 74.8941ZM73.3402 76.7621L72.3946 77.0876L73.3402 76.7621ZM73.0205 75.314L72.049 75.077L73.0205 75.314ZM83.9491 106.427L84.3124 105.495L83.9491 106.427ZM83.5231 106.123L84.2858 105.476L83.5231 106.123ZM95.6599 106.427L95.297 105.495L95.6599 106.427ZM96.0858 106.124L95.3236 105.476L96.0858 106.124ZM94.8169 105.5H84.7932V107.5H94.8169V105.5ZM84.125 105.023L74.2858 76.4367L72.3946 77.0876L82.2339 105.674L84.125 105.023ZM74.954 75.5H81.5014V73.5H74.954V75.5ZM82.1762 75.9969L88.5403 96.4694L90.4502 95.8757L84.086 75.4032L82.1762 75.9969ZM91.261 96.4612L97.487 76.0009L95.5736 75.4187L89.3476 95.879L91.261 96.4612ZM98.163 75.5H104.699V73.5H98.163V75.5ZM105.367 76.4376L95.4848 105.024L97.375 105.678L107.257 77.091L105.367 76.4376ZM104.699 75.5C105.122 75.5 105.372 75.501 105.551 75.5171C105.726 75.5329 105.703 75.5549 105.634 75.5106L106.715 73.828C106.382 73.6144 106.025 73.5518 105.73 73.5252C105.44 73.499 105.084 73.5 104.699 73.5V75.5ZM107.257 77.091C107.383 76.7272 107.5 76.3909 107.57 76.108C107.642 75.8206 107.699 75.4628 107.606 75.0789L105.662 75.5509C105.643 75.4713 105.671 75.4565 105.629 75.6268C105.586 75.8017 105.505 76.038 105.367 76.4376L107.257 77.091ZM105.634 75.5106C105.648 75.5198 105.658 75.5343 105.662 75.5509L107.606 75.0789C107.481 74.5629 107.161 74.115 106.715 73.828L105.634 75.5106ZM97.487 76.0009C97.5571 75.7706 97.5953 75.6469 97.6291 75.5586C97.6584 75.4819 97.6624 75.4932 97.6369 75.5249L96.0792 74.2704C95.7987 74.6187 95.6802 75.0685 95.5736 75.4187L97.487 76.0009ZM98.163 73.5C97.797 73.5 97.3322 73.4824 96.9172 73.6494L97.6639 75.5048C97.6262 75.52 97.6166 75.5129 97.6985 75.5072C97.7928 75.5006 97.9223 75.5 98.163 75.5V73.5ZM97.6369 75.5249C97.644 75.516 97.6533 75.5091 97.6639 75.5048L96.9172 73.6494C96.5894 73.7814 96.3009 73.9951 96.0792 74.2704L97.6369 75.5249ZM89.8994 97.4701C90.5259 97.4701 91.0786 97.0605 91.261 96.4612L89.3476 95.879C89.4215 95.6361 89.6455 95.4701 89.8994 95.4701V97.4701ZM88.5403 96.4694C88.7254 97.0646 89.2761 97.4701 89.8994 97.4701V95.4701C90.152 95.4701 90.3752 95.6345 90.4502 95.8757L88.5403 96.4694ZM81.5014 75.5C81.7407 75.5 81.8694 75.5006 81.9632 75.5071C82.0445 75.5128 82.0349 75.5198 81.9974 75.5048L82.7408 73.6481C82.3275 73.4826 81.8653 73.5 81.5014 73.5V75.5ZM84.086 75.4032C83.978 75.0556 83.8574 74.6091 83.5767 74.2636L82.0244 75.5246C81.9989 75.4933 82.0028 75.4821 82.0323 75.558C82.0664 75.6457 82.1051 75.7683 82.1762 75.9969L84.086 75.4032ZM81.9974 75.5048C82.0079 75.509 82.0172 75.5158 82.0244 75.5246L83.5767 74.2636C83.355 73.9906 83.0673 73.7788 82.7408 73.6481L81.9974 75.5048ZM74.2858 76.4367C74.1483 76.0374 74.0681 75.8013 74.0251 75.6267C73.9831 75.4566 74.0114 75.4714 73.9921 75.5509L72.049 75.077C71.9555 75.4605 72.0124 75.818 72.0832 76.1053C72.1529 76.388 72.2695 76.724 72.3946 77.0876L74.2858 76.4367ZM74.954 73.5C74.5695 73.5 74.2138 73.499 73.9238 73.5252C73.6291 73.5517 73.2725 73.6143 72.9404 73.8275L74.0208 75.5106C73.952 75.5548 73.9287 75.5328 74.1032 75.5171C74.2824 75.501 74.5317 75.5 74.954 75.5V73.5ZM73.9921 75.5509C73.9961 75.5342 74.0064 75.5198 74.0208 75.5106L72.9404 73.8275C72.4939 74.1141 72.1747 74.5615 72.049 75.077L73.9921 75.5509ZM84.7932 105.5C84.5607 105.5 84.4362 105.499 84.3454 105.493C84.2669 105.488 84.2761 105.481 84.3124 105.495L83.5859 107.359C83.9904 107.517 84.4395 107.5 84.7932 107.5V105.5ZM82.2339 105.674C82.349 106.009 82.4796 106.439 82.7604 106.77L84.2858 105.476C84.311 105.506 84.3078 105.517 84.2772 105.445C84.2417 105.361 84.2007 105.243 84.125 105.023L82.2339 105.674ZM84.3124 105.495C84.3021 105.491 84.293 105.485 84.2858 105.476L82.7604 106.77C82.9823 107.032 83.2661 107.234 83.5859 107.359L84.3124 105.495ZM94.8169 107.5C95.1702 107.5 95.6187 107.516 96.0228 107.359L95.297 105.495C95.3333 105.481 95.3425 105.488 95.2642 105.493C95.1734 105.499 95.0491 105.5 94.8169 105.5V107.5ZM95.4848 105.024C95.4089 105.244 95.3678 105.361 95.3323 105.445C95.3016 105.517 95.2984 105.506 95.3236 105.476L96.8479 106.771C97.1287 106.441 97.2596 106.012 97.375 105.678L95.4848 105.024ZM96.0228 107.359C96.3424 107.235 96.6259 107.033 96.8479 106.771L95.3236 105.476C95.3165 105.485 95.3073 105.491 95.297 105.495L96.0228 107.359Z" fill="white" fill-opacity="0.25" mask="url(#path-16-inside-2_43_16988)"/>
</g>
<defs>
<filter id="filter0_iii_43_16988" x="129.091" y="72.3811" width="34.9086" height="50.0189" filterUnits="userSpaceOnUse" color-interpolation-filters="sRGB">
<feFlood flood-opacity="0" result="BackgroundImageFix"/>
<feBlend mode="normal" in="SourceGraphic" in2="BackgroundImageFix" result="shape"/>
<feColorMatrix in="SourceAlpha" type="matrix" values="0 0 0 0 0 0 0 0 0 0 0 0 0 0 0 0 0 0 127 0" result="hardAlpha"/>
<feOffset dx="-0.908635" dy="-14.5382"/>
<feGaussianBlur stdDeviation="0.454318"/>
<feComposite in2="hardAlpha" operator="arithmetic" k2="-1" k3="1"/>
<feColorMatrix type="matrix" values="0 0 0 0 0.310612 0 0 0 0 0.300895 0 0 0 0 0.300895 0 0 0 0.15 0"/>
<feBlend mode="color-burn" in2="shape" result="effect1_innerShadow_43_16988"/>
<feColorMatrix in="SourceAlpha" type="matrix" values="0 0 0 0 0 0 0 0 0 0 0 0 0 0 0 0 0 0 127 0" result="hardAlpha"/>
<feOffset dx="-0.908635" dy="-3.63454"/>
<feGaussianBlur stdDeviation="1.81727"/>
<feComposite in2="hardAlpha" operator="arithmetic" k2="-1" k3="1"/>
<feColorMatrix type="matrix" values="0 0 0 0 0 0 0 0 0 0 0 0 0 0 0 0 0 0 0.5 0"/>
<feBlend mode="overlay" in2="effect1_innerShadow_43_16988" result="effect2_innerShadow_43_16988"/>
<feColorMatrix in="SourceAlpha" type="matrix" values="0 0 0 0 0 0 0 0 0 0 0 0 0 0 0 0 0 0 127 0" result="hardAlpha"/>
<feOffset dy="1"/>
<feGaussianBlur stdDeviation="0.45"/>
<feComposite in2="hardAlpha" operator="arithmetic" k2="-1" k3="1"/>
<feColorMatrix type="matrix" values="0 0 0 0 1 0 0 0 0 0.959147 0 0 0 0 0.959147 0 0 0 0.25 0"/>
<feBlend mode="normal" in2="effect2_innerShadow_43_16988" result="effect3_innerShadow_43_16988"/>
</filter>
<filter id="filter1_iii_43_16988" x="129.091" y="43.6721" width="40.9086" height="50.7279" filterUnits="userSpaceOnUse" color-interpolation-filters="sRGB">
<feFlood flood-opacity="0" result="BackgroundImageFix"/>
<feBlend mode="normal" in="SourceGraphic" in2="BackgroundImageFix" result="shape"/>
<feColorMatrix in="SourceAlpha" type="matrix" values="0 0 0 0 0 0 0 0 0 0 0 0 0 0 0 0 0 0 127 0" result="hardAlpha"/>
<feOffset dx="-0.908635" dy="-14.5382"/>
<feGaussianBlur stdDeviation="0.454318"/>
<feComposite in2="hardAlpha" operator="arithmetic" k2="-1" k3="1"/>
<feColorMatrix type="matrix" values="0 0 0 0 0.310612 0 0 0 0 0.300895 0 0 0 0 0.300895 0 0 0 0.15 0"/>
<feBlend mode="color-burn" in2="shape" result="effect1_innerShadow_43_16988"/>
<feColorMatrix in="SourceAlpha" type="matrix" values="0 0 0 0 0 0 0 0 0 0 0 0 0 0 0 0 0 0 127 0" result="hardAlpha"/>
<feOffset dx="-0.908635" dy="-3.63454"/>
<feGaussianBlur stdDeviation="1.81727"/>
<feComposite in2="hardAlpha" operator="arithmetic" k2="-1" k3="1"/>
<feColorMatrix type="matrix" values="0 0 0 0 0 0 0 0 0 0 0 0 0 0 0 0 0 0 0.5 0"/>
<feBlend mode="overlay" in2="effect1_innerShadow_43_16988" result="effect2_innerShadow_43_16988"/>
<feColorMatrix in="SourceAlpha" type="matrix" values="0 0 0 0 0 0 0 0 0 0 0 0 0 0 0 0 0 0 127 0" result="hardAlpha"/>
<feOffset dy="1"/>
<feGaussianBlur stdDeviation="0.45"/>
<feComposite in2="hardAlpha" operator="arithmetic" k2="-1" k3="1"/>
<feColorMatrix type="matrix" values="0 0 0 0 1 0 0 0 0 0.959147 0 0 0 0 0.959147 0 0 0 0.25 0"/>
<feBlend mode="normal" in2="effect2_innerShadow_43_16988" result="effect3_innerShadow_43_16988"/>
</filter>
<filter id="filter2_iii_43_16988" x="15.0914" y="72.3811" width="34.9086" height="50.0189" filterUnits="userSpaceOnUse" color-interpolation-filters="sRGB">
<feFlood flood-opacity="0" result="BackgroundImageFix"/>
<feBlend mode="normal" in="SourceGraphic" in2="BackgroundImageFix" result="shape"/>
<feColorMatrix in="SourceAlpha" type="matrix" values="0 0 0 0 0 0 0 0 0 0 0 0 0 0 0 0 0 0 127 0" result="hardAlpha"/>
<feOffset dx="-0.908635" dy="-14.5382"/>
<feGaussianBlur stdDeviation="0.454318"/>
<feComposite in2="hardAlpha" operator="arithmetic" k2="-1" k3="1"/>
<feColorMatrix type="matrix" values="0 0 0 0 0.310612 0 0 0 0 0.300895 0 0 0 0 0.300895 0 0 0 0.15 0"/>
<feBlend mode="color-burn" in2="shape" result="effect1_innerShadow_43_16988"/>
<feColorMatrix in="SourceAlpha" type="matrix" values="0 0 0 0 0 0 0 0 0 0 0 0 0 0 0 0 0 0 127 0" result="hardAlpha"/>
<feOffset dx="-0.908635" dy="-3.63454"/>
<feGaussianBlur stdDeviation="1.81727"/>
<feComposite in2="hardAlpha" operator="arithmetic" k2="-1" k3="1"/>
<feColorMatrix type="matrix" values="0 0 0 0 0 0 0 0 0 0 0 0 0 0 0 0 0 0 0.5 0"/>
<feBlend mode="overlay" in2="effect1_innerShadow_43_16988" result="effect2_innerShadow_43_16988"/>
<feColorMatrix in="SourceAlpha" type="matrix" values="0 0 0 0 0 0 0 0 0 0 0 0 0 0 0 0 0 0 127 0" result="hardAlpha"/>
<feOffset dy="1"/>
<feGaussianBlur stdDeviation="0.45"/>
<feComposite in2="hardAlpha" operator="arithmetic" k2="-1" k3="1"/>
<feColorMatrix type="matrix" values="0 0 0 0 1 0 0 0 0 0.959147 0 0 0 0 0.959147 0 0 0 0.25 0"/>
<feBlend mode="normal" in2="effect2_innerShadow_43_16988" result="effect3_innerShadow_43_16988"/>
</filter>
<filter id="filter3_iii_43_16988" x="9.09136" y="43.6721" width="40.9086" height="50.7279" filterUnits="userSpaceOnUse" color-interpolation-filters="sRGB">
<feFlood flood-opacity="0" result="BackgroundImageFix"/>
<feBlend mode="normal" in="SourceGraphic" in2="BackgroundImageFix" result="shape"/>
<feColorMatrix in="SourceAlpha" type="matrix" values="0 0 0 0 0 0 0 0 0 0 0 0 0 0 0 0 0 0 127 0" result="hardAlpha"/>
<feOffset dx="-0.908635" dy="-14.5382"/>
<feGaussianBlur stdDeviation="0.454318"/>
<feComposite in2="hardAlpha" operator="arithmetic" k2="-1" k3="1"/>
<feColorMatrix type="matrix" values="0 0 0 0 0.310612 0 0 0 0 0.300895 0 0 0 0 0.300895 0 0 0 0.15 0"/>
<feBlend mode="color-burn" in2="shape" result="effect1_innerShadow_43_16988"/>
<feColorMatrix in="SourceAlpha" type="matrix" values="0 0 0 0 0 0 0 0 0 0 0 0 0 0 0 0 0 0 127 0" result="hardAlpha"/>
<feOffset dx="-0.908635" dy="-3.63454"/>
<feGaussianBlur stdDeviation="1.81727"/>
<feComposite in2="hardAlpha" operator="arithmetic" k2="-1" k3="1"/>
<feColorMatrix type="matrix" values="0 0 0 0 0 0 0 0 0 0 0 0 0 0 0 0 0 0 0.5 0"/>
<feBlend mode="overlay" in2="effect1_innerShadow_43_16988" result="effect2_innerShadow_43_16988"/>
<feColorMatrix in="SourceAlpha" type="matrix" values="0 0 0 0 0 0 0 0 0 0 0 0 0 0 0 0 0 0 127 0" result="hardAlpha"/>
<feOffset dy="1"/>
<feGaussianBlur stdDeviation="0.45"/>
<feComposite in2="hardAlpha" operator="arithmetic" k2="-1" k3="1"/>
<feColorMatrix type="matrix" values="0 0 0 0 1 0 0 0 0 0.959147 0 0 0 0 0.959147 0 0 0 0.25 0"/>
<feBlend mode="normal" in2="effect2_innerShadow_43_16988" result="effect3_innerShadow_43_16988"/>
</filter>
<filter id="filter4_d_43_16988" x="30" y="32" width="120" height="120" filterUnits="userSpaceOnUse" color-interpolation-filters="sRGB">
<feFlood flood-opacity="0" result="BackgroundImageFix"/>
<feColorMatrix in="SourceAlpha" type="matrix" values="0 0 0 0 0 0 0 0 0 0 0 0 0 0 0 0 0 0 127 0" result="hardAlpha"/>
<feOffset dy="2"/>
<feGaussianBlur stdDeviation="3"/>
<feComposite in2="hardAlpha" operator="out"/>
<feColorMatrix type="matrix" values="0 0 0 0 0.764404 0 0 0 0 0.280586 0 0 0 0 0.0780578 0 0 0 1 0"/>
<feBlend mode="color-burn" in2="BackgroundImageFix" result="effect1_dropShadow_43_16988"/>
<feBlend mode="normal" in="SourceGraphic" in2="effect1_dropShadow_43_16988" result="shape"/>
</filter>
<filter id="filter5_d_43_16988" x="38.6999" y="39.7004" width="102.6" height="102.599" filterUnits="userSpaceOnUse" color-interpolation-filters="sRGB">
<feFlood flood-opacity="0" result="BackgroundImageFix"/>
<feColorMatrix in="SourceAlpha" type="matrix" values="0 0 0 0 0 0 0 0 0 0 0 0 0 0 0 0 0 0 127 0" result="hardAlpha"/>
<feOffset dy="1"/>
<feGaussianBlur stdDeviation="1.35"/>
<feComposite in2="hardAlpha" operator="out"/>
<feColorMatrix type="matrix" values="0 0 0 0 0.513411 0 0 0 0 0.247579 0 0 0 0 0.145542 0 0 0 0.2 0"/>
<feBlend mode="normal" in2="BackgroundImageFix" result="effect1_dropShadow_43_16988"/>
<feBlend mode="normal" in="SourceGraphic" in2="effect1_dropShadow_43_16988" result="shape"/>
</filter>
<filter id="filter6_i_43_16988" x="48" y="48" width="88" height="90" filterUnits="userSpaceOnUse" color-interpolation-filters="sRGB">
<feFlood flood-opacity="0" result="BackgroundImageFix"/>
<feBlend mode="normal" in="SourceGraphic" in2="BackgroundImageFix" result="shape"/>
<feColorMatrix in="SourceAlpha" type="matrix" values="0 0 0 0 0 0 0 0 0 0 0 0 0 0 0 0 0 0 127 0" result="hardAlpha"/>
<feOffset dx="4" dy="6"/>
<feGaussianBlur stdDeviation="5"/>
<feComposite in2="hardAlpha" operator="arithmetic" k2="-1" k3="1"/>
<feColorMatrix type="matrix" values="0 0 0 0 0 0 0 0 0 0 0 0 0 0 0 0 0 0 0.2 0"/>
<feBlend mode="plus-darker" in2="shape" result="effect1_innerShadow_43_16988"/>
</filter>
<linearGradient id="paint0_linear_43_16988" x1="159.777" y1="80.0311" x2="136.149" y2="100.165" gradientUnits="userSpaceOnUse">
<stop stop-color="#FFCABF"/>
<stop offset="1" stop-color="#BF4F2F"/>
</linearGradient>
<linearGradient id="paint1_linear_43_16988" x1="164.105" y1="51.1296" x2="139.679" y2="74.4603" gradientUnits="userSpaceOnUse">
<stop stop-color="#FFCABF"/>
<stop offset="1" stop-color="#BF4F2F"/>
</linearGradient>
<linearGradient id="paint2_linear_43_16988" x1="20.2225" y1="80.0311" x2="43.8505" y2="100.165" gradientUnits="userSpaceOnUse">
<stop stop-color="#FFCABF"/>
<stop offset="1" stop-color="#BF4F2F"/>
</linearGradient>
<linearGradient id="paint3_linear_43_16988" x1="15.8949" y1="51.1296" x2="40.3207" y2="74.4603" gradientUnits="userSpaceOnUse">
<stop stop-color="#FFCABF"/>
<stop offset="1" stop-color="#BF4F2F"/>
</linearGradient>
<linearGradient id="paint4_linear_43_16988" x1="91.9808" y1="26.077" x2="92.1691" y2="46.1504" gradientUnits="userSpaceOnUse">
<stop stop-color="#C34C32"/>
<stop offset="1" stop-color="#FFB090"/>
</linearGradient>
<linearGradient id="paint5_linear_43_16988" x1="88.2705" y1="29.2296" x2="81.927" y2="46.1505" gradientUnits="userSpaceOnUse">
<stop stop-color="#FFC8B0"/>
<stop offset="1" stop-color="#E28B69"/>
</linearGradient>
<linearGradient id="paint6_linear_43_16988" x1="88.1675" y1="160.816" x2="87.4573" y2="136.671" gradientUnits="userSpaceOnUse">
<stop stop-color="#FB9B73"/>
<stop offset="1" stop-color="#AD4A24"/>
</linearGradient>
<linearGradient id="paint7_linear_43_16988" x1="112.183" y1="164.028" x2="111.401" y2="146.288" gradientUnits="userSpaceOnUse">
<stop stop-color="#FB9B73"/>
<stop offset="1" stop-color="#AD4A24"/>
</linearGradient>
<radialGradient id="paint8_radial_43_16988" cx="0" cy="0" r="1" gradientUnits="userSpaceOnUse" gradientTransform="translate(57.9513 45.7628) rotate(57.054) scale(108.905)">
<stop stop-color="#FFFCFA"/>
<stop offset="0.21" stop-color="#FFA27A"/>
<stop offset="0.681712" stop-color="#F19F7C"/>
<stop offset="1" stop-color="#B93F13"/>
</radialGradient>
<radialGradient id="paint9_radial_43_16988" cx="0" cy="0" r="1" gradientUnits="userSpaceOnUse" gradientTransform="translate(70 47.3333) rotate(70.9143) scale(93.7959)">
<stop stop-color="#B94C25"/>
<stop offset="0.553078" stop-color="#DC7B52"/>
<stop offset="1" stop-color="#FFAD90"/>
</radialGradient>
<linearGradient id="paint10_linear_43_16988" x1="90" y1="137.5" x2="90" y2="41.5002" gradientUnits="userSpaceOnUse">
<stop stop-color="#FFDBCB"/>
<stop offset="1" stop-color="#D76F47"/>
</linearGradient>
<radialGradient id="paint11_radial_43_16988" cx="0" cy="0" r="1" gradientUnits="userSpaceOnUse" gradientTransform="translate(90 89.5002) rotate(-118.706) scale(47.8853)">
<stop stop-color="#FFB27E"/>
<stop offset="1" stop-color="#B33406"/>
</radialGradient>
<linearGradient id="paint12_linear_43_16988" x1="90" y1="56" x2="90" y2="98" gradientUnits="userSpaceOnUse">
<stop stop-color="white"/>
<stop offset="1" stop-color="white" stop-opacity="0"/>
</linearGradient>
</defs>
</svg>
